G04 ================== begin FILE IDENTIFICATION RECORD ==================*
G04 Layout Name:  C:/CenturyPlan/scxStandard/scxStandard.brd*
G04 Film Name:    BOTTOM*
G04 File Format:  Gerber RS274X*
G04 File Origin:  Cadence Allegro -unreleased*
G04 Origin Date:  Sat Sep 20 16:10:48 2025*
G04 *
G04 Layer:  ETCH/BOTTOM*
G04 Layer:  PIN/BOTTOM*
G04 Layer:  VIA CLASS/BOTTOM*
G04 *
G04 Offset:    (0.000 0.000)*
G04 Mirror:    No*
G04 Mode:      Positive*
G04 Rotation:  0*
G04 FullContactRelief:  No*
G04 UndefLineWidth:     2.000*
G04 ================== end FILE IDENTIFICATION RECORD ====================*
%FSLAX25Y25*MOIN*%
%IR0*IPPOS*OFA0.00000B0.00000*MIA0B0*SFA1.00000B1.00000*%
%ADD27R,.020968X.066559*%
%AMMACRO25*
21,1,.0315,.0709,0.0,0.0,150.339*%
%ADD25MACRO25*%
%AMMACRO23*
4,1,40,.011811,-.02126,
.011811,.02126,
.011765,.021773,
.011631,.022271,
.011413,.022738,
.011116,.02316,
.010751,.023524,
.010329,.023819,
.009861,.024036,
.009363,.024169,
.008858,.024213,
-.008858,.024213,
-.009371,.024167,
-.009869,.024033,
-.010336,.023815,
-.010758,.023518,
-.011122,.023153,
-.011417,.022731,
-.011634,.022263,
-.011767,.021765,
-.011811,.02126,
-.011811,-.02126,
-.011765,-.021773,
-.011631,-.022271,
-.011413,-.022738,
-.011116,-.02316,
-.010751,-.023524,
-.010329,-.023819,
-.009861,-.024036,
-.009363,-.024169,
-.008858,-.024213,
.008858,-.024213,
.009371,-.024167,
.009869,-.024033,
.010336,-.023815,
.010758,-.023518,
.011122,-.023153,
.011417,-.022731,
.011634,-.022263,
.011767,-.021765,
.011811,-.02126,
0.0*
%
%ADD23MACRO23*%
%ADD13C,.024*%
%ADD11C,.039*%
%ADD21R,.011811X.034252*%
%ADD20O,.05315X.043307*%
%ADD16C,.0709*%
%AMMACRO26*
21,1,.0709,.1142,0.0,0.0,150.339*%
%ADD26MACRO26*%
%ADD17C,.0719*%
%ADD24C,.024409*%
%ADD18C,.047244*%
%ADD10C,.03937*%
%ADD22C,.017717*%
%AMMACRO14*
21,1,.043307,.03937,0.0,0.0,45.*%
%ADD14MACRO14*%
%ADD12R,.03937X.043307*%
%ADD15R,.043307X.03937*%
%ADD28R,.031496X.035433*%
%ADD19O,.035433X.027559*%
%ADD29C,.006*%
%ADD30C,.02*%
%ADD31C,.012*%
G75*
%LPD*%
G75*
G36*
G01X55439Y82651D02*
G02X57532Y80681I-1330J-3510D01*
G01X59575Y82846D01*
X57532Y85012D01*
G02X55439Y83042I-3423J1540D01*
G03Y82651I227J-196D01*
G37*
G36*
G01X57850Y76299D02*
G02X56656Y76378I-502J1473D01*
G01X55928Y75421D01*
X56848Y74594D01*
G02X58042Y75788I2030J-836D01*
G03X57850Y76299I-212J212D01*
G37*
G36*
G01X59694Y72091D02*
G02X61468Y73988I3180J-1195D01*
G01X59500Y76228D01*
X57532Y73988D01*
G02X59306Y72091I-1405J-3093D01*
G03X59694I194J229D01*
G37*
G36*
G01X56324Y75812D02*
G02X57566Y74751I-673J-2046D01*
G01X59575Y76157D01*
X57532Y77398D01*
G02X56311Y76172I-2105J873D01*
G03X56324Y75812I246J-171D01*
G37*
G36*
G01X49665Y87138D02*
G02X50301Y86502I-446J-1082D01*
G01X51225Y87350D01*
X50301Y88199D01*
G02X49665Y87562I-1082J446D01*
G03Y87138I212J-212D01*
G37*
G36*
G01X51362Y85866D02*
G02X51998Y86502I1082J-446D01*
G01X51150Y87425D01*
X50301Y86502D01*
G02X50938Y85866I-446J-1082D01*
G03X51362I212J212D01*
G37*
G36*
G01X39515Y487788D02*
G02X40152Y487152I-446J-1082D01*
G01X41075Y488000D01*
X40152Y488848D01*
G02X39515Y488212I-1082J446D01*
G03Y487788I212J-212D01*
G37*
G36*
G01X45400Y501700D02*
G02X44500I-450J1080D01*
G01X44447Y500447D01*
X45700Y500500D01*
G02Y501400I1080J450D01*
G03X45400Y501700I-300J0D01*
G37*
G36*
G01X52300Y501400D02*
G02Y500500I-1080J-450D01*
G01X53553Y500447D01*
X53500Y501700D01*
G02X52600I-450J1080D01*
G03X52300Y501400I0J-300D01*
G37*
G36*
G01X53712Y499015D02*
G02X54348Y499652I1082J-446D01*
G01X53500Y500575D01*
X52651Y499652D01*
G02X53288Y499015I-446J-1082D01*
G03X53712I212J212D01*
G37*
G36*
G01X45486Y501547D02*
G02X46992Y500037I-1077J-2579D01*
G01X49035Y501726D01*
X46992Y503416D01*
G02X45486Y501906I-2582J1070D01*
G03Y501547I240J-180D01*
G37*
G36*
G01X52512Y501908D02*
G02X50928Y503496I1131J2713D01*
G01X48885Y501726D01*
X50928Y499957D01*
G02X52512Y501545I2715J-1125D01*
G03Y501908I-239J182D01*
G37*
G36*
G01X57943Y510747D02*
G02X58580Y511383I1082J-446D01*
G01X57731Y512306D01*
X56883Y511383D01*
G02X57519Y510747I-446J-1082D01*
G03X57943I212J212D01*
G37*
G36*
G01X40228Y511500D02*
G02X40864Y512136I1082J-446D01*
G01X40015Y513060D01*
X39167Y512136D01*
G02X39803Y511500I-446J-1082D01*
G03X40228I212J212D01*
G37*
G36*
G01X48255Y512886D02*
G02X46991Y510585I-3413J376D01*
G01X48968Y508345D01*
X50928Y510585D01*
G02X48698Y512939I1722J3865D01*
G03X48255Y512886I-198J-226D01*
G37*
G36*
G01X44899Y508224D02*
G02X46991Y506254I-1330J-3510D01*
G01X49035Y508420D01*
X46991Y510585D01*
G02X44899Y508615I-3423J1540D01*
G03Y508224I227J-196D01*
G37*
G36*
G01X53021Y508615D02*
G02X50928Y510585I1330J3510D01*
G01X48885Y508420D01*
X50928Y506254D01*
G02X53021Y508224I3423J-1540D01*
G03Y508615I-227J196D01*
G37*
G36*
G01X65005Y63295D02*
G02Y65175I2257J940D01*
G01X63773Y65243D01*
X64000Y64000D01*
X64705Y63295D01*
X65005D01*
G37*
G36*
G01X63561Y83042D02*
G02X61468Y85012I1330J3510D01*
G01X59425Y82846D01*
X61468Y80681D01*
G02X63561Y82651I3423J-1540D01*
G03Y83042I-227J196D01*
G37*
G36*
G01X62515Y75788D02*
G02X63152Y75152I-446J-1082D01*
G01X64075Y76000D01*
X63152Y76849D01*
G02X62515Y76212I-1082J446D01*
G03Y75788I212J-212D01*
G37*
G36*
G01X63714Y76197D02*
G02X61468Y78319I1436J3768D01*
G01X59425Y76156D01*
X61468Y73988D01*
G02X63699Y75788I3286J-1792D01*
G03X63714Y76197I-212J213D01*
G37*
G36*
G01X69078Y85881D02*
G02X69714Y86517I1082J-446D01*
G01X68866Y87441D01*
X68017Y86517D01*
G02X68654Y85881I-446J-1082D01*
G03X69078I212J212D01*
G37*
G36*
G01X75288Y350485D02*
G02X74652Y349848I-1082J446D01*
G01X75500Y348925D01*
X76349Y349848D01*
G02X75712Y350485I446J1082D01*
G03X75288I-212J-212D01*
G37*
G36*
G01X81748Y381948D02*
G02Y382548I720J300D01*
G01X80442Y382654D01*
X80548Y381348D01*
G02X81148I300J-720D01*
G03X81748Y381948I0J600D01*
G37*
G36*
G01X81100Y371700D02*
G02X80500I-300J720D01*
G01X80394Y370394D01*
X81700Y370500D01*
G02Y371100I720J300D01*
G03X81100Y371700I-600J0D01*
G37*
G36*
G01X80272Y382326D02*
G02X80440Y379593I-3277J-1573D01*
G01X83469Y379626D01*
X83502Y382656D01*
G02X80769Y382824I-1160J3445D01*
G03X80272Y382326I95J-592D01*
G37*
G36*
G01X100900Y89700D02*
G02X100000I-450J1080D01*
G01X99947Y88447D01*
X101200Y88500D01*
G02Y89400I1080J450D01*
G03X100900Y89700I-300J0D01*
G37*
G36*
G01X98900Y92200D02*
G02X97000I-950J2280D01*
G01X96932Y90968D01*
X97924Y90924D01*
X98900Y91900D01*
Y92200D01*
G37*
G36*
G01X100831Y179931D02*
G02Y179031I-1080J-450D01*
G01X102084Y178978D01*
X102031Y180231D01*
G02X101131I-450J1080D01*
G03X100831Y179931I0J-300D01*
G37*
G36*
G01X102243Y177546D02*
G02X102879Y178182I1082J-446D01*
G01X102031Y179106D01*
X101182Y178182D01*
G02X101818Y177546I-446J-1082D01*
G03X102243I212J212D01*
G37*
G36*
G01X91984Y178818D02*
G02X92621Y178182I-446J-1082D01*
G01X93544Y179031D01*
X92621Y179879D01*
G02X91984Y179243I-1082J446D01*
G03Y178818I212J-212D01*
G37*
G36*
G01X94369Y180231D02*
G02X93469I-450J1080D01*
G01X93416Y178978D01*
X94669Y179031D01*
G02Y179931I1080J450D01*
G03X94369Y180231I-300J0D01*
G37*
G36*
G01X94345Y179983D02*
G02X95532Y178790I-863J-2044D01*
G01X97575Y180154D01*
X95532Y181517D01*
G02X94345Y180324I-2049J851D01*
G03Y179983I247J-170D01*
G37*
G36*
G01X101244Y180185D02*
G02X99468Y181964I1262J3036D01*
G01X97425Y180157D01*
X99434Y178271D01*
G02X101230Y179798I2745J-1410D01*
G03X101244Y180185I-222J202D01*
G37*
G36*
G01X89065Y188868D02*
G02X89701Y189504I1082J-446D01*
G01X88853Y190428D01*
X88004Y189504D01*
G02X88640Y188868I-446J-1082D01*
G03X89065I212J212D01*
G37*
G36*
G01X93439Y186651D02*
G02X95532Y184681I-1330J-3510D01*
G01X97575Y186846D01*
X95532Y189012D01*
G02X93439Y187042I-3423J1540D01*
G03Y186651I227J-196D01*
G37*
G36*
G01X101561Y187042D02*
G02X99468Y189012I1330J3510D01*
G01X97425Y186846D01*
X99468Y184681D01*
G02X101561Y186651I3423J-1540D01*
G03Y187042I-227J196D01*
G37*
G36*
G01X82900Y299200D02*
G02X82000I-450J1080D01*
G01X81947Y297947D01*
X83200Y298000D01*
G02Y298900I1080J450D01*
G03X82900Y299200I-300J0D01*
G37*
G36*
G01X85712Y300515D02*
G02X86348Y301152I1082J-446D01*
G01X85500Y302075D01*
X84652Y301152D01*
G02X85288Y300515I-446J-1082D01*
G03X85712I212J212D01*
G37*
G36*
G01X84702Y307309D02*
G02X84566Y306172I-1432J-405D01*
G01X85520Y305428D01*
X86348Y306348D01*
G02X85212Y307485I796J1932D01*
G03X84702Y307309I-212J-212D01*
G37*
G36*
G01X88788Y310485D02*
G02X88152Y309848I-1082J446D01*
G01X89000Y308925D01*
X89848Y309848D01*
G02X89212Y310485I446J1082D01*
G03X88788I-212J-212D01*
G37*
G36*
G01X91928Y347807D02*
G02X92828I450J-1080D01*
G01X92881Y349060D01*
X91628Y349007D01*
G02Y348107I-1080J-450D01*
G03X91928Y347807I300J0D01*
G37*
G36*
G01X103600Y353700D02*
G02X103000I-300J720D01*
G01X102894Y352394D01*
X104200Y352500D01*
G02Y353100I720J300D01*
G03X103600Y353700I-600J0D01*
G37*
G36*
G01X97600Y359700D02*
G02X97000I-300J720D01*
G01X96894Y358394D01*
X98200Y358500D01*
G02Y359100I720J300D01*
G03X97600Y359700I-600J0D01*
G37*
G36*
G01X85600Y360700D02*
G02X85000I-300J720D01*
G01X84894Y359394D01*
X86200Y359500D01*
G02Y360100I720J300D01*
G03X85600Y360700I-600J0D01*
G37*
G36*
G01X98050Y359051D02*
G02X100814Y359219I1589J-3314D01*
G01X101065Y362242D01*
X98030Y362003D01*
G02X97545Y359615I-3200J-593D01*
G03X98050Y359051I599J29D01*
G37*
G36*
G01X90943Y364910D02*
G02X94950Y365083I2213J-4778D01*
G01X95218Y368084D01*
X92166Y367867D01*
G02X90469Y365772I-3427J1042D01*
G03X90943Y364910I539J-265D01*
G37*
G36*
G01X102374Y369890D02*
G02X102376Y372508I3164J1307D01*
G01X99775Y372797D01*
X99836Y370094D01*
G02X102053Y369625I542J-2918D01*
G03X102374Y369890I23J299D01*
G37*
G36*
G01X93907Y350207D02*
G02X92828I-540J1295D01*
G01X92771Y348959D01*
X94022Y348949D01*
G02X94202Y349849I1169J235D01*
G03X93907Y350207I-294J59D01*
G37*
G36*
G01X98300Y386900D02*
G02Y386000I-1080J-450D01*
G01X99553Y385947D01*
X99500Y387200D01*
G02X98600I-450J1080D01*
G03X98300Y386900I0J-300D01*
G37*
G36*
G01X90669Y387298D02*
G02X88323Y387300I-1170J2840D01*
G01X88042Y384412D01*
X90930Y384692D01*
G02X90928Y387039I2838J1176D01*
G03X90669Y387298I-298J-39D01*
G37*
G36*
G01X85085Y387198D02*
G02X85172Y384326I-3422J-1541D01*
G01X88148Y384412D01*
X88235Y387388D01*
G02X85362Y387475I-1331J3509D01*
G03X85085Y387198I22J-299D01*
G37*
G36*
G01X100721Y382679D02*
G02X101621I450J-1080D01*
G01X101674Y383932D01*
X100421Y383879D01*
G02Y382979I-1080J-450D01*
G03X100721Y382679I300J0D01*
G37*
G36*
G01X102843Y380557D02*
G02X103743I450J-1080D01*
G01X103796Y381810D01*
X102543Y381757D01*
G02Y380857I-1080J-450D01*
G03X102843Y380557I300J0D01*
G37*
G36*
G01X97551Y403207D02*
G02X96879Y403879I471J1143D01*
G01X95250Y402500D01*
X96879Y401121D01*
G02X97551Y401793I1143J-471D01*
G03Y403207I-707J707D01*
G37*
G36*
G01X82641Y432338D02*
G02X82005Y431702I-1082J446D01*
G01X82854Y430778D01*
X83702Y431702D01*
G02X83066Y432338I446J1082D01*
G03X82641I-212J-212D01*
G37*
G36*
G01X83066Y474369D02*
G02X83848Y475152I1331J-549D01*
G01X83008Y476075D01*
X82109Y475204D01*
G02X82599Y474422I-695J-979D01*
G03X83066Y474369I254J159D01*
G37*
G36*
G01X123848Y95849D02*
G02X123424Y96273I297J721D01*
G01X122426Y95424D01*
X123424Y94576D01*
G02X123848Y95000I721J-297D01*
G03Y95849I-424J424D01*
G37*
G36*
G01X124127Y95082D02*
G02X125988Y93456I-1080J-3115D01*
G01X128304Y95424D01*
X125988Y97393D01*
G02X124127Y95767I-2942J1489D01*
G03Y95082I493J-342D01*
G37*
G36*
G01X124091Y101455D02*
G02X125988Y99680I-1195J-3180D01*
G01X128229Y101649D01*
X125988Y103617D01*
G02X124091Y101843I-3093J1405D01*
G03Y101455I229J-194D01*
G37*
G36*
G01X114015Y161288D02*
G02X114652Y160652I-446J-1082D01*
G01X115575Y161500D01*
X114652Y162348D01*
G02X114015Y161712I-1082J446D01*
G03Y161288I212J-212D01*
G37*
G36*
G01X106357Y191916D02*
G02X105720Y191280I-1082J446D01*
G01X106569Y190356D01*
X107417Y191280D01*
G02X106781Y191916I446J1082D01*
G03X106357I-212J-212D01*
G37*
G36*
G01X106781Y188946D02*
G02X107417Y189583I1082J-446D01*
G01X106569Y190506D01*
X105720Y189583D01*
G02X106357Y188946I-446J-1082D01*
G03X106781I212J212D01*
G37*
G36*
G01X108576Y338773D02*
G02X108152Y338349I-721J297D01*
G01X109000Y337350D01*
X109848Y338349D01*
G02X109424Y338773I297J721D01*
G03X108576I-424J-424D01*
G37*
G36*
G01X116100Y342700D02*
G02X115500I-300J720D01*
G01X115394Y341394D01*
X116700Y341500D01*
G02Y342100I720J300D01*
G03X116100Y342700I-600J0D01*
G37*
G36*
G01X127598Y336457D02*
G02X127173Y338888I2796J1742D01*
G01X124292Y338786D01*
X124401Y335900D01*
G02X127135Y335915I1386J-3356D01*
G03X127598Y336457I-135J585D01*
G37*
G36*
G01X115940Y341453D02*
G02X118404Y341629I1450J-2959D01*
G01X118649Y344659D01*
X115620Y344413D01*
G02X115454Y341938I-3143J-1032D01*
G03X115940Y341453I591J106D01*
G37*
G36*
G01X110075Y347327D02*
G02X112540Y347493I1438J-2967D01*
G01X112786Y350522D01*
X109757Y350277D01*
G02X109590Y347811I-3133J-1027D01*
G03X110075Y347327I591J106D01*
G37*
G36*
G01X104100Y336300D02*
G02X105000I450J-1080D01*
G01X105053Y337553D01*
X103800Y337500D01*
G02Y336600I-1080J-450D01*
G03X104100Y336300I300J0D01*
G37*
G36*
G01X126376Y346936D02*
G02X125983Y349307I2671J1661D01*
G01X123218Y349333D01*
X123398Y346624D01*
G02X126109Y346626I1358J-3272D01*
G03X126376Y346936I-33J298D01*
G37*
G36*
G01X104176Y353190D02*
G02X106677Y353356I1456J-3008D01*
G01X106923Y356384D01*
X103893Y356140D01*
G02X103688Y353683I-3141J-975D01*
G03X104176Y353190I592J97D01*
G37*
G36*
G01X116100Y365300D02*
G02X117500I700J-1680D01*
G01X117563Y366541D01*
X116338Y366646D01*
G02X115838Y365746I-1330J150D01*
G03X116100Y365300I262J-146D01*
G37*
G36*
G01X114280Y364059D02*
G02X111688Y363935I-1446J3070D01*
G01X111496Y360958D01*
X114472Y361151D01*
G02X114559Y363784I3223J1212D01*
G03X114280Y364059I-299J-24D01*
G37*
G36*
G01X113797Y358455D02*
G02X113800Y360479I2459J1008D01*
G01X111503Y361071D01*
X111759Y358563D01*
G02X113489Y358200I423J-2287D01*
G03X113797Y358455I11J300D01*
G37*
G36*
G01X113515Y369288D02*
G02X114152Y368652I-446J-1082D01*
G01X115075Y369500D01*
X114152Y370348D01*
G02X113515Y369712I-1082J446D01*
G03Y369288I212J-212D01*
G37*
G36*
G01X107872Y364376D02*
G02X107876Y366281I2316J948D01*
G01X105640Y366934D01*
X105936Y364466D01*
G02X107568Y364124I399J-2162D01*
G03X107872Y364376I8J300D01*
G37*
G36*
G01X108346Y369798D02*
G02X105825Y369798I-1260J3047D01*
G01X105633Y366822D01*
X108609Y367014D01*
G02X108608Y369536I3047J1261D01*
G03X108346Y369798I-298J-36D01*
G37*
G36*
G01X123798Y364191D02*
G02X123934Y365328I1432J405D01*
G01X122980Y366072D01*
X122152Y365152D01*
G02X123288Y364015I-796J-1932D01*
G03X123798Y364191I212J212D01*
G37*
G36*
G01X120148Y358158D02*
G02X117551Y358072I-1403J3093D01*
G01X117359Y355096D01*
X120335Y355288D01*
G02X120422Y357884I3180J1193D01*
G03X120148Y358158I-299J-25D01*
G37*
G36*
G01X120374Y352397D02*
G02X120335Y355288I3468J1492D01*
G01X117360Y355202D01*
X117273Y352225D01*
G02X120097Y352125I1291J-3459D01*
G03X120374Y352397I-21J299D01*
G37*
G36*
G01X115207Y357126D02*
G02X115200Y355720I-1731J-694D01*
G01X117465Y355096D01*
X116841Y357361D01*
G02X115434Y357354I-712J1724D01*
G03X115207Y357126I66J-293D01*
G37*
G36*
G01X126011Y352295D02*
G02X123415Y352208I-1403J3093D01*
G01X123222Y349232D01*
X126198Y349424D01*
G02X126285Y352021I3180J1193D01*
G03X126011Y352295I-299J-25D01*
G37*
G36*
G01X108005Y389980D02*
G02X109819Y392032I3431J-1205D01*
G01X107654Y394150D01*
X105488Y392032D01*
G02X107302Y389980I-1617J-3257D01*
G03X108005I351J486D01*
G37*
G36*
G01X121788Y374985D02*
G02X121152Y374348I-1082J446D01*
G01X122000Y373425D01*
X122848Y374348D01*
G02X122212Y374985I446J1082D01*
G03X121788I-212J-212D01*
G37*
G36*
G01X117300Y379400D02*
G02Y378500I-1080J-450D01*
G01X118553Y378447D01*
X118500Y379700D01*
G02X117600I-450J1080D01*
G03X117300Y379400I0J-300D01*
G37*
G36*
G01X114542Y389939D02*
G02X116512Y392032I3510J-1330D01*
G01X114346Y394075D01*
X112181Y392032D01*
G02X114151Y389939I-1540J-3423D01*
G03X114542I196J227D01*
G37*
G36*
G01X103622Y402059D02*
G02X105488Y400532I-1081J-3224D01*
G01X107904Y402500D01*
X105488Y404469D01*
G02X103622Y402941I-2947J1697D01*
G03Y402059I897J-441D01*
G37*
G36*
G01X114542Y398439D02*
G02X116512Y400532I3510J-1330D01*
G01X114346Y402575D01*
X112181Y400532D01*
G02X114151Y398439I-1540J-3423D01*
G03X114542I196J227D01*
G37*
G36*
G01X114151Y398061D02*
G02X112181Y395968I-3510J1330D01*
G01X114346Y393925D01*
X116512Y395968D01*
G02X114542Y398061I1540J3423D01*
G03X114151I-196J-227D01*
G37*
G36*
G01X122212Y423015D02*
G02X122848Y423652I1082J-446D01*
G01X122000Y424575D01*
X121152Y423652D01*
G02X121788Y423015I-446J-1082D01*
G03X122212I212J212D01*
G37*
G36*
G01X124639Y560134D02*
G02X124002Y559498I-1082J446D01*
G01X124851Y558574D01*
X125699Y559498D01*
G02X125063Y560134I446J1082D01*
G03X124639I-212J-212D01*
G37*
G36*
G01X125063Y557164D02*
G02X125699Y557801I1082J-446D01*
G01X124851Y558724D01*
X124002Y557801D01*
G02X124639Y557164I-446J-1082D01*
G03X125063I212J212D01*
G37*
G36*
G01X125045Y560440D02*
G02X126819Y562337I3180J-1195D01*
G01X124851Y564577D01*
X122882Y562337D01*
G02X124657Y560440I-1405J-3093D01*
G03X125045I194J229D01*
G37*
G36*
G01X117212Y573015D02*
G02X117848Y573652I1082J-446D01*
G01X117000Y574575D01*
X116152Y573652D01*
G02X116788Y573015I-446J-1082D01*
G03X117212I212J212D01*
G37*
G36*
G01X128912Y571391D02*
G02X126819Y573361I1330J3510D01*
G01X124776Y571195D01*
X126819Y569030D01*
G02X128912Y570999I3423J-1540D01*
G03Y571391I-227J196D01*
G37*
G36*
G01X124657Y575258D02*
G02X122882Y573361I-3180J1195D01*
G01X124851Y571120D01*
X126819Y573361D01*
G02X125045Y575258I1405J3093D01*
G03X124657I-194J-229D01*
G37*
G36*
G01X120790Y570999D02*
G02X122882Y569030I-1330J-3510D01*
G01X124926Y571195D01*
X122882Y573361D01*
G02X120790Y571391I-3423J1540D01*
G03Y570999I227J-196D01*
G37*
G36*
G01X136727Y82922D02*
G02X137152Y82498I-297J-721D01*
G01X138150Y83346D01*
X137152Y84195D01*
G02X136727Y83771I-721J297D01*
G03Y82922I424J-424D01*
G37*
G36*
G01X128505Y85180D02*
G02X130319Y87232I3431J-1205D01*
G01X128154Y89350D01*
X125988Y87232D01*
G02X127802Y85180I-1617J-3257D01*
G03X128505I352J486D01*
G37*
G36*
G01X134651Y105710D02*
G02X132681Y103617I-3510J1330D01*
G01X134846Y101574D01*
X137012Y103617D01*
G02X135042Y105710I1540J3423D01*
G03X134651I-196J-227D01*
G37*
G36*
G01X139224Y101529D02*
G02X137012Y103617I1413J3711D01*
G01X134772Y101654D01*
X137012Y99680D01*
G02X139189Y101101I2806J-1920D01*
G03X139224Y101529I-192J231D01*
G37*
G36*
G01X129100Y106800D02*
G02X130000I450J-1080D01*
G01X130053Y108053D01*
X128800Y108000D01*
G02Y107100I-1080J-450D01*
G03X129100Y106800I300J0D01*
G37*
G36*
G01X127958Y105710D02*
G02X125988Y103617I-3510J1330D01*
G01X128154Y101574D01*
X130319Y103617D01*
G02X128349Y105710I1540J3423D01*
G03X127958I-196J-227D01*
G37*
G36*
G01X135042Y91363D02*
G02X137012Y93456I3510J-1330D01*
G01X134846Y95499D01*
X132681Y93456D01*
G02X134651Y91363I-1540J-3423D01*
G03X135042I196J227D01*
G37*
G36*
G01X134651Y93261D02*
G02X132681Y91168I-3510J1330D01*
G01X134846Y89125D01*
X137012Y91168D01*
G02X135042Y93261I1540J3423D01*
G03X134651I-196J-227D01*
G37*
G36*
G01X139185Y89742D02*
G02X137012Y91168I637J3338D01*
G01X134772Y89194D01*
X137012Y87232D01*
G02X139219Y89315I3617J-1620D01*
G03X139185Y89742I-227J197D01*
G37*
G36*
G01X135200Y120400D02*
G02Y119500I-1080J-450D01*
G01X136453Y119447D01*
X136400Y120700D01*
G02X135500I-450J1080D01*
G03X135200Y120400I0J-300D01*
G37*
G36*
G01X126750Y112200D02*
G02X125850I-450J1080D01*
G01X125797Y110947D01*
X127050Y111000D01*
G02Y111900I1080J450D01*
G03X126750Y112200I-300J0D01*
G37*
G36*
G01X136212Y304015D02*
G02X136848Y304652I1082J-446D01*
G01X136000Y305575D01*
X135152Y304652D01*
G02X135788Y304015I-446J-1082D01*
G03X136212I212J212D01*
G37*
G36*
G01X140712Y307015D02*
G02X141348Y307652I1082J-446D01*
G01X140500Y308575D01*
X139652Y307652D01*
G02X140288Y307015I-446J-1082D01*
G03X140712I212J212D01*
G37*
G36*
G01X127404Y313104D02*
G02X128680I638J-1532D01*
G01X128742Y314347D01*
X127504Y314420D01*
G02X127127Y313520I-1268J2D01*
G03X127404Y313104I277J-116D01*
G37*
G36*
G01X131545Y346080D02*
G02X129540Y346083I-999J2436D01*
G01X129086Y343369D01*
X131800Y343823D01*
G02X131796Y345828I2432J1007D01*
G03X131545Y346080I-297J-45D01*
G37*
G36*
G01X131700Y357100D02*
G02Y358000I1080J450D01*
G01X130447Y358053D01*
X130500Y356800D01*
G02X131400I450J-1080D01*
G03X131700Y357100I0J300D01*
G37*
G36*
G01X134788Y354485D02*
G02X134152Y353848I-1082J446D01*
G01X135000Y352925D01*
X135848Y353848D01*
G02X135212Y354485I446J1082D01*
G03X134788I-212J-212D01*
G37*
G36*
G01X127212Y364015D02*
G02X127848Y364652I1082J-446D01*
G01X127000Y365575D01*
X126152Y364652D01*
G02X126788Y364015I-446J-1082D01*
G03X127212I212J212D01*
G37*
G36*
G01X134712Y573515D02*
G02X135348Y574151I1082J-446D01*
G01X134500Y575075D01*
X133651Y574151D01*
G02X134288Y573515I-446J-1082D01*
G03X134712I212J212D01*
G37*
G36*
G01X135985Y575212D02*
G02X135348Y575848I446J1082D01*
G01X134425Y575000D01*
X135348Y574151D01*
G02X135985Y574788I1082J-446D01*
G03Y575212I-212J212D01*
G37*
G36*
G01X163300Y76400D02*
G02Y75500I-1080J-450D01*
G01X164553Y75447D01*
X164500Y76700D01*
G02X163600I-450J1080D01*
G03X163300Y76400I0J-300D01*
G37*
G36*
G01X147588Y101120D02*
G02X149882Y98825I-1606J-3901D01*
G01X152464Y101332D01*
X149882Y103839D01*
G02X147588Y101544I-3901J1606D01*
G03Y101120I212J-212D01*
G37*
G36*
G01X164288Y102485D02*
G02X163652Y101849I-1082J446D01*
G01X164500Y100925D01*
X165348Y101849D01*
G02X164712Y102485I446J1082D01*
G03X164288I-212J-212D01*
G37*
G36*
G01X147588Y89300D02*
G02X149882Y87005I-1606J-3901D01*
G01X152464Y89512D01*
X149882Y92019D01*
G02X147588Y89724I-3901J1606D01*
G03Y89300I212J-212D01*
G37*
G36*
G01X156724Y89724D02*
G02X154896Y91553I1280J3108D01*
G01X152314Y89512D01*
X154896Y87471D01*
G02X156724Y89300I3108J-1280D01*
G03Y89724I-212J212D01*
G37*
G36*
G01X162654Y131554D02*
G02Y130604I-1140J-475D01*
G01X164780Y130427D01*
X164604Y132554D01*
G02X163654I-475J1140D01*
G03X162654Y131554I0J-1000D01*
G37*
G36*
G01X163127Y131986D02*
G02X164819Y134032I3496J-1168D01*
G01X162654Y136250D01*
X160488Y134032D01*
G02X162180Y131986I-1805J-3214D01*
G03X163127I474J881D01*
G37*
G36*
G01X168788Y193485D02*
G02X168152Y192848I-1082J446D01*
G01X169000Y191925D01*
X169848Y192848D01*
G02X169212Y193485I446J1082D01*
G03X168788I-212J-212D01*
G37*
G36*
G01X151985Y176212D02*
G02X151348Y176848I446J1082D01*
G01X150425Y176000D01*
X151348Y175152D01*
G02X151985Y175788I1082J-446D01*
G03Y176212I-212J212D01*
G37*
G36*
G01X155515Y175788D02*
G02X156152Y175152I-446J-1082D01*
G01X157075Y176000D01*
X156152Y176848D01*
G02X155515Y176212I-1082J446D01*
G03Y175788I212J-212D01*
G37*
G36*
G01X163651Y305561D02*
G02X161681Y303468I-3510J1330D01*
G01X163846Y301425D01*
X166012Y303468D01*
G02X164042Y305561I1540J3423D01*
G03X163651I-196J-227D01*
G37*
G36*
G01X167909Y301694D02*
G02X166012Y303468I1195J3180D01*
G01X163772Y301500D01*
X166012Y299532D01*
G02X167909Y301306I3093J-1405D01*
G03Y301694I-229J194D01*
G37*
G36*
G01X156958Y305561D02*
G02X154988Y303468I-3510J1330D01*
G01X157154Y301425D01*
X159319Y303468D01*
G02X157349Y305561I1540J3423D01*
G03X156958I-196J-227D01*
G37*
G36*
G01X161808Y322580D02*
G02X161004Y324642I2072J1997D01*
G01X158601Y324577D01*
X158662Y322171D01*
G02X161529I1433J-3440D01*
G03X161808Y322580I0J300D01*
G37*
G36*
G01X155534Y316447D02*
G02X156992Y314989I-1021J-2479D01*
G01X158737Y316659D01*
X156992Y318330D01*
G02X155534Y316872I-2479J1021D01*
G03Y316447I212J-212D01*
G37*
G36*
G01X157366Y312130D02*
G02X160225Y314989I4861J-2001D01*
G01X158687Y316730D01*
X157154Y315151D01*
Y312342D01*
X157366Y312130D01*
G37*
G36*
G01X177411Y59911D02*
G02X179706Y62205I3900J-1606D01*
G01X177199Y64787D01*
X174692Y62205D01*
G02X176987Y59911I-1606J-3901D01*
G03X177411I212J212D01*
G37*
G36*
G01X187251Y63141D02*
G02X189546Y65435I3900J-1606D01*
G01X187039Y68017D01*
X184532Y65435D01*
G02X186827Y63141I-1606J-3901D01*
G03X187251I212J212D01*
G37*
G36*
G01X193800Y126344D02*
G02X191506Y128639I1606J3901D01*
G01X188924Y126132D01*
X191506Y123625D01*
G02X193800Y125920I3901J-1606D01*
G03Y126344I-212J212D01*
G37*
G36*
G01X174358Y117970D02*
G02X176652Y115675I-1606J-3901D01*
G01X179234Y118182D01*
X176652Y120689D01*
G02X174358Y118394I-3901J1606D01*
G03Y117970I212J-212D01*
G37*
G36*
G01X173450Y145450D02*
X172500Y144500D01*
X172390Y143275D01*
X174450Y143500D01*
G02Y145450I2340J975D01*
G01X173450D01*
G37*
G36*
G01X189209Y144983D02*
G02X189667Y145543I967J-324D01*
G01X189077Y147330D01*
X188486Y145543D01*
G02X188944Y144983I-509J-884D01*
G03X189209I132J269D01*
G37*
G36*
G01X185007Y149528D02*
G02X184549Y148968I-967J324D01*
G01X185140Y147180D01*
X185730Y148968D01*
G02X185272Y149528I509J884D01*
G03X185007I-132J-269D01*
G37*
G36*
G01X173409Y136194D02*
G02X171512Y137968I1195J3180D01*
G01X169272Y136000D01*
X171512Y134032D01*
G02X173409Y135806I3093J-1405D01*
G03Y136194I-229J194D01*
G37*
G36*
G01X187240Y144983D02*
G02X187699Y145543I967J-324D01*
G01X187108Y147330D01*
X186518Y145543D01*
G02X186976Y144983I-508J-883D01*
G03X187240I132J269D01*
G37*
G36*
G01X191178D02*
G02X191636Y145543I967J-324D01*
G01X191045Y147330D01*
X190455Y145543D01*
G02X190913Y144983I-509J-884D01*
G03X191178I132J269D01*
G37*
G36*
G01X190913Y156339D02*
G02X190455Y155779I-967J324D01*
G01X191045Y153992D01*
X191636Y155779D01*
G02X191178Y156339I509J884D01*
G03X190913I-132J-269D01*
G37*
G36*
G01X185352Y166015D02*
G02X185988Y166652I1083J-446D01*
G01X185140Y167575D01*
X184291Y166652D01*
G02X184927Y166015I-446J-1082D01*
G03X185352Y166015I212J212D01*
G37*
G36*
G01X185007Y156339D02*
G02X184549Y155779I-967J324D01*
G01X185140Y153992D01*
X185730Y155779D01*
G02X185272Y156339I509J884D01*
G03X185007I-132J-269D01*
G37*
G36*
G01X185272Y151794D02*
G02X185730Y152354I967J-324D01*
G01X185140Y154142D01*
X184549Y152354D01*
G02X185007Y151794I-509J-884D01*
G03X185272I132J269D01*
G37*
G36*
G01X188944Y156339D02*
G02X188486Y155779I-967J325D01*
G01X189077Y153992D01*
X189667Y155779D01*
G02X189209Y156339I510J884D01*
G03X188944Y156339I-133J-269D01*
G37*
G36*
G01X175288Y242485D02*
G02X174652Y241848I-1082J446D01*
G01X175500Y240925D01*
X176348Y241848D01*
G02X175712Y242485I446J1082D01*
G03X175288I-212J-212D01*
G37*
G36*
G01X182900Y265192D02*
G02X182000I-450J1080D01*
G01X181947Y263939D01*
X183200Y263992D01*
G02Y264892I1080J450D01*
G03X182900Y265192I-300J0D01*
G37*
G36*
G01X181612Y339015D02*
G02X182248Y339652I1082J-446D01*
G01X181400Y340575D01*
X180552Y339652D01*
G02X181188Y339015I-446J-1082D01*
G03X181612I212J212D01*
G37*
G36*
G01X181201Y367213D02*
G02X181838Y367849I1082J-446D01*
G01X180989Y368773D01*
X180141Y367849D01*
G02X180777Y367213I-446J-1082D01*
G03X181201I212J212D01*
G37*
G36*
G01X189600Y365800D02*
G02X190500Y365800I450J-1080D01*
G01X190553Y367053D01*
X189300Y367000D01*
G02X189300Y366100I-1080J-450D01*
G03X189600Y365800I300J0D01*
G37*
G36*
G01X180100Y378800D02*
G02X181000I450J-1080D01*
G01X181053Y380053D01*
X179800Y380000D01*
G02Y379100I-1080J-450D01*
G03X180100Y378800I300J0D01*
G37*
G36*
G01X181100Y383300D02*
G02X182000I450J-1080D01*
G01X182053Y384553D01*
X180800Y384500D01*
G02Y383600I-1080J-450D01*
G03X181100Y383300I300J0D01*
G37*
G36*
G01X174212Y382015D02*
G02X174848Y382652I1082J-446D01*
G01X174000Y383575D01*
X173152Y382652D01*
G02X173788Y382015I-446J-1082D01*
G03X174212I212J212D01*
G37*
G36*
G01X189000Y405200D02*
G02X190500I750J-1801D01*
G01X190564Y406438D01*
X189351Y406566D01*
G02X188750Y405666I-1380J270D01*
G03X189000Y405200I250J-166D01*
G37*
G36*
G01X182700Y430600D02*
G02Y431500I1080J450D01*
G01X181447Y431553D01*
X181500Y430300D01*
G02X182400I450J-1080D01*
G03X182700Y430600I0J300D01*
G37*
G36*
G01X187541Y458212D02*
G02X187126Y458626I290J704D01*
G01X186425Y458000D01*
X187126Y457374D01*
G02X187541Y457788I704J-290D01*
G03Y458212I-212J212D01*
G37*
G36*
G01X180336Y442136D02*
G02X179750Y442136I-293J703D01*
G01X179697Y441197D01*
X180636Y441250D01*
G02X180636Y441836I703J293D01*
G03X180336Y442136I-300J0D01*
G37*
G36*
G01X190541Y460212D02*
G02X189626Y461126I640J1554D01*
G01X188930Y460526D01*
X189500Y460000D01*
X190328D01*
X190541Y460212D01*
G37*
G36*
G01X180788Y509985D02*
G02X180152Y509348I-1082J446D01*
G01X181000Y508425D01*
X181848Y509348D01*
G02X181212Y509985I446J1082D01*
G03X180788I-212J-212D01*
G37*
G36*
G01X190730Y513193D02*
G02X189522Y514165I585J1963D01*
G01X187526Y512786D01*
X189569Y511645D01*
G02X190747Y512830I2035J-844D01*
G03X190730Y513193I-247J170D01*
G37*
G36*
G01X183540Y512595D02*
G02X185632Y510626I-1330J-3510D01*
G01X187676Y512791D01*
X185632Y514956D01*
G02X183540Y512987I-3423J1540D01*
G03Y512595I227J-196D01*
G37*
G36*
G01X177553Y522856D02*
G02X178189Y523492I1082J-446D01*
G01X177340Y524416D01*
X176492Y523492D01*
G02X177128Y522856I-446J-1082D01*
G03X177553I212J212D01*
G37*
G36*
G01X187294Y523636D02*
G02X185632Y521649I-3232J1014D01*
G01X187603Y519409D01*
X189569Y521649D01*
G02X187695Y523647I1473J3261D01*
G03X187294Y523636I-195J-228D01*
G37*
G36*
G01X183540Y519288D02*
G02X185632Y517319I-1330J-3510D01*
G01X187676Y519484D01*
X185632Y521649D01*
G02X183540Y519680I-3423J1540D01*
G03Y519288I227J-196D01*
G37*
G36*
G01X191662Y519680D02*
G02X189569Y521649I1330J3510D01*
G01X187526Y519484D01*
X189569Y517319D01*
G02X191662Y519288I3423J-1540D01*
G03Y519680I-227J196D01*
G37*
G36*
G01X206400Y58700D02*
G02X205000I-700J1680D01*
G01X204937Y57459D01*
X206162Y57354D01*
G02X206662Y58254I1330J-150D01*
G03X206400Y58700I-262J146D01*
G37*
G36*
G01X207449Y145793D02*
G02X208121Y145121I-471J-1143D01*
G01X209750Y146500D01*
X208121Y147879D01*
G02X207449Y147207I-1143J471D01*
G03Y145793I707J-707D01*
G37*
G36*
G01X194850Y149528D02*
G02X194392Y148968I-967J324D01*
G01X194982Y147180D01*
X195573Y148968D01*
G02X195115Y149528I509J884D01*
G03X194850I-132J-269D01*
G37*
G36*
G01X195414Y166114D02*
G02X196000Y166114I293J-703D01*
G01X196053Y167053D01*
X195114Y167000D01*
G02X195114Y166414I-703J-293D01*
G03X195414Y166114I300J0D01*
G37*
G36*
G01X194850Y156339D02*
G02X194392Y155779I-967J324D01*
G01X194982Y153992D01*
X195573Y155779D01*
G02X195115Y156339I509J884D01*
G03X194850I-132J-269D01*
G37*
G36*
G01X195115Y151794D02*
G02X195573Y152354I967J-324D01*
G01X194982Y154142D01*
X194392Y152354D01*
G02X194850Y151794I-509J-884D01*
G03X195115I132J269D01*
G37*
G36*
G01X203801Y169788D02*
G02X206032Y167988I-1056J-3591D01*
G01X208075Y170156D01*
X206032Y172319D01*
G02X203786Y170197I-3681J1646D01*
G03X203801Y169788I226J-197D01*
G37*
G36*
G01X192881Y156339D02*
G02X192423Y155779I-967J324D01*
G01X193014Y153992D01*
X193604Y155779D01*
G02X193146Y156339I508J883D01*
G03X192881I-132J-269D01*
G37*
G36*
G01X205204Y177554D02*
G02X204532Y178225I471J1143D01*
G01X202904Y176846D01*
X204532Y175468D01*
G02X205204Y176139I1143J-471D01*
G03Y177554I-707J707D01*
G37*
G36*
G01X203986Y176373D02*
G02X206032Y174681I-1168J-3496D01*
G01X208250Y176846D01*
X206032Y179012D01*
G02X203986Y177320I-3214J1805D01*
G03Y176373I881J-474D01*
G37*
G36*
G01X205800Y194900D02*
G02Y194000I-1080J-450D01*
G01X207053Y193947D01*
X207000Y195200D01*
G02X206100I-450J1080D01*
G03X205800Y194900I0J-300D01*
G37*
G36*
G01X191288Y219985D02*
G02X190652Y219349I-1082J446D01*
G01X191500Y218425D01*
X192348Y219349D01*
G02X191712Y219985I446J1082D01*
G03X191288I-212J-212D01*
G37*
G36*
G01X193309Y346161D02*
G02X193723Y345747I-290J-704D01*
G01X194425Y346373D01*
X193723Y346999D01*
G02X193309Y346585I-704J290D01*
G03Y346161I212J-212D01*
G37*
G36*
G01X192353Y343744D02*
G02X192651Y343158I-554J-650D01*
G01X193567Y343252D01*
X193504Y344179D01*
G02X192621Y344179I-442J1060D01*
G03X192353Y343744I0J-300D01*
G37*
G36*
G01X203600Y396800D02*
G02X204500I450J-1080D01*
G01X204553Y398053D01*
X203300Y398000D01*
G02Y397100I-1080J-450D01*
G03X203600Y396800I300J0D01*
G37*
G36*
G01X212500Y442672D02*
Y443500D01*
X211974Y444070D01*
X211374Y443374D01*
G02X212288Y442459I-640J-1554D01*
G01X212500Y442672D01*
G37*
G36*
G01X211727Y465576D02*
G02X212152Y465152I-297J-721D01*
G01X213150Y466000D01*
X212152Y466848D01*
G02X211727Y466424I-721J297D01*
G03Y465576I424J-424D01*
G37*
G36*
G01X211873Y466342D02*
G02X210012Y467968I1080J3115D01*
G01X207697Y466000D01*
X210012Y464031D01*
G02X211873Y465658I2942J-1489D01*
G03Y466342I-493J343D01*
G37*
G36*
G01X197091Y465806D02*
G02X198988Y464031I-1195J-3180D01*
G01X201229Y466000D01*
X198988Y467968D01*
G02X197091Y466194I-3093J1405D01*
G03Y465806I229J-194D01*
G37*
G36*
G01X201331Y462605D02*
G02X202763Y464032I2447J-1023D01*
G01X201154Y466075D01*
X199544Y464032D01*
G02X200976Y462605I-1016J-2450D01*
G03X201331I178J242D01*
G37*
G36*
G01X192288Y509985D02*
G02X191652Y509348I-1082J446D01*
G01X192500Y508425D01*
X193348Y509348D01*
G02X192712Y509985I446J1082D01*
G03X192288I-212J-212D01*
G37*
G36*
G01X195269Y522959D02*
G02X195905Y523595I1082J-446D01*
G01X195056Y524518D01*
X194208Y523595D01*
G02X194844Y522959I-446J-1082D01*
G03X195269I212J212D01*
G37*
G36*
G01X196541Y524656D02*
G02X195905Y525292I446J1082D01*
G01X194982Y524444D01*
X195905Y523595D01*
G02X196541Y524231I1082J-446D01*
G03Y524656I-212J212D01*
G37*
G36*
G01X220900Y60700D02*
G02X220000I-450J1080D01*
G01X219947Y59447D01*
X221200Y59500D01*
G02Y60400I1080J450D01*
G03X220900Y60700I-300J0D01*
G37*
G36*
G01X217354Y98087D02*
G02Y101332I3894J1623D01*
G01X213756Y101385D01*
X213809Y97787D01*
G02X217054I1622J-3894D01*
G03X217354Y98087I0J300D01*
G37*
G36*
G01X218610Y89724D02*
G02X216316Y92019I1606J3901D01*
G01X213734Y89512D01*
X216316Y87005D01*
G02X218610Y89300I3901J-1606D01*
G03Y89724I-212J212D01*
G37*
G36*
G01X217354Y85946D02*
G02Y89512I4279J1783D01*
G01X213758Y89568D01*
X213779Y85969D01*
G02X217024Y85648I1237J-4055D01*
G03X217354Y85946I30J299D01*
G37*
G36*
G01X223912Y457459D02*
G02X224326Y457874I704J-290D01*
G01X223700Y458575D01*
X223074Y457874D01*
G02X223488Y457459I-290J-704D01*
G03X223912I212J212D01*
G37*
G36*
G01X213788Y450541D02*
G02X213374Y450126I-704J290D01*
G01X214000Y449425D01*
X214626Y450126D01*
G02X214212Y450541I290J704D01*
G03X213788I-212J-212D01*
G37*
G36*
G01X214212Y448459D02*
G02X214626Y448874I704J-290D01*
G01X214000Y449575D01*
X213374Y448874D01*
G02X213788Y448459I-290J-704D01*
G03X214212I212J212D01*
G37*
G36*
G01X220291Y446600D02*
G02X220455Y447264I879J135D01*
G01X219733Y447823D01*
X219124Y447124D01*
G02X219788Y446459I-465J-1129D01*
G03X220291Y446600I212J212D01*
G37*
G36*
G01X216793Y463551D02*
G02X216121Y462879I-1142J470D01*
G01X217500Y461250D01*
X218879Y462879D01*
G02X218207Y463551I471J1143D01*
G03X216793Y463551I-707J-707D01*
G37*
G36*
G01X247042Y71241D02*
G02X249012Y73334I3510J-1330D01*
G01X246846Y75377D01*
X244681Y73334D01*
G02X246651Y71241I-1540J-3423D01*
G03X247042I196J227D01*
G37*
G36*
G01X246651Y79364D02*
G02X244681Y77271I-3510J1330D01*
G01X246846Y75227D01*
X249012Y77271D01*
G02X247042Y79364I1540J3423D01*
G03X246651I-196J-227D01*
G37*
G36*
G01Y72639D02*
G02X244681Y70546I-3510J1330D01*
G01X246846Y68503D01*
X249012Y70546D01*
G02X247042Y72639I1540J3423D01*
G03X246651I-196J-227D01*
G37*
G36*
G01X247042Y77966D02*
G02X249012Y80058I3510J-1330D01*
G01X246846Y82102D01*
X244681Y80058D01*
G02X246651Y77966I-1540J-3423D01*
G03X247042I196J227D01*
G37*
G36*
G01X250909Y82221D02*
G02X249012Y83995I1195J3180D01*
G01X246772Y82027D01*
X249012Y80058D01*
G02X250909Y81833I3093J-1405D01*
G03Y82221I-229J194D01*
G37*
G36*
G01X236091Y68384D02*
G02X237988Y66610I-1195J-3180D01*
G01X240228Y68578D01*
X237988Y70546D01*
G02X236091Y68772I-3093J1405D01*
G03Y68384I229J-194D01*
G37*
G36*
G01Y81833D02*
G02X237988Y80058I-1195J-3180D01*
G01X240228Y82027D01*
X237988Y83995D01*
G02X236091Y82221I-3093J1405D01*
G03Y81833I229J-194D01*
G37*
G36*
G01Y75108D02*
G02X237988Y73334I-1195J-3180D01*
G01X240228Y75302D01*
X237988Y77271D01*
G02X236091Y75496I-3093J1405D01*
G03Y75108I229J-194D01*
G37*
G36*
G01X250476Y88327D02*
G02X250900Y87903I-297J-721D01*
G01X251899Y88751D01*
X250900Y89600D01*
G02X250476Y89175I-721J297D01*
G03Y88327I424J-424D01*
G37*
G36*
G01X250873Y89094D02*
G02X249012Y90720I1080J3115D01*
G01X246696Y88751D01*
X249012Y86783D01*
G02X250873Y88409I2942J-1489D01*
G03Y89094I-493J343D01*
G37*
G36*
G01X250203Y95051D02*
G02X250627Y94627I-297J-721D01*
G01X251626Y95476D01*
X250627Y96324D01*
G02X250203Y95900I-721J297D01*
G03Y95051I424J-424D01*
G37*
G36*
G01X250873Y95818D02*
G02X249012Y97444I1080J3115D01*
G01X246696Y95476D01*
X249012Y93507D01*
G02X250873Y95133I2942J-1489D01*
G03Y95818I-493J342D01*
G37*
G36*
G01X239966Y106081D02*
G02X238051Y104168I-3267J1356D01*
G01X240154Y102125D01*
X242256Y104168D01*
G02X240341Y106081I1352J3269D01*
G03X239966I-187J-235D01*
G37*
G36*
G01X247988Y103261D02*
G02X247139Y102412I-1442J594D01*
G01X247900Y102125D01*
X248500D01*
X249261Y102412D01*
G02X248412Y103261I594J1442D01*
G03X247988I-212J-212D01*
G37*
G36*
G01X246811Y106233D02*
G02X244744Y104168I-3524J1461D01*
G01X246844Y102125D01*
X248976Y104134D01*
G02X247206Y106218I1632J3179D01*
G03X246811Y106233I-206J-218D01*
G37*
G36*
G01X240349Y91414D02*
G02X242319Y93507I3510J-1330D01*
G01X240154Y95551D01*
X237988Y93507D01*
G02X239958Y91414I-1540J-3423D01*
G03X240349I196J227D01*
G37*
G36*
G01X236091Y95282D02*
G02X237988Y93507I-1195J-3180D01*
G01X240228Y95476D01*
X237988Y97444D01*
G02X236091Y95670I-3093J1405D01*
G03Y95282I229J-194D01*
G37*
G36*
G01X239958Y92812D02*
G02X237988Y90720I-3510J1330D01*
G01X240154Y88676D01*
X242319Y90720D01*
G02X240349Y92812I1540J3423D01*
G03X239958I-196J-227D01*
G37*
G36*
G01X256712Y189015D02*
G02X257349Y189652I1082J-446D01*
G01X256500Y190575D01*
X255652Y189652D01*
G02X256288Y189015I-446J-1082D01*
G03X256712I212J212D01*
G37*
G36*
G01X256700Y382600D02*
G02Y383500I1080J450D01*
G01X255447Y383553D01*
X255500Y382300D01*
G02X256400I450J-1080D01*
G03X256700Y382600I0J300D01*
G37*
G36*
G01X260288Y81485D02*
G02X259652Y80848I-1082J446D01*
G01X260500Y79925D01*
X261349Y80848D01*
G02X260712Y81485I446J1082D01*
G03X260288I-212J-212D01*
G37*
G36*
G01X257593Y65472D02*
G02X258493I450J-1080D01*
G01X258546Y66725D01*
X257293Y66672D01*
G02Y65772I-1080J-450D01*
G03X257593Y65472I300J0D01*
G37*
G36*
G01X386207Y377300D02*
X379667Y380857D01*
G02X378885Y383558I945J1737D01*
G01X386118Y396500D01*
X386363Y396855D01*
G02X389261Y397552I1839J-1271D01*
G01X390177Y397059D01*
X395683Y392654D01*
G02X395802Y391921I-345J-432D01*
G01X393936Y389039D01*
X386906Y377488D01*
G02X386207Y377300I-448J273D01*
G37*
G36*
G01X386450Y428850D02*
G02Y429750I1080J450D01*
G01X385197Y429803D01*
X385250Y428550D01*
G02X386150I450J-1080D01*
G03X386450Y428850I0J300D01*
G37*
G36*
G01X386212Y424015D02*
G02X386848Y424652I1082J-446D01*
G01X386000Y425575D01*
X385152Y424652D01*
G02X385788Y424015I-446J-1082D01*
G03X386212I212J212D01*
G37*
G36*
G01X412500Y389500D02*
X414000D01*
G02X416000Y387500I0J-2000D01*
G01X416000Y373059D01*
G02X415000Y372064I-995J0D01*
G01X413368Y372071D01*
G03X411869Y371210I-8J-1722D01*
G01X408273Y364974D01*
G02X406880Y364557I-917J529D01*
G01X405295Y365355D01*
G02X404849Y366699I451J896D01*
G01X407000Y371000D01*
X409698Y377168D01*
G03X410500Y381000I-8759J3832D01*
G01Y387500D01*
G02X412500Y389500I2000J0D01*
G37*
G36*
G01X401639Y366932D02*
G02X403590Y367557I1733J-2054D01*
G01X404013Y371482D01*
X400853Y369116D01*
G02X401311Y367119I-2193J-1554D01*
G03X401639Y366932I279J109D01*
G37*
G36*
G01X397364Y369367D02*
G02X399315Y369991I1733J-2054D01*
G01X399738Y373916D01*
X396578Y371550D01*
G02X397036Y369554I-2193J-1554D01*
G03X397364Y369367I279J109D01*
G37*
G36*
G01X397940Y380794D02*
G02X395888Y380066I-1908J2123D01*
G01X395386Y376222D01*
X398300Y378599D01*
G02X398296Y380547I2364J978D01*
G03X397940Y380794I-296J-47D01*
G37*
G36*
G01X393960Y383308D02*
G02X391535Y382581I-2091J2567D01*
G01X391108Y378658D01*
X394273Y381022D01*
G02X394309Y383051I2480J970D01*
G03X393960Y383308I-297J-39D01*
G37*
G36*
G01X397196Y412003D02*
G02X399169Y414099I3515J-1332D01*
G01X397004Y416142D01*
X394838Y414099D01*
G02X396804Y412003I-1546J-3420D01*
G03X397196Y412003I196J227D01*
G37*
G36*
G01X400804Y400732D02*
G02X400786Y399921I-982J-384D01*
G01X401523Y399429D01*
X402126Y400126D01*
G02X401316Y400937I568J1378D01*
G03X400804Y400732I-212J-212D01*
G37*
G36*
G01X401299Y403839D02*
G02X403269Y405932I3510J-1330D01*
G01X401103Y407975D01*
X398938Y405932D01*
G02X400908Y403839I-1540J-3423D01*
G03X401299I196J227D01*
G37*
G36*
G01X397850Y407734D02*
G02X398938Y406638I-798J-1880D01*
G01X401178Y407900D01*
X398938Y409163D01*
G02X397850Y408066I-1886J783D01*
G03Y407734I250J-166D01*
G37*
G36*
G01X407614Y411525D02*
G02X405953Y409868I-2835J1181D01*
G01X407796Y407825D01*
X409640Y409868D01*
G02X407980Y411525I1175J2838D01*
G03X407614I-183J-238D01*
G37*
G36*
G01X407992Y403839D02*
G02X409962Y405932I3510J-1330D01*
G01X407796Y407975D01*
X405631Y405932D01*
G02X407601Y403839I-1540J-3423D01*
G03X407992I196J227D01*
G37*
G36*
G01X410289Y413364D02*
G02X411349Y414415I1817J-773D01*
G01X410124Y416262D01*
X408900Y414415D01*
G02X409960Y413364I-757J-1824D01*
G03X410289I164J251D01*
G37*
G36*
G01X400541Y423377D02*
G02X399784Y423963I324J1202D01*
G01X398250Y422485D01*
X399879Y421121D01*
G02X400636Y421879I1287J-530D01*
G03X400541Y423377I-707J707D01*
G37*
G36*
G01X403223Y420082D02*
G02X401531Y418036I-3496J1168D01*
G01X403697Y415817D01*
X405862Y418036D01*
G02X404170Y420082I1805J3214D01*
G03X403223I-474J-881D01*
G37*
G36*
G01X409946Y419365D02*
G02X408550Y417959I-2406J992D01*
G01X410124Y416112D01*
X411699Y417959D01*
G02X410303Y419365I1010J2398D01*
G03X409946I-179J-241D01*
G37*
G36*
G01X402672Y424705D02*
G02X405352Y422024I-1888J-4567D01*
G01X406475Y424900D01*
X405352Y427776D01*
G02X402672Y425095I-4568J1886D01*
G03Y424705I228J-195D01*
G37*
G36*
G01X406226Y449720D02*
G02X405352Y448728I-1659J580D01*
G01X406400Y445325D01*
X407448Y448728D01*
G02X406574Y449720I785J1573D01*
G03X406226I-174J-244D01*
G37*
G36*
G01X410680Y459014D02*
G02X408988Y456969I-3496J1168D01*
G01X411154Y454750D01*
X413319Y456969D01*
G02X411627Y459014I1805J3214D01*
G03X410680I-474J-881D01*
G37*
G36*
G01X411993Y450814D02*
G02X413319Y453032I3549J-617D01*
G01X411135Y455249D01*
X408988Y453032D01*
G02X410895Y450757I-1945J-3567D01*
G03X411993Y450814I505J863D01*
G37*
G36*
G01X402041Y461212D02*
G02X401626Y461626I290J704D01*
G01X400925Y461000D01*
X401626Y460374D01*
G02X402041Y460788I704J-290D01*
G03Y461212I-212J212D01*
G37*
G36*
G01X399041Y463712D02*
G02X398626Y464126I290J704D01*
G01X397925Y463500D01*
X398626Y462874D01*
G02X399041Y463288I704J-290D01*
G03Y463712I-212J212D01*
G37*
G36*
G01X389200Y463600D02*
G02Y464500I1080J450D01*
G01X387947Y464553D01*
X388000Y463300D01*
G02X388900I450J-1080D01*
G03X389200Y463600I0J300D01*
G37*
G36*
G01X426391Y400644D02*
G02X425874Y400126I-880J362D01*
G01X426492Y399426D01*
X427171Y400069D01*
G02X426861Y400586I466J632D01*
G03X426391Y400644I-257J-154D01*
G37*
G36*
G01X426801Y403597D02*
G02X429012Y405932I3918J-1497D01*
G01X426851Y407975D01*
X424681Y405932D01*
G02X426382Y403621I-1937J-3207D01*
G03X426801Y403597I222J202D01*
G37*
G36*
G01X426654Y411911D02*
G02X424681Y409869I-3451J1360D01*
G01X426846Y407825D01*
X429012Y409869D01*
G02X427039Y411911I1478J3402D01*
G03X426654I-193J-230D01*
G37*
G36*
G01X413158Y405186D02*
G02X412486Y404514I-1142J470D01*
G01X413865Y402885D01*
X415243Y404514D01*
G02X414572Y405186I471J1143D01*
G03X413158Y405186I-707J-707D01*
G37*
G36*
G01X414207Y404634D02*
G02X415439Y406148I2731J-964D01*
G01X413865Y408169D01*
X412290Y406148D01*
G02X413522Y404634I-1499J-2478D01*
G03X414207I343J939D01*
G37*
G36*
G01X419982Y411093D02*
G02X418751Y409868I-2107J887D01*
G01X420154Y407825D01*
X421556Y409868D01*
G02X420325Y411093I876J2112D01*
G03X419982Y411093I-172J-246D01*
G37*
G36*
G01X420349Y403839D02*
G02X422319Y405932I3510J-1330D01*
G01X420154Y407975D01*
X417988Y405932D01*
G02X419958Y403839I-1540J-3423D01*
G03X420349I196J227D01*
G37*
G36*
G01X417778Y413150D02*
G02X419049Y414415I2176J-915D01*
G01X417605Y416262D01*
X416160Y414415D01*
G02X417432Y413150I-905J-2180D01*
G03X417778I173J245D01*
G37*
G36*
G01X425176Y424695D02*
G02X422448Y427424I1922J4649D01*
G01X421326Y424908D01*
X422393Y422163D01*
G02X425151Y424279I3927J-2264D01*
G03X425176Y424695I-203J221D01*
G37*
G36*
G01X411574Y420580D02*
G02X412448Y421572I1659J-580D01*
G01X411400Y424975D01*
X410352Y421572D01*
G02X411226Y420580I-785J-1573D01*
G03X411574I174J244D01*
G37*
G36*
G01X416574D02*
G02X417448Y421572I1659J-580D01*
G01X416400Y424975D01*
X415352Y421572D01*
G02X416226Y420580I-785J-1573D01*
G03X416574I174J244D01*
G37*
G36*
G01X417416Y419467D02*
G02X416030Y417959I-2522J927D01*
G01X417605Y416112D01*
X419180Y417959D01*
G02X417794Y419467I1136J2435D01*
G03X417416I-189J-233D01*
G37*
G36*
G01X417373Y459014D02*
G02X415681Y456969I-3496J1168D01*
G01X417846Y454750D01*
X420012Y456969D01*
G02X418320Y459014I1805J3214D01*
G03X417373I-474J-881D01*
G37*
G36*
G01X421226Y449720D02*
G02X420352Y448728I-1659J580D01*
G01X421400Y445325D01*
X422448Y448728D01*
G02X421574Y449720I785J1573D01*
G03X421226I-174J-244D01*
G37*
G36*
G01X411860Y457603D02*
G02X412532Y458274I1142J-470D01*
G01X411154Y459904D01*
X409775Y458275D01*
G02X410446Y457603I-471J-1143D01*
G03X411860Y457603I707J707D01*
G37*
G36*
G01X418554Y457796D02*
G02X419225Y458468I1142J-470D01*
G01X417846Y460097D01*
X416468Y458468D01*
G02X417139Y457796I-471J-1143D01*
G03X418554Y457796I707J707D01*
G37*
G36*
G01X451741Y61710D02*
G02X453638Y59935I-1195J-3180D01*
G01X455879Y61904D01*
X453638Y63872D01*
G02X451741Y62098I-3093J1405D01*
G03Y61710I229J-194D01*
G37*
G36*
G01X451696Y82501D02*
G02X451272Y82925I297J721D01*
G01X450273Y82077D01*
X451272Y81228D01*
G02X451696Y81653I721J-297D01*
G03Y82501I-424J424D01*
G37*
G36*
G01X451777Y81734D02*
G02X453638Y80108I-1080J-3115D01*
G01X455954Y82077D01*
X453638Y84045D01*
G02X451777Y82419I-2942J1489D01*
G03Y81734I493J-342D01*
G37*
G36*
G01X452420Y75777D02*
G02X451996Y76201I297J721D01*
G01X450998Y75352D01*
X451996Y74504D01*
G02X452420Y74928I721J-297D01*
G03Y75777I-424J424D01*
G37*
G36*
G01X451777Y75010D02*
G02X453638Y73384I-1080J-3115D01*
G01X455954Y75352D01*
X453638Y77321D01*
G02X451777Y75695I-2942J1489D01*
G03Y75010I493J-343D01*
G37*
G36*
G01X451741Y88607D02*
G02X453638Y86833I-1195J-3180D01*
G01X455879Y88801D01*
X453638Y90770D01*
G02X451741Y88995I-3093J1405D01*
G03Y88607I229J-194D01*
G37*
G36*
G01X435300Y219400D02*
G02Y218500I-1080J-450D01*
G01X436553Y218447D01*
X436500Y219700D01*
G02X435600I-450J1080D01*
G03X435300Y219400I0J-300D01*
G37*
G36*
G01X434867Y456788D02*
G02X435503Y456152I-446J-1082D01*
G01X436427Y457000D01*
X435503Y457848D01*
G02X434867Y457212I-1082J446D01*
G03Y456788I212J-212D01*
G37*
G36*
G01X455608Y65965D02*
G02X453638Y63872I-3510J1330D01*
G01X455804Y61829D01*
X457969Y63872D01*
G02X455999Y65965I1540J3423D01*
G03X455608I-196J-227D01*
G37*
G36*
G01X466559Y62098D02*
G02X464662Y63872I1195J3180D01*
G01X462422Y61904D01*
X464662Y59935D01*
G02X466559Y61710I3093J-1405D01*
G03Y62098I-229J194D01*
G37*
G36*
G01X455999Y64567D02*
G02X457969Y66660I3510J-1330D01*
G01X455804Y68703D01*
X453638Y66660D01*
G02X455608Y64567I-1540J-3423D01*
G03X455999I196J227D01*
G37*
G36*
G01X462301Y79414D02*
G02X460331Y77321I-3510J1330D01*
G01X462497Y75277D01*
X464662Y77321D01*
G02X462692Y79414I1540J3423D01*
G03X462301I-196J-227D01*
G37*
G36*
G01X462692Y78016D02*
G02X464662Y80108I3510J-1330D01*
G01X462497Y82152D01*
X460331Y80108D01*
G02X462301Y78016I-1540J-3423D01*
G03X462692I196J227D01*
G37*
G36*
G01X466559Y82271D02*
G02X464662Y84045I1195J3180D01*
G01X462422Y82077D01*
X464662Y80108D01*
G02X466559Y81883I3093J-1405D01*
G03Y82271I-229J194D01*
G37*
G36*
G01Y68822D02*
G02X464662Y70596I1195J3180D01*
G01X462422Y68628D01*
X464662Y66660D01*
G02X466559Y68434I3093J-1405D01*
G03Y68822I-229J194D01*
G37*
G36*
G01X455608Y99587D02*
G02X453638Y97494I-3510J1330D01*
G01X455804Y95451D01*
X457969Y97494D01*
G02X455999Y99587I1540J3423D01*
G03X455608I-196J-227D01*
G37*
G36*
G01X455999Y91464D02*
G02X457969Y93557I3510J-1330D01*
G01X455804Y95601D01*
X453638Y93557D01*
G02X455608Y91464I-1540J-3423D01*
G03X455999I196J227D01*
G37*
G36*
G01Y98189D02*
G02X457969Y100282I3510J-1330D01*
G01X455804Y102325D01*
X453638Y100282D01*
G02X455608Y98189I-1540J-3423D01*
G03X455999I196J227D01*
G37*
G36*
G01X455628Y105547D02*
G02X454294Y104218I-2282J957D01*
G01X455804Y102175D01*
X457313Y104218D01*
G02X455979Y105547I948J2286D01*
G03X455628I-175J-244D01*
G37*
G36*
G01X455608Y92862D02*
G02X453638Y90770I-3510J1330D01*
G01X455804Y88726D01*
X457969Y90770D01*
G02X455999Y92862I1540J3423D01*
G03X455608I-196J-227D01*
G37*
G36*
G01X466559Y88995D02*
G02X464662Y90770I1195J3180D01*
G01X462422Y88801D01*
X464662Y86833D01*
G02X466559Y88607I3093J-1405D01*
G03Y88995I-229J194D01*
G37*
G36*
G01Y102444D02*
G02X464662Y104218I1195J3180D01*
G01X462422Y102250D01*
X464662Y100282D01*
G02X466559Y102056I3093J-1405D01*
G03Y102444I-229J194D01*
G37*
G36*
G01X466800Y95400D02*
G02Y94500I-1080J-450D01*
G01X468053Y94447D01*
X468000Y95700D01*
G02X467100I-450J1080D01*
G03X466800Y95400I0J-300D01*
G37*
G36*
G01X466559Y95720D02*
G02X464662Y97494I1195J3180D01*
G01X462422Y95526D01*
X464662Y93557D01*
G02X466559Y95332I3093J-1405D01*
G03Y95720I-229J194D01*
G37*
G36*
G01X457114Y186086D02*
G02X457114Y185500I-703J-293D01*
G01X458053Y185447D01*
X458000Y186386D01*
G02X457414Y186386I-293J703D01*
G03X457114Y186086I0J-300D01*
G37*
G36*
G01X462300Y263900D02*
G02Y263000I-1080J-450D01*
G01X463553Y262947D01*
X463500Y264200D01*
G02X462600I-450J1080D01*
G03X462300Y263900I0J-300D01*
G37*
G36*
G01X458842Y281145D02*
G02X459478Y281781I1082J-446D01*
G01X458630Y282705D01*
X457781Y281781D01*
G02X458418Y281145I-446J-1082D01*
G03X458842I212J212D01*
G37*
G36*
G01X461712Y334959D02*
G02X462126Y335374I704J-290D01*
G01X461500Y336075D01*
X460874Y335374D01*
G02X461288Y334959I-290J-704D01*
G03X461712I212J212D01*
G37*
G36*
G01X486793Y95870D02*
G02X489251Y97922I3691J-1925D01*
G01X489157Y101400D01*
X486301Y100610D01*
G02X486301Y96101I-5412J-2255D01*
G03X486793Y95870I300J0D01*
G37*
G36*
G01X485879Y85967D02*
G02X489124I1622J-3894D01*
G01X489177Y89565D01*
X485579Y89512D01*
G02Y86267I-3894J-1623D01*
G03X485879Y85967I300J0D01*
G37*
G36*
G01X497288Y117985D02*
G02X496652Y117348I-1082J446D01*
G01X497500Y116425D01*
X498348Y117348D01*
G02X497712Y117985I446J1082D01*
G03X497288I-212J-212D01*
G37*
G36*
G01X496600Y115300D02*
G02X497500I450J-1080D01*
G01X497553Y116553D01*
X496300Y116500D01*
G02Y115600I-1080J-450D01*
G03X496600Y115300I300J0D01*
G37*
G36*
G01X510689Y61167D02*
G02X513934I1623J-3894D01*
G01X513987Y64765D01*
X510389Y64712D01*
G02Y61467I-3894J-1623D01*
G03X510689Y61167I300J0D01*
G37*
G36*
G01X505641Y106434D02*
G02X504741I-450J1080D01*
G01X504688Y105181D01*
X505941Y105234D01*
G02Y106134I1080J450D01*
G03X505641Y106434I-300J0D01*
G37*
G36*
G01X520695Y118394D02*
G02X518401Y120689I1606J3901D01*
G01X515819Y118182D01*
X518401Y115675D01*
G02X520695Y117970I3901J-1606D01*
G03Y118394I-212J212D01*
G37*
G36*
G01X516106Y113394D02*
G02X518388Y115675I3878J-1597D01*
G01X515894Y118257D01*
X513400Y115675D01*
G02X515682Y113394I-1597J-3879D01*
G03X516106I212J212D01*
G37*
G36*
G01X497600Y187800D02*
G02X498500I450J-1080D01*
G01X498553Y189053D01*
X497300Y189000D01*
G02Y188100I-1080J-450D01*
G03X497600Y187800I300J0D01*
G37*
G36*
G01X515939Y326958D02*
G02X518031Y324988I-1330J-3510D01*
G01X520075Y327154D01*
X518031Y329319D01*
G02X515939Y327349I-3423J1540D01*
G03Y326958I227J-196D01*
G37*
G36*
G01X513100Y478300D02*
G02X514000I450J-1080D01*
G01X514053Y479553D01*
X512800Y479500D01*
G02Y478600I-1080J-450D01*
G03X513100Y478300I300J0D01*
G37*
G36*
G01X513494Y513712D02*
G02X512857Y514348I446J1082D01*
G01X511934Y513500D01*
X512857Y512652D01*
G02X513494Y513288I1082J-446D01*
G03Y513712I-212J212D01*
G37*
G36*
G01X520747Y513363D02*
G02X518019Y516092I1921J4648D01*
G01X515978Y514225D01*
X517813Y512087D01*
G02X520631Y512889I2377J-2998D01*
G03X520747Y513363I-111J279D01*
G37*
G36*
G01X511855Y513243D02*
G02X514233Y512171I-106J-3409D01*
G01X516125Y514221D01*
X514082Y515998D01*
G02X511778Y513692I-3932J1624D01*
G03X511855Y513243I231J-192D01*
G37*
G36*
G01X507304Y522923D02*
G02X507940Y523560I1082J-446D01*
G01X507092Y524483D01*
X506244Y523560D01*
G02X506880Y522923I-446J-1082D01*
G03X507304I212J212D01*
G37*
G36*
G01X515247Y525447D02*
G02X514082Y523066I-3458J217D01*
G01X516060Y520826D01*
X518019Y523066D01*
G02X515698Y525510I1784J4018D01*
G03X515247Y525447I-198J-225D01*
G37*
G36*
G01X511990Y520705D02*
G02X514082Y518735I-1330J-3510D01*
G01X516126Y520901D01*
X514082Y523066D01*
G02X511990Y521097I-3423J1540D01*
G03Y520705I227J-196D01*
G37*
G36*
G01X520112Y521097D02*
G02X518019Y523066I1330J3510D01*
G01X515976Y520901D01*
X518019Y518735D01*
G02X520112Y520705I3423J-1540D01*
G03Y521097I-227J196D01*
G37*
G36*
G01X523986Y63141D02*
G02X526281Y65435I3900J-1606D01*
G01X523774Y68017D01*
X521268Y65435D01*
G02X523562Y63141I-1606J-3901D01*
G03X523986I212J212D01*
G37*
G36*
G01X525522Y130933D02*
G02X523227Y128639I-3900J1606D01*
G01X525734Y126057D01*
X528241Y128639D01*
G02X525946Y130933I1606J3901D01*
G03X525522I-212J-212D01*
G37*
G36*
G01X530535Y126344D02*
G02X528241Y128639I1606J3901D01*
G01X525659Y126132D01*
X528241Y123625D01*
G02X530535Y125920I3901J-1606D01*
G03Y126344I-212J212D01*
G37*
G36*
G01X523800Y192400D02*
G02Y191500I-1080J-450D01*
G01X525053Y191447D01*
X525000Y192700D01*
G02X524100I-450J1080D01*
G03X523800Y192400I0J-300D01*
G37*
G36*
G01X526985Y222712D02*
G02X526348Y223349I446J1082D01*
G01X525425Y222500D01*
X526348Y221651D01*
G02X526985Y222288I1082J-446D01*
G03Y222712I-212J212D01*
G37*
G36*
G01X529015Y236288D02*
G02X529652Y235652I-446J-1082D01*
G01X530575Y236500D01*
X529652Y237348D01*
G02X529015Y236712I-1082J446D01*
G03Y236288I212J-212D01*
G37*
G36*
G01X524061Y327349D02*
G02X521968Y329319I1330J3510D01*
G01X519925Y327154D01*
X521968Y324988D01*
G02X524061Y326958I3423J-1540D01*
G03Y327349I-227J196D01*
G37*
G36*
G01Y334042D02*
G02X521968Y336012I1330J3510D01*
G01X519925Y333846D01*
X521968Y331681D01*
G02X524061Y333651I3423J-1540D01*
G03Y334042I-227J196D01*
G37*
G36*
G01X524900Y424300D02*
G02X525800I450J-1080D01*
G01X525853Y425553D01*
X524600Y425500D01*
G02Y424600I-1080J-450D01*
G03X524900Y424300I300J0D01*
G37*
G36*
G01X520880Y511683D02*
G02X521516Y512320I1082J-446D01*
G01X520668Y513243D01*
X519820Y512320D01*
G02X520456Y511683I-446J-1082D01*
G03X520880I212J212D01*
G37*
G36*
G01X519183Y512956D02*
G02X519820Y512320I-446J-1082D01*
G01X520743Y513168D01*
X519820Y514016D01*
G02X519183Y513380I-1082J446D01*
G03Y512956I212J-212D01*
G37*
G36*
G01X525020Y522823D02*
G02X525656Y523460I1082J-446D01*
G01X524808Y524383D01*
X523960Y523460D01*
G02X524596Y522823I-446J-1082D01*
G03X525020I212J212D01*
G37*
G36*
G01X526293Y524520D02*
G02X525656Y525156I446J1082D01*
G01X524733Y524308D01*
X525656Y523460D01*
G02X526293Y524096I1082J-446D01*
G03Y524520I-212J212D01*
G37*
G36*
G01X524596Y525793D02*
G02X523960Y525156I-1082J446D01*
G01X524808Y524233D01*
X525656Y525156D01*
G02X525020Y525793I446J1082D01*
G03X524596I-212J-212D01*
G37*
G36*
G01X555345Y101544D02*
G02X553051Y103839I1606J3901D01*
G01X550469Y101332D01*
X553051Y98825D01*
G02X555345Y101120I3901J-1606D01*
G03Y101544I-212J212D01*
G37*
G36*
G01X545743Y89300D02*
G02X548037Y87005I-1606J-3901D01*
G01X550619Y89512D01*
X548037Y92019D01*
G02X545743Y89724I-3901J1606D01*
G03Y89300I212J-212D01*
G37*
G36*
G01X546100Y227900D02*
X547000Y227000D01*
X548068Y226968D01*
X548000Y228200D01*
G02X546100I-950J2280D01*
G01Y227900D01*
G37*
G36*
G01X542288Y326907D02*
G02Y324844I-2475J-1031D01*
G01X544703Y324791D01*
X544650Y327207D01*
G02X542588I-1031J2475D01*
G03X542288Y326907I0J-300D01*
G37*
G36*
G01Y319033D02*
G02Y316970I-2475J-1031D01*
G01X544703Y316917D01*
X544650Y319333D01*
G02X542588I-1031J2475D01*
G03X542288Y319033I0J-300D01*
G37*
G36*
G01X580458Y94861D02*
G02X578488Y92768I-3510J1330D01*
G01X580654Y90725D01*
X582819Y92768D01*
G02X580849Y94861I1540J3423D01*
G03X580458I-196J-227D01*
G37*
G36*
G01X580850Y92390D02*
G02X582969Y94632I3762J-1433D01*
G01X580806Y96675D01*
X578638Y94632D01*
G02X580441Y92404I-1787J-3290D01*
G03X580850Y92390I212J212D01*
G37*
G36*
G01X576741Y96406D02*
G02X578638Y94632I-1195J-3180D01*
G01X580878Y96600D01*
X578638Y98568D01*
G02X576741Y96794I-3093J1405D01*
G03Y96406I229J-194D01*
G37*
G36*
G01X563788Y480985D02*
G02X563152Y480348I-1082J446D01*
G01X564000Y479425D01*
X564848Y480348D01*
G02X564212Y480985I446J1082D01*
G03X563788I-212J-212D01*
G37*
G36*
G01X580300Y563400D02*
G02Y562500I-1080J-450D01*
G01X581553Y562447D01*
X581500Y563700D01*
G02X580600I-450J1080D01*
G03X580300Y563400I0J-300D01*
G37*
G36*
G01X573887Y563687D02*
G02X572987I-450J1080D01*
G01X572934Y562434D01*
X574187Y562487D01*
G02Y563387I1080J450D01*
G03X573887Y563687I-300J0D01*
G37*
G36*
G01X577748Y559152D02*
G02X578968Y561488I3432J-305D01*
G01X576991Y563728D01*
X575032Y561488D01*
G02X577302Y559094I-1749J-3933D01*
G03X577748Y559152I198J225D01*
G37*
G36*
G01X573905Y563486D02*
G02X575032Y562351I-823J-1944D01*
G01X577075Y563654D01*
X575032Y564956D01*
G02X573905Y563821I-1950J810D01*
G03Y563486I249J-168D01*
G37*
G36*
G01X580585Y563836D02*
G02X578968Y565456I1153J2767D01*
G01X576925Y563654D01*
X578968Y561851D01*
G02X580585Y563471I2769J-1147D01*
G03Y563836I-238J182D01*
G37*
G36*
G01X568518Y572821D02*
G02X569155Y573458I1082J-446D01*
G01X568306Y574381D01*
X567458Y573458D01*
G02X568094Y572821I-446J-1082D01*
G03X568518I212J212D01*
G37*
G36*
G01X576806Y574409D02*
G02X575032Y572512I-3180J1195D01*
G01X577000Y570272D01*
X578968Y572512D01*
G02X577194Y574409I1405J3093D01*
G03X576806I-194J-229D01*
G37*
G36*
G01X581061Y570542D02*
G02X578968Y572512I1330J3510D01*
G01X576925Y570346D01*
X578968Y568181D01*
G02X581061Y570151I3423J-1540D01*
G03Y570542I-227J196D01*
G37*
G36*
G01X572939Y570151D02*
G02X575032Y568181I-1330J-3510D01*
G01X577075Y570346D01*
X575032Y572512D01*
G02X572939Y570542I-3423J1540D01*
G03Y570151I227J-196D01*
G37*
G36*
G01X586922Y86426D02*
G02X586498Y86002I-721J297D01*
G01X587346Y85004D01*
X588195Y86002D01*
G02X587771Y86426I297J721D01*
G03X586922I-424J-424D01*
G37*
G36*
G01X604227Y106076D02*
G02X605152Y105152I-647J-1571D01*
G01X606141Y105948D01*
X605500Y106500D01*
X604652D01*
X604227Y106076D01*
G37*
G36*
G01X587145Y100620D02*
G02X585331Y98568I-3431J1205D01*
G01X587496Y96450D01*
X589662Y98568D01*
G02X587848Y100620I1617J3257D01*
G03X587145I-351J-486D01*
G37*
G36*
G01X587698Y86780D02*
G02X589512Y88832I3431J-1205D01*
G01X587346Y90950D01*
X585181Y88832D01*
G02X586995Y86780I-1617J-3257D01*
G03X587698I352J486D01*
G37*
G36*
G01X596081Y189811D02*
G02X596718Y190447I1082J-446D01*
G01X595869Y191371D01*
X595021Y190447D01*
G02X595657Y189811I-446J-1082D01*
G03X596081I212J212D01*
G37*
G36*
G01X594384Y191084D02*
G02X595021Y190447I-446J-1082D01*
G01X595944Y191296D01*
X595021Y192144D01*
G02X594384Y191508I-1082J446D01*
G03Y191084I212J-212D01*
G37*
G36*
G01X601740Y187627D02*
G02X603832Y185658I-1330J-3510D01*
G01X605876Y187823D01*
X603832Y189988D01*
G02X601740Y188019I-3423J1540D01*
G03Y187627I227J-196D01*
G37*
G36*
G01X609862Y188019D02*
G02X607769Y189988I1330J3510D01*
G01X605726Y187823D01*
X607769Y185658D01*
G02X609862Y187627I3423J-1540D01*
G03Y188019I-227J196D01*
G37*
G36*
G01X601900Y181200D02*
G02X601000I-450J1080D01*
G01X600947Y179947D01*
X602200Y180000D01*
G02Y180900I1080J450D01*
G03X601900Y181200I-300J0D01*
G37*
G36*
G01X605995Y177067D02*
G02X607769Y178965I3180J-1195D01*
G01X605801Y181205D01*
X603832Y178965D01*
G02X605607Y177067I-1405J-3093D01*
G03X605995I194J229D01*
G37*
G36*
G01X609453Y181314D02*
G02X607769Y183000I1198J2880D01*
G01X605726Y181130D01*
X607769Y179260D01*
G02X609453Y180946I2882J-1193D01*
G03Y181314I-237J184D01*
G37*
G36*
G01X601896Y180942D02*
G02X603832Y179003I-1373J-3308D01*
G01X605876Y181130D01*
X603832Y183257D01*
G02X601896Y181318I-3309J1369D01*
G03Y180942I234J-188D01*
G37*
G36*
G01X604485Y229212D02*
G02X603848Y229849I446J1082D01*
G01X602925Y229000D01*
X603848Y228151D01*
G02X604485Y228788I1082J-446D01*
G03Y229212I-212J212D01*
G37*
G36*
G01X587507Y574690D02*
G02X586871Y575326I446J1082D01*
G01X585947Y574478D01*
X586871Y573629D01*
G02X587507Y574266I1082J-446D01*
G03Y574690I-212J212D01*
G37*
G36*
G01X586632Y572788D02*
G02X586944Y573749I1309J106D01*
G01X586007Y574551D01*
X585174Y573629D01*
G02X586134Y572669I-672J-1633D01*
G03X586632Y572788I212J212D01*
G37*
G36*
G01X614970Y191015D02*
G02X615606Y191652I1082J-446D01*
G01X614758Y192575D01*
X613910Y191652D01*
G02X614546Y191015I-446J-1082D01*
G03X614970I212J212D01*
G37*
G36*
G01X608915Y181130D02*
G02X608915Y180115I-1218J-507D01*
G01X609846Y179747D01*
X609967Y180916D01*
G02X609402Y181365I256J903D01*
G03X608915Y181130I-187J-235D01*
G37*
G36*
G01X646612Y82308D02*
G02X644519Y84277I1330J3510D01*
G01X642476Y82112D01*
X644519Y79947D01*
G02X646612Y81916I3423J-1540D01*
G03Y82308I-227J196D01*
G37*
G36*
G01X638490Y81916D02*
G02X640582Y79947I-1330J-3510D01*
G01X642626Y82112D01*
X640582Y84277D01*
G02X638490Y82308I-3423J1540D01*
G03Y81916I227J-196D01*
G37*
G36*
G01X646082Y75118D02*
G02Y74218I-1080J-450D01*
G01X647335Y74165D01*
X647282Y75418D01*
G02X646382I-450J1080D01*
G03X646082Y75118I0J-300D01*
G37*
G36*
G01X639118Y75418D02*
G02X638218I-450J1080D01*
G01X638165Y74165D01*
X639418Y74218D01*
G02Y75118I1080J450D01*
G03X639118Y75418I-300J0D01*
G37*
G36*
G01X642745Y71356D02*
G02X644519Y73254I3180J-1195D01*
G01X642551Y75494D01*
X640582Y73254D01*
G02X642357Y71356I-1405J-3093D01*
G03X642745I194J229D01*
G37*
G36*
G01X646317Y75604D02*
G02X644519Y77405I1277J3073D01*
G01X642476Y75419D01*
X644519Y73433D01*
G02X646317Y75233I3075J-1272D01*
G03Y75604I-236J186D01*
G37*
G36*
G01X639177Y75242D02*
G02X640582Y73831I-1009J-2411D01*
G01X642626Y75419D01*
X640582Y77007D01*
G02X639177Y75596I-2415J1001D01*
G03Y75242I242J-177D01*
G37*
G36*
G01X634212Y86515D02*
G02X634848Y87152I1082J-446D01*
G01X634000Y88075D01*
X633152Y87152D01*
G02X633788Y86515I-446J-1082D01*
G03X634212I212J212D01*
G37*
G36*
G01X632515Y87788D02*
G02X633152Y87152I-446J-1082D01*
G01X634075Y88000D01*
X633152Y88849D01*
G02X632515Y88212I-1082J446D01*
G03Y87788I212J-212D01*
G37*
G36*
G01X633788Y89485D02*
G02X633152Y88849I-1082J446D01*
G01X634000Y87925D01*
X634848Y88849D01*
G02X634212Y89485I446J1082D01*
G03X633788I-212J-212D01*
G37*
G36*
G01X650926Y502154D02*
X649654D01*
X648929Y501476D01*
X649848Y500652D01*
G02X651138Y501941I2193J-903D01*
G01X650926Y502154D01*
G37*
G36*
G01X649439Y501958D02*
G02X651531Y499988I-1330J-3510D01*
G01X653575Y502154D01*
X651531Y504319D01*
G02X649439Y502349I-3423J1540D01*
G03Y501958I227J-196D01*
G37*
G36*
G01X645212Y512515D02*
G02X645848Y513152I1082J-446D01*
G01X645000Y514075D01*
X644152Y513152D01*
G02X644788Y512515I-446J-1082D01*
G03X645212I212J212D01*
G37*
G36*
G01X649439Y508651D02*
G02X651531Y506681I-1330J-3510D01*
G01X653575Y508846D01*
X651531Y511012D01*
G02X649439Y509042I-3423J1540D01*
G03Y508651I227J-196D01*
G37*
G36*
G01X651920Y86515D02*
G02X652556Y87152I1082J-446D01*
G01X651708Y88075D01*
X650860Y87152D01*
G02X651496Y86515I-446J-1082D01*
G03X651920I212J212D01*
G37*
G36*
G01X657561Y502349D02*
G02X655468Y504319I1330J3510D01*
G01X653425Y502154D01*
X655468Y499988D01*
G02X657561Y501958I3423J-1540D01*
G03Y502349I-227J196D01*
G37*
G36*
G01X653694Y498091D02*
G02X655468Y499988I3180J-1195D01*
G01X653500Y502228D01*
X651531Y499988D01*
G02X653306Y498091I-1405J-3093D01*
G03X653694I194J229D01*
G37*
G36*
G01X656362Y501941D02*
G02X656998Y501305I-446J-1082D01*
G01X657922Y502154D01*
X656998Y503002D01*
G02X656362Y502366I-1082J446D01*
G03Y501941I212J-212D01*
G37*
G36*
G01X663003Y512224D02*
G02X663639Y512861I1082J-446D01*
G01X662791Y513784D01*
X661942Y512861D01*
G02X662579Y512224I-446J-1082D01*
G03X663003I212J212D01*
G37*
G36*
G01X653306Y512909D02*
G02X651531Y511012I-3180J1195D01*
G01X653500Y508772D01*
X655468Y511012D01*
G02X653694Y512909I1405J3093D01*
G03X653306I-194J-229D01*
G37*
G36*
G01X657561Y509042D02*
G02X655468Y511012I1330J3510D01*
G01X653425Y508846D01*
X655468Y506681D01*
G02X657561Y508651I3423J-1540D01*
G03Y509042I-227J196D01*
G37*
G36*
G01X107229Y391604D02*
G02X106805Y391180I-721J297D01*
G01X107654Y390182D01*
X108502Y391180D01*
G02X108078Y391604I297J721D01*
G03X107229I-424J-424D01*
G37*
G36*
G01X125800Y337100D02*
G02Y336500I-720J-300D01*
G01X127106Y336394D01*
X127000Y337700D01*
G02X126400I-300J720D01*
G03X125800Y337100I0J-600D01*
G37*
G54D10*
X7500Y30500D03*
X23000Y575500D03*
X695500Y29500D03*
X686500Y578000D03*
G54D20*
X180612Y142196D03*
Y159126D03*
X199510Y142196D03*
Y159126D03*
G54D11*
X38500Y72000D03*
X28000Y497000D03*
X52174Y66200D03*
X52162Y94662D03*
X41732Y494268D03*
X40506Y520006D03*
X52707Y527293D03*
X76000Y79000D03*
X80000Y66000D03*
X63842Y102342D03*
X76000Y175500D03*
X67500Y491000D03*
X64000Y506000D03*
X90987Y172513D03*
X88500Y198000D03*
X101545Y205955D03*
X105000Y343500D03*
X84500Y369000D03*
X95500Y402500D03*
X96874Y430626D03*
X103080Y560580D03*
X112500Y64500D03*
X117018Y92518D03*
X107035Y105035D03*
X121000Y125500D03*
X121264Y143000D03*
X116000Y168500D03*
X112571Y183571D03*
X107154Y407654D03*
X123098Y500598D03*
X115106Y483606D03*
X118000Y552500D03*
X117793Y581707D03*
X128753Y69247D03*
X147000Y148500D03*
X139154Y341654D03*
X142000Y566500D03*
X144500Y552000D03*
X129476Y589976D03*
X164604Y130604D03*
X149000Y165500D03*
X164252Y510252D03*
X172500Y143500D03*
X179500Y501500D03*
X177500Y531000D03*
X190032Y539968D03*
X209500Y146500D03*
X203154Y176846D03*
X207500Y402000D03*
X203000Y518500D03*
X204605Y503605D03*
X227097Y159596D03*
X214500Y391500D03*
X217500Y461500D03*
X250227Y487227D03*
X265500Y373500D03*
X263106Y448394D03*
X258219Y500781D03*
X281337Y486337D03*
X289329Y500329D03*
X320192Y448808D03*
X313487Y486013D03*
X321479Y500979D03*
X327985Y385965D03*
X347471Y485029D03*
X355463Y501963D03*
X387000Y390500D03*
X384000Y386500D03*
X381447Y485053D03*
X389439Y501061D03*
X390000Y394000D03*
X398500Y422500D03*
X411154Y459654D03*
X413000Y376000D03*
Y382000D03*
Y387000D03*
X413865Y403135D03*
X417846Y459846D03*
X413593Y485907D03*
X421585Y501085D03*
X453096Y256097D03*
X441827Y284827D03*
X441551Y310949D03*
X440602Y321398D03*
X444676Y486324D03*
X452668Y500668D03*
X458500Y260500D03*
Y300500D03*
X476500Y291500D03*
X473761Y325261D03*
X467000Y331500D03*
X482370Y259500D03*
X483461Y331500D03*
X490954Y333454D03*
X492000Y507000D03*
X507904Y272597D03*
X505500Y327398D03*
X508500Y503000D03*
X508379Y531379D03*
X520442Y542000D03*
X541500Y153500D03*
X541000Y502500D03*
X533500Y516000D03*
X555000Y558500D03*
X585500Y58500D03*
X568500Y131000D03*
X585916Y110416D03*
X568000Y154500D03*
X583000Y180500D03*
X579845Y481500D03*
X571500Y555969D03*
X568293Y581707D03*
X586355Y585645D03*
X587000Y74500D03*
X595957Y97043D03*
X590000Y129500D03*
X598000Y171000D03*
X597251Y198251D03*
X592944Y494444D03*
X593000Y566500D03*
X596000Y552500D03*
X620535Y73535D03*
X624578Y169007D03*
X622500Y184500D03*
X613311Y202189D03*
X634500Y65000D03*
X639035Y91535D03*
X646632Y103000D03*
X648232Y494268D03*
X632250Y496250D03*
X645006Y520006D03*
X660500Y65000D03*
X658500Y80000D03*
X671500Y490000D03*
X670000Y504500D03*
X657767Y527233D03*
G54D30*
G01X107654Y402500D02*
X95500D01*
G01X162654Y136000D02*
Y132554D01*
X164604Y130604D01*
G01X179234Y154066D02*
Y147256D01*
G01D02*
X178479Y146500D01*
X174500D01*
X172500Y144500D01*
Y143500D01*
G01X200888Y154066D02*
Y147256D01*
G01D02*
X201643Y146500D01*
X209500D01*
G01X208000Y176846D02*
X203154D01*
G01X195740Y474673D02*
X213327D01*
X217500Y470500D01*
Y461500D01*
G01X403697Y416067D02*
Y420304D01*
X401414Y422586D01*
X398586D01*
X398500Y422500D01*
G01X413865Y407919D02*
Y403135D01*
G01X416400Y445400D02*
Y453554D01*
X417846Y455000D01*
G01D02*
Y459846D01*
G01X411400Y445400D02*
Y454754D01*
X411154Y455000D01*
G01D02*
Y459654D01*
G01X571500Y555969D02*
X569031D01*
G54D12*
X59500Y76154D03*
Y82846D03*
X48960Y501726D03*
Y508420D03*
X97500Y180154D03*
Y186846D03*
X124851Y564502D03*
Y571195D03*
X187601Y512791D03*
Y519484D03*
X208000Y170154D03*
Y176846D03*
X520000Y327154D03*
Y333846D03*
X516051Y514208D03*
Y520901D03*
X577000Y563654D03*
Y570346D03*
X605801Y181130D03*
Y187823D03*
X642551Y75419D03*
Y82112D03*
X653500Y502154D03*
Y508846D03*
G54D21*
X179234Y147256D03*
X185140D03*
X187108D03*
X189077D03*
X191045D03*
Y154066D03*
X189077D03*
X187108D03*
X185140D03*
X179234D03*
X193014Y147256D03*
X194982D03*
X200888D03*
Y154066D03*
X194982D03*
X193014D03*
G54D31*
G01X89226Y373869D02*
X89095Y374000D01*
X84000D01*
X80500Y370500D01*
G01X83363Y379732D02*
X80548Y382548D01*
G01X95090Y368006D02*
X93506D01*
X85000Y359500D01*
G01X100953Y362143D02*
X100642D01*
X97000Y358500D01*
G01X106816Y356279D02*
X106779D01*
X103000Y352500D01*
G01X128154Y95424D02*
X122576D01*
G01X118543Y344552D02*
Y344543D01*
X115500Y341500D01*
G01X112680Y350416D02*
X109000Y346736D01*
Y337500D01*
G01X124406Y338689D02*
X124811D01*
X127000Y336500D01*
G01X107654Y394000D02*
Y390332D01*
G01X128154Y89200D02*
Y84546D01*
X129354Y83346D01*
X138000D01*
G01X207846Y466000D02*
X213000D01*
G01X246846Y88751D02*
X251749D01*
G01X246846Y95476D02*
X251476D01*
G01X455804Y82077D02*
X450423D01*
G01X455804Y75352D02*
X451148D01*
G01X587346Y90800D02*
Y85154D01*
G01X587496Y96600D02*
Y101996D01*
X592000Y106500D01*
X605500D01*
X606000Y106000D01*
G54D22*
X186500Y458000D03*
X179750Y441250D03*
X189000Y460500D03*
X196000Y167000D03*
X194350Y346373D03*
X193504Y343294D03*
X212000Y444000D03*
X214000Y449500D03*
X219750Y447750D03*
X223700Y458500D03*
X257500Y462000D03*
X401500Y399500D03*
X401000Y461000D03*
X398000Y463500D03*
X426500Y399500D03*
X458000Y185500D03*
X461500Y336000D03*
G54D13*
X56000Y75442D03*
X51150Y87350D03*
X41000Y488000D03*
X53500Y500500D03*
X44500D03*
X40015Y512985D03*
X57731Y512231D03*
X63805Y65175D03*
X64000Y76000D03*
X68866Y87366D03*
X82000Y298000D03*
X75500Y349000D03*
X80500Y370500D03*
X80548Y382548D03*
X82854Y430854D03*
X83000Y476000D03*
X100000Y88500D03*
X97000Y91000D03*
X102031Y179031D03*
X93469D03*
X88853Y190353D03*
X85500Y305500D03*
Y302000D03*
X89000Y309000D03*
X92828Y349007D03*
X85000Y359500D03*
X97000Y358500D03*
X103000Y352500D03*
X99500Y386000D03*
X101621Y383879D03*
X103743Y381757D03*
X122576Y95424D03*
X125850Y111000D03*
X115500Y161500D03*
X106569Y190431D03*
X115500Y341500D03*
X109000Y337500D03*
X105000D03*
X117500Y366500D03*
X115000Y369500D03*
X123000Y366000D03*
X107654Y390332D03*
X122000Y373500D03*
X118500Y378500D03*
X113846Y407654D03*
X122000Y424500D03*
X124851Y558649D03*
X117000Y574500D03*
X138000Y83346D03*
X130000Y108000D03*
X136400Y119500D03*
X136000Y305500D03*
X140500Y308500D03*
X128680Y314304D03*
X127000Y336500D03*
X145846Y341154D03*
X130500Y358000D03*
X135000Y353000D03*
X127000Y365500D03*
X134500Y575000D03*
X164500Y75500D03*
Y101000D03*
X169000Y192000D03*
X157000Y176000D03*
X150500D03*
X161000Y208500D03*
X170500Y217000D03*
X185140Y167500D03*
X191500Y218500D03*
X181000Y230000D03*
X175000Y224000D03*
X175500Y241000D03*
X184000Y255500D03*
X182000Y263992D03*
X181400Y340500D03*
X180989Y368698D03*
X190500Y367000D03*
X181000Y380000D03*
X182000Y384500D03*
X174000Y383500D03*
X190500Y406400D03*
X181500Y431500D03*
X184493Y440328D03*
X181000Y508500D03*
X177340Y524340D03*
X205000Y57500D03*
X207000Y194000D03*
X195000Y360500D03*
X192500Y357500D03*
X205000Y381500D03*
X197500Y410000D03*
X204500Y398000D03*
X202154Y457654D03*
X213000Y466000D03*
X192500Y508500D03*
X195056Y524444D03*
X220000Y59500D03*
X251749Y88751D03*
X251476Y95476D03*
X256500Y190500D03*
X255500Y383500D03*
Y432500D03*
X260500Y80000D03*
X258493Y66672D03*
X269500Y368000D03*
X268000Y393000D03*
X265500Y379500D03*
X385250Y429750D03*
X386000Y425500D03*
X388000Y464500D03*
X432000Y474500D03*
X450423Y82077D03*
X451148Y75352D03*
X436500Y218500D03*
X442102Y294000D03*
X441000Y447500D03*
X436352Y457000D03*
X468000Y94500D03*
X458630Y282630D03*
X463500Y263000D03*
X497500Y116500D03*
X498500Y189000D03*
X497500Y286000D03*
X491722Y308578D03*
X487500Y441500D03*
X491500Y467000D03*
X483000Y461500D03*
X504741Y105234D03*
X500500Y286000D03*
X503500D03*
X504500Y449500D03*
X514000Y479500D03*
X512009Y513500D03*
X507092Y524408D03*
X525000Y191500D03*
X537000Y215500D03*
X532500Y220000D03*
X525500Y222500D03*
X530500Y236500D03*
X524500Y250500D03*
X525800Y425500D03*
X520668Y513168D03*
X524808Y524308D03*
X547500Y205000D03*
X543000Y210000D03*
X548000Y227000D03*
X564000Y479500D03*
X572987Y562487D03*
X581500Y562500D03*
X586022Y574478D03*
X568306Y574306D03*
X587346Y85154D03*
X606000Y106000D03*
X595869Y191296D03*
X601000Y180000D03*
X603000Y229000D03*
X614758Y192500D03*
X609815Y179815D03*
X638218Y74218D03*
X647282D03*
X651708Y88000D03*
X634000D03*
X649000Y501500D03*
X645000Y514000D03*
X657846Y502154D03*
X662791Y513709D03*
G54D14*
X83363Y379732D03*
X105686Y366875D03*
X100953Y362143D03*
X99822Y372738D03*
X95090Y368006D03*
X93959Y378602D03*
X89226Y373869D03*
X88095Y384465D03*
X124406Y338689D03*
X123275Y349285D03*
X118543Y344552D03*
X112680Y350416D03*
X117412Y355148D03*
X111549Y361012D03*
X106816Y356279D03*
X129139Y343422D03*
G54D23*
X188260Y474673D03*
X195740D03*
X192000Y466327D03*
G54D15*
X114346Y394000D03*
X107654D03*
X114346Y402500D03*
X107654D03*
X134846Y101649D03*
X128154D03*
X134846Y95424D03*
X128154D03*
Y89200D03*
X134846D03*
X169346Y136000D03*
X162654D03*
X157154Y301500D03*
X163846D03*
X207846Y466000D03*
X201154D03*
X240154Y75302D03*
X246846D03*
X240154Y68578D03*
X246846D03*
X240154Y82027D03*
X246846D03*
X240154Y102200D03*
X246846D03*
X240154Y95476D03*
X246846D03*
Y88751D03*
X240154D03*
X407796Y407900D03*
X401103D03*
X397004Y416067D03*
X403697D03*
X411154Y455000D03*
X426846Y407900D03*
X420154D03*
X417846Y455000D03*
X462497Y61904D03*
X455804D03*
X462497Y68628D03*
X455804D03*
X462497Y75352D03*
X455804D03*
Y82077D03*
X462497D03*
Y95526D03*
X455804D03*
X462497Y102250D03*
X455804D03*
X462497Y88801D03*
X455804D03*
X580654Y90800D03*
X580804Y96600D03*
X587346Y90800D03*
X587496Y96600D03*
G54D24*
X204825Y150661D03*
G54D16*
X152389Y89512D03*
Y101332D03*
X187039Y67942D03*
X177199Y64712D03*
Y126132D03*
X188999D03*
X179159Y118182D03*
X213809Y89512D03*
X210099Y80662D03*
X213809Y101332D03*
X489124Y89512D03*
Y101332D03*
X513934Y64712D03*
Y126132D03*
X515894Y118182D03*
X523774Y67942D03*
X525734Y126132D03*
X550544Y89512D03*
X546834Y80662D03*
X550544Y101332D03*
G54D25*
X386874Y381156D03*
X408251Y368982D03*
X403976Y371417D03*
X399700Y373851D03*
X395425Y376286D03*
X391150Y378721D03*
G54D17*
X168139Y89512D03*
X504874D03*
G54D26*
X373043Y377156D03*
X411868Y355046D03*
G54D18*
X158662Y316659D03*
Y324533D03*
X544650Y324844D03*
Y316970D03*
G54D27*
X406400Y424900D03*
Y445400D03*
X421400Y424900D03*
X416400D03*
X411400D03*
Y445400D03*
X416400D03*
X421400D03*
G54D19*
X175297Y150661D03*
G54D28*
X410124Y416187D03*
X413865Y407919D03*
X417605Y416187D03*
G54D29*
G01X75500Y349000D02*
Y450000D01*
X59500Y466000D01*
X39500D01*
X34500Y471000D01*
Y485500D01*
X37000Y488000D01*
X41000D01*
G01X51150Y87350D02*
Y84850D01*
X53154Y82846D01*
X59500D01*
G01X128154Y101649D02*
X116649D01*
X84500Y69500D01*
X50000D01*
X46500Y73000D01*
Y84500D01*
X49350Y87350D01*
X51150D01*
G01X59500Y82846D02*
X66347D01*
X68866Y85366D01*
Y87366D01*
G01X59500Y76154D02*
X59346Y76000D01*
X56558D01*
X56000Y75442D01*
G01X59500Y76154D02*
X59653Y76000D01*
X64000D01*
G01X59500Y76154D02*
Y72100D01*
X60900Y70700D01*
X82635D01*
X94750Y82815D01*
Y94250D01*
X98700Y98200D01*
Y139997D01*
X70100Y168597D01*
Y179870D01*
X65300Y184670D01*
X63600Y186370D01*
Y208797D01*
X74100Y219297D01*
Y285600D01*
X74800Y286300D01*
Y286497D01*
X85500Y297197D01*
Y302000D01*
G01X117412Y355148D02*
X115500Y357061D01*
Y359500D01*
X120000Y364000D01*
Y372000D01*
X76700Y415300D01*
Y450497D01*
X67000Y460197D01*
Y479500D01*
X53500Y493000D01*
Y500500D01*
G01X44500D02*
X45726Y501726D01*
X48960D01*
G01D02*
X52274D01*
X53500Y500500D01*
G01X48960Y508420D02*
X57420D01*
X57731Y508731D01*
Y512231D01*
G01X48960Y508420D02*
X40111D01*
X40015Y508515D01*
Y512985D01*
G01X124851Y571195D02*
Y576649D01*
X124021Y577479D01*
X114479D01*
X95000Y558000D01*
X77000D01*
X48500Y529500D01*
Y508879D01*
X48960Y508420D01*
G01X63805Y65175D02*
X64000Y64980D01*
Y64000D01*
X68000Y60000D01*
X95500D01*
X116500Y39000D01*
X204197D01*
X227497Y62300D01*
X441200D01*
X450000Y53500D01*
X593000D01*
X601000Y61500D01*
X636500D01*
X642551Y67551D01*
Y75419D01*
G01X111549Y361012D02*
Y360451D01*
X113500Y358500D01*
Y357500D01*
X92500Y336500D01*
Y300803D01*
X77200Y285503D01*
Y219003D01*
X66000Y207803D01*
Y187364D01*
X68500Y184864D01*
X72500Y180864D01*
Y169591D01*
X101100Y140991D01*
Y89600D01*
X100000Y88500D01*
G01X97000Y91000D02*
X97076Y90924D01*
X97924D01*
X99900Y92900D01*
Y140494D01*
X71300Y169094D01*
Y180367D01*
X66500Y185167D01*
X64800Y186867D01*
Y208300D01*
X76000Y219500D01*
Y286000D01*
X91100Y301100D01*
Y347279D01*
X92828Y349007D01*
G01X105000Y337500D02*
X94500Y327000D01*
Y301106D01*
X78400Y285006D01*
Y217934D01*
X84500Y211834D01*
Y185500D01*
X90969Y179031D01*
X93469D01*
G01X88095Y384465D02*
X85060Y387500D01*
X80335D01*
X78000Y385165D01*
Y351500D01*
X83400Y346100D01*
Y299400D01*
X82000Y298000D01*
G01X94398Y378602D02*
X96526Y376474D01*
Y375626D01*
X81639Y360739D01*
Y349861D01*
X85000Y346500D01*
Y306000D01*
X85500Y305500D01*
G01X115500Y161500D02*
X109500D01*
X102031Y168969D01*
Y179031D01*
G01X93469D02*
X94592Y180154D01*
X97500D01*
G01D02*
X97654Y180000D01*
X101008D01*
X101122Y179939D01*
X102031Y179031D01*
G01X88853Y190353D02*
Y187446D01*
X89453Y186846D01*
X97500D01*
G01D02*
X105969D01*
X106569Y187446D01*
Y190431D01*
G01X89000Y309000D02*
Y356000D01*
X102076Y369076D01*
Y369924D01*
X99822Y372178D01*
Y372738D01*
G01X92828Y349007D02*
X93007D01*
X107576Y363576D01*
Y364424D01*
X105686Y366314D01*
Y366875D01*
G01X99500Y386000D02*
X98500Y387000D01*
X90630D01*
X88095Y384465D01*
G01X101621Y383879D02*
X99243Y381500D01*
X97296D01*
X94398Y378602D01*
G01X93959D02*
X94398D01*
G01X99822Y372738D02*
Y377837D01*
X103743Y381757D01*
G01X83000Y476000D02*
X82854Y475854D01*
Y430854D01*
G01X128680Y314304D02*
X128304D01*
X127000Y313000D01*
Y236000D01*
X106569Y215569D01*
Y190431D01*
G01X125850Y111000D02*
X132500Y117650D01*
Y321000D01*
X113000Y340500D01*
Y344500D01*
X120076Y351576D01*
Y352424D01*
X117412Y355088D01*
Y355148D01*
G01X123275Y349285D02*
X123715D01*
X126076Y346924D01*
Y346076D01*
X120500Y340500D01*
Y336697D01*
X140538Y316659D01*
X158662D01*
G01X117500Y366500D02*
X117000D01*
X111549Y361049D01*
Y361012D01*
G01X105686Y366875D02*
X108310Y369500D01*
X115000D01*
G01X117412Y355148D02*
X123500Y361236D01*
Y365500D01*
X123000Y366000D01*
G01X127000Y365500D02*
Y353010D01*
X123275Y349285D01*
G01X124851Y558649D02*
Y554351D01*
X114000Y543500D01*
Y536500D01*
X119500Y531000D01*
Y394000D01*
X122000Y391500D01*
Y373500D01*
G01X135000Y353000D02*
Y366530D01*
X134900Y366630D01*
Y368370D01*
X135000Y368470D01*
Y382000D01*
X122000Y395000D01*
Y424500D01*
G01X118500Y378500D02*
X114346Y382654D01*
Y394000D01*
G01D02*
Y402500D01*
G01X124851Y564502D02*
Y558649D01*
G01Y571195D02*
X117000D01*
Y574500D01*
G01X124851Y571195D02*
X133695D01*
X134500Y572000D01*
Y575000D01*
G01X124851Y571149D02*
Y571195D01*
G01X136000Y305500D02*
Y288000D01*
X133800Y285800D01*
Y112046D01*
X134846Y111000D01*
Y101649D01*
G01D02*
X135163Y101332D01*
X152389D01*
G01X130000Y108000D02*
X128154Y106154D01*
Y101649D01*
G01X134846Y95424D02*
Y89200D01*
G01D02*
X135158Y89512D01*
X152389D01*
G01X140500Y308500D02*
Y290500D01*
X135000Y285000D01*
Y120900D01*
X136400Y119500D01*
G01X129139Y343422D02*
X131500Y345783D01*
Y357000D01*
X130500Y358000D01*
G01X134500Y575000D02*
X141500D01*
X147500Y569000D01*
Y566000D01*
X158500Y555000D01*
X169500D01*
X187500Y537000D01*
Y519585D01*
X187601Y519484D01*
G01X164500Y75500D02*
X162000Y78000D01*
Y92000D01*
X169000Y99000D01*
Y115000D01*
X158000Y126000D01*
Y144000D01*
X166000Y152000D01*
Y168000D01*
X194500Y196500D01*
Y253000D01*
X188700Y258800D01*
Y334577D01*
X186500Y336777D01*
Y362909D01*
X188600Y365009D01*
X189600Y366009D01*
Y366100D01*
X190500Y367000D01*
G01X164500Y101000D02*
Y117500D01*
X156800Y125200D01*
Y145103D01*
X164500Y152803D01*
Y244303D01*
X173100Y252903D01*
Y263403D01*
X180200Y270503D01*
Y332406D01*
X176900Y335706D01*
Y375900D01*
X181000Y380000D01*
G01X152389Y89512D02*
X156512D01*
X162000Y95000D01*
Y118303D01*
X155600Y124703D01*
Y145600D01*
X163300Y153300D01*
Y244800D01*
X171900Y253400D01*
Y263900D01*
X179000Y271000D01*
Y331909D01*
X175200Y335709D01*
Y377700D01*
X182000Y384500D01*
G01X180989Y368698D02*
Y365186D01*
X178100Y362297D01*
Y336203D01*
X181400Y332903D01*
Y270006D01*
X174300Y262906D01*
Y252406D01*
X167500Y245606D01*
Y203000D01*
X169000Y201500D01*
Y192000D01*
G01X157000Y176000D02*
X150500D01*
G01X158662Y324533D02*
X159467D01*
X163846Y320154D01*
Y301500D01*
G01D02*
X168000D01*
X170700Y304200D01*
Y330488D01*
X174000Y333788D01*
Y383500D01*
G01X157154Y301500D02*
Y315151D01*
X158662Y316659D01*
G01X240154Y68578D02*
X223578D01*
X203500Y48500D01*
X186500D01*
X177199Y57801D01*
Y64712D01*
G01X240154Y75302D02*
X228605D01*
X203803Y50500D01*
X195500D01*
X187039Y58961D01*
Y67942D01*
G01X240154Y102200D02*
Y105846D01*
X237700Y108300D01*
X223003D01*
X205171Y126132D01*
X188999D01*
G01X246846Y102200D02*
X247000Y102354D01*
Y106000D01*
X243500Y109500D01*
X223500D01*
X200500Y132500D01*
X175000D01*
X171000Y128500D01*
Y121000D01*
X173818Y118182D01*
X179159D01*
G01X189077Y147256D02*
Y144500D01*
X189077Y138923D01*
X191000Y137000D01*
X206303D01*
X214200Y144897D01*
Y181997D01*
X199500Y196697D01*
Y238500D01*
X222800Y261800D01*
Y328503D01*
X201300Y350003D01*
Y356291D01*
X201000Y356591D01*
Y401803D01*
X223700Y424503D01*
Y458500D01*
G01X185140Y154066D02*
Y147256D01*
G01X187108D02*
Y143500D01*
X187108Y138608D01*
X184500Y136000D01*
X169346D01*
G01X185140Y167500D02*
X185140Y154066D01*
G01X189077D02*
Y155500D01*
X189077Y188774D01*
X195900Y195597D01*
Y236991D01*
X195900Y239991D01*
X219200Y263291D01*
Y327011D01*
X197700Y348512D01*
Y354800D01*
X197400Y355100D01*
Y403294D01*
X203800Y409694D01*
Y420497D01*
X203800Y420800D01*
X212500Y429500D01*
Y443500D01*
X212000Y444000D01*
G01X175500Y241000D02*
Y262409D01*
X182600Y269509D01*
Y333400D01*
X179300Y336700D01*
Y361800D01*
X185000Y367500D01*
Y428000D01*
X181500Y431500D01*
G01X191500Y218500D02*
Y254303D01*
X187500Y258303D01*
Y334080D01*
X185300Y336280D01*
Y363406D01*
X187400Y365506D01*
X188400Y366506D01*
Y383400D01*
X188500Y383500D01*
Y405000D01*
X189900Y406400D01*
X190500D01*
G01X184493Y440328D02*
X185600Y439221D01*
Y429097D01*
X187200Y427497D01*
Y367003D01*
X186200Y366003D01*
X184100Y363903D01*
Y335783D01*
X185200Y334683D01*
Y256700D01*
X184000Y255500D01*
G01X181400Y340500D02*
Y336786D01*
X183914Y334272D01*
Y265906D01*
X182000Y263992D01*
G01X194350Y346373D02*
X191824D01*
X190000Y348197D01*
Y360303D01*
X195400Y365703D01*
Y455600D01*
X191000Y460000D01*
X189500D01*
X189000Y460500D01*
G01X193504Y343294D02*
X193206D01*
X188800Y347700D01*
Y360800D01*
X194000Y366000D01*
Y454500D01*
X190500Y458000D01*
X186500D01*
G01X188260Y474673D02*
X186173D01*
X183000Y471500D01*
Y444500D01*
X179750Y441250D01*
G01X192500Y508500D02*
Y511000D01*
X190500Y513000D01*
X187810D01*
X187601Y512791D01*
G01D02*
X183291D01*
X181000Y510500D01*
Y508500D01*
G01X187601Y519484D02*
X194500D01*
X195056Y520041D01*
Y524444D01*
G01X187601Y519484D02*
X178516D01*
X177340Y520660D01*
Y524340D01*
G01X213809Y89512D02*
Y89191D01*
X218000Y85000D01*
Y70000D01*
X205500Y57500D01*
X205000D01*
G01X194982Y154066D02*
Y147256D01*
G01X191045D02*
Y144500D01*
X191045Y139955D01*
X192531Y138469D01*
X206075D01*
X213000Y145394D01*
Y181500D01*
X198300Y196200D01*
Y238997D01*
X221600Y262297D01*
Y328006D01*
X200100Y349506D01*
Y355794D01*
X199800Y356094D01*
Y402300D01*
X220000Y422500D01*
Y447500D01*
X219750Y447750D01*
G01X191045Y154066D02*
Y158500D01*
X191045Y189045D01*
X197100Y195100D01*
Y239494D01*
X220400Y262794D01*
Y327509D01*
X198900Y349009D01*
Y355297D01*
X198600Y355597D01*
Y402797D01*
X205000Y409197D01*
Y420000D01*
X214000Y429000D01*
Y449500D01*
G01X196000Y167000D02*
X194982Y165982D01*
Y154066D01*
G01X193014D02*
Y156840D01*
X193014Y167014D01*
X196000Y170000D01*
X207846D01*
X208000Y170154D01*
G01X207000Y194000D02*
X201000Y200000D01*
Y238000D01*
X224000Y261000D01*
Y329000D01*
X202500Y350500D01*
Y396000D01*
X204500Y398000D01*
G01X192000Y466327D02*
X192327Y466000D01*
X201154D01*
G01D02*
Y462846D01*
X204500Y459500D01*
X211500D01*
X214000Y457000D01*
Y449500D01*
G01X195056Y524444D02*
X201557D01*
X214500Y511500D01*
X491000D01*
X507500Y528000D01*
X514400D01*
X515500Y526900D01*
Y521452D01*
X516051Y520901D01*
G01X258493Y66672D02*
X255321Y63500D01*
X224000D01*
X220000Y59500D01*
G01X240154Y82027D02*
X235473D01*
X227988Y89512D01*
X213809D01*
G01X240154Y95476D02*
X219665D01*
X213809Y101332D01*
G01X213897Y89600D02*
X213809Y89512D01*
G01X246846Y68578D02*
Y75302D01*
G01D02*
Y82027D01*
G01D02*
X253927D01*
X255000Y83100D01*
Y99000D01*
X251800Y102200D01*
X248200D01*
G01D02*
X246846D01*
G01X256500Y190500D02*
Y111500D01*
X248200Y103200D01*
Y102200D01*
G01X240154Y88751D02*
Y95476D01*
G01X255500Y383500D02*
X261000Y378000D01*
Y338000D01*
X244000Y321000D01*
Y269000D01*
X260500Y252500D01*
Y80000D01*
G01X300802Y377031D02*
Y377698D01*
X299102Y379398D01*
Y379081D01*
G01X395425Y376286D02*
Y377925D01*
X398000Y380500D01*
Y393697D01*
X391000Y400697D01*
Y424000D01*
X385250Y429750D01*
G01X391150Y378721D02*
Y380150D01*
X396800Y385800D01*
Y393200D01*
X389800Y400200D01*
Y418700D01*
X386000Y422500D01*
Y425500D01*
G01X407796Y407900D02*
Y400704D01*
X424500Y384000D01*
Y354697D01*
X415503Y345700D01*
X409497D01*
X398072Y357126D01*
Y365261D01*
X398672Y365861D01*
X399172Y366739D01*
X399990Y366964D01*
X400563Y366637D01*
X401382Y366861D01*
X403976Y371417D01*
G01X420154Y407900D02*
Y390044D01*
X425700Y384497D01*
Y354200D01*
X416000Y344500D01*
X409000D01*
X396872Y356628D01*
Y365758D01*
X397709Y366596D01*
X398129Y367333D01*
X397904Y368151D01*
X397331Y368478D01*
X397106Y369296D01*
X399700Y373851D01*
G01X401500Y399500D02*
X401103Y399896D01*
Y407900D01*
G01D02*
X398100D01*
X397000Y409000D01*
Y416064D01*
X397004Y416067D01*
G01X407796Y407900D02*
Y411288D01*
X410124Y413615D01*
Y416187D01*
G01X406400Y424900D02*
X402900D01*
X402000Y425800D01*
Y450500D01*
X388000Y464500D01*
G01X406400Y445400D02*
Y458100D01*
X403500Y461000D01*
X401000D01*
G01X421400Y445400D02*
Y462100D01*
X420000Y463500D01*
X398000D01*
G01X426500Y399500D02*
X426603Y399604D01*
Y407657D01*
X426846Y407900D01*
G01X421400Y424900D02*
X421800Y424500D01*
X425500D01*
X426800Y423200D01*
Y411774D01*
X426846Y411681D01*
Y407900D01*
G01X420154D02*
X420153Y410847D01*
X417605Y413395D01*
Y416187D01*
G01X410124D02*
Y419124D01*
X411400Y420400D01*
Y424900D01*
G01X417605Y416187D02*
Y419395D01*
X416400Y420600D01*
Y424900D01*
G01X428000Y450500D02*
X426500D01*
G01X455804Y88801D02*
X449100D01*
X446500Y86201D01*
Y65500D01*
X450096Y61904D01*
X455804D01*
G01X458000Y185500D02*
X442500Y201000D01*
Y238000D01*
X467000Y262500D01*
Y324000D01*
X461500Y329500D01*
Y336000D01*
G01X436500Y218500D02*
X434000Y221000D01*
Y456000D01*
X435000Y457000D01*
X436352D01*
G01X455804Y68628D02*
Y61904D01*
G01X462497D02*
X478096D01*
X483500Y56500D01*
X519500D01*
X523774Y60774D01*
Y67942D01*
G01X462497Y75352D02*
Y82077D01*
G01D02*
X481689D01*
X489124Y89512D01*
G01X462497Y68628D02*
X474872D01*
X484000Y59500D01*
X508722D01*
X513934Y64712D01*
G01X455804Y95526D02*
Y102250D01*
G01D02*
Y105304D01*
X459500Y109000D01*
X474106D01*
X474506Y109400D01*
X475500D01*
X476494Y109400D01*
X490400Y109400D01*
X497500Y116500D01*
G01X455804Y95526D02*
Y88801D01*
G01X462497D02*
X479301D01*
X489124Y98624D01*
Y101332D01*
G01X462497Y102250D02*
X469750D01*
X475700Y108200D01*
X496974D01*
X507000Y98174D01*
X509674D01*
X512576Y101076D01*
Y101924D01*
X509000Y105500D01*
Y130500D01*
X515000Y136500D01*
X522500D01*
X525734Y133266D01*
Y126132D01*
G01X468000Y94500D02*
X466974Y95526D01*
X462497D01*
G01D02*
X466971Y100000D01*
X476500D01*
X483500Y107000D01*
X496000D01*
X506500Y96500D01*
X526500D01*
X533488Y89512D01*
X550544D01*
G01X458630Y282630D02*
Y267870D01*
X463500Y263000D01*
G01X514000Y479500D02*
X511100Y476600D01*
Y280506D01*
X514000Y277606D01*
Y221500D01*
X519900Y215600D01*
Y146900D01*
X507000Y134000D01*
Y107493D01*
X504741Y105234D01*
G01X497500Y116500D02*
Y188000D01*
X498500Y189000D01*
G01X595869Y191296D02*
X592796D01*
X590500Y189000D01*
Y162000D01*
X546682Y118182D01*
X515894D01*
G01D02*
Y113606D01*
X518934Y110566D01*
X576566D01*
X580500Y114500D01*
X603500D01*
X610000Y108000D01*
X629000D01*
X634000Y103000D01*
Y88000D01*
G01X525734Y126132D02*
X532768D01*
X533368Y126732D01*
Y131632D01*
X521100Y143900D01*
Y216097D01*
X515200Y221997D01*
Y278103D01*
X512300Y281003D01*
Y465300D01*
X532000Y485000D01*
Y497500D01*
X520668Y508832D01*
Y513168D01*
G01X548000Y227000D02*
X547000D01*
X534000Y240000D01*
X522000D01*
X516500Y245500D01*
Y278500D01*
X513500Y281500D01*
Y413200D01*
X525800Y425500D01*
G01X524808Y524308D02*
X531692D01*
X547000Y509000D01*
Y441500D01*
X515000Y409500D01*
Y328307D01*
X516154Y327154D01*
X520000D01*
G01X520668Y513168D02*
X517091D01*
X516051Y514208D01*
G01D02*
X515343Y513500D01*
X512009D01*
G01X516051Y520901D02*
X524208D01*
X524808Y521501D01*
Y524308D01*
G01X516051Y520901D02*
X507692D01*
X507092Y521501D01*
Y524408D01*
G01X525000Y191500D02*
X523000Y193500D01*
Y216000D01*
X519500Y219500D01*
Y235500D01*
X520500Y236500D01*
X530500D01*
G01X525500Y222500D02*
X565000D01*
X574000Y231500D01*
X617500D01*
X624500Y238500D01*
Y274500D01*
X615000Y284000D01*
Y447500D01*
X623160Y455660D01*
X665319Y466952D01*
X669000Y471748D01*
Y481000D01*
X653500Y496500D01*
Y502154D01*
G01X520000Y327154D02*
X525346D01*
X532750Y319750D01*
X541870D01*
X544650Y316970D01*
G01X520000Y333846D02*
X535648D01*
X544650Y324844D01*
G01X524808Y524308D02*
Y537808D01*
X563500Y576500D01*
X575000D01*
X577000Y574500D01*
Y570346D01*
G01X580804Y96600D02*
X576900D01*
X572168Y101332D01*
X550544D01*
G01X580654Y90800D02*
Y96450D01*
X580804Y96600D01*
G01X564000Y479500D02*
Y541500D01*
X577500Y555000D01*
Y563154D01*
X577000Y563654D01*
G01D02*
X580346D01*
X581500Y562500D01*
G01X577000Y563654D02*
X574154D01*
X572987Y562487D01*
G01X577000Y570346D02*
X569154D01*
X568306Y571194D01*
Y574306D01*
G01X577000Y570346D02*
X585746D01*
X586347Y570947D01*
Y574154D01*
X586022Y574478D01*
G01X592503Y54700D02*
X605303Y67500D01*
X621500D01*
X629000Y75000D01*
Y85500D01*
X631500Y88000D01*
X634000D01*
G01X595869Y191296D02*
Y189631D01*
X597677Y187823D01*
X605801D01*
G01D02*
X613323D01*
X614758Y189258D01*
Y192500D01*
G01X605801Y181130D02*
X602130D01*
X601000Y180000D01*
G01X603000Y229000D02*
X616000D01*
X619000Y226000D01*
Y188500D01*
X617500Y187000D01*
Y178500D01*
X614000Y175000D01*
X606401D01*
X605801Y175600D01*
Y181130D01*
G01D02*
X609215D01*
X609815Y180530D01*
Y179815D01*
G01X586022Y574478D02*
X592022D01*
X633500Y533000D01*
X649000D01*
X653500Y528500D01*
Y508846D01*
G01X651708Y88000D02*
Y82708D01*
X651112Y82112D01*
X642551D01*
G01D02*
X634600D01*
X634000Y82712D01*
Y88000D01*
G01X642551Y75419D02*
X639419D01*
X638218Y74218D01*
G01X642551Y75419D02*
X646081D01*
X647282Y74218D01*
G01X653500Y502154D02*
X649654D01*
X649000Y501500D01*
G01X653500Y508846D02*
X645600D01*
X645000Y509447D01*
Y514000D01*
G01X653500Y502154D02*
X657846D01*
G01X653500Y508846D02*
X662191D01*
X662791Y509447D01*
Y513709D01*
M02*
