G04 ================== begin FILE IDENTIFICATION RECORD ==================*
G04 Layout Name:  C:/CenturyPlan/scxStandard/scxStandard.brd*
G04 Film Name:    GND*
G04 File Format:  Gerber RS274X*
G04 File Origin:  Cadence Allegro -unreleased*
G04 Origin Date:  Sat Sep 20 16:10:48 2025*
G04 *
G04 Layer:  ETCH/GND*
G04 Layer:  PIN/GND*
G04 Layer:  VIA CLASS/GND*
G04 *
G04 Offset:    (0.000 0.000)*
G04 Mirror:    No*
G04 Mode:      Positive*
G04 Rotation:  0*
G04 FullContactRelief:  No*
G04 UndefLineWidth:     2.000*
G04 ================== end FILE IDENTIFICATION RECORD ====================*
%FSLAX25Y25*MOIN*%
%IR0*IPPOS*OFA0.00000B0.00000*MIA0B0*SFA1.00000B1.00000*%
%ADD11C,.024*%
%ADD10C,.039*%
%ADD16O,.05315X.043307*%
%ADD12C,.0709*%
%ADD13C,.0719*%
%ADD18C,.024409*%
%ADD14C,.047244*%
%ADD17C,.017717*%
%ADD15O,.035433X.027559*%
%ADD19C,.012*%
%ADD35C,.102371*%
%ADD42C,.142371*%
%ADD28C,.315603*%
%ADD27C,.528201*%
%ADD31C,.433711*%
%ADD24C,.315604*%
%ADD33C,.102368*%
%ADD26C,.142373*%
%ADD37C,.284106*%
%ADD25C,.142374*%
%ADD32C,.142375*%
%ADD30C,.284107*%
%ADD38C,.453713*%
%ADD23C,.295911*%
%ADD36C,.528195*%
%ADD34C,.295914*%
%ADD29C,.528197*%
%ADD40C,.528199*%
%ADD39C,.165996*%
%ADD41C,.165997*%
%ADD43C,.051004*%
%ADD21C,.036004*%
%ADD45C,.036414*%
%ADD47C,.080904*%
%ADD20C,.029722*%
%ADD22C,.082904*%
%ADD46C,.083904*%
%ADD44C,.059248*%
G75*
%LPD*%
G75*
G36*
G01X519668Y26674D02*
G02X490836Y33089I166J68748D01*
G01X445680Y54227D01*
G03X433258Y56988I-12500J-26916D01*
G01X269677D01*
G03X257254Y54227I77J-29677D01*
G01X212098Y33089D01*
G02X182937Y26674I-28998J62333D01*
G01X60072D01*
G02X10268Y97802I0J53000D01*
G01X10922Y99597D01*
X10921Y99597D01*
X14457Y109313D01*
G02X24489Y113990I7355J-2677D01*
G01X39350Y108581D01*
X39359Y108578D01*
X39360Y108578D01*
G03X44704Y108857I2338J6531D01*
G01X44705Y108858D01*
X44718Y108864D01*
X44759Y108880D01*
X44892Y108949D01*
G02X55617Y112349I15180J-29274D01*
G01X58385Y112726D01*
Y112728D01*
X81077Y115821D01*
G03X90617Y142086I-2154J15648D01*
G01X73129Y161348D01*
G02X67270Y170727I24646J21915D01*
G03X63295Y174447I-6347J-2799D01*
G01X48437Y179855D01*
G02X43781Y189879I2699J7347D01*
G01X64417Y246577D01*
G03X66183Y256528I-27911J10085D01*
G01Y300243D01*
G02X70534Y305088I4874J0D01*
G03Y336104I-1677J15508D01*
G02X66183Y340950I524J4846D01*
G01Y400279D01*
G03X59783Y418690I-29677J0D01*
G01X13610Y476940D01*
X13583Y476974D01*
X13582Y476976D01*
X13573Y476986D01*
G02X20673Y540195I35364J28031D01*
G01X20798Y540296D01*
X97091Y601598D01*
X97398Y601845D01*
G02X149852Y604763I28265J-35177D01*
G01X149948Y604702D01*
X247877Y541948D01*
X247925D01*
X247971Y541921D01*
G03X259915Y538045I14925J25651D01*
G01X260095Y538027D01*
Y537895D01*
X270718D01*
Y537838D01*
X272831D01*
X272943Y537851D01*
G02X280557Y531198I773J-6799D01*
G01X280559Y530947D01*
G03X306244Y531053I12842J106D01*
G02X313086Y537895I6842J0D01*
G01X440686D01*
X440713Y537903D01*
X440739Y537904D01*
G03X455921Y542503I-700J29669D01*
G01X456067Y542596D01*
X552924Y604662D01*
G02X605536Y601845I24347J-37994D01*
G01X682136Y540296D01*
X682261Y540195D01*
G02X689360Y476986I-28265J-35178D01*
G01X643151Y418690D01*
G03X636750Y400280I23276J-18410D01*
G01Y340950D01*
G02X632400Y336104I-4874J0D01*
G03X632341Y305095I1677J-15508D01*
G01X632343Y305095D01*
X632371Y305091D01*
X632403Y305088D01*
G02X636750Y300243I-527J-4845D01*
G01Y299000D01*
X636750Y256657D01*
G03X638601Y246341I29678J0D01*
G01X638601Y246340D01*
X659153Y189879D01*
G02X654475Y179847I-7355J-2677D01*
G01X639639Y174447D01*
G03X635664Y170727I2373J-6519D01*
G02X629805Y161348I-30505J12536D01*
G01X612316Y142086D01*
G03X621857Y115821I11694J-10617D01*
G01X647630Y112308D01*
G02X658164Y108889I-4768J-32634D01*
G03X663670Y108610I3075J6219D01*
G01X663671Y108611D01*
X678445Y113990D01*
G02X688476Y109313I2677J-7355D01*
G01X692012Y99597D01*
X692666Y97802D01*
G02X642862Y26674I-49804J-18127D01*
G01X519668D01*
G37*
%LPC*%
G75*
G36*
G01X176610Y121451D02*
G03X176439Y122159I-246J315D01*
G02X173154Y126132I760J3973D01*
G02X181244I4045J0D01*
G02X179719Y122968I-4045J0D01*
G03X179897Y122261I249J-313D01*
G02X183304Y118182I-738J-4079D01*
G02X175014I-4145J0D01*
G02X176610Y121451I4145J0D01*
G37*
G36*
G01X621000Y102850D02*
X621869Y103497D01*
G02X624018Y103941I2149J-4977D01*
G02X629440Y98519I0J-5422D01*
G02X627852Y94686I-5422J0D01*
G01X627852Y94685D01*
G03X622357Y85169I15010J-15011D01*
G01X622000Y84400D01*
X621488Y83360D01*
G02X611850Y87845I-4367J3212D01*
G01X611860Y87900D01*
X611881Y87976D01*
G02X621000Y102850I29649J-7945D01*
G37*
G36*
G01X199018Y161891D02*
X200002D01*
G02Y156360I0J-2766D01*
G01X199018D01*
G02Y161891I0J2766D01*
G37*
G36*
G01X180120D02*
X181104D01*
G02Y156360I0J-2766D01*
G01X180120D01*
G02Y161891I0J2766D01*
G37*
G36*
G01X199018Y144962D02*
X200002D01*
G02Y139431I0J-2766D01*
G01X199018D01*
G02Y144962I0J2766D01*
G37*
G36*
G01X180120D02*
X181104D01*
G02Y139431I0J-2766D01*
G01X180120D01*
G02Y144962I0J2766D01*
G37*
G36*
G01X174903Y152639D02*
X175691D01*
G02Y148683I0J-1978D01*
G01X174903D01*
G02Y152639I0J1978D01*
G37*
G36*
G01X406209Y247436D02*
X405700Y246856D01*
X405637Y246823D01*
X405615Y246801D01*
G02X395833Y242740I-9782J9750D01*
G01X307101D01*
G02X297319Y246801I0J13811D01*
G01X297297Y246823D01*
X297234Y246856D01*
X296725Y247436D01*
G02X406209I54742J48092D01*
G37*
G36*
G01X120361Y205753D02*
G02X128542Y191589I-22586J-22490D01*
G02X118474Y188793I-5024J-1433D01*
G01X118472Y188804D01*
X118470Y188808D01*
G03X112924Y198412I-20695J-5545D01*
G01X112200Y199400D01*
X111886Y199890D01*
G02X120361Y205753I4729J2221D01*
G37*
G36*
G01X148300Y589202D02*
G02X156473Y575048I-22594J-22483D01*
G02X146603Y571662I-5024J-1435D01*
G01X146587Y571700D01*
X146540Y571747D01*
X146402Y572265D01*
G03X140856Y581869I-20695J-5545D01*
G01X140624Y582101D01*
X140606Y582137D01*
X140590Y582156D01*
G02X148300Y589202I3960J3407D01*
G37*
G36*
G01X208849Y538882D02*
G02X217033Y524708I-22586J-22491D01*
G02X206965Y521912I-5027J-1422D01*
G01X206959Y521934D01*
X206958Y521936D01*
G03X201412Y531541I-20695J-5545D01*
G01X200650Y532600D01*
X200278Y533235D01*
G02X208849Y538882I4825J2004D01*
G37*
G36*
G01X30036Y87604D02*
G02X38178Y101707I30039J-7942D01*
G02X44437Y95464I3051J-3200D01*
G01X44427Y95453D01*
X44419Y95442D01*
X44357Y95380D01*
G03X38604Y85415I15718J-15718D01*
G01X38597Y85386D01*
X38588Y85361D01*
X38587Y85356D01*
G02X30036Y87604I-4254J1204D01*
G37*
G36*
G01X81853Y101555D02*
G02X89873Y87742I-21781J-21881D01*
G02X81800Y85250I-4060J-1172D01*
G01X81733Y85476D01*
X81733Y85479D01*
G03X75929Y95532I-21661J-5804D01*
G01X75315Y96145D01*
X75371Y96219D01*
X75301Y96335D01*
G02X81853Y101555I3618J2181D01*
G37*
G36*
G01X198582Y490649D02*
G02X195165Y485612I-5421J0D01*
G01X195127Y485597D01*
X195087Y485557D01*
G02X177643Y485499I-8825J30833D01*
G01X177615Y485518D01*
X177592Y485526D01*
G02X180608Y495926I1773J5123D01*
G01X180631Y495920D01*
X193414D01*
X193700Y495900D01*
G02X198582Y490649I-384J-5251D01*
G37*
G36*
G01X485718Y524784D02*
G02X494058Y539133I30953J-8393D01*
G02X502855Y533208I3769J-3897D01*
G01X502806Y533085D01*
X503075Y532816D01*
X501661Y531402D01*
G03X496168Y521888I15011J-15011D01*
G01X496163Y521869D01*
X496044Y521460D01*
X496031Y521453D01*
X496006Y521386D01*
G02X485718Y524784I-5077J1902D01*
G37*
G36*
G01X41631Y484683D02*
X41744Y484691D01*
X41866Y484935D01*
X43443Y484512D01*
G03X54432I5494J20505D01*
G01X56009Y484935D01*
X56131Y484690D01*
X56244Y484681D01*
G02X57344Y474068I-409J-5406D01*
G02X40532Y474068I-8407J30950D01*
G02X41631Y484683I1503J5209D01*
G37*
G36*
G01X117300Y535769D02*
G02X118979Y546396I1507J5208D01*
G01X119250Y546350D01*
X120212Y546214D01*
G03X131200I5494J20505D01*
G01X131950Y546350D01*
X132210Y546384D01*
G02X134111Y535769I396J-5407D01*
G02X117300Y535769I-8405J30950D01*
G37*
G36*
G01X68212Y49689D02*
G02X51931I-8140J29986D01*
G02X53075Y58353I1241J4244D01*
G01X53596Y58351D01*
X54344Y58196D01*
X54350Y58195D01*
G03X65795Y58196I5722J21479D01*
G01X66553Y58351D01*
X66816Y58351D01*
X66831Y58352D01*
G02X68212Y49689I140J-4419D01*
G37*
G36*
G01X66767Y191450D02*
G02X75180Y206023I31008J-8188D01*
G02X82915Y198432I3749J-3916D01*
G01X82906Y198422D01*
X82889Y198398D01*
X82764Y198273D01*
G03X77271Y188758I15011J-15010D01*
G01X77255Y188700D01*
X77244Y188666D01*
X77242Y188662D01*
G02X66767Y191450I-5210J1498D01*
G37*
G36*
G01X30093Y529284D02*
G02X35514Y523862I0J-5422D01*
G02X34060Y520168I-5421J0D01*
G01X33976Y520077D01*
X33927Y520028D01*
G03X28433Y510513I15011J-15011D01*
G01X28417Y510453D01*
X28408Y510426D01*
X28407Y510422D01*
G02X23195Y506494I-5212J1493D01*
G02X17774Y511915I0J5422D01*
G02X17779Y512148I5421J-2D01*
G01X17780Y512180D01*
X17722Y512389D01*
G02X26258Y527697I31216J-7372D01*
G01X26352Y527791D01*
X28041Y529083D01*
X28160Y528929D01*
X28296Y528977D01*
G02X30093Y529284I1797J-5115D01*
G37*
G36*
G01X69647Y528743D02*
X70350Y528350D01*
X71421Y527616D01*
X71478Y527558D01*
G02X79728Y513270I-22541J-22541D01*
G01X79737Y513236D01*
X79850Y511800D01*
X79851Y511172D01*
G02X74680Y506691I-5171J743D01*
G02X69674Y510420I0J5224D01*
G01X69646Y510511D01*
X69633Y510563D01*
G03X64087Y520168I-20695J-5545D01*
G01X63300Y521350D01*
X62955Y521864D01*
G02X69647Y528743I4827J1999D01*
G37*
G36*
G01X106861Y590985D02*
G02X112283Y585564I0J-5422D01*
G02X110832Y581872I-5421J0D01*
G01X110824Y581864D01*
X110807Y581840D01*
X110696Y581729D01*
G03X105202Y572213I15011J-15010D01*
G01X105175Y572111D01*
X105164Y572084D01*
X105162Y572076D01*
G02X99964Y568195I-5198J1540D01*
G02X94605Y572794I0J5421D01*
G01X94584Y572928D01*
X94258Y573004D01*
X94716Y574988D01*
X94725Y575022D01*
G02X103026Y589399I30981J-8304D01*
G01X103063Y589436D01*
X104250Y590250D01*
X104798Y590577D01*
G02X106861Y590985I2063J-5014D01*
G37*
G36*
G01X103269Y162758D02*
X104700Y162900D01*
X105062Y162928D01*
G02X110094Y157520I-389J-5407D01*
G02X106120Y152296I-5421J0D01*
G01X106106Y152292D01*
X106089Y152284D01*
X106076Y152281D01*
G02X89473I-8302J30982D01*
G01X89448Y152288D01*
X88350Y152750D01*
X87604Y153198D01*
G02X90966Y162941I3273J4322D01*
G01X92147Y162794D01*
X92280Y162758D01*
G03X103269Y162758I5494J20505D01*
G37*
G36*
G01X665285Y102326D02*
X665291Y102321D01*
X665325Y102294D01*
X665403Y102215D01*
G02X673671Y87862I-22541J-22541D01*
G01X673684Y87798D01*
X673685Y87794D01*
G02X664216Y83737I-5080J-1222D01*
G01X663770Y84428D01*
X663558Y85220D01*
G03X658012Y94824I-20695J-5545D01*
G01X657450Y95650D01*
X656880Y96520D01*
G02X665285Y102326I4827J1999D01*
G37*
G36*
G01X660569Y484570D02*
G02X665991Y479149I0J-5422D01*
G02X662574Y474112I-5421J0D01*
G01X662536Y474096D01*
X662496Y474057D01*
G02X644847I-8825J30833D01*
G01X644808Y474096D01*
X644769Y474112D01*
G02X648066Y484414I2005J5037D01*
G01X648177Y484386D01*
G03X659165Y484386I5494J20505D01*
G01X659207Y484398D01*
X659241Y484405D01*
X659244Y484406D01*
G02X660569Y484570I1325J-5257D01*
G37*
G36*
G01X627746Y205753D02*
G02X635929Y191581I-22586J-22490D01*
G02X625859Y188795I-5026J-1427D01*
G01X625857Y188802D01*
X625855Y188808D01*
G03X620310Y198412I-20695J-5545D01*
G01X619082Y199640D01*
X619270Y199889D01*
X619222Y199997D01*
G02X627746Y205753I4778J2115D01*
G37*
G36*
G01X676588Y527504D02*
G02X684767Y513335I-22591J-22486D01*
G02X675122Y509469I-5028J-1420D01*
G01X674900Y510000D01*
X674692Y510563D01*
G03X669147Y520168I-20695J-5545D01*
G01X668600Y520900D01*
X668013Y521862D01*
G02X676588Y527504I4825J2004D01*
G37*
G36*
G01X523569Y496070D02*
G02X528991Y490649I0J-5422D01*
G02X525574Y485612I-5421J0D01*
G01X525536Y485597D01*
X525496Y485557D01*
G02X507847I-8825J30833D01*
G01X507808Y485597D01*
X507769Y485612D01*
G02X511066Y495914I2005J5037D01*
G01X511177Y495887D01*
G03X522165Y495886I5494J20505D01*
G01X522207Y495898D01*
X522241Y495905D01*
X522244Y495906D01*
G02X523569Y496070I1325J-5257D01*
G37*
G36*
G01X539263Y538877D02*
G02X547442Y524708I-22591J-22486D01*
G02X537408Y521791I-5028J-1420D01*
G01X537406Y521799D01*
X537397Y521823D01*
X537370Y521923D01*
Y521924D01*
G03X531821Y531541I-20698J-5533D01*
G01X531734Y531628D01*
X531718Y531648D01*
X531712Y531654D01*
G02X539263Y538877I3801J3585D01*
G37*
G36*
G01X599827Y589197D02*
G02X607995Y575048I-22598J-22479D01*
G02X597956Y572149I-5024J-1434D01*
G01X597954Y572155D01*
X597945Y572181D01*
X597923Y572265D01*
G03X592378Y581868I-20695J-5546D01*
G01X592330Y581916D01*
X592311Y581938D01*
X592308Y581941D01*
G02X599827Y589197I3763J3625D01*
G37*
G36*
G01X574152Y191450D02*
G02X582565Y206023I31008J-8188D01*
G02X590332Y198467I3749J-3916D01*
G01X590321Y198455D01*
X590304Y198427D01*
X590149Y198273D01*
G03X584655Y188758I15011J-15011D01*
G01X584640Y188700D01*
X584629Y188666D01*
X584627Y188662D01*
G02X574152Y191450I-5210J1498D01*
G37*
G36*
G01X558384Y590985D02*
G02X563805Y585564I0J-5422D01*
G02X562351Y581869I-5421J0D01*
G01X562277Y581790D01*
X562217Y581730D01*
G03X556723Y572213I15011J-15011D01*
G01X556550Y571500D01*
X556076Y570731D01*
G02X551486Y568195I-4590J2886D01*
G02X546108Y572928I0J5421D01*
G01X546100Y573800D01*
X546238Y574988D01*
X546247Y575022D01*
G02X554548Y589399I30982J-8304D01*
G01X554585Y589436D01*
X555450Y590100D01*
X556320Y590577D01*
G02X558384Y590985I2063J-5014D01*
G37*
G36*
G01X610654Y162758D02*
X611800Y162900D01*
X612656Y162909D01*
G02X617479Y157520I-599J-5388D01*
G02X613505Y152296I-5421J0D01*
G01X613491Y152292D01*
X613474Y152284D01*
X613461Y152281D01*
G02X596858I-8301J30982D01*
G01X596833Y152288D01*
X595600Y152800D01*
X594989Y153198D01*
G02X599500Y162798I3273J4322D01*
G01X599510Y162796D01*
X599533Y162793D01*
X599665Y162758D01*
G03X610654Y162758I5495J20505D01*
G37*
G36*
G01X582722Y546214D02*
X583700Y546350D01*
X584423Y546390D01*
G02X585574Y535752I-297J-5413D01*
G01X585560Y535748D01*
X585542Y535741D01*
X585530Y535737D01*
G02X568927I-8302J30982D01*
G01X568901Y535744D01*
X568150Y536100D01*
X567057Y536655D01*
G02X570034Y546390I3273J4322D01*
G01X570950Y546350D01*
X571734Y546214D01*
G03X582722I5494J20505D01*
G37*
G36*
G01X635134Y529335D02*
G02X640555Y523914I0J-5422D01*
G02X639101Y520219I-5421J0D01*
G01X639027Y520140D01*
X638967Y520080D01*
G03X633473Y510563I15011J-15011D01*
G01X632950Y509350D01*
X632826Y509081D01*
G02X628236Y506545I-4590J2886D01*
G02X622858Y511278I0J5421D01*
G01X622850Y512250D01*
X622988Y513338D01*
X622997Y513372D01*
G02X631298Y527749I30982J-8304D01*
G01X631335Y527786D01*
X632250Y528450D01*
X633070Y528927D01*
G02X635134Y529335I2063J-5014D01*
G37*
G36*
G01X648404Y59208D02*
X649600Y59350D01*
X650406Y59359D01*
G02X655229Y53970I-599J-5388D01*
G02X651255Y48746I-5421J0D01*
G01X651241Y48742D01*
X651224Y48734D01*
X651211Y48731D01*
G02X634608I-8301J30982D01*
G01X634583Y48738D01*
X633700Y49100D01*
X632739Y49648D01*
G02X637250Y59249I3273J4322D01*
G01X637260Y59246D01*
X637283Y59243D01*
X637415Y59208D01*
G03X648404Y59208I5495J20505D01*
G37*
G36*
G01X167411Y540635D02*
G02X172833Y535214I0J-5422D01*
G02X171382Y531522I-5421J0D01*
G01X171374Y531514D01*
X171357Y531490D01*
X171246Y531379D01*
G03X165752Y521863I15011J-15010D01*
G01X165725Y521761D01*
X165714Y521734D01*
X165712Y521726D01*
G02X160514Y517845I-5198J1540D01*
G02X155136Y522578I0J5421D01*
G01X155150Y522900D01*
X155266Y524638D01*
X155275Y524672D01*
G02X163576Y539049I30981J-8304D01*
G01X163691Y539164D01*
X165000Y540101D01*
X165150Y540150D01*
X165296Y540211D01*
X165348Y540227D01*
X165357Y540230D01*
G02X167411Y540635I2055J-5017D01*
G37*
G36*
G01X513345Y121451D02*
G03X513174Y122159I-246J315D01*
G02X509889Y126132I760J3973D01*
G02X517979I4045J0D01*
G02X516454Y122968I-4045J0D01*
G03X516632Y122261I249J-313D01*
G02X520039Y118182I-738J-4079D01*
G02X511749I-4145J0D01*
G02X513345Y121451I4145J0D01*
G37*
G36*
G01X84409Y303432D02*
G03Y304068I-242J318D01*
G02X83700Y305500I1091J1432D01*
G02X87300I1800J0D01*
G02X86591Y304068I-1800J0D01*
G03Y303432I242J-318D01*
G02X87300Y302000I-1091J-1432D01*
G02X83700I-1800J0D01*
G02X84409Y303432I1800J0D01*
G37*
G36*
G01X99822Y383815D02*
G03X99437Y384201I-400J-14D01*
G02X97700Y386000I63J1799D01*
G02X99500Y387800I1800J0D01*
G02X101299Y386063I0J-1800D01*
G03X101685Y385678I400J14D01*
G02X103420Y383942I-63J-1799D01*
G03X103806Y383556I400J14D01*
G02X105543Y381757I-63J-1799D01*
G02X103743Y379957I-1800J0D01*
G02X101944Y381694I0J1800D01*
G03X101558Y382080I-400J-14D01*
G02X99822Y383815I63J1799D01*
G37*
G36*
G01X411646Y384161D02*
G03Y384839I-212J339D01*
G02X410450Y387000I1354J2161D01*
G02X415550I2550J0D01*
G02X414354Y384839I-2550J0D01*
G03Y384161I212J-339D01*
G02X415550Y382000I-1354J-2161D01*
G02X410450I-2550J0D01*
G02X411646Y384161I2550J0D01*
G37*
G36*
G01X97696Y89340D02*
G02X97000Y89200I-696J1660D01*
G02X98800Y91000I0J1800D01*
G02X98758Y90615I-1800J0D01*
G03X99304Y90160I391J-86D01*
G02X100000Y90300I696J-1660D01*
G02X98200Y88500I0J-1800D01*
G02X98242Y88885I1800J0D01*
G03X97696Y89340I-391J86D01*
G37*
G36*
G01X486050Y304350D02*
X495200D01*
G02X501200Y298350I0J-6000D01*
G01Y288950D01*
G02X500971Y288313I-1000J0D01*
G03X501137Y287684I308J-255D01*
G02X501727Y287317I-637J-1684D01*
G03X502273I273J293D01*
G02X503500Y287800I1227J-1317D01*
G02Y284200I0J-1800D01*
G02X502273Y284683I0J1800D01*
G03X501727I-273J-293D01*
G02X499273I-1227J1317D01*
G03X498727I-273J-293D01*
G02X497500Y284200I-1227J1317D01*
G02X495700Y286000I0J1800D01*
G02X496222Y287268I1800J0D01*
G03X495938Y287950I-284J282D01*
G01X481050D01*
G02X480050Y288950I0J1000D01*
G01Y298350D01*
G02X486050Y304350I6000J0D01*
G37*
G36*
G01X106636Y336750D02*
G02X105000Y335700I-1636J750D01*
G02Y339300I0J1800D01*
G02X106636Y338250I0J-1800D01*
G03X107364I364J167D01*
G02X109000Y339300I1636J-750D01*
G02X110800Y337500I0J-1800D01*
G02X110699Y336905I-1800J0D01*
G03X111085Y336373I378J-132D01*
G02X107315Y335834I333J-15776D01*
G03X107536Y336452I-104J386D01*
G02X107364Y336750I1464J1047D01*
G03X106636I-364J-167D01*
G37*
G36*
G01X193254Y345369D02*
G02X192864Y346373I1096J1004D01*
G02X195836I1486J0D01*
G02X194779Y344950I-1486J0D01*
G03X194600Y344297I116J-383D01*
G02X194990Y343294I-1096J-1004D01*
G02X192018I-1486J0D01*
G02X193074Y344716I1486J0D01*
G03X193254Y345369I-116J383D01*
G37*
G36*
G01X193340Y359804D02*
G02X193200Y360500I1660J696D01*
G02X195000Y358700I1800J0D01*
G02X194615Y358742I0J1800D01*
G03X194160Y358196I-86J-391D01*
G02X194300Y357500I-1660J-696D01*
G02X192500Y359300I-1800J0D01*
G02X192885Y359258I0J-1800D01*
G03X193340Y359804I86J391D01*
G37*
G36*
G01X115385Y367742D02*
G02X115000Y367700I-385J1759D01*
G02X116800Y369500I0J1800D01*
G02X116660Y368804I-1800J0D01*
G03X117115Y368258I369J-155D01*
G02X117500Y368300I385J-1759D01*
G02X115700Y366500I0J-1800D01*
G02X115840Y367196I1800J0D01*
G03X115385Y367742I-369J155D01*
G37*
G54D35*
X523675Y569609D03*
G54D42*
X560407Y196972D03*
G54D28*
X461703Y445134D03*
X591516Y320596D03*
X351467Y92407D03*
G54D27*
Y433323D03*
X470801Y226630D03*
X232133D03*
G54D31*
X599498Y256157D03*
G54D24*
X241231Y445134D03*
G54D33*
X635298Y560315D03*
G54D26*
X172528Y464501D03*
X617392Y40407D03*
X142527Y196972D03*
X179259Y569609D03*
X54905Y446950D03*
G54D37*
X158662Y362329D03*
Y278864D03*
G54D25*
X229587Y496342D03*
X473347D03*
X51136Y187202D03*
X67636Y560315D03*
X651798Y187202D03*
G54D32*
X530406Y464501D03*
X648029Y446950D03*
X681122Y106636D03*
X85542Y40407D03*
X21812Y106636D03*
G54D30*
X544272Y362329D03*
Y278864D03*
G54D38*
X103435Y256157D03*
G54D23*
X100311Y518640D03*
G54D36*
X232133Y364425D03*
G54D34*
X602622Y518640D03*
G54D29*
X470801Y364425D03*
G54D40*
X351467Y157732D03*
G54D39*
X241231Y126236D03*
G54D41*
X461703D03*
G54D43*
X118000Y552500D03*
X117793Y581707D03*
X381447Y485053D03*
X593000Y566500D03*
X441827Y284827D03*
X179500Y501500D03*
X123098Y500598D03*
X64000Y506000D03*
X453096Y256097D03*
X417846Y459846D03*
X128753Y69247D03*
X413000Y376000D03*
X467000Y331500D03*
X507904Y272597D03*
X597251Y198251D03*
X88500Y198000D03*
X250227Y487227D03*
X281337Y486337D03*
X598000Y171000D03*
X533500Y516000D03*
X622500Y184500D03*
X639035Y91535D03*
X41732Y494268D03*
X595957Y97043D03*
X203000Y518500D03*
X568000Y154500D03*
X658500Y80000D03*
X413593Y485907D03*
X571500Y555969D03*
X112571Y183571D03*
X40506Y520006D03*
X508500Y503000D03*
X444676Y486324D03*
X634500Y65000D03*
X117018Y92518D03*
X587000Y74500D03*
X76000Y79000D03*
X142000Y566500D03*
X52174Y66200D03*
X590000Y129500D03*
X90987Y172513D03*
X568293Y581707D03*
X313487Y486013D03*
X52162Y94662D03*
X177500Y531000D03*
X347471Y485029D03*
X592944Y494444D03*
X670000Y504500D03*
X645006Y520006D03*
X147000Y148500D03*
X648232Y494268D03*
X121000Y125500D03*
X96874Y430626D03*
X508379Y531379D03*
X483461Y331500D03*
X490954Y333454D03*
G54D21*
X498500Y189000D03*
X57731Y512231D03*
X40015Y512985D03*
X181000Y508500D03*
X124851Y558649D03*
X53500Y500500D03*
X44500D03*
X524808Y524308D03*
X647282Y74218D03*
X609815Y179815D03*
X614758Y192500D03*
X651708Y88000D03*
X595869Y191296D03*
X634000Y88000D03*
X601000Y180000D03*
X638218Y74218D03*
X507092Y524408D03*
X512009Y513500D03*
X520668Y513168D03*
X568306Y574306D03*
X123000Y366000D03*
X80500Y370500D03*
X68866Y87366D03*
X130500Y358000D03*
X385250Y429750D03*
X657846Y502154D03*
X161000Y208500D03*
X122000Y424500D03*
X184493Y440328D03*
X135000Y353000D03*
X184000Y255500D03*
X127000Y365500D03*
X88853Y190353D03*
X106569Y190431D03*
X93469Y179031D03*
X102031D03*
X64000Y76000D03*
X56000Y75442D03*
X51150Y87350D03*
X82854Y430854D03*
X113846Y407654D03*
X83000Y476000D03*
X388000Y464500D03*
X181500Y431500D03*
X525800Y425500D03*
X572987Y562487D03*
X581500Y562500D03*
X645000Y514000D03*
X649000Y501500D03*
X586022Y574478D03*
X662791Y513709D03*
X514000Y479500D03*
X268000Y393000D03*
X122000Y373500D03*
X497500Y116500D03*
X82000Y298000D03*
X177340Y524340D03*
X386000Y425500D03*
X458630Y282630D03*
X491722Y308578D03*
X463500Y263000D03*
X181000Y230000D03*
X195056Y524444D03*
X125850Y111000D03*
X134500Y575000D03*
X436352Y457000D03*
X436500Y218500D03*
X117000Y574500D03*
X192500Y508500D03*
X603000Y229000D03*
X185140Y167500D03*
X63805Y65175D03*
X504741Y105234D03*
X136000Y305500D03*
X564000Y479500D03*
X150500Y176000D03*
X164500Y75500D03*
X180989Y368698D03*
X182000Y263992D03*
X89000Y309000D03*
X115500Y161500D03*
X182000Y384500D03*
X115500Y341500D03*
X181000Y380000D03*
X127000Y336500D03*
X164500Y101000D03*
X205000Y57500D03*
X75500Y349000D03*
X140500Y308500D03*
X80548Y382548D03*
X255500Y383500D03*
X174000D03*
X204500Y398000D03*
X128680Y314304D03*
X103000Y352500D03*
X41000Y488000D03*
X85000Y359500D03*
X169000Y192000D03*
X136400Y119500D03*
X157000Y176000D03*
X269500Y368000D03*
X260500Y80000D03*
X118500Y378500D03*
X97000Y358500D03*
X92828Y349007D03*
X442102Y294000D03*
X181400Y340500D03*
X265500Y379500D03*
X190500Y367000D03*
X197500Y410000D03*
X191500Y218500D03*
X107654Y390332D03*
X145846Y341154D03*
X432000Y474500D03*
X190500Y406400D03*
X483000Y461500D03*
X491500Y467000D03*
X202154Y457654D03*
X441000Y447500D03*
X205000Y381500D03*
X487500Y441500D03*
X504500Y449500D03*
X255500Y432500D03*
X213000Y466000D03*
X532500Y220000D03*
X220000Y59500D03*
X524500Y250500D03*
X525500Y222500D03*
X530500Y236500D03*
X548000Y227000D03*
X138000Y83346D03*
X450423Y82077D03*
X251749Y88751D03*
X606000Y106000D03*
X468000Y94500D03*
X258493Y66672D03*
X175500Y241000D03*
X130000Y108000D03*
X547500Y205000D03*
X256500Y190500D03*
X207000Y194000D03*
X525000Y191500D03*
G54D45*
X204825Y150661D03*
G54D47*
X546834Y80662D03*
X210099D03*
G54D20*
X458000Y185500D03*
X196000Y167000D03*
X401000Y461000D03*
X398000Y463500D03*
X186500Y458000D03*
X189000Y460500D03*
X219750Y447750D03*
X257500Y462000D03*
X401500Y399500D03*
X212000Y444000D03*
X179750Y441250D03*
X426500Y399500D03*
X214000Y449500D03*
X223700Y458500D03*
X461500Y336000D03*
G54D22*
X188999Y126132D03*
X550544Y101332D03*
X523774Y67942D03*
X550544Y89512D03*
X513934Y64712D03*
X525734Y126132D03*
X489124Y89512D03*
Y101332D03*
X213809D03*
X152389Y89512D03*
Y101332D03*
X187039Y67942D03*
X213809Y89512D03*
X177199Y64712D03*
G54D46*
X504874Y89512D03*
X168139D03*
G54D44*
X544650Y324844D03*
Y316970D03*
X158662Y316659D03*
Y324533D03*
%LPD*%
G75*
G54D10*
X38500Y72000D03*
X28000Y497000D03*
X52174Y66200D03*
X52162Y94662D03*
X41732Y494268D03*
X40506Y520006D03*
X52707Y527293D03*
X76000Y79000D03*
X80000Y66000D03*
X63842Y102342D03*
X76000Y175500D03*
X67500Y491000D03*
X64000Y506000D03*
X90987Y172513D03*
X88500Y198000D03*
X101545Y205955D03*
X105000Y343500D03*
X84500Y369000D03*
X95500Y402500D03*
X96874Y430626D03*
X103080Y560580D03*
X112500Y64500D03*
X117018Y92518D03*
X107035Y105035D03*
X121000Y125500D03*
X121264Y143000D03*
X116000Y168500D03*
X112571Y183571D03*
X107154Y407654D03*
X123098Y500598D03*
X115106Y483606D03*
X118000Y552500D03*
X117793Y581707D03*
X128753Y69247D03*
X147000Y148500D03*
X139154Y341654D03*
X142000Y566500D03*
X144500Y552000D03*
X129476Y589976D03*
X164604Y130604D03*
X149000Y165500D03*
X164252Y510252D03*
X172500Y143500D03*
X179500Y501500D03*
X177500Y531000D03*
X190032Y539968D03*
X209500Y146500D03*
X203154Y176846D03*
X207500Y402000D03*
X203000Y518500D03*
X204605Y503605D03*
X227097Y159596D03*
X214500Y391500D03*
X217500Y461500D03*
X250227Y487227D03*
X265500Y373500D03*
X263106Y448394D03*
X258219Y500781D03*
X281337Y486337D03*
X289329Y500329D03*
X320192Y448808D03*
X313487Y486013D03*
X321479Y500979D03*
X327985Y385965D03*
X347471Y485029D03*
X355463Y501963D03*
X387000Y390500D03*
X384000Y386500D03*
X381447Y485053D03*
X389439Y501061D03*
X390000Y394000D03*
X398500Y422500D03*
X411154Y459654D03*
X413000Y376000D03*
Y382000D03*
Y387000D03*
X413865Y403135D03*
X417846Y459846D03*
X413593Y485907D03*
X421585Y501085D03*
X453096Y256097D03*
X441827Y284827D03*
X441551Y310949D03*
X440602Y321398D03*
X444676Y486324D03*
X452668Y500668D03*
X458500Y260500D03*
Y300500D03*
X476500Y291500D03*
X473761Y325261D03*
X467000Y331500D03*
X482370Y259500D03*
X483461Y331500D03*
X490954Y333454D03*
X492000Y507000D03*
X507904Y272597D03*
X505500Y327398D03*
X508500Y503000D03*
X508379Y531379D03*
X520442Y542000D03*
X541500Y153500D03*
X541000Y502500D03*
X533500Y516000D03*
X555000Y558500D03*
X585500Y58500D03*
X568500Y131000D03*
X585916Y110416D03*
X568000Y154500D03*
X583000Y180500D03*
X579845Y481500D03*
X571500Y555969D03*
X568293Y581707D03*
X586355Y585645D03*
X587000Y74500D03*
X595957Y97043D03*
X590000Y129500D03*
X598000Y171000D03*
X597251Y198251D03*
X592944Y494444D03*
X593000Y566500D03*
X596000Y552500D03*
X620535Y73535D03*
X624578Y169007D03*
X622500Y184500D03*
X613311Y202189D03*
X634500Y65000D03*
X639035Y91535D03*
X646632Y103000D03*
X648232Y494268D03*
X632250Y496250D03*
X645006Y520006D03*
X660500Y65000D03*
X658500Y80000D03*
X671500Y490000D03*
X670000Y504500D03*
X657767Y527233D03*
G54D11*
X56000Y75442D03*
X51150Y87350D03*
X41000Y488000D03*
X53500Y500500D03*
X44500D03*
X40015Y512985D03*
X57731Y512231D03*
X63805Y65175D03*
X64000Y76000D03*
X68866Y87366D03*
X82000Y298000D03*
X75500Y349000D03*
X80500Y370500D03*
X80548Y382548D03*
X82854Y430854D03*
X83000Y476000D03*
X100000Y88500D03*
X97000Y91000D03*
X102031Y179031D03*
X93469D03*
X88853Y190353D03*
X85500Y305500D03*
Y302000D03*
X89000Y309000D03*
X92828Y349007D03*
X85000Y359500D03*
X97000Y358500D03*
X103000Y352500D03*
X99500Y386000D03*
X101621Y383879D03*
X103743Y381757D03*
X122576Y95424D03*
X125850Y111000D03*
X115500Y161500D03*
X106569Y190431D03*
X115500Y341500D03*
X109000Y337500D03*
X105000D03*
X117500Y366500D03*
X115000Y369500D03*
X123000Y366000D03*
X107654Y390332D03*
X122000Y373500D03*
X118500Y378500D03*
X113846Y407654D03*
X122000Y424500D03*
X124851Y558649D03*
X117000Y574500D03*
X138000Y83346D03*
X130000Y108000D03*
X136400Y119500D03*
X136000Y305500D03*
X140500Y308500D03*
X128680Y314304D03*
X127000Y336500D03*
X145846Y341154D03*
X130500Y358000D03*
X135000Y353000D03*
X127000Y365500D03*
X134500Y575000D03*
X164500Y75500D03*
Y101000D03*
X169000Y192000D03*
X157000Y176000D03*
X150500D03*
X161000Y208500D03*
X170500Y217000D03*
X185140Y167500D03*
X191500Y218500D03*
X181000Y230000D03*
X175000Y224000D03*
X175500Y241000D03*
X184000Y255500D03*
X182000Y263992D03*
X181400Y340500D03*
X180989Y368698D03*
X190500Y367000D03*
X181000Y380000D03*
X182000Y384500D03*
X174000Y383500D03*
X190500Y406400D03*
X181500Y431500D03*
X184493Y440328D03*
X181000Y508500D03*
X177340Y524340D03*
X205000Y57500D03*
X207000Y194000D03*
X195000Y360500D03*
X192500Y357500D03*
X205000Y381500D03*
X197500Y410000D03*
X204500Y398000D03*
X202154Y457654D03*
X213000Y466000D03*
X192500Y508500D03*
X195056Y524444D03*
X220000Y59500D03*
X251749Y88751D03*
X251476Y95476D03*
X256500Y190500D03*
X255500Y383500D03*
Y432500D03*
X260500Y80000D03*
X258493Y66672D03*
X269500Y368000D03*
X268000Y393000D03*
X265500Y379500D03*
X385250Y429750D03*
X386000Y425500D03*
X388000Y464500D03*
X432000Y474500D03*
X450423Y82077D03*
X451148Y75352D03*
X436500Y218500D03*
X442102Y294000D03*
X441000Y447500D03*
X436352Y457000D03*
X468000Y94500D03*
X458630Y282630D03*
X463500Y263000D03*
X497500Y116500D03*
X498500Y189000D03*
X497500Y286000D03*
X491722Y308578D03*
X487500Y441500D03*
X491500Y467000D03*
X483000Y461500D03*
X504741Y105234D03*
X500500Y286000D03*
X503500D03*
X504500Y449500D03*
X514000Y479500D03*
X512009Y513500D03*
X507092Y524408D03*
X525000Y191500D03*
X537000Y215500D03*
X532500Y220000D03*
X525500Y222500D03*
X530500Y236500D03*
X524500Y250500D03*
X525800Y425500D03*
X520668Y513168D03*
X524808Y524308D03*
X547500Y205000D03*
X543000Y210000D03*
X548000Y227000D03*
X564000Y479500D03*
X572987Y562487D03*
X581500Y562500D03*
X586022Y574478D03*
X568306Y574306D03*
X587346Y85154D03*
X606000Y106000D03*
X595869Y191296D03*
X601000Y180000D03*
X603000Y229000D03*
X614758Y192500D03*
X609815Y179815D03*
X638218Y74218D03*
X647282D03*
X651708Y88000D03*
X634000D03*
X649000Y501500D03*
X645000Y514000D03*
X657846Y502154D03*
X662791Y513709D03*
G54D12*
X152389Y89512D03*
Y101332D03*
X187039Y67942D03*
X177199Y64712D03*
Y126132D03*
X188999D03*
X179159Y118182D03*
X213809Y89512D03*
X210099Y80662D03*
X213809Y101332D03*
X489124Y89512D03*
Y101332D03*
X513934Y64712D03*
Y126132D03*
X515894Y118182D03*
X523774Y67942D03*
X525734Y126132D03*
X550544Y89512D03*
X546834Y80662D03*
X550544Y101332D03*
G54D13*
X168139Y89512D03*
X504874D03*
G54D14*
X158662Y316659D03*
Y324533D03*
X544650Y324844D03*
Y316970D03*
G54D15*
X175297Y150661D03*
G54D16*
X180612Y142196D03*
Y159126D03*
X199510Y142196D03*
Y159126D03*
G54D17*
X186500Y458000D03*
X179750Y441250D03*
X189000Y460500D03*
X196000Y167000D03*
X194350Y346373D03*
X193504Y343294D03*
X212000Y444000D03*
X214000Y449500D03*
X219750Y447750D03*
X223700Y458500D03*
X257500Y462000D03*
X401500Y399500D03*
X401000Y461000D03*
X398000Y463500D03*
X426500Y399500D03*
X458000Y185500D03*
X461500Y336000D03*
G54D18*
X204825Y150661D03*
G54D19*
G01X177199Y126132D02*
Y130377D01*
G01X172954Y126132D02*
X177199D01*
G01D02*
X181444D01*
G01X210099Y76417D02*
Y80662D01*
G01D02*
Y84907D01*
G01X205854Y80662D02*
X210099D01*
G01D02*
X214344D01*
G01X513934Y126132D02*
Y130377D01*
G01X509689Y126132D02*
X513934D01*
G01D02*
X518179D01*
G01X546834Y76417D02*
Y80662D01*
G01D02*
Y84907D01*
G01X542589Y80662D02*
X546834D01*
G01D02*
X551079D01*
M02*
