G04 ================== begin FILE IDENTIFICATION RECORD ==================*
G04 Layout Name:  C:/CenturyPlan/scxStandard/scxStandard.brd*
G04 Film Name:    POWER*
G04 File Format:  Gerber RS274X*
G04 File Origin:  Cadence Allegro -unreleased*
G04 Origin Date:  Sat Sep 20 16:10:48 2025*
G04 *
G04 Layer:  ETCH/POWER*
G04 Layer:  PIN/POWER*
G04 Layer:  VIA CLASS/POWER*
G04 *
G04 Offset:    (0.000 0.000)*
G04 Mirror:    No*
G04 Mode:      Positive*
G04 Rotation:  0*
G04 FullContactRelief:  No*
G04 UndefLineWidth:     2.000*
G04 ================== end FILE IDENTIFICATION RECORD ====================*
%FSLAX25Y25*MOIN*%
%IR0*IPPOS*OFA0.00000B0.00000*MIA0B0*SFA1.00000B1.00000*%
%ADD11C,.024*%
%ADD10C,.039*%
%ADD16O,.05315X.043307*%
%ADD12C,.0709*%
%ADD13C,.0719*%
%ADD18C,.024409*%
%ADD14C,.047244*%
%ADD17C,.017717*%
%ADD15O,.035433X.027559*%
%ADD19C,.02*%
%ADD28C,.315603*%
%ADD24C,.528201*%
%ADD39C,.433711*%
%ADD23C,.315604*%
%ADD25C,.142373*%
%ADD26C,.284106*%
%ADD21C,.142374*%
%ADD29C,.284107*%
%ADD22C,.142375*%
%ADD40C,.295911*%
%ADD27C,.528197*%
%ADD31C,.528199*%
%ADD30C,.165996*%
%ADD32C,.165997*%
%ADD35C,.051004*%
%ADD37C,.036004*%
%ADD34C,.036414*%
%ADD36C,.029722*%
%ADD20C,.082904*%
%ADD38C,.083904*%
%ADD33C,.059248*%
G75*
%LPD*%
G75*
G36*
G01X66183Y300243D02*
G02X70534Y305088I4874J0D01*
G03Y336104I-1677J15508D01*
G02X66183Y340950I524J4846D01*
G01Y400279D01*
G03X59783Y418690I-29677J0D01*
G01X13610Y476940D01*
X13583Y476974D01*
X13582Y476976D01*
X13573Y476986D01*
G02X20673Y540195I35364J28031D01*
G01X20798Y540296D01*
X97091Y601598D01*
X97398Y601845D01*
G02X149852Y604763I28265J-35177D01*
G01X149948Y604702D01*
X247877Y541948D01*
X247924D01*
X247971Y541921D01*
G03X259915Y538045I14925J25651D01*
G01X260095Y538027D01*
Y537895D01*
X270718D01*
Y537838D01*
X272831D01*
X272943Y537851D01*
G02X280557Y531198I773J-6799D01*
G01X280559Y530947D01*
G03X306244Y531053I12842J106D01*
G02X313086Y537895I6842J0D01*
G01X440686D01*
X440713Y537903D01*
X440739Y537904D01*
G03X455921Y542503I-700J29669D01*
G01X456067Y542596D01*
X552924Y604662D01*
G02X605536Y601845I24347J-37994D01*
G01X682136Y540296D01*
X682261Y540195D01*
G02X689360Y476986I-28265J-35178D01*
G01X643151Y418690D01*
G03X636750Y400280I23276J-18410D01*
G01Y340950D01*
G02X632400Y336104I-4874J0D01*
G03X632327Y305096I1677J-15508D01*
G01X632339Y305095D01*
X632371Y305091D01*
X632403Y305088D01*
G02X636750Y300243I-527J-4845D01*
G01Y299000D01*
X636750Y256740D01*
G03X637462Y250199I29678J-83D01*
G03X638601Y246342I28967J6457D01*
G01X659153Y189879D01*
G02X654475Y179847I-7355J-2677D01*
G01X639639Y174447D01*
G03X635664Y170727I2373J-6519D01*
G02X629805Y161348I-30505J12536D01*
G01X612316Y142086D01*
G03X621857Y115821I11694J-10617D01*
G01X647630Y112308D01*
G02X658164Y108889I-4768J-32634D01*
G03X663665Y108609I3074J6219D01*
G01X663666Y108610D01*
X678445Y113990D01*
G02X688476Y109313I2677J-7355D01*
G01X692012Y99597D01*
X692666Y97802D01*
G02X642862Y26674I-49804J-18127D01*
G01X519668D01*
G02X490836Y33089I166J68748D01*
G01X445680Y54227D01*
G03X433258Y56988I-12500J-26916D01*
G01X269677D01*
G03X257254Y54227I77J-29677D01*
G01X212098Y33089D01*
G02X182937Y26674I-28998J62333D01*
G01X60072D01*
G02X10268Y97802I0J53000D01*
G01X10922Y99597D01*
X10921Y99597D01*
X14457Y109313D01*
G02X24489Y113990I7355J-2677D01*
G01X39287Y108604D01*
G03X44714Y108862I2411J6505D01*
G01X44721Y108865D01*
X44759Y108880D01*
X44892Y108949D01*
G02X55617Y112349I15180J-29274D01*
G01X58385Y112726D01*
Y112728D01*
X81077Y115821D01*
G03X90617Y142086I-2154J15648D01*
G01X73129Y161348D01*
G02X67270Y170727I24646J21915D01*
G03X63295Y174447I-6347J-2799D01*
G01X48437Y179855D01*
G02X43781Y189879I2699J7347D01*
G01X64423Y246591D01*
X64423Y246593D01*
X64428Y246606D01*
X64428Y246608D01*
G03X66183Y256528I-27922J10055D01*
G01Y300243D01*
G37*
%LPC*%
G75*
G36*
G01X624018Y103941D02*
G02X629400Y99176I0J-5422D01*
G01X629421Y99000D01*
X656502D01*
X656524Y99175D01*
G02X665285Y102326I5183J-656D01*
G01X665291Y102321D01*
X665325Y102294D01*
X665403Y102215D01*
G02X673671Y87862I-22541J-22541D01*
G01X673684Y87798D01*
X673685Y87794D01*
G02X664216Y83737I-5080J-1222D01*
G01X663770Y84428D01*
X663558Y85220D01*
G03X663281Y86164I-20695J-5545D01*
G03X662500Y86043I-381J-121D01*
G01Y67737D01*
G02X662257Y67122I-900J0D01*
G03X662265Y66841I146J-137D01*
G02X663050Y65000I-1765J-1841D01*
G02X661989Y62930I-2550J0D01*
G03X661942Y62652I117J-162D01*
G02X662028Y61771I-737J-517D01*
G02X657000Y58500I-5028J2230D01*
G01X653910D01*
G03X653629Y57816I0J-400D01*
G02X655229Y53970I-3822J-3846D01*
G02X651255Y48746I-5421J0D01*
G01X651241Y48742D01*
X651224Y48734D01*
X651211Y48731D01*
G02X634608I-8301J30982D01*
G01X634583Y48738D01*
X633700Y49100D01*
X632739Y49648D01*
G02X632191Y57816I3273J4322D01*
G03X631909Y58500I-282J284D01*
G01X588057D01*
X588043Y58314D01*
G02X582957I-2543J186D01*
G01X582943Y58500D01*
X563000D01*
G02X557500Y64000I0J5500D01*
G01Y97500D01*
G03X555282Y101378I-4500J0D01*
G03X554680Y101060I-203J-345D01*
G02X550544Y97187I-4136J272D01*
G02X546399Y101332I0J4145D01*
G02X546406Y101576I4145J0D01*
G03X546007Y102000I-399J24D01*
G01X509730D01*
X509581Y102222D01*
G03X507419I-1081J-722D01*
G01X507270Y102000D01*
X493661D01*
G03X493262Y101576I0J-400D01*
G02X493269Y101332I-4138J-244D01*
G02X484979I-4145J0D01*
G02X484986Y101576I4145J0D01*
G03X484587Y102000I-399J24D01*
G01X401500D01*
G02X396000Y107500I0J5500D01*
G01Y111500D01*
G02X401500Y117000I5500J0D01*
G01X468000D01*
G03X472500Y121500I0J4500D01*
G01Y154500D01*
G02X478000Y160000I5500J0D01*
G01X542000D01*
G03X546500Y164500I0J4500D01*
G01Y181500D01*
G03X545000Y183000I-1500J0D01*
G01X539419D01*
G03X539085Y182379I0J-400D01*
G02X539500Y181000I-2086J-1379D01*
G01Y176500D01*
G02X534000Y171000I-5500J0D01*
G01X442000D01*
G03X437500Y166500I0J-4500D01*
G01Y158000D01*
G02X432000Y152500I-5500J0D01*
G01X384500D01*
G02X379000Y158000I0J5500D01*
G01Y163500D01*
G02X384500Y169000I5500J0D01*
G01X422000D01*
G03X426500Y173500I0J4500D01*
G01Y366500D01*
G03X422000Y371000I-4500J0D01*
G01X313507D01*
X313235Y372116D01*
X313683Y372380D01*
G03X314467Y375315I-1100J1866D01*
G03X311514Y376129I-1883J-1070D01*
G03X310699Y373177I1069J-1884D01*
G03X311188Y372589I1884J1069D01*
G02X310608Y371000I-580J-689D01*
G01X271500D01*
G03X267000Y366500I0J-4500D01*
G01Y308000D01*
G02X261500Y302500I-5500J0D01*
G01X251500D01*
G02X246000Y308000I0J5500D01*
G01Y341243D01*
G03X245399Y341589I-400J0D01*
G02X246049Y386871I-13266J22836D01*
G03X246615Y387027I211J340D01*
G02X251500Y390000I4885J-2527D01*
G01X312168D01*
G02X313048Y388908I0J-900D01*
G03X312997Y388454I1999J-455D01*
G03X317096I2050J0D01*
G03X317045Y388908I-2050J0D01*
G02X317925Y390000I880J192D01*
G01X384052D01*
G03X384451Y390414I0J400D01*
G02X384450Y390500I2549J87D01*
G02X387000Y393050I2550J0D01*
G02X387088Y393049I1J-2550D01*
G03X387495Y393523I14J400D01*
G02X387450Y394000I2505J477D01*
G02X390000Y391450I2550J0D01*
G02X389912Y391451I-1J2550D01*
G03X389505Y390977I-14J-400D01*
G02X389550Y390500I-2505J-477D01*
G02X389549Y390414I-2550J1D01*
G03X389949Y390000I400J-13D01*
G01X433000D01*
G02X438500Y384500I0J-5500D01*
G01Y323807D01*
G03X439131Y323480I400J0D01*
G02X440602Y323948I1471J-2083D01*
G02Y318847I0J-2550D01*
G02X439131Y319315I0J2550D01*
G03X438500Y318988I-231J-327D01*
G01Y288500D01*
X445500D01*
Y277000D01*
X512000D01*
Y268500D01*
X437500D01*
Y220698D01*
G02X437397Y220280I-900J0D01*
G03X437467Y220018I177J-93D01*
G02Y216982I-967J-1518D01*
G03X437397Y216720I107J-169D01*
G02X437500Y216302I-797J-418D01*
G01Y183500D01*
G03X442000Y179000I4500J0D01*
G01X481646D01*
G03X482041Y179462I0J400D01*
G02X482000Y180000I3459J538D01*
G01Y192500D01*
G02X487500Y198000I5500J0D01*
G01X553362D01*
X553390Y198167D01*
G02X567177Y199172I7017J-1195D01*
G03X567807Y198983I380J124D01*
G03X569500Y202500I-2807J3517D01*
G01Y247500D01*
G03X565000Y252000I-4500J0D01*
G01X526406D01*
G03X526059Y251400I0J-400D01*
G02X526300Y250500I-1559J-900D01*
G02X522700I-1800J0D01*
G02X522941Y251400I1800J0D01*
G03X522594Y252000I-346J200D01*
G01X480562D01*
G03X480416Y251227I0J-400D01*
G02X461186I-9615J-24597D01*
G03X461041Y252000I-146J373D01*
G01X451000D01*
G02X448500Y254500I0J2500D01*
G01Y256000D01*
G02X451000Y258500I2500J0D01*
G01X452244D01*
X452275Y258511D01*
G02X453096Y258647I821J-2414D01*
G02X453918Y258511I0J-2550D01*
G01X453949Y258500D01*
X456021D01*
G03X456357Y259117I0J400D01*
G02X455950Y260500I2143J1383D01*
G02X461050I2550J0D01*
G02X460643Y259117I-2550J0D01*
G03X460979Y258500I336J-217D01*
G01X479482D01*
G03X479873Y258982I0J400D01*
G02X479820Y259500I2497J519D01*
G02X484920I2550J0D01*
G02X484867Y258982I-2550J0D01*
G03X485259Y258500I392J-81D01*
G01X565000D01*
G03X569500Y263000I0J4500D01*
G01Y322500D01*
G03X565000Y327000I-4500J0D01*
G01X547518D01*
G03X547176Y326391I0J-400D01*
G02X547612Y324844I-2527J-1547D01*
G02X541687I-2962J0D01*
G02X542123Y326391I2962J0D01*
G03X541782Y327000I-341J209D01*
G01X512500D01*
Y280000D01*
X480000D01*
Y289500D01*
X480050D01*
Y298350D01*
G02X486050Y304350I6000J0D01*
G01X495200D01*
G02X501200Y298350I0J-6000D01*
G01Y289500D01*
X502500D01*
Y327000D01*
X476390D01*
G03X476034Y326418I0J-400D01*
G02X476311Y325261I-2273J-1157D01*
G02X471211I-2550J0D01*
G02X471489Y326418I2550J0D01*
G03X471132Y327000I-356J182D01*
G01X462500D01*
G02X460000Y329500I0J2500D01*
G01Y333500D01*
G02X460457Y334941I2500J0D01*
G02X460014Y336000I1043J1059D01*
G02X461500Y337486I1486J0D01*
G02X462976Y336176I0J-1486D01*
G01X462997Y336000D01*
X490820D01*
X490825Y336000D01*
G02X490954Y336004I128J-2547D01*
G02X491082Y336000I1J-2550D01*
G01X491087Y336000D01*
X588091D01*
G02X594919Y336005I3425J-15404D01*
G01X594941Y336000D01*
X598500D01*
G03X603000Y340500I0J4500D01*
G01Y475500D01*
G03X598500Y480000I-4500J0D01*
G01X582733D01*
G02X582243Y480145I0J900D01*
G03X581968Y480088I-109J-168D01*
G02X577721I-2123J1412D01*
G03X577446Y480145I-166J-111D01*
G02X576956Y480000I-490J755D01*
G01X566198D01*
G03X565798Y479582I0J-400D01*
G02X565800Y479500I-1798J-83D01*
G02X562200I-1800J0D01*
G02X562202Y479582I1800J-1D01*
G03X561802Y480000I-400J18D01*
G01X516198D01*
G03X515798Y479582I0J-400D01*
G02X515800Y479500I-1798J-83D01*
G02X512200I-1800J0D01*
G02X512202Y479582I1800J-1D01*
G03X511802Y480000I-400J18D01*
G01X427500D01*
G03X423000Y475500I0J-4500D01*
G01Y458500D01*
G02X420500Y456000I-2500J0D01*
G01X416500D01*
G02X414000Y458500I0J2500D01*
G01Y459105D01*
X413648D01*
X413607Y458959D01*
G02X411154Y457103I-2454J694D01*
G02Y462204I0J2550D01*
G02X413268Y461079I0J-2550D01*
G03X414000Y461302I332J224D01*
G01Y475500D01*
G03X409500Y480000I-4500J0D01*
G01X213500D01*
G02X208000Y485500I0J5500D01*
G01Y487000D01*
G03X203500Y491500I-4500J0D01*
G01X198964D01*
G03X198565Y491068I0J-400D01*
G02X198582Y490649I-5249J-419D01*
G02X195165Y485612I-5421J0D01*
G01X195127Y485597D01*
X195087Y485557D01*
G02X177643Y485499I-8825J30833D01*
G01X177615Y485518D01*
X177592Y485526D01*
G02X173960Y491069I1773J5123D01*
G03X173561Y491500I-399J31D01*
G01X105000D01*
G03X100500Y487000I0J-4500D01*
G01Y388198D01*
G02X100397Y387780I-900J0D01*
G03X100467Y387518I177J-93D01*
G02X101299Y386063I-967J-1518D01*
G03X101685Y385678I400J14D01*
G02X103420Y383942I-63J-1799D01*
G03X103806Y383556I400J14D01*
G02X105543Y381757I-63J-1799D01*
G02X103743Y379957I-1800J0D01*
G02X101944Y381694I0J1800D01*
G03X101558Y382080I-400J-14D01*
G02X101031Y382178I63J1799D01*
G03X100500Y381800I-131J-378D01*
G01Y332891D01*
G03X101160Y332588I400J0D01*
G02Y308605I10258J-11991D01*
G03X100500Y308301I-260J-304D01*
G01Y302000D01*
X198000D01*
G02X203500Y296500I0J-5500D01*
G01Y289500D01*
G02X198000Y284000I-5500J0D01*
G01X172478D01*
G03X172100Y283470I0J-400D01*
G02X145224I-13438J-4606D01*
G03X144846Y284000I-378J130D01*
G01X105500D01*
G03X101000Y279500I0J-4500D01*
G01Y279153D01*
G03X101436Y278755I400J0D01*
G02Y233560I2000J-22597D01*
G03X101000Y233162I-35J-398D01*
G01Y208902D01*
G03X101420Y208503I400J0D01*
G02X101545Y208506I126J-2547D01*
G02X103646Y207400I0J-2550D01*
G03X103922Y207348I165J113D01*
G02X104424Y207500I501J-748D01*
G01X112500D01*
G02X114783Y207004I0J-5500D01*
G02X120361Y205753I1832J-4893D01*
G02X127786Y194000I-22586J-22490D01*
G01X135461D01*
G03X135837Y194537I0J400D01*
G02X149216I6689J2435D01*
G03X149592Y194000I376J-137D01*
G01X205191D01*
X205209Y194180D01*
G02X208791I1791J-180D01*
G01X208809Y194000D01*
X256500D01*
G02X262000Y188500I0J-5500D01*
G01Y186378D01*
X261837Y186229D01*
G03X261514Y185500I663J-729D01*
G03X261750Y184860I986J0D01*
G02X256500Y181000I-5250J1640D01*
G01X138000D01*
G03X133500Y176500I0J-4500D01*
G01Y157000D01*
G03X138000Y152500I4500J0D01*
G01X150000D01*
G02X152500Y150000I0J-2500D01*
G01Y146000D01*
G02X150000Y143500I-2500J0D01*
G01X138000D01*
G03X133500Y139000I0J-4500D01*
G01Y60000D01*
G02X128000Y54500I-5500J0D01*
G01X79500D01*
G02X77000Y57000I0J2500D01*
G01Y61500D01*
G03X75500Y63000I-1500J0D01*
G01X65598D01*
G02X64815Y63456I0J900D01*
G03X64558Y63540I-174J-99D01*
G02X63805Y63375I-752J1635D01*
G02X63053Y63540I0J1800D01*
G03X62796Y63456I-83J-182D01*
G02X62012Y63000I-783J444D01*
G01X51500D01*
G02X46000Y68500I0J5500D01*
G01Y93000D01*
G02X51500Y98500I5500J0D01*
G01X74690D01*
X74698Y98692D01*
G02X81853Y101555I4221J-176D01*
G02X84542Y98500I-21781J-21881D01*
G01X101500D01*
G03X105951Y102339I0J4500D01*
G01X106004Y102698D01*
X105876Y102764D01*
G02X104485Y105035I1159J2272D01*
G02X105977Y107356I2550J0D01*
G03X106077Y107618I-83J182D01*
G02X106000Y107982I823J364D01*
G01Y151745D01*
G03X105503Y152133I-400J0D01*
G02X89473Y152281I-7729J31130D01*
G01X89448Y152288D01*
X88350Y152750D01*
X87604Y153198D01*
G02X90966Y162941I3273J4322D01*
G01X92147Y162794D01*
X92280Y162758D01*
G03X103269Y162758I5494J20505D01*
G01X103374Y162768D01*
G03X103514Y163524I-40J398D01*
G03X101500Y164000I-2014J-4024D01*
G01X81000D01*
G02X75500Y169500I0J5500D01*
G01Y172995D01*
X75351Y173034D01*
G02Y177966I649J2466D01*
G01X75500Y178005D01*
Y185212D01*
G03X74889Y185552I-400J0D01*
G02X66767Y191450I-2857J4608D01*
G02X75180Y206023I31008J-8188D01*
G02X75500Y206306I3750J-3915D01*
G01Y285500D01*
G02X81000Y291000I5500J0D01*
G01X82000D01*
G03X86500Y295500I0J4500D01*
G01Y299883D01*
G03X85991Y300268I-400J0D01*
G02X85500Y300200I-491J1732D01*
G02X83700Y302000I0J1800D01*
G02X84409Y303432I1800J0D01*
G03Y304068I-242J318D01*
G02X83700Y305500I1091J1432D01*
G02X85500Y307300I1800J0D01*
G02X86220Y307150I0J-1800D01*
G01X86258Y307133D01*
X86500D01*
Y307490D01*
G02X87117Y308344I900J0D01*
G03X87249Y308581I-63J190D01*
G02X87200Y309000I1751J419D01*
G02X87249Y309419I1800J0D01*
G03X87117Y309656I-195J46D01*
G02X86500Y310510I283J855D01*
G01Y366521D01*
G03X85883Y366857I-400J0D01*
G02X84500Y366450I-1383J2143D01*
G02Y371550I0J2550D01*
G02X85883Y371143I0J-2550D01*
G03X86500Y371479I217J336D01*
G01Y481500D01*
G03X82000Y486000I-4500J0D01*
G01X42906D01*
G02X42168Y486384I0J900D01*
G03X41903Y486443I-164J-115D01*
G02X41000Y486200I-903J1557D01*
G02X40097Y486443I0J1800D01*
G03X39832Y486384I-100J-173D01*
G02X39094Y486000I-738J516D01*
G01X38000D01*
G02X32500Y491500I0J5500D01*
G01Y517277D01*
G03X31776Y517513I-400J0D01*
G03X28433Y510513I17161J-12495D01*
G01X28417Y510453D01*
X28408Y510426D01*
X28407Y510422D01*
G02X23195Y506494I-5212J1493D01*
G02X17774Y511915I0J5422D01*
G02X17779Y512148I5421J-2D01*
G01X17780Y512180D01*
X17722Y512389D01*
G02X26258Y527697I31216J-7372D01*
G01X26352Y527791D01*
X28041Y529083D01*
X28160Y528929D01*
X28296Y528977D01*
G02X30093Y529284I1797J-5115D01*
G02X34834Y526491I0J-5422D01*
G03X35375Y526333I350J194D01*
G02X38000Y527000I2625J-4833D01*
G01X49759D01*
G03X50159Y527386I0J400D01*
G02X55256I2548J-93D01*
G03X55656Y527000I400J15D01*
G01X63605D01*
G02X69647Y528743I4177J-3138D01*
G01X70350Y528350D01*
X71421Y527616D01*
X71478Y527558D01*
G02X71964Y527062I-22539J-22544D01*
G01X72023Y527000D01*
X79500D01*
G03X84000Y531500I0J4500D01*
G01Y582000D01*
G02X89500Y587500I5500J0D01*
G01X101274D01*
G02X103026Y589399I24432J-20782D01*
G01X103063Y589436D01*
X104250Y590250D01*
X104798Y590577D01*
G02X106861Y590985I2063J-5014D01*
G02X112089Y587000I0J-5422D01*
G01X139527D01*
G02X148300Y589202I5023J-1436D01*
G02X150295Y587000I-22594J-22483D01*
G01X160500D01*
G02X166000Y581500I0J-5500D01*
G01Y545500D01*
G03X170500Y541000I4500J0D01*
G01X187085D01*
G02X187449Y540924I0J-900D01*
G03X187711Y541024I81J183D01*
G02X192354I2321J-1056D01*
G03X192616Y540924I182J83D01*
G02X192980Y541000I363J-824D01*
G01X201000D01*
G02X204462Y540425I0J-10702D01*
G02X208849Y538882I641J-5185D01*
G02X217033Y524708I-22586J-22491D01*
G02X213156Y518190I-5027J-1422D01*
G01X213000Y518155D01*
Y506500D01*
G03X217500Y502000I4500J0D01*
G01X225268D01*
G02X233906I4319J-5658D01*
G01X255286D01*
G02X255701Y501899I0J-900D01*
G03X255969Y501982I92J177D01*
G02X260468I2250J-1201D01*
G03X260737Y501899I176J94D01*
G02X261152Y502000I415J-799D01*
G01X286481D01*
G02X287015Y501825I0J-900D01*
G03X287294Y501865I119J161D01*
G02X291364I2035J-1536D01*
G03X291643Y501825I160J120D01*
G02X292176Y502000I534J-725D01*
G01X318532D01*
G02X318892Y501925I0J-900D01*
G03X319154Y502026I80J183D01*
G02X323805I2325J-1047D01*
G03X324067Y501925I182J82D01*
G02X324427Y502000I360J-825D01*
G01X352906D01*
X352922Y502183D01*
G02X358004I2541J-220D01*
G01X358020Y502000D01*
X386489D01*
G02X386826Y501935I0J-900D01*
G03X387086Y502043I75J185D01*
G02X391793I2353J-982D01*
G03X392052Y501935I185J77D01*
G02X392389Y502000I337J-835D01*
G01X418635D01*
G02X418965Y501938I0J-900D01*
G03X419224Y502048I73J186D01*
G02X423946I2361J-963D01*
G03X424205Y501938I185J76D01*
G02X424535Y502000I330J-837D01*
G01X449749D01*
G02X450195Y501882I0J-900D01*
G03X450466Y501955I99J174D01*
G02X454869I2201J-1287D01*
G03X455141Y501882I173J101D01*
G02X455586Y502000I445J-782D01*
G01X469028D01*
G02X477666I4319J-5658D01*
G01X491500D01*
G03X496000Y506500I0J4500D01*
G01Y519813D01*
G03X495279Y520052I-400J0D01*
G02X485718Y524784I-4350J3236D01*
G02X494058Y539133I30953J-8393D01*
G02X496011Y540344I3769J-3897D01*
G02X501500Y545500I5489J-344D01*
G01X547000D01*
G03X551500Y550000I0J4500D01*
G01Y568195D01*
G02X546108Y572928I-14J5421D01*
G01X546100Y573800D01*
X546238Y574988D01*
X546247Y575022D01*
G02X551514Y585890I30982J-8303D01*
G02X557000Y591000I5486J-390D01*
G01X594000D01*
G02X595582Y590768I0J-5500D01*
G02X599827Y589197I488J-5202D01*
G02X607995Y575048I-22598J-22479D01*
G02X600119Y569237I-5024J-1434D01*
G03X599500Y568902I-218J-335D01*
G01Y536500D01*
G03X600812Y533324I4500J0D01*
G02X608980Y532000I1811J-14684D01*
G01X671000D01*
G02X676363Y527722I0J-5500D01*
G02X676588Y527504I-3526J-3856D01*
G02X684767Y513335I-22591J-22486D01*
G02X677102Y507404I-5028J-1420D01*
G03X676500Y507059I-202J-345D01*
G01Y489500D01*
G02X671000Y484000I-5500J0D01*
G01X664321D01*
G03X664064Y483294I0J-400D01*
G02X665991Y479149I-3494J-4145D01*
G02X662574Y474112I-5421J0D01*
G01X662536Y474096D01*
X662496Y474057D01*
G02X644847I-8825J30833D01*
G01X644808Y474096D01*
X644769Y474112D01*
G02X643280Y483294I2005J5037D01*
G03X643022Y484000I-258J306D01*
G01X621500D01*
G03X617000Y479500I0J-4500D01*
G01Y282000D01*
G03X618500Y280500I1500J0D01*
G01X623500D01*
G02X626000Y278000I0J-2500D01*
G01Y206938D01*
G02X627746Y205753I-2000J-4827D01*
G02X635929Y191581I-22586J-22490D01*
G02X626720Y187024I-5026J-1427D01*
G03X626000Y186784I-320J-240D01*
G01Y181500D01*
G02X620500Y176000I-5500J0D01*
G01X607500D01*
G03X603000Y171500I0J-4500D01*
G01Y162145D01*
G03X610654Y162758I2159J21118D01*
G01X611800Y162900D01*
X612656Y162909D01*
G02X617479Y157520I-599J-5388D01*
G02X613505Y152296I-5421J0D01*
G01X613491Y152292D01*
X613474Y152284D01*
X613461Y152281D01*
G02X603422Y151235I-8302J30982D01*
G03X603000Y150836I-22J-399D01*
G01Y103500D01*
G03X607500Y99000I4500J0D01*
G01X617398D01*
G02X621000Y102850I24132J-18969D01*
G01X621869Y103496D01*
G02X624018Y103941I2149J-4977D01*
G37*
G36*
G01X176517Y121376D02*
G03X176344Y122076I-255J308D01*
G02X173054Y126132I854J4056D01*
G02X181344I4145J0D01*
G02X179841Y122938I-4145J0D01*
G03X180013Y122238I255J-308D01*
G02X183304Y118182I-854J-4056D01*
G02X175014I-4145J0D01*
G02X176517Y121376I4145J0D01*
G37*
G36*
G01X181104Y139431D02*
X180120D01*
G02Y144962I0J2766D01*
G01X181104D01*
G02X183360Y143796I0J-2766D01*
G01X196486D01*
G02X196510Y143797I25J-1600D01*
G01X196760D01*
X196820Y143875D01*
G02X197910Y144730I2198J-1679D01*
G01Y156592D01*
G02X196762Y157525I1108J2534D01*
G01X183360D01*
G02X181104Y156360I-2255J1601D01*
G01X180120D01*
G02Y161891I0J2766D01*
G01X181104D01*
G02X183360Y160725I0J-2766D01*
G01X196723D01*
G02X196762Y160726I40J-1600D01*
G02X199018Y161891I2256J-1600D01*
G01X200002D01*
G02X201110Y156592I0J-2766D01*
G01Y144730D01*
G02X200002Y139431I-1108J-2534D01*
G01X199018D01*
G02X196820Y140518I0J2766D01*
G01X196760Y140596D01*
X196534D01*
G02X196510Y140596I-25J1600D01*
G01X183360D01*
G02X181104Y139431I-2255J1600D01*
G37*
G36*
G01X174903Y152639D02*
X175691D01*
G02Y148683I0J-1978D01*
G01X174903D01*
G02Y152639I0J1978D01*
G37*
G36*
G01X68212Y49689D02*
G02X51931I-8140J29986D01*
G02X53075Y58353I1241J4244D01*
G01X53596Y58351D01*
X54344Y58196D01*
X54350Y58195D01*
G03X65795Y58196I5722J21479D01*
G01X66553Y58351D01*
X66816Y58351D01*
X66831Y58352D01*
G02X68212Y49689I140J-4419D01*
G37*
G36*
G01X30036Y87604D02*
G02X38178Y101707I30039J-7942D01*
G02X44437Y95464I3051J-3200D01*
G01X44427Y95453D01*
X44419Y95442D01*
X44357Y95380D01*
G03X38604Y85415I15718J-15718D01*
G01X38597Y85386D01*
X38588Y85361D01*
X38587Y85356D01*
G02X30036Y87604I-4254J1204D01*
G37*
G36*
G01X406209Y247436D02*
X405700Y246856D01*
X405637Y246823D01*
X405615Y246801D01*
G02X395833Y242740I-9782J9750D01*
G01X307101D01*
G02X297319Y246801I0J13811D01*
G01X297297Y246823D01*
X297234Y246856D01*
X296725Y247436D01*
G02X406209I54742J48092D01*
G37*
G36*
G01X41631Y484683D02*
X41744Y484691D01*
X41866Y484935D01*
X43443Y484512D01*
G03X54432I5494J20505D01*
G01X56009Y484935D01*
X56131Y484690D01*
X56244Y484681D01*
G02X57344Y474068I-409J-5406D01*
G02X40532Y474068I-8407J30950D01*
G02X41631Y484683I1503J5209D01*
G37*
G36*
G01X193254Y345369D02*
G02X192864Y346373I1096J1004D01*
G02X195836I1486J0D01*
G02X194779Y344950I-1486J0D01*
G03X194600Y344297I116J-383D01*
G02X194990Y343294I-1096J-1004D01*
G02X192018I-1486J0D01*
G02X193074Y344716I1486J0D01*
G03X193254Y345369I-116J383D01*
G37*
G36*
G01X193340Y359804D02*
G02X193200Y360500I1660J696D01*
G02X195000Y358700I1800J0D01*
G02X194615Y358742I0J1800D01*
G03X194160Y358196I-86J-391D01*
G02X194300Y357500I-1660J-696D01*
G02X192500Y359300I-1800J0D01*
G02X192885Y359258I0J-1800D01*
G03X193340Y359804I86J391D01*
G37*
G36*
G01X115385Y367742D02*
G02X115000Y367700I-385J1759D01*
G02X116800Y369500I0J1800D01*
G02X116660Y368804I-1800J0D01*
G03X117115Y368258I369J-155D01*
G02X117500Y368300I385J-1759D01*
G02X115700Y366500I0J-1800D01*
G02X115840Y367196I1800J0D01*
G03X115385Y367742I-369J155D01*
G37*
G54D28*
X461703Y445134D03*
X351467Y92407D03*
G54D24*
Y433323D03*
X232133Y226630D03*
G54D23*
X241231Y445134D03*
G54D25*
X172528Y464501D03*
X179259Y569609D03*
X54905Y446950D03*
X617392Y40407D03*
G54D26*
X158662Y362329D03*
G54D21*
X635298Y560315D03*
X67636D03*
X651798Y187202D03*
X51136D03*
G54D29*
X544272Y362329D03*
Y278864D03*
G54D22*
X523675Y569609D03*
X530406Y464501D03*
X648029Y446950D03*
X681122Y106636D03*
X85542Y40407D03*
X21812Y106636D03*
G54D27*
X470801Y364425D03*
G54D31*
X351467Y157732D03*
G54D30*
X241231Y126236D03*
G54D32*
X461703D03*
G54D35*
X115106Y483606D03*
X107154Y407654D03*
X492000Y507000D03*
X172500Y143500D03*
X320192Y448808D03*
X28000Y497000D03*
X458500Y300500D03*
X263106Y448394D03*
X441551Y310949D03*
X476500Y291500D03*
X398500Y422500D03*
X129476Y589976D03*
X413865Y403135D03*
X164604Y130604D03*
X149000Y165500D03*
X105000Y343500D03*
X63842Y102342D03*
X624578Y169007D03*
X646632Y103000D03*
X38500Y72000D03*
X227097Y159596D03*
X209500Y146500D03*
X203154Y176846D03*
X217500Y461500D03*
X139154Y341654D03*
X207500Y402000D03*
X214500Y391500D03*
G54D37*
X123000Y366000D03*
X130500Y358000D03*
X385250Y429750D03*
X122000Y424500D03*
X184493Y440328D03*
X135000Y353000D03*
X184000Y255500D03*
X127000Y365500D03*
X82854Y430854D03*
X83000Y476000D03*
X388000Y464500D03*
X181500Y431500D03*
X525800Y425500D03*
X122000Y373500D03*
X82000Y298000D03*
X386000Y425500D03*
X458630Y282630D03*
X463500Y263000D03*
X436352Y457000D03*
X185140Y167500D03*
X136000Y305500D03*
X105000Y337500D03*
X150500Y176000D03*
X164500Y75500D03*
X180989Y368698D03*
X182000Y263992D03*
Y384500D03*
X181000Y380000D03*
X164500Y101000D03*
X205000Y57500D03*
X75500Y349000D03*
X140500Y308500D03*
X174000Y383500D03*
X204500Y398000D03*
X128680Y314304D03*
X136400Y119500D03*
X157000Y176000D03*
X260500Y80000D03*
X118500Y378500D03*
X181400Y340500D03*
X190500Y367000D03*
X191500Y218500D03*
X432000Y474500D03*
X190500Y406400D03*
X483000Y461500D03*
X491500Y467000D03*
X441000Y447500D03*
X487500Y441500D03*
X504500Y449500D03*
X255500Y432500D03*
X220000Y59500D03*
X537000Y215500D03*
X525500Y222500D03*
X251476Y95476D03*
X530500Y236500D03*
X451148Y75352D03*
X548000Y227000D03*
X543000Y210000D03*
X170500Y217000D03*
X468000Y94500D03*
X258493Y66672D03*
X175500Y241000D03*
X175000Y224000D03*
G54D34*
X204825Y150661D03*
G54D36*
X401000Y461000D03*
X398000Y463500D03*
X186500Y458000D03*
X189000Y460500D03*
X219750Y447750D03*
X257500Y462000D03*
X401500Y399500D03*
X212000Y444000D03*
X179750Y441250D03*
X426500Y399500D03*
X214000Y449500D03*
X223700Y458500D03*
X196000Y167000D03*
X458000Y185500D03*
G54D20*
X188999Y126132D03*
X523774Y67942D03*
X550544Y89512D03*
X513934Y64712D03*
X489124Y89512D03*
X546834Y80662D03*
X213809Y101332D03*
X152389Y89512D03*
Y101332D03*
X187039Y67942D03*
X213809Y89512D03*
X177199Y64712D03*
X210099Y80662D03*
G54D38*
X504874Y89512D03*
X168139D03*
G54D33*
X544650Y316970D03*
X158662Y316659D03*
Y324533D03*
%LPD*%
G75*
G36*
G01X167413Y540635D02*
X167411D01*
G03X165357Y540231I0J-5421D01*
G01X165349Y540227D01*
X165296Y540211D01*
X165150Y540150D01*
X165000Y540101D01*
X163691Y539164D01*
X163576Y539049D01*
G03X155277Y524678I22680J-22680D01*
G01X155266Y524638D01*
X155150Y522900D01*
X155136Y522578D01*
G03X160514Y517845I5378J688D01*
G03X165712Y521726I0J5421D01*
G01X165714Y521734D01*
X165725Y521761D01*
X165752Y521863D01*
G02X171246Y531379I20505J-5495D01*
G01X171357Y531490D01*
X171374Y531514D01*
X171382Y531522D01*
G03X172833Y535213I-3971J3691D01*
G01Y535214D01*
G03X169624Y540163I-5422J0D01*
G01X169570Y540187D01*
X169417Y540420D01*
X169649Y540572D01*
X169725Y540560D01*
G03X170500Y540500I775J4940D01*
G01X187085D01*
G02X187485Y540086I0J-400D01*
G03X187482Y539968I2547J-119D01*
G03X192583I2550J0D01*
G03X192580Y540086I-2550J-1D01*
G02X192980Y540500I400J14D01*
G01X201000D01*
G02X202205Y540429I0J-10202D01*
G02X202378Y539698I-47J-397D01*
G03X200278Y533235I2725J-4458D01*
G01X200650Y532600D01*
X201412Y531541D01*
G02X206957Y521936I-15149J-15150D01*
G01X206959Y521934D01*
G03X212107Y518063I5047J1352D01*
G02X212500Y517663I-7J-400D01*
G01Y506500D01*
G03X217500Y501500I5000J0D01*
G01X223766D01*
G02X224075Y500847I0J-400D01*
G03X235098I5512J-4505D01*
G02X235408Y501500I310J253D01*
G01X255286D01*
G02X255684Y501057I0J-400D01*
G03X255669Y500782I2535J-275D01*
G01Y500781D01*
G03X260769I2550J0D01*
G01Y500782D01*
G03X260754Y501057I-2550J0D01*
G02X261152Y501500I398J43D01*
G01X286481D01*
G02X286869Y501000I0J-400D01*
G03X286779Y500329I2460J-672D01*
G03X291879I2550J0D01*
G03X291789Y501000I-2550J0D01*
G02X292176Y501500I387J100D01*
G01X318532D01*
G02X318931Y501084I0J-400D01*
G03X318929Y500980I2548J-103D01*
G01Y500979D01*
G03X324030I2550J0D01*
G01Y500980D01*
G03X324028Y501084I-2550J0D01*
G02X324427Y501500I400J16D01*
G01X352955D01*
G03X357971I2508J463D01*
G01X386489D01*
G02X386889Y501095I0J-400D01*
G03X386889Y501063I2550J-32D01*
G01Y501061D01*
G03X391989I2550J0D01*
G01Y501063D01*
G03X391989Y501095I-2550J0D01*
G02X392389Y501500I400J5D01*
G01X418635D01*
G02X419035Y501098I0J-400D01*
G01Y501085D01*
G03X424135I2550J0D01*
G01Y501098D01*
G02X424535Y501500I400J2D01*
G01X449749D01*
G02X450145Y501041I0J-400D01*
G03X450118Y500668I2523J-374D01*
G03X455218Y500668I2550J0D01*
G03X455190Y501041I-2550J0D01*
G02X455586Y501500I396J59D01*
G01X467526D01*
G02X467835Y500847I0J-400D01*
G03X478859I5512J-4505D01*
G02X479168Y501500I310J253D01*
G01X491500D01*
G03X496500Y506500I0J5000D01*
G01Y523005D01*
G02X501661Y531402I20172J-6613D01*
G01X503075Y532816D01*
X502806Y533085D01*
X502855Y533208D01*
G03X497066Y540604I-5028J2028D01*
G02X496620Y541087I-56J396D01*
G02X501500Y545000I4880J-1087D01*
G01X547000D01*
G03X552000Y550000I0J5000D01*
G01Y568216D01*
X552175Y568239D01*
G03X556076Y570731I-689J5378D01*
G01X556550Y571500D01*
X556723Y572213D01*
G02X562217Y581730I20505J-5494D01*
G01X562277Y581790D01*
X562351Y581869D01*
G03X563805Y585564I-3968J3695D01*
G03X561781Y589788I-5421J0D01*
G02X562032Y590500I251J312D01*
G01X592742D01*
G02X592979Y589778I0J-400D01*
G03X592307Y581942I3092J-4212D01*
G01X592308Y581941D01*
X592311Y581938D01*
X592330Y581916D01*
X592378Y581868D01*
G02X597923Y572265I-15151J-15149D01*
G01X597945Y572181D01*
X597954Y572155D01*
X597956Y572149D01*
G03X599000Y570219I5015J1465D01*
G01Y536500D01*
G03X599835Y533733I5000J0D01*
G02X599584Y533120I-333J-221D01*
G03X611092Y530772I3038J-14480D01*
G02X611320Y531500I229J328D01*
G01X671000D01*
G02X675085Y529383I0J-5000D01*
G02X674622Y528776I-327J-231D01*
G03X668013Y521862I-1784J-4911D01*
G01X668600Y520900D01*
X669147Y520168D01*
G02X674692Y510563I-15150J-15150D01*
G01X674900Y510000D01*
X675122Y509469D01*
G03X676000Y508265I4617J2445D01*
G01Y489500D01*
G02X671000Y484500I-5000J0D01*
G01X661440D01*
G03X660569Y484570I-871J-5351D01*
G03X659698Y484500I0J-5421D01*
G01X647644D01*
G03X645904I-870J-5351D01*
G01X621500D01*
G03X616500Y479500I0J-5000D01*
G01Y282000D01*
G03X618500Y280000I2000J0D01*
G01X623500D01*
G02X625500Y278000I0J-2000D01*
G01Y207627D01*
G02X625022Y207235I-400J0D01*
G03X619222Y199997I-1022J-5124D01*
G01X619270Y199889D01*
X619082Y199640D01*
X620310Y198412D01*
G02X625500Y189994I-15150J-15150D01*
G01Y181500D01*
G02X620500Y176500I-5000J0D01*
G01X607500D01*
G03X602500Y171500I0J-5000D01*
G01Y162660D01*
G02X602041Y162265I-400J0D01*
G02X599665Y162758I3118J20998D01*
G01X599533Y162793D01*
X599511Y162796D01*
X599500Y162798D01*
G03X594989Y153198I-1238J-5278D01*
G01X595600Y152800D01*
X596833Y152288D01*
X596858Y152281D01*
G03X602500Y151298I8301J30982D01*
G01Y103500D01*
G03X607500Y98500I5000J0D01*
G01X616223D01*
G02X616549Y97868I0J-400D01*
G03X611881Y87976I24981J-17836D01*
G01X611860Y87900D01*
X611850Y87844D01*
X611849Y87838D01*
G03X621488Y83360I5271J-1266D01*
G01X622000Y84400D01*
X622357Y85169D01*
G02X627852Y94685I20505J-5494D01*
G01X627890Y94723D01*
X627949Y94786D01*
G03X629439Y98500I-3931J3734D01*
G01X656479D01*
X656487Y98308D01*
G03X656880Y96520I5220J211D01*
G01X657450Y95650D01*
X658012Y94824D01*
G02X662000Y89308I-15150J-15150D01*
G01Y67737D01*
G02X661451Y67366I-400J0D01*
G03X660500Y67550I-951J-2366D01*
G03X660500Y62450I0J-2550D01*
G01X660504D01*
G03X661110Y62524I-4J2550D01*
G02X661571Y61973I96J-388D01*
G02X657000Y59000I-4571J2027D01*
G01X651831D01*
G03X650406Y59359I-2024J-5030D01*
G01X649600Y59350D01*
X648404Y59208D01*
G02X647559Y59000I-5494J20505D01*
G01X638260D01*
G02X637415Y59208I4651J20713D01*
G01X637283Y59243D01*
X637261Y59246D01*
X637250Y59248D01*
G03X633989Y59000I-1239J-5278D01*
G01X588001D01*
G03X582999I-2501J-500D01*
G01X563000D01*
G02X558000Y64000I0J5000D01*
G01Y97500D01*
G03X554588Y102241I-5000J0D01*
G03X550544Y105477I-4044J-909D01*
G03X546567Y102500I0J-4145D01*
G01X509997D01*
G03X507003I-1497J-1000D01*
G01X493101D01*
G03X485147I-3977J-1168D01*
G01X401500D01*
G02X396500Y107500I0J5000D01*
G01Y111500D01*
G02X401500Y116500I5000J0D01*
G01X468000D01*
G03X473000Y121500I0J5000D01*
G01Y154500D01*
G02X478000Y159500I5000J0D01*
G01X542000D01*
G03X547000Y164500I0J5000D01*
G01Y181500D01*
G03X545000Y183500I-2000J0D01*
G01X537027D01*
G03X537000Y183500I-32J-2500D01*
G01X532500D01*
G03X532473Y183500I5J-2500D01*
G01X499000D01*
G03X496000Y180500I0J-3000D01*
G01Y180000D01*
G02X493000Y177000I-3000J0D01*
G01X485500D01*
G02X482500Y180000I0J3000D01*
G01Y192500D01*
G02X487500Y197500I5000J0D01*
G01X552890D01*
G02X553290Y197093I0J-400D01*
G03X567431Y198131I7117J-122D01*
G03X570000Y202500I-2431J4369D01*
G01Y247500D01*
G03X565000Y252500I-5000J0D01*
G01X476113D01*
G03X465509Y252504I-5312J-25870D01*
G01X465489Y252500D01*
X451000D01*
G02X449000Y254500I0J2000D01*
G01Y256000D01*
G02X451000Y258000I2000J0D01*
G01X457976D01*
X458015Y257996D01*
G03X458500Y257950I485J2504D01*
G03X458985Y257996I1J2550D01*
G01X459004Y258000D01*
X480308D01*
G03X484432I2062J1500D01*
G01X565000D01*
G03X570000Y263000I0J5000D01*
G01Y322500D01*
G03X565000Y327500I-5000J0D01*
G01X545963D01*
G03X544650Y327807I-1313J-2656D01*
G03X543337Y327500I0J-2962D01*
G01X512000D01*
Y280500D01*
X480500D01*
Y287558D01*
G02X480943Y287956I400J0D01*
G03X481050Y287950I108J994D01*
G01X500200D01*
G03X501192Y288825I0J1000D01*
G01X501215Y289000D01*
X503000D01*
Y325326D01*
G02X503685Y325606I400J0D01*
G03X505500Y324847I1815J1791D01*
G03Y329948I0J2550D01*
G03X502965Y327678I0J-2550D01*
G01X502946Y327500D01*
X474982D01*
G03X472540I-1221J-2239D01*
G01X462500D01*
G02X460500Y329500I0J2000D01*
G01Y333500D01*
G02X460867Y334655I2000J0D01*
G03X461500Y334514I633J1345D01*
G03X462852Y335383I0J1486D01*
G01X462905Y335500D01*
X584344D01*
G02X584522Y334741I0J-400D01*
G03X597696Y335116I6995J-14145D01*
G01X597574Y335300D01*
G02X597774Y335500I200J0D01*
G01X598500D01*
G03X603500Y340500I0J5000D01*
G01Y475500D01*
G03X598500Y480500I-5000J0D01*
G01X582733D01*
G02X582342Y480981I0J400D01*
G03X582395Y481500I-2497J519D01*
G03X577294Y481500I-2550J0D01*
G03X577348Y480981I2550J0D01*
G02X576956Y480500I-392J-81D01*
G01X565497D01*
G03X562503I-1497J-1000D01*
G01X515497D01*
G03X512503I-1497J-1000D01*
G01X427500D01*
G03X422500Y475500I0J-5000D01*
G01Y458500D01*
G02X420500Y456500I-2000J0D01*
G01X416500D01*
G02X414500Y458500I0J2000D01*
G01Y475500D01*
G03X409500Y480500I-5000J0D01*
G01X213500D01*
G02X208500Y485500I0J5000D01*
G01Y487000D01*
G03X203500Y492000I-5000J0D01*
G01X198405D01*
G03X193700Y495900I-5089J-1351D01*
G01X193414Y495920D01*
X180654D01*
X180609Y495926D01*
X180608Y495926D01*
G03X174115Y492000I-1243J-5277D01*
G01X105000D01*
G03X100000Y487000I0J-5000D01*
G01Y388198D01*
G02X99587Y387798I-400J0D01*
G03X99500Y387800I-87J-1798D01*
G03X97700Y386000I0J-1800D01*
G03X99437Y384201I1800J0D01*
G02X99822Y383815I-15J-400D01*
G03X100000Y383096I1799J63D01*
G01Y331489D01*
G03Y309704I11418J-10892D01*
G01Y301500D01*
X198000D01*
G02X203000Y296500I0J-5000D01*
G01Y289500D01*
G02X198000Y284500I-5000J0D01*
G01X171701D01*
G03X145623I-13039J-5636D01*
G01X105500D01*
G03X100500Y279500I0J-5000D01*
G01Y278652D01*
G03Y233663I2936J-22495D01*
G01Y208282D01*
G03X98994Y205955I1045J-2326D01*
G03X101545Y203405I2550J0D01*
G03X104095Y205928I0J2550D01*
G01Y205936D01*
G03X104095Y205955I-2550J23D01*
G01Y205956D01*
G03X104036Y206502I-2550J0D01*
G01X104034Y206509D01*
X104033Y206513D01*
G02X104424Y207000I390J87D01*
G01X112500D01*
G02X113221Y206948I0J-5000D01*
G02X113418Y206244I-58J-396D01*
G03X111886Y199890I3197J-4133D01*
G01X112200Y199400D01*
X112924Y198412D01*
G02X118470Y188808I-15150J-15150D01*
G01X118471Y188804D01*
G03X128542Y191589I5047J1352D01*
G03X128128Y192991I-30768J-8326D01*
G02X128513Y193500I385J109D01*
G01X136312D01*
G03X148741I6215J3472D01*
G01X167094D01*
G02X167441Y192900I0J-400D01*
G03X167200Y192000I1559J-900D01*
G03X170800Y192000I1800J0D01*
G03X170559Y192900I-1800J0D01*
G02X170906Y193500I346J200D01*
G01X205265D01*
X205314Y193370D01*
G03X208686I1686J630D01*
G01X208735Y193500D01*
X256500D01*
G02X261500Y188500I0J-5000D01*
G01Y186599D01*
G03X261014Y185500I1000J-1099D01*
G03X261197Y184786I1486J0D01*
G02X256500Y181500I-4697J1714D01*
G01X138000D01*
G03X133000Y176500I0J-5000D01*
G01Y157000D01*
G03X138000Y152000I5000J0D01*
G01X150000D01*
G02X152000Y150000I0J-2000D01*
G01Y146000D01*
G02X150000Y144000I-2000J0D01*
G01X138000D01*
G03X133000Y139000I0J-5000D01*
G01Y60000D01*
G02X128000Y55000I-5000J0D01*
G01X79500D01*
G02X77500Y57000I0J2000D01*
G01Y61500D01*
G03X75500Y63500I-2000J0D01*
G01X65598D01*
G02X65272Y64132I0J400D01*
G01X65280Y64143D01*
X65289Y64155D01*
G03X65606Y65175I-1484J1020D01*
G03X65605Y65208I-1800J0D01*
G01X65605Y65216D01*
Y65217D01*
G03X62006I-1800J-41D01*
G01Y65216D01*
X62005Y65208D01*
G03X62005Y65175I1800J-33D01*
G03X62322Y64155I1800J0D01*
G01X62350Y64114D01*
G02X62012Y63500I-338J-214D01*
G01X51500D01*
G02X46500Y68500I0J5000D01*
G01Y93000D01*
G02X51500Y98000I5000J0D01*
G01X74723D01*
X74742Y97881D01*
G03X75326Y96294I4177J635D01*
G01X75371Y96219D01*
X75315Y96145D01*
X75928Y95531D01*
G02X81732Y85479I-15857J-15857D01*
G01X81733Y85476D01*
X81800Y85250D01*
G03X89874Y87742I4014J1320D01*
G03X85363Y97383I-29802J-8067D01*
G02X85699Y98000I336J217D01*
G01X101500D01*
G03X106446Y102266I0J5000D01*
G01X106457Y102339D01*
X106655Y102512D01*
X106743Y102502D01*
G03X107035Y102485I292J2533D01*
G03X107035Y107586I0J2550D01*
G01X107034D01*
G03X106915Y107583I1J-2550D01*
G02X106500Y107982I-15J400D01*
G01Y152416D01*
G03X110094Y157520I-1828J5104D01*
G03X105146Y162921I-5421J0D01*
G03X101500Y164500I-3646J-3421D01*
G01X81000D01*
G02X76000Y169500I0J5000D01*
G01Y172950D01*
G03Y178050I0J2550D01*
G01Y186466D01*
G03X77242Y188661I-3968J3694D01*
G01X77244Y188665D01*
X77255Y188700D01*
X77271Y188758D01*
G02X82764Y198273I20505J-5495D01*
G01X82889Y198398D01*
X82906Y198422D01*
X82915Y198432D01*
G03X76574Y206990I-3985J3675D01*
G02X76000Y207350I-174J360D01*
G01Y285500D01*
G02X81000Y290500I5000J0D01*
G01X82000D01*
G03X87000Y295500I0J5000D01*
G01Y301005D01*
G03X87300Y302000I-1500J995D01*
G03X87000Y302995I-1800J0D01*
G01Y304505D01*
G03X87300Y305500I-1500J995D01*
G03X87000Y306495I-1800J0D01*
G01Y307490D01*
G02X87690Y307766I400J0D01*
G03X89000Y307200I1311J1234D01*
G03Y310800I0J1800D01*
G03X87690Y310234I0J-1800D01*
G02X87000Y310510I-289J276D01*
G01Y368477D01*
X87004Y368515D01*
G03X87050Y368997I-2504J485D01*
G01Y369005D01*
G03X87004Y369485I-2550J-5D01*
G01X87000Y369504D01*
Y481500D01*
G03X82000Y486500I-5000J0D01*
G01X42906D01*
G02X42550Y487084I0J400D01*
G01X42555Y487093D01*
X42558Y487097D01*
G03X42800Y488000I-1558J903D01*
G03X41000Y489800I-1800J0D01*
G03X39200Y488016I0J-1800D01*
G01Y488015D01*
X39200Y488009D01*
Y488000D01*
G03X39441Y487100I1800J0D01*
G01X39445Y487094D01*
X39450Y487084D01*
G02X39094Y486500I-355J-184D01*
G01X38000D01*
G02X33000Y491500I0J5000D01*
G01Y519040D01*
G02X33927Y520028I15938J-14022D01*
G01X33976Y520077D01*
X34060Y520168D01*
G03X35514Y523862I-3968J3695D01*
G03X35211Y525650I-5422J0D01*
G02X38000Y526500I2789J-4150D01*
G01X50284D01*
G03X55131I2424J793D01*
G01X62622D01*
G02X62989Y525941I0J-400D01*
G03X62955Y521864I4793J-2079D01*
G01X63300Y521350D01*
X64087Y520168D01*
G02X69633Y510563I-15150J-15150D01*
G01X69646Y510511D01*
X69674Y510420D01*
G03X74680Y506691I5006J1495D01*
G03X79851Y511172I0J5225D01*
G01X79850Y511800D01*
X79737Y513236D01*
X79727Y513276D01*
G03X73076Y525839I-30790J-8259D01*
G02X73378Y526500I303J261D01*
G01X79500D01*
G03X84500Y531500I0J5000D01*
G01Y582000D01*
G02X89500Y587000I5000J0D01*
G01X100029D01*
G02X100345Y586355I0J-400D01*
G03X94726Y575028I25362J-19637D01*
G01X94716Y574988D01*
X94258Y573004D01*
X94584Y572928D01*
X94605Y572794D01*
G03X99964Y568195I5359J822D01*
G03X105162Y572076I0J5421D01*
G01X105164Y572084D01*
X105175Y572111D01*
X105202Y572213D01*
G02X110696Y581729I20505J-5495D01*
G01X110807Y581840D01*
X110824Y581864D01*
X110832Y581872D01*
G03X112283Y585563I-3971J3691D01*
G01Y585564D01*
G03X112260Y586063I-5421J0D01*
G02X112658Y586500I398J37D01*
G01X138951D01*
G02X139349Y586062I0J-400D01*
G03X140590Y582156I5201J-498D01*
G01X140606Y582137D01*
X140624Y582101D01*
X140856Y581869D01*
G02X146402Y572265I-15150J-15150D01*
G01X146540Y571747D01*
X146587Y571700D01*
X146603Y571662D01*
G03X156473Y575048I4846J1952D01*
G03X151193Y585860I-30767J-8329D01*
G02X151513Y586500I320J240D01*
G01X160500D01*
G02X165500Y581500I0J-5000D01*
G01Y545500D01*
G03X167688Y541366I5000J0D01*
G02X167460Y540635I-225J-331D01*
G03X167413Y540635I-47J-5421D01*
G37*
G36*
G01X198803Y145234D02*
G02X198344Y143362I-2857J-293D01*
G01X199510Y141946D01*
X200675Y143362D01*
G02X200217Y145234I2399J1579D01*
G03X198803I-707J-707D01*
G37*
G36*
G01X200217Y156088D02*
G02X200675Y157960I2857J293D01*
G01X199510Y159376D01*
X198344Y157960D01*
G02X198803Y156088I-2399J-1579D01*
G03X200217I707J707D01*
G37*
G36*
G01X389346Y389500D02*
X433000D01*
G02X438000Y384500I0J-5000D01*
G01Y288000D01*
X445000D01*
Y276500D01*
X511500D01*
Y269000D01*
X437000D01*
Y220698D01*
G02X436587Y220298I-400J0D01*
G03X436500Y220300I-87J-1798D01*
G03Y216700I0J-1800D01*
G03X436587Y216702I0J1800D01*
G02X437000Y216302I13J-400D01*
G01Y183500D01*
G03X442000Y178500I5000J0D01*
G01X482338D01*
G03X485500Y176500I3163J1500D01*
G01X493000D01*
G03X496500Y180000I0J3500D01*
G01Y180500D01*
G02X499000Y183000I2500J0D01*
G01X532477D01*
G02X532500Y183000I29J-2000D01*
G01X537000D01*
G02X537023Y183000I-6J-2000D01*
G01X537028D01*
G02X539000Y181000I-28J-2000D01*
G01Y176500D01*
G02X534000Y171500I-5000J0D01*
G01X442000D01*
G03X437000Y166500I0J-5000D01*
G01Y158000D01*
G02X432000Y153000I-5000J0D01*
G01X384500D01*
G02X379500Y158000I0J5000D01*
G01Y163500D01*
G02X384500Y168500I5000J0D01*
G01X422000D01*
G03X427000Y173500I0J5000D01*
G01Y366500D01*
G03X422000Y371500I-5000J0D01*
G01X313900D01*
X313809Y371874D01*
X313937Y371949D01*
G03X314902Y375562I-1354J2297D01*
G03X311267Y376564I-2318J-1317D01*
G03X310264Y372930I1316J-2319D01*
G03X310866Y372206I2319J1316D01*
G02X310608Y371500I-258J-306D01*
G01X271500D01*
G03X266500Y366500I0J-5000D01*
G01Y308000D01*
G02X261500Y303000I-5000J0D01*
G01X251500D01*
G02X246500Y308000I0J5000D01*
G01Y342265D01*
G03X246855Y386351I-14367J22160D01*
G02X251500Y389500I4645J-1851D01*
G01X312168D01*
G02X312559Y389016I0J-400D01*
G03X312496Y388454I2487J-563D01*
G03X317597I2550J0D01*
G03X317534Y389016I-2550J0D01*
G02X317925Y389500I391J84D01*
G01X384654D01*
G03X384759Y389283I2346J1001D01*
G02X384541Y388992I-176J-95D01*
G03X384000Y389050I-541J-2492D01*
G03X386550Y386500I0J-2550D01*
G03X386380Y387416I-2550J0D01*
G02X386787Y387959I373J144D01*
G03X387000Y387950I213J2541D01*
G03X389346Y389500I0J2550D01*
G37*
%LPC*%
G75*
G36*
G01X97696Y89340D02*
G02X97000Y89200I-696J1660D01*
G02X98800Y91000I0J1800D01*
G02X98758Y90615I-1800J0D01*
G03X99304Y90160I391J-86D01*
G02X100000Y90300I696J-1660D01*
G02X98200Y88500I0J-1800D01*
G02X98242Y88885I1800J0D01*
G03X97696Y89340I-391J86D01*
G37*
G36*
G01X513252Y121376D02*
G03X513080Y122076I-255J308D01*
G02X509789Y126132I854J4056D01*
G02X518079I4145J0D01*
G02X516576Y122938I-4145J0D01*
G03X516748Y122238I255J-308D01*
G02X520039Y118182I-854J-4056D01*
G02X511749I-4145J0D01*
G02X513252Y121376I4145J0D01*
G37*
G36*
G01X117300Y535769D02*
G02X118979Y546396I1507J5208D01*
G01X119250Y546350D01*
X120212Y546214D01*
G03X131200I5494J20505D01*
G01X131950Y546350D01*
X132210Y546384D01*
G02X134111Y535769I396J-5407D01*
G02X117300Y535769I-8405J30950D01*
G37*
G36*
G01X522241Y495905D02*
X522244Y495906D01*
G02X523569Y496070I1325J-5257D01*
G02X528991Y490649I0J-5422D01*
G02X525574Y485612I-5421J0D01*
G01X525536Y485597D01*
X525496Y485557D01*
G02X507847I-8825J30833D01*
G01X507808Y485597D01*
X507769Y485612D01*
G02X511066Y495914I2005J5037D01*
G01X511177Y495887D01*
G03X522165Y495886I5494J20505D01*
G01X522207Y495898D01*
X522241Y495905D01*
G37*
G36*
G01X531712Y531654D02*
G02X539263Y538877I3801J3585D01*
G02X547442Y524708I-22591J-22486D01*
G02X537408Y521791I-5028J-1420D01*
G01X537406Y521799D01*
X537397Y521823D01*
X537370Y521923D01*
Y521924D01*
G03X531821Y531541I-20698J-5533D01*
G01X531734Y531628D01*
X531718Y531648D01*
X531712Y531654D01*
G37*
G36*
G01X632250Y528450D02*
X633070Y528927D01*
G02X635134Y529335I2063J-5014D01*
G02X640555Y523914I0J-5422D01*
G02X639101Y520219I-5421J0D01*
G01X639027Y520140D01*
X638967Y520080D01*
G03X633473Y510563I15011J-15011D01*
G01X632950Y509350D01*
X632826Y509081D01*
G02X628236Y506545I-4590J2886D01*
G02X622858Y511278I0J5421D01*
G01X622850Y512250D01*
X622988Y513338D01*
X622997Y513372D01*
G02X631298Y527749I30982J-8304D01*
G01X631335Y527786D01*
X632250Y528450D01*
G37*
G36*
G01X571734Y546214D02*
G03X582722I5494J20505D01*
G01X583700Y546350D01*
X584423Y546390D01*
G02X585574Y535752I-297J-5413D01*
G01X585560Y535748D01*
X585542Y535741D01*
X585530Y535737D01*
G02X568927I-8302J30982D01*
G01X568901Y535744D01*
X568150Y536100D01*
X567057Y536655D01*
G02X570034Y546390I3273J4322D01*
G01X570950Y546350D01*
X571734Y546214D01*
G37*
G36*
G01X584627Y188662D02*
G02X574152Y191450I-5210J1498D01*
G02X582565Y206023I31008J-8188D01*
G02X590332Y198467I3749J-3916D01*
G01X590321Y198455D01*
X590304Y198427D01*
X590149Y198273D01*
G03X584655Y188758I15011J-15011D01*
G01X584640Y188700D01*
X584629Y188666D01*
X584627Y188662D01*
G37*
G54D39*
X599498Y256157D03*
G54D40*
X100311Y518640D03*
G54D35*
X95500Y402500D03*
X568500Y131000D03*
X541500Y153500D03*
X585916Y110416D03*
X116000Y168500D03*
X583000Y180500D03*
X620535Y73535D03*
X596000Y552500D03*
X80000Y66000D03*
X613311Y202189D03*
X112500Y64500D03*
X632250Y496250D03*
X671500Y490000D03*
X144500Y552000D03*
X103080Y560580D03*
X657767Y527233D03*
X121264Y143000D03*
X67500Y491000D03*
X204605Y503605D03*
X541000Y502500D03*
X520442Y542000D03*
X555000Y558500D03*
X586355Y585645D03*
X164252Y510252D03*
X327985Y385965D03*
X265500Y373500D03*
G54D37*
X256500Y190500D03*
X587346Y85154D03*
X130000Y108000D03*
X498500Y189000D03*
X122576Y95424D03*
X92828Y349007D03*
X97000Y358500D03*
X115500Y161500D03*
X504741Y105234D03*
X603000Y229000D03*
X192500Y508500D03*
X117000Y574500D03*
X134500Y575000D03*
X125850Y111000D03*
X195056Y524444D03*
X177340Y524340D03*
X497500Y116500D03*
X662791Y513709D03*
X586022Y574478D03*
X649000Y501500D03*
X645000Y514000D03*
X581500Y562500D03*
X572987Y562487D03*
X51150Y87350D03*
X56000Y75442D03*
X64000Y76000D03*
X102031Y179031D03*
X93469D03*
X106569Y190431D03*
X88853Y190353D03*
X657846Y502154D03*
X68866Y87366D03*
X568306Y574306D03*
X520668Y513168D03*
X512009Y513500D03*
X507092Y524408D03*
X638218Y74218D03*
X601000Y180000D03*
X634000Y88000D03*
X595869Y191296D03*
X651708Y88000D03*
X614758Y192500D03*
X609815Y179815D03*
X647282Y74218D03*
X524808Y524308D03*
X44500Y500500D03*
X53500D03*
X124851Y558649D03*
X181000Y508500D03*
X40015Y512985D03*
X57731Y512231D03*
X525000Y191500D03*
X255500Y383500D03*
X265500Y379500D03*
G54D20*
X525734Y126132D03*
%LPD*%
G75*
G54D10*
X38500Y72000D03*
X28000Y497000D03*
X52174Y66200D03*
X52162Y94662D03*
X41732Y494268D03*
X40506Y520006D03*
X52707Y527293D03*
X76000Y79000D03*
X80000Y66000D03*
X63842Y102342D03*
X76000Y175500D03*
X67500Y491000D03*
X64000Y506000D03*
X90987Y172513D03*
X88500Y198000D03*
X101545Y205955D03*
X105000Y343500D03*
X84500Y369000D03*
X95500Y402500D03*
X96874Y430626D03*
X103080Y560580D03*
X112500Y64500D03*
X117018Y92518D03*
X107035Y105035D03*
X121000Y125500D03*
X121264Y143000D03*
X116000Y168500D03*
X112571Y183571D03*
X107154Y407654D03*
X123098Y500598D03*
X115106Y483606D03*
X118000Y552500D03*
X117793Y581707D03*
X128753Y69247D03*
X147000Y148500D03*
X139154Y341654D03*
X142000Y566500D03*
X144500Y552000D03*
X129476Y589976D03*
X164604Y130604D03*
X149000Y165500D03*
X164252Y510252D03*
X172500Y143500D03*
X179500Y501500D03*
X177500Y531000D03*
X190032Y539968D03*
X209500Y146500D03*
X203154Y176846D03*
X207500Y402000D03*
X203000Y518500D03*
X204605Y503605D03*
X227097Y159596D03*
X214500Y391500D03*
X217500Y461500D03*
X250227Y487227D03*
X265500Y373500D03*
X263106Y448394D03*
X258219Y500781D03*
X281337Y486337D03*
X289329Y500329D03*
X320192Y448808D03*
X313487Y486013D03*
X321479Y500979D03*
X327985Y385965D03*
X347471Y485029D03*
X355463Y501963D03*
X387000Y390500D03*
X384000Y386500D03*
X381447Y485053D03*
X389439Y501061D03*
X390000Y394000D03*
X398500Y422500D03*
X411154Y459654D03*
X413000Y376000D03*
Y382000D03*
Y387000D03*
X413865Y403135D03*
X417846Y459846D03*
X413593Y485907D03*
X421585Y501085D03*
X453096Y256097D03*
X441827Y284827D03*
X441551Y310949D03*
X440602Y321398D03*
X444676Y486324D03*
X452668Y500668D03*
X458500Y260500D03*
Y300500D03*
X476500Y291500D03*
X473761Y325261D03*
X467000Y331500D03*
X482370Y259500D03*
X483461Y331500D03*
X490954Y333454D03*
X492000Y507000D03*
X507904Y272597D03*
X505500Y327398D03*
X508500Y503000D03*
X508379Y531379D03*
X520442Y542000D03*
X541500Y153500D03*
X541000Y502500D03*
X533500Y516000D03*
X555000Y558500D03*
X585500Y58500D03*
X568500Y131000D03*
X585916Y110416D03*
X568000Y154500D03*
X583000Y180500D03*
X579845Y481500D03*
X571500Y555969D03*
X568293Y581707D03*
X586355Y585645D03*
X587000Y74500D03*
X595957Y97043D03*
X590000Y129500D03*
X598000Y171000D03*
X597251Y198251D03*
X592944Y494444D03*
X593000Y566500D03*
X596000Y552500D03*
X620535Y73535D03*
X624578Y169007D03*
X622500Y184500D03*
X613311Y202189D03*
X634500Y65000D03*
X639035Y91535D03*
X646632Y103000D03*
X648232Y494268D03*
X632250Y496250D03*
X645006Y520006D03*
X660500Y65000D03*
X658500Y80000D03*
X671500Y490000D03*
X670000Y504500D03*
X657767Y527233D03*
G54D11*
X56000Y75442D03*
X51150Y87350D03*
X41000Y488000D03*
X53500Y500500D03*
X44500D03*
X40015Y512985D03*
X57731Y512231D03*
X63805Y65175D03*
X64000Y76000D03*
X68866Y87366D03*
X82000Y298000D03*
X75500Y349000D03*
X80500Y370500D03*
X80548Y382548D03*
X82854Y430854D03*
X83000Y476000D03*
X100000Y88500D03*
X97000Y91000D03*
X102031Y179031D03*
X93469D03*
X88853Y190353D03*
X85500Y305500D03*
Y302000D03*
X89000Y309000D03*
X92828Y349007D03*
X85000Y359500D03*
X97000Y358500D03*
X103000Y352500D03*
X99500Y386000D03*
X101621Y383879D03*
X103743Y381757D03*
X122576Y95424D03*
X125850Y111000D03*
X115500Y161500D03*
X106569Y190431D03*
X115500Y341500D03*
X109000Y337500D03*
X105000D03*
X117500Y366500D03*
X115000Y369500D03*
X123000Y366000D03*
X107654Y390332D03*
X122000Y373500D03*
X118500Y378500D03*
X113846Y407654D03*
X122000Y424500D03*
X124851Y558649D03*
X117000Y574500D03*
X138000Y83346D03*
X130000Y108000D03*
X136400Y119500D03*
X136000Y305500D03*
X140500Y308500D03*
X128680Y314304D03*
X127000Y336500D03*
X145846Y341154D03*
X130500Y358000D03*
X135000Y353000D03*
X127000Y365500D03*
X134500Y575000D03*
X164500Y75500D03*
Y101000D03*
X169000Y192000D03*
X157000Y176000D03*
X150500D03*
X161000Y208500D03*
X170500Y217000D03*
X185140Y167500D03*
X191500Y218500D03*
X181000Y230000D03*
X175000Y224000D03*
X175500Y241000D03*
X184000Y255500D03*
X182000Y263992D03*
X181400Y340500D03*
X180989Y368698D03*
X190500Y367000D03*
X181000Y380000D03*
X182000Y384500D03*
X174000Y383500D03*
X190500Y406400D03*
X181500Y431500D03*
X184493Y440328D03*
X181000Y508500D03*
X177340Y524340D03*
X205000Y57500D03*
X207000Y194000D03*
X195000Y360500D03*
X192500Y357500D03*
X205000Y381500D03*
X197500Y410000D03*
X204500Y398000D03*
X202154Y457654D03*
X213000Y466000D03*
X192500Y508500D03*
X195056Y524444D03*
X220000Y59500D03*
X251749Y88751D03*
X251476Y95476D03*
X256500Y190500D03*
X255500Y383500D03*
Y432500D03*
X260500Y80000D03*
X258493Y66672D03*
X269500Y368000D03*
X268000Y393000D03*
X265500Y379500D03*
X385250Y429750D03*
X386000Y425500D03*
X388000Y464500D03*
X432000Y474500D03*
X450423Y82077D03*
X451148Y75352D03*
X436500Y218500D03*
X442102Y294000D03*
X441000Y447500D03*
X436352Y457000D03*
X468000Y94500D03*
X458630Y282630D03*
X463500Y263000D03*
X497500Y116500D03*
X498500Y189000D03*
X497500Y286000D03*
X491722Y308578D03*
X487500Y441500D03*
X491500Y467000D03*
X483000Y461500D03*
X504741Y105234D03*
X500500Y286000D03*
X503500D03*
X504500Y449500D03*
X514000Y479500D03*
X512009Y513500D03*
X507092Y524408D03*
X525000Y191500D03*
X537000Y215500D03*
X532500Y220000D03*
X525500Y222500D03*
X530500Y236500D03*
X524500Y250500D03*
X525800Y425500D03*
X520668Y513168D03*
X524808Y524308D03*
X547500Y205000D03*
X543000Y210000D03*
X548000Y227000D03*
X564000Y479500D03*
X572987Y562487D03*
X581500Y562500D03*
X586022Y574478D03*
X568306Y574306D03*
X587346Y85154D03*
X606000Y106000D03*
X595869Y191296D03*
X601000Y180000D03*
X603000Y229000D03*
X614758Y192500D03*
X609815Y179815D03*
X638218Y74218D03*
X647282D03*
X651708Y88000D03*
X634000D03*
X649000Y501500D03*
X645000Y514000D03*
X657846Y502154D03*
X662791Y513709D03*
G54D12*
X152389Y89512D03*
Y101332D03*
X187039Y67942D03*
X177199Y64712D03*
Y126132D03*
X188999D03*
X179159Y118182D03*
X213809Y89512D03*
X210099Y80662D03*
X213809Y101332D03*
X489124Y89512D03*
Y101332D03*
X513934Y64712D03*
Y126132D03*
X515894Y118182D03*
X523774Y67942D03*
X525734Y126132D03*
X550544Y89512D03*
X546834Y80662D03*
X550544Y101332D03*
G54D13*
X168139Y89512D03*
X504874D03*
G54D14*
X158662Y316659D03*
Y324533D03*
X544650Y324844D03*
Y316970D03*
G54D15*
X175297Y150661D03*
G54D16*
X180612Y142196D03*
Y159126D03*
X199510Y142196D03*
Y159126D03*
G54D17*
X186500Y458000D03*
X179750Y441250D03*
X189000Y460500D03*
X196000Y167000D03*
X194350Y346373D03*
X193504Y343294D03*
X212000Y444000D03*
X214000Y449500D03*
X219750Y447750D03*
X223700Y458500D03*
X257500Y462000D03*
X401500Y399500D03*
X401000Y461000D03*
X398000Y463500D03*
X426500Y399500D03*
X458000Y185500D03*
X461500Y336000D03*
G54D18*
X204825Y150661D03*
G54D19*
G01X180612Y142196D02*
X183054D01*
X196510Y142196D01*
X199510Y142196D01*
G01Y159126D02*
X196763D01*
X196763Y159125D01*
X183211D01*
X183211Y159126D01*
X180612D01*
G01X199510Y142196D02*
Y159126D01*
M02*
