G04 ================== begin FILE IDENTIFICATION RECORD ==================*
G04 Layout Name:  C:/CenturyPlan/scxStandard/scxStandard.brd*
G04 Film Name:    SILK_TOP*
G04 File Format:  Gerber RS274X*
G04 File Origin:  Cadence Allegro -unreleased*
G04 Origin Date:  Sat Sep 20 16:10:48 2025*
G04 *
G04 Layer:  BOARD GEOMETRY/SILKSCREEN_TOP*
G04 Layer:  REF DES/SILKSCREEN_TOP*
G04 Layer:  PACKAGE GEOMETRY/SILKSCREEN_TOP*
G04 *
G04 Offset:    (0.000 0.000)*
G04 Mirror:    No*
G04 Mode:      Positive*
G04 Rotation:  0*
G04 FullContactRelief:  No*
G04 UndefLineWidth:     0.000*
G04 ================== end FILE IDENTIFICATION RECORD ====================*
%FSLAX25Y25*MOIN*%
%IR0*IPPOS*OFA0.00000B0.00000*MIA0B0*SFA1.00000B1.00000*%
%ADD10C,.004*%
%ADD11C,.005*%
%ADD12C,.006*%
%ADD13C,.0016*%
%ADD14C,.008*%
%ADD15C,.009843*%
%ADD16C,.007874*%
%ADD17C,.01*%
%ADD18C,.01181*%
G75*
%LPD*%
G75*
G36*
G01X30360Y495145D02*
X29750Y496202D01*
X36658Y500236D01*
X37268Y499179D01*
X30360Y495145D01*
G37*
G36*
G01X41495Y69802D02*
X40885Y70858D01*
X47793Y74892D01*
X48403Y73836D01*
X41495Y69802D01*
G37*
G36*
G01X66681Y493919D02*
X66071Y492862D01*
X59123Y496828D01*
X59734Y497885D01*
X66681Y493919D01*
G37*
G36*
G01X49578Y525991D02*
X50798D01*
X50838Y517991D01*
X49617D01*
X49578Y525991D01*
G37*
G36*
G01X77816Y68576D02*
X77206Y67518D01*
X70258Y71484D01*
X70869Y72542D01*
X77816Y68576D01*
G37*
G36*
G01X60713Y100648D02*
X61933D01*
X61973Y92648D01*
X60752D01*
X60713Y100648D01*
G37*
G36*
G01X79198Y173390D02*
X78588Y174447D01*
X85496Y178481D01*
X86106Y177424D01*
X79198Y173390D01*
G37*
G36*
G01X98416Y204236D02*
X99636D01*
X99676Y196236D01*
X98455D01*
X98416Y204236D01*
G37*
G36*
G01X118792Y63267D02*
X120462Y64938D01*
X118792Y66608D01*
X117122Y64938D01*
X118792Y63267D01*
G37*
G36*
G01X110916Y99858D02*
X113278D01*
Y102220D01*
X110916D01*
Y99858D01*
G37*
G36*
G01X122536Y135780D02*
X124206Y134110D01*
X125876Y135780D01*
X124206Y137451D01*
X122536Y135780D01*
G37*
G36*
G01X115519Y172164D02*
X114909Y171107D01*
X107961Y175073D01*
X108572Y176130D01*
X115519Y172164D01*
G37*
G36*
G01X120283Y488340D02*
Y490703D01*
X117921D01*
Y488340D01*
X120283D01*
G37*
G36*
G01X107129Y556846D02*
X106519Y557903D01*
X113427Y561937D01*
X114037Y560880D01*
X107129Y556846D01*
G37*
G36*
G01X143450Y555620D02*
X142840Y554563D01*
X135892Y558529D01*
X136503Y559586D01*
X143450Y555620D01*
G37*
G36*
G01X126347Y587692D02*
X127567D01*
X127607Y579692D01*
X126386D01*
X126347Y587692D01*
G37*
G36*
G01X148520Y158615D02*
X150190Y156945D01*
X151861Y158615D01*
X150190Y160285D01*
X148520Y158615D01*
G37*
G36*
G01X167686Y506518D02*
X167076Y507575D01*
X173984Y511609D01*
X174594Y510552D01*
X167686Y506518D01*
G37*
G36*
G01X186904Y537364D02*
X188124D01*
X188164Y529364D01*
X186942D01*
X186904Y537364D01*
G37*
G36*
G01X204007Y505292D02*
X203396Y504235D01*
X196448Y508201D01*
X197060Y509258D01*
X204007Y505292D01*
G37*
G36*
G01X253042Y497142D02*
Y494779D01*
X255404D01*
Y497142D01*
X253042D01*
G37*
G36*
G01X284152D02*
Y494779D01*
X286514D01*
Y497142D01*
X284152D01*
G37*
G36*
G01X316302D02*
Y494779D01*
X318664D01*
Y497142D01*
X316302D01*
G37*
G36*
G01X350286D02*
Y494779D01*
X352648D01*
Y497142D01*
X350286D01*
G37*
G36*
G01X384262D02*
Y494779D01*
X386624D01*
Y497142D01*
X384262D01*
G37*
G36*
G01X416408D02*
Y494779D01*
X418770D01*
Y497142D01*
X416408D01*
G37*
G36*
G01X447490D02*
Y494779D01*
X449853D01*
Y497142D01*
X447490D01*
G37*
G36*
G01X498095Y506518D02*
X497485Y507575D01*
X504393Y511609D01*
X505003Y510552D01*
X498095Y506518D01*
G37*
G36*
G01X517313Y537364D02*
X518533D01*
X518573Y529364D01*
X517352D01*
X517313Y537364D01*
G37*
G36*
G01X534416Y505292D02*
X533806Y504235D01*
X526858Y508201D01*
X527469Y509258D01*
X534416Y505292D01*
G37*
G36*
G01X549009Y153604D02*
X550680Y155274D01*
X549009Y156945D01*
X547339Y155274D01*
X549009Y153604D01*
G37*
G36*
G01X558651Y556846D02*
X558041Y557903D01*
X564949Y561937D01*
X565559Y560880D01*
X558651Y556846D01*
G37*
G36*
G01X585910Y64723D02*
X584240Y66394D01*
X582569Y64723D01*
X584240Y63053D01*
X585910Y64723D01*
G37*
G36*
G01X575387Y130376D02*
X577058Y132046D01*
X575387Y133716D01*
X573717Y132046D01*
X575387Y130376D01*
G37*
G36*
G01X585022Y488342D02*
Y490704D01*
X582660D01*
Y488342D01*
X585022D01*
G37*
G36*
G01X577869Y587692D02*
X579089D01*
X579129Y579692D01*
X577908D01*
X577869Y587692D01*
G37*
G36*
G01X584932Y99858D02*
X587294D01*
Y102220D01*
X584932D01*
Y99858D01*
G37*
G36*
G01X586582Y173390D02*
X585972Y174447D01*
X592880Y178481D01*
X593490Y177424D01*
X586582Y173390D01*
G37*
G36*
G01X605800Y204236D02*
X607020D01*
X607060Y196236D01*
X605840D01*
X605800Y204236D01*
G37*
G36*
G01X594972Y555620D02*
X594362Y554563D01*
X587414Y558529D01*
X588025Y559586D01*
X594972Y555620D01*
G37*
G36*
G01X624286Y69801D02*
X623676Y70858D01*
X630584Y74892D01*
X631194Y73835D01*
X624286Y69801D01*
G37*
G36*
G01X622904Y172164D02*
X622294Y171107D01*
X615346Y175073D01*
X615956Y176130D01*
X622904Y172164D01*
G37*
G36*
G01X643504Y100647D02*
X644724D01*
X644764Y92647D01*
X643542D01*
X643504Y100647D01*
G37*
G36*
G01X635420Y495144D02*
X634810Y496202D01*
X641718Y500235D01*
X642328Y499178D01*
X635420Y495144D01*
G37*
G36*
G01X660606Y68575D02*
X659996Y67518D01*
X653048Y71484D01*
X653660Y72541D01*
X660606Y68575D01*
G37*
G36*
G01X671741Y493918D02*
X671131Y492862D01*
X664183Y496827D01*
X664794Y497885D01*
X671741Y493918D01*
G37*
G36*
G01X654638Y525990D02*
X655858D01*
X655898Y517990D01*
X654677D01*
X654638Y525990D01*
G37*
G54D10*
G01X150011Y265057D02*
X118827Y233873D01*
G01X161706Y253361D02*
X130523Y222178D01*
G01X149639Y70322D02*
X157999Y61962D01*
G01Y128882D02*
X149639Y120522D01*
G01X208199Y61962D02*
X216559Y70322D01*
G01X208199Y128882D02*
X216559Y120522D01*
G01X277034Y312661D02*
X296406Y346486D01*
G01X486374Y70322D02*
X494734Y61962D01*
G01Y128882D02*
X486374Y120522D01*
G01X544934Y61962D02*
X553294Y70322D01*
G01X544934Y128882D02*
X553294Y120522D01*
G01X574172Y222178D02*
X542989Y253361D01*
G01X585868Y233873D02*
X554684Y265057D01*
G54D11*
G01X31340Y87356D02*
G03X52327Y51007I28667J-7681D01*
G01X20205Y512700D02*
G03X41192Y476351I28667J-7681D01*
G01X28458Y498470D02*
X28563Y498531D01*
G01X28458Y498470D02*
X32958Y490676D01*
G01X31531Y500244D02*
X32314Y500696D01*
G01X35386Y502470D02*
X39886Y494676D01*
G01X36031Y492450D02*
X36814Y492902D01*
G01X32958Y490676D02*
X33063Y490737D01*
G01X35281Y502410D02*
X35386Y502470D01*
G01X69859Y526005D02*
G03X27887I-20986J-20987D01*
G01X39593Y73126D02*
X39698Y73188D01*
G01X39593Y73126D02*
X44093Y65333D01*
G01X42666Y74900D02*
X43449Y75352D01*
G01X50916Y69272D02*
X51021Y69333D01*
G01X46521Y77126D02*
X51021Y69333D01*
G01X46416Y77066D02*
X46521Y77126D01*
G01X47166Y67106D02*
X47949Y67559D01*
G01X44093Y65333D02*
X44198Y65393D01*
G01X55543Y100632D02*
X64543D01*
G01X55543Y92632D02*
Y92752D01*
G01Y92632D02*
X64543D01*
G01X55543Y96178D02*
Y97084D01*
G01Y100510D02*
Y100632D01*
G01X80994Y100662D02*
G03X39022I-20986J-20987D01*
G01X56554Y476351D02*
G03X77540Y512700I-7681J28667D01*
G01X39781Y494615D02*
X39886Y494676D01*
G01X57824Y494609D02*
X57929Y494548D01*
G01X57824Y494609D02*
X62324Y502403D01*
G01X53408Y521522D02*
Y522427D01*
G01X44408Y517975D02*
Y518096D01*
G01Y517975D02*
X53408D01*
G01D02*
Y518096D01*
G01X44408Y521522D02*
Y522427D01*
G01X53408Y525853D02*
Y525975D01*
G01X44408D02*
X53408D01*
G01X44408Y525853D02*
Y525975D01*
G01X67689Y51007D02*
G03X88675Y87356I-7681J28667D01*
G01X80282Y73121D02*
X80387Y73060D01*
G01X76532Y75286D02*
X77315Y74834D01*
G01X68959Y69266D02*
X69064Y69204D01*
G01X68959Y69266D02*
X73459Y77060D01*
G01D02*
X73564Y77000D01*
G01X72032Y67492D02*
X72815Y67040D01*
G01X75887Y65266D02*
X80387Y73060D01*
G01X75782Y65326D02*
X75887Y65266D01*
G01X64543Y100510D02*
Y100632D01*
G01Y96178D02*
Y97084D01*
G01Y92632D02*
Y92752D01*
G01X77296Y176715D02*
X81796Y168921D01*
G01X69043Y190945D02*
G03X90030Y154596I28667J-7681D01*
G01X77296Y176715D02*
X77401Y176776D01*
G01X80369Y178489D02*
X81152Y178941D01*
G01X118697Y204250D02*
G03X76725I-20986J-20987D01*
G01X69147Y498464D02*
X69252Y498403D01*
G01X65397Y500629D02*
X66180Y500177D01*
G01X60897Y492835D02*
X61680Y492383D01*
G01X64752Y490609D02*
X69252Y498403D01*
G01X64647Y490670D02*
X64752Y490609D01*
G01X62324Y502403D02*
X62429Y502343D01*
G01X88619Y172860D02*
X88724Y172921D01*
G01X84224Y180715D02*
X88724Y172921D01*
G01X84869Y170695D02*
X85652Y171147D01*
G01X81796Y168921D02*
X81901Y168982D01*
G01X84119Y180655D02*
X84224Y180715D01*
G01X102246Y204098D02*
Y204220D01*
G01X93246D02*
X102246D01*
G01Y199767D02*
Y200672D01*
G01X93246Y196220D02*
Y196341D01*
G01Y196220D02*
X102246D01*
G01D02*
Y196341D01*
G01X93246Y199767D02*
Y200672D01*
G01Y204098D02*
Y204220D01*
G01X96974Y574401D02*
G03X117961Y538052I28667J-7681D01*
G01X106662Y172854D02*
X106767Y172793D01*
G01X106662Y172854D02*
X111162Y180648D01*
G01X109735Y171080D02*
X110518Y170628D01*
G01X113590Y168854D02*
X118090Y176648D01*
G01X113485Y168915D02*
X113590Y168854D01*
G01X105392Y154596D02*
G03X126378Y190945I-7681J28667D01*
G01X117985Y176709D02*
X118090Y176648D01*
G01X114235Y178874D02*
X115018Y178422D01*
G01X111162Y180648D02*
X111267Y180588D01*
G01X105227Y560171D02*
X105332Y560232D01*
G01X105227Y560171D02*
X109727Y552377D01*
G01X108300Y561945D02*
X109083Y562397D01*
G01X116550Y556316D02*
X116655Y556377D01*
G01X112155Y564171D02*
X116655Y556377D01*
G01X112050Y564111D02*
X112155Y564171D01*
G01X112800Y554151D02*
X113583Y554603D01*
G01X109727Y552377D02*
X109832Y552438D01*
G01X121177Y587676D02*
X130177D01*
G01X121177Y579676D02*
Y579797D01*
G01Y579676D02*
X130177D01*
G01X121177Y583223D02*
Y584128D01*
G01Y587554D02*
Y587676D01*
G01X146628Y587706D02*
G03X104656I-20986J-20987D01*
G01X133323Y538052D02*
G03X154309Y574401I-7681J28667D01*
G01X145916Y560165D02*
X146021Y560104D01*
G01X142166Y562330D02*
X142949Y561878D01*
G01X134593Y556310D02*
X134698Y556249D01*
G01X134593Y556310D02*
X139093Y564104D01*
G01D02*
X139198Y564044D01*
G01X137666Y554536D02*
X138449Y554084D01*
G01X141521Y552310D02*
X146021Y560104D01*
G01X141416Y552371D02*
X141521Y552310D01*
G01X130177Y587554D02*
Y587676D01*
G01Y583223D02*
Y584128D01*
G01Y579676D02*
Y579797D01*
G01X157531Y524073D02*
G03X178518Y487724I28667J-7681D01*
G01X165784Y509843D02*
X165888Y509904D01*
G01X165784Y509843D02*
X170284Y502049D01*
G01X168856Y511617D02*
X169640Y512069D01*
G01X207184Y537378D02*
G03X165212I-20986J-20987D01*
G01X177106Y505988D02*
X177212Y506049D01*
G01X172712Y513843D02*
X177212Y506049D01*
G01X172607Y513783D02*
X172712Y513843D01*
G01X173356Y503823D02*
X174140Y504275D01*
G01X170284Y502049D02*
X170388Y502110D01*
G01X190734Y537226D02*
Y537348D01*
G01X181734D02*
X190734D01*
G01Y532895D02*
Y533800D01*
G01X181734Y529348D02*
Y529469D01*
G01Y529348D02*
X190734D01*
G01D02*
Y529469D01*
G01X181734Y532895D02*
Y533800D01*
G01Y537226D02*
Y537348D01*
G01X193880Y487724D02*
G03X214866Y524073I-7681J28667D01*
G01X206472Y509837D02*
X206578Y509776D01*
G01X202722Y512002D02*
X203506Y511550D01*
G01X195150Y505982D02*
X195255Y505921D01*
G01X195150Y505982D02*
X199650Y513776D01*
G01D02*
X199754Y513716D01*
G01X198222Y504208D02*
X199006Y503756D01*
G01X202078Y501982D02*
X206578Y509776D01*
G01X201972Y502043D02*
X202078Y501982D01*
G01X462510Y324904D02*
X451290D01*
G01Y331596D02*
X462510D01*
G01X478827Y269556D02*
Y274044D01*
G01X485913Y269556D02*
Y274044D01*
G01X488945Y269556D02*
Y274044D01*
G01X496032Y269556D02*
Y274044D01*
G01X487940Y524073D02*
G03X508927Y487724I28667J-7681D01*
G01X496193Y509843D02*
X496298Y509904D01*
G01X496193Y509843D02*
X500693Y502049D01*
G01X537594Y537378D02*
G03X495622I-20986J-20987D01*
G01X499266Y511617D02*
X500049Y512069D01*
G01X507516Y505988D02*
X507621Y506049D01*
G01X503121Y513843D02*
X507621Y506049D01*
G01X503016Y513783D02*
X503121Y513843D01*
G01X503766Y503823D02*
X504549Y504275D01*
G01X500693Y502049D02*
X500798Y502110D01*
G01X512143Y537348D02*
X521143D01*
G01X512143Y529348D02*
Y529469D01*
G01Y529348D02*
X521143D01*
G01X512143Y532895D02*
Y533800D01*
G01Y537226D02*
Y537348D01*
G01X524289Y487724D02*
G03X545275Y524073I-7681J28667D01*
G01X536882Y509837D02*
X536987Y509776D01*
G01X533132Y512002D02*
X533915Y511550D01*
G01X525559Y505982D02*
X525664Y505921D01*
G01X525559Y505982D02*
X530059Y513776D01*
G01D02*
X530164Y513716D01*
G01X528632Y504208D02*
X529415Y503756D01*
G01X532487Y501982D02*
X536987Y509776D01*
G01X532382Y502043D02*
X532487Y501982D01*
G01X521143Y537226D02*
Y537348D01*
G01Y532895D02*
Y533800D01*
G01Y529348D02*
Y529469D01*
G01X548496Y574401D02*
G03X569483Y538052I28667J-7681D01*
G01X556749Y560171D02*
X556854Y560232D01*
G01X556749Y560171D02*
X561249Y552377D01*
G01X559822Y561945D02*
X560605Y562397D01*
G01X561249Y552377D02*
X561354Y552438D01*
G01X598150Y587706D02*
G03X556178I-20986J-20987D01*
G01X576428Y190945D02*
G03X597415Y154596I28667J-7681D01*
G01X584681Y176715D02*
X584786Y176776D01*
G01X584681Y176715D02*
X589181Y168921D01*
G01X626082Y204250D02*
G03X584110I-20986J-20987D01*
G01X568072Y556316D02*
X568177Y556377D01*
G01X563677Y564171D02*
X568177Y556377D01*
G01X563572Y564111D02*
X563677Y564171D01*
G01X564322Y554151D02*
X565105Y554603D01*
G01X581699Y587554D02*
Y587676D01*
G01X572699D02*
X581699D01*
G01Y583223D02*
Y584128D01*
G01X572699Y579676D02*
Y579797D01*
G01Y579676D02*
X581699D01*
G01D02*
Y579797D01*
G01X572699Y583223D02*
Y584128D01*
G01Y587554D02*
Y587676D01*
G01X596004Y172860D02*
X596108Y172921D01*
G01X591608Y180715D02*
X596108Y172921D01*
G01X592254Y170695D02*
X593036Y171147D01*
G01X589181Y168921D02*
X589286Y168982D01*
G01X587754Y178489D02*
X588536Y178941D01*
G01X591504Y180655D02*
X591608Y180715D01*
G01X600630Y204220D02*
X609630D01*
G01X600630Y196220D02*
Y196341D01*
G01Y196220D02*
X609630D01*
G01X600630Y199767D02*
Y200672D01*
G01Y204098D02*
Y204220D01*
G01X584845Y538052D02*
G03X605831Y574401I-7681J28667D01*
G01X597438Y560165D02*
X597543Y560104D01*
G01X593688Y562330D02*
X594471Y561878D01*
G01X586115Y556310D02*
X586220Y556249D01*
G01X586115Y556310D02*
X590615Y564104D01*
G01D02*
X590720Y564044D01*
G01X589188Y554536D02*
X589971Y554084D01*
G01X593043Y552310D02*
X597543Y560104D01*
G01X592938Y552371D02*
X593043Y552310D01*
G01X614130Y87356D02*
G03X635118Y51007I28667J-7681D01*
G01X622384Y73126D02*
X622488Y73187D01*
G01X622384Y73126D02*
X626884Y65332D01*
G01X625456Y74900D02*
X626240Y75352D01*
G01X626884Y65332D02*
X626988Y65393D01*
G01X663784Y100661D02*
G03X621812I-20986J-20987D01*
G01X614046Y172854D02*
X614152Y172793D01*
G01X614046Y172854D02*
X618547Y180648D01*
G01X617120Y171080D02*
X617902Y170628D01*
G01X620974Y168854D02*
X625474Y176648D01*
G01X620870Y168915D02*
X620974Y168854D01*
G01X612776Y154596D02*
G03X633762Y190945I-7681J28667D01*
G01X625370Y176709D02*
X625474Y176648D01*
G01X621620Y178874D02*
X622402Y178422D01*
G01X618547Y180648D02*
X618652Y180588D01*
G01X609630Y204098D02*
Y204220D01*
G01Y199767D02*
Y200672D01*
G01Y196220D02*
Y196341D01*
G01X625265Y512700D02*
G03X646252Y476351I28667J-7681D01*
G01X633706Y69271D02*
X633812Y69332D01*
G01X629312Y77126D02*
X633812Y69332D01*
G01X629206Y77066D02*
X629312Y77126D01*
G01X629956Y67106D02*
X630740Y67558D01*
G01X647334Y100509D02*
Y100631D01*
G01X638334D02*
X647334D01*
G01Y96178D02*
Y97083D01*
G01X638334Y92631D02*
Y92752D01*
G01Y92631D02*
X647334D01*
G01D02*
Y92752D01*
G01X638334Y96178D02*
Y97083D01*
G01Y100509D02*
Y100631D01*
G01X633518Y498469D02*
X633623Y498531D01*
G01X633518Y498469D02*
X638018Y490676D01*
G01X636591Y500244D02*
X637374Y500695D01*
G01X644841Y494615D02*
X644946Y494676D01*
G01X640446Y502469D02*
X644946Y494676D01*
G01X641091Y492450D02*
X641874Y492902D01*
G01X638018Y490676D02*
X638123Y490736D01*
G01X640341Y502410D02*
X640446Y502469D01*
G01X649468Y517974D02*
Y518096D01*
G01Y517974D02*
X658468D01*
G01X649468Y521522D02*
Y522427D01*
G01Y525974D02*
X658468D01*
G01X649468Y525852D02*
Y525974D01*
G01X674919Y526004D02*
G03X632947I-20986J-20987D01*
G01X650480Y51007D02*
G03X671466Y87356I-7681J28667D01*
G01X663073Y73120D02*
X663178Y73059D01*
G01X659322Y75285D02*
X660106Y74833D01*
G01X651750Y69265D02*
X651854Y69204D01*
G01X651750Y69265D02*
X656250Y77059D01*
G01D02*
X656354Y76999D01*
G01X654822Y67491D02*
X655606Y67039D01*
G01X658677Y65265D02*
X663178Y73059D01*
G01X658573Y65326D02*
X658677Y65265D01*
G01X661614Y476351D02*
G03X682600Y512700I-7681J28667D01*
G01X670457Y500628D02*
X671240Y500177D01*
G01X662884Y494608D02*
X662989Y494548D01*
G01X662884Y494608D02*
X667384Y502402D01*
G01X665957Y492834D02*
X666740Y492382D01*
G01X669812Y490608D02*
X674312Y498402D01*
G01X669707Y490670D02*
X669812Y490608D01*
G01X658468Y521522D02*
Y522427D01*
G01Y517974D02*
Y518096D01*
G01X667384Y502402D02*
X667489Y502343D01*
G01X658468Y525852D02*
Y525974D01*
G01X674207Y498464D02*
X674312Y498402D01*
G54D12*
G01X91066Y354934D02*
X91861Y355730D01*
X92456Y357079D01*
G01X93211Y356325D02*
X91861Y355730D01*
G01X92621Y353379D02*
X94389Y355147D01*
X93809Y355019D01*
G01X92395Y353605D02*
X92848Y353152D01*
G01X92640Y380399D02*
X92842Y380424D01*
X93032Y380497D01*
X93183Y380648D01*
X93264Y380906D01*
X93249Y381185D01*
X93167Y381456D01*
X92948Y381826D01*
X92701Y382110D01*
X92398Y382338D01*
X92165Y382458D01*
X91875Y382522D01*
X91625Y382507D01*
X91434Y382434D01*
X91302Y382302D01*
X91229Y382111D01*
X91204Y381910D01*
X91228Y381698D01*
G01X90647Y380940D02*
X90328Y381033D01*
X90059Y381000D01*
X89860Y380860D01*
X89738Y380680D01*
X89735Y380381D01*
X89817Y380110D01*
X89975Y379915D01*
X90219Y379746D01*
X90499Y379731D01*
X90690Y379804D01*
X90859Y379974D01*
G01X90690Y379804D02*
X90665Y379602D01*
X90718Y379361D01*
X90857Y379146D01*
X91071Y379007D01*
X91313Y378954D01*
X91571Y379036D01*
X91711Y379235D01*
X91763Y379522D01*
G01X89003Y379473D02*
X88743Y379507D01*
X88522Y379463D01*
X88323Y379323D01*
X88212Y379094D01*
X88198Y378845D01*
X88310Y378544D01*
X88527Y378290D01*
X88800Y378092D01*
X89042Y378039D01*
X89292Y378053D01*
X89453Y378155D01*
X89556Y378317D01*
X89608Y378604D01*
X90317Y377782D01*
X89808Y377272D01*
G01X105292Y400613D02*
X105417Y400773D01*
X105500Y400960D01*
Y401173D01*
X105375Y401413D01*
X105167Y401600D01*
X104917Y401733D01*
X104500Y401840D01*
X104125Y401867D01*
X103750Y401813D01*
X103500Y401733D01*
X103250Y401573D01*
X103083Y401387D01*
X103000Y401200D01*
Y401013D01*
X103083Y400827D01*
X103208Y400667D01*
X103375Y400533D01*
G01X103000Y399000D02*
X105500D01*
X105000Y399320D01*
G01X103000D02*
Y398680D01*
G01X103375Y397387D02*
X103167Y397227D01*
X103042Y397040D01*
X103000Y396800D01*
X103083Y396560D01*
X103250Y396373D01*
X103542Y396240D01*
X103875Y396213D01*
X104208Y396267D01*
X104417Y396400D01*
X104583Y396587D01*
X104625Y396773D01*
X104583Y396960D01*
X104417Y397200D01*
X105500Y397120D01*
Y396400D01*
G01X105083Y395107D02*
X105333Y394947D01*
X105458Y394760D01*
X105500Y394547D01*
X105417Y394280D01*
X105208Y394093D01*
X104958Y394040D01*
X104708Y394067D01*
X104500Y394173D01*
X104083Y394707D01*
X103792Y394947D01*
X103375Y395107D01*
X103000Y395160D01*
Y394040D01*
G01X96887Y413792D02*
X96727Y413917D01*
X96540Y414000D01*
X96327D01*
X96087Y413875D01*
X95900Y413667D01*
X95767Y413417D01*
X95660Y413000D01*
X95633Y412625D01*
X95687Y412250D01*
X95767Y412000D01*
X95927Y411750D01*
X96113Y411583D01*
X96300Y411500D01*
X96487D01*
X96673Y411583D01*
X96833Y411708D01*
X96967Y411875D01*
G01X98500Y411500D02*
Y414000D01*
X98180Y413500D01*
G01Y411500D02*
X98820D01*
G01X100113Y411875D02*
X100273Y411667D01*
X100460Y411542D01*
X100700Y411500D01*
X100940Y411583D01*
X101127Y411750D01*
X101260Y412042D01*
X101287Y412375D01*
X101233Y412708D01*
X101100Y412917D01*
X100913Y413083D01*
X100727Y413125D01*
X100540Y413083D01*
X100300Y412917D01*
X100380Y414000D01*
X101100D01*
G01X102900D02*
X102687Y413917D01*
X102527Y413708D01*
X102420Y413458D01*
X102340Y413125D01*
X102313Y412750D01*
X102340Y412375D01*
X102420Y412042D01*
X102527Y411792D01*
X102687Y411583D01*
X102900Y411500D01*
X103113Y411583D01*
X103273Y411792D01*
X103380Y412042D01*
X103460Y412375D01*
X103487Y412750D01*
X103460Y413125D01*
X103380Y413458D01*
X103273Y413708D01*
X103113Y413917D01*
X102900Y414000D01*
G01X84267Y417500D02*
Y420000D01*
X84933D01*
X85147Y419875D01*
X85280Y419708D01*
X85333Y419375D01*
X85280Y419042D01*
X85120Y418833D01*
X84933Y418708D01*
X84267D01*
G01X84933D02*
X85333Y417500D01*
G01X86493Y419583D02*
X86653Y419833D01*
X86840Y419958D01*
X87053Y420000D01*
X87320Y419917D01*
X87507Y419708D01*
X87560Y419458D01*
X87533Y419208D01*
X87427Y419000D01*
X86893Y418583D01*
X86653Y418292D01*
X86493Y417875D01*
X86440Y417500D01*
X87560D01*
G01X89200D02*
X89387Y417542D01*
X89600Y417667D01*
X89733Y417875D01*
X89787Y418167D01*
X89733Y418458D01*
X89573Y418708D01*
X89333Y418833D01*
X89067D01*
X88907Y418917D01*
X88773Y419125D01*
X88720Y419417D01*
X88800Y419708D01*
X88987Y419917D01*
X89200Y420000D01*
X89413Y419917D01*
X89600Y419708D01*
X89680Y419417D01*
X89627Y419125D01*
X89493Y418917D01*
X89333Y418833D01*
X89067D01*
X88827Y418708D01*
X88667Y418458D01*
X88613Y418167D01*
X88667Y417875D01*
X88800Y417667D01*
X89013Y417542D01*
X89200Y417500D01*
G01X117662Y56831D02*
X119430Y58599D01*
X118676Y59353D01*
G01X117120Y60909D02*
X117874Y60154D01*
X116106Y58386D01*
X115352Y59141D01*
G01X116508Y59693D02*
X116961Y59241D01*
G01X116356Y61672D02*
X114589Y59904D01*
X114212Y60282D01*
X114149Y60521D01*
X114154Y60752D01*
X114236Y61023D01*
X114367Y61304D01*
X114643Y61618D01*
X114956Y61894D01*
X115238Y62025D01*
X115509Y62107D01*
X115740Y62112D01*
X115979Y62049D01*
X116356Y61672D01*
G01X114447Y62874D02*
X114540Y63194D01*
X114507Y63462D01*
X114367Y63662D01*
X114187Y63783D01*
X113889Y63786D01*
X113618Y63704D01*
X113422Y63546D01*
X113253Y63302D01*
X113238Y63023D01*
X113311Y62832D01*
X113481Y62662D01*
G01X113311Y62832D02*
X113110Y62857D01*
X112868Y62804D01*
X112654Y62664D01*
X112514Y62450D01*
X112461Y62208D01*
X112543Y61950D01*
X112742Y61810D01*
X113030Y61758D01*
G01X112830Y65198D02*
X112669Y65301D01*
X112430Y65363D01*
X112188Y65310D01*
X111944Y65142D01*
X111776Y64898D01*
X111712Y64608D01*
X111793Y64350D01*
X111982Y64161D01*
X112036Y63989D01*
X111983Y63747D01*
X111814Y63504D01*
X111552Y63354D01*
X111272Y63338D01*
X111063Y63430D01*
X110971Y63640D01*
X110986Y63920D01*
X111136Y64182D01*
X111380Y64351D01*
X111621Y64404D01*
X111793Y64350D01*
X111982Y64161D01*
X112240Y64080D01*
X112530Y64143D01*
X112774Y64312D01*
X112942Y64556D01*
X112995Y64798D01*
X112933Y65037D01*
X112830Y65198D01*
G01X105565Y96106D02*
X108065D01*
Y97172D01*
G01Y99373D02*
Y98306D01*
X105565D01*
Y99373D01*
G01X106774Y98946D02*
Y98306D01*
G01X108065Y100452D02*
X105565D01*
Y100986D01*
X105690Y101199D01*
X105857Y101359D01*
X106107Y101493D01*
X106399Y101599D01*
X106815Y101626D01*
X107232Y101599D01*
X107524Y101493D01*
X107774Y101359D01*
X107940Y101199D01*
X108065Y100986D01*
Y100452D01*
G01X107565Y102653D02*
X107857Y102812D01*
X108024Y103026D01*
X108065Y103266D01*
X108024Y103479D01*
X107815Y103693D01*
X107565Y103826D01*
X107315Y103853D01*
X107024Y103799D01*
X106815Y103612D01*
X106732Y103426D01*
Y103186D01*
G01Y103426D02*
X106607Y103586D01*
X106399Y103719D01*
X106149Y103772D01*
X105899Y103719D01*
X105690Y103586D01*
X105565Y103346D01*
X105607Y103106D01*
X105774Y102866D01*
G01X107774Y104986D02*
X107982Y105172D01*
X108065Y105386D01*
X107982Y105599D01*
X107732Y105786D01*
X107357Y105919D01*
X106982Y105972D01*
X106524D01*
X106149Y105919D01*
X105815Y105786D01*
X105649Y105626D01*
X105565Y105439D01*
X105649Y105226D01*
X105815Y105066D01*
X106065Y104959D01*
X106399Y104906D01*
X106690Y104959D01*
X106982Y105092D01*
X107149Y105253D01*
X107190Y105439D01*
X107107Y105653D01*
X106899Y105812D01*
X106524Y105972D01*
G01X116099Y136910D02*
X117867Y135143D01*
X118621Y135897D01*
G01X120177Y137453D02*
X119423Y136698D01*
X117655Y138466D01*
X118409Y139220D01*
G01X118962Y138064D02*
X118509Y137612D01*
G01X120940Y138216D02*
X119173Y139984D01*
X119550Y140361D01*
X119789Y140424D01*
X120020Y140419D01*
X120291Y140336D01*
X120573Y140205D01*
X120886Y139930D01*
X121162Y139616D01*
X121293Y139334D01*
X121375Y139064D01*
X121380Y138832D01*
X121318Y138593D01*
X120940Y138216D01*
G01X123137Y140413D02*
X121369Y142181D01*
X121939Y140216D01*
X122881Y141159D01*
G01X122699Y143510D02*
X122607Y143300D01*
X122641Y143040D01*
X122742Y142788D01*
X122922Y142495D01*
X123168Y142211D01*
X123452Y141965D01*
X123744Y141786D01*
X123996Y141684D01*
X124257Y141650D01*
X124466Y141742D01*
X124558Y141952D01*
X124524Y142212D01*
X124423Y142465D01*
X124244Y142757D01*
X123997Y143041D01*
X123713Y143287D01*
X123421Y143466D01*
X123169Y143568D01*
X122908Y143602D01*
X122699Y143510D01*
G01X121640Y350899D02*
X121842Y350924D01*
X122032Y350997D01*
X122183Y351148D01*
X122264Y351406D01*
X122249Y351685D01*
X122167Y351956D01*
X121947Y352326D01*
X121701Y352610D01*
X121398Y352838D01*
X121165Y352958D01*
X120875Y353022D01*
X120625Y353007D01*
X120434Y352934D01*
X120302Y352802D01*
X120229Y352611D01*
X120204Y352410D01*
X120228Y352198D01*
G01X119647Y351440D02*
X119328Y351533D01*
X119059Y351500D01*
X118860Y351360D01*
X118738Y351180D01*
X118735Y350881D01*
X118817Y350610D01*
X118975Y350415D01*
X119219Y350246D01*
X119499Y350231D01*
X119690Y350304D01*
X119859Y350474D01*
G01X119690Y350304D02*
X119665Y350102D01*
X119718Y349861D01*
X119857Y349646D01*
X120071Y349507D01*
X120313Y349454D01*
X120571Y349536D01*
X120711Y349735D01*
X120763Y350022D01*
G01X118418Y349445D02*
X118492Y349107D01*
X118497Y348876D01*
X118405Y348666D01*
X118214Y348593D01*
X118002Y348616D01*
X117750Y348718D01*
X117525Y348905D01*
X117367Y349101D01*
X117265Y349353D01*
X117231Y349613D01*
X117304Y349804D01*
X117514Y349896D01*
X117823Y349851D01*
X118163Y349662D01*
X118477Y349386D01*
X118822Y348965D01*
X118972Y348702D01*
X119084Y348402D01*
X119099Y348122D01*
X118997Y347961D01*
X118806Y347888D01*
X118564Y347941D01*
G01X119063Y391287D02*
X116871Y389095D01*
X116984Y389858D01*
G01X118738Y391612D02*
X119388Y390962D01*
G01X119713Y417500D02*
Y415708D01*
X119820Y415333D01*
X120033Y415083D01*
X120300Y415000D01*
X120567Y415083D01*
X120780Y415333D01*
X120887Y415708D01*
Y417500D01*
G01X122447Y415000D02*
X122500Y415542D01*
X122580Y416000D01*
X122687Y416417D01*
X122820Y416875D01*
X123033Y417500D01*
X121967D01*
G01X111167Y502000D02*
Y499500D01*
X112233D01*
G01X114433D02*
X113367D01*
Y502000D01*
X114433D01*
G01X114007Y500792D02*
X113367D01*
G01X115513Y499500D02*
Y502000D01*
X116047D01*
X116260Y501875D01*
X116420Y501708D01*
X116553Y501458D01*
X116660Y501167D01*
X116687Y500750D01*
X116660Y500333D01*
X116553Y500042D01*
X116420Y499792D01*
X116260Y499625D01*
X116047Y499500D01*
X115513D01*
G01X118300D02*
Y502000D01*
X117980Y501500D01*
G01Y499500D02*
X118620D01*
G01X142083Y159745D02*
X143851Y157977D01*
X144605Y158732D01*
G01X146161Y160287D02*
X145407Y159533D01*
X143639Y161301D01*
X144393Y162055D01*
G01X144946Y160899D02*
X144493Y160446D01*
G01X146925Y161051D02*
X145157Y162818D01*
X145534Y163196D01*
X145773Y163258D01*
X146004Y163253D01*
X146275Y163171D01*
X146557Y163040D01*
X146870Y162764D01*
X147146Y162451D01*
X147277Y162169D01*
X147360Y161898D01*
X147364Y161667D01*
X147302Y161428D01*
X146925Y161051D01*
G01X149121Y163248D02*
X147354Y165015D01*
X147923Y163051D01*
X148866Y163994D01*
G01X150451Y164577D02*
X148683Y166344D01*
X148810Y165765D01*
G01X150224Y164351D02*
X150677Y164803D01*
G01X140117Y220581D02*
X138850Y221848D01*
X138509Y222038D01*
X138182Y222064D01*
X137934Y221934D01*
X137805Y221687D01*
X137830Y221359D01*
X138020Y221019D01*
X139287Y219752D01*
G01X138210Y219264D02*
X138274Y218974D01*
X138230Y218754D01*
X138109Y218573D01*
X137861Y218444D01*
X137582Y218459D01*
X137368Y218598D01*
X137210Y218794D01*
X137138Y219016D01*
X137220Y219688D01*
X137184Y220064D01*
X137002Y220472D01*
X136775Y220775D01*
X135983Y219983D01*
G01X136654Y217708D02*
X136718Y217418D01*
X136675Y217198D01*
X136553Y217018D01*
X136306Y216888D01*
X136026Y216903D01*
X135812Y217042D01*
X135654Y217238D01*
X135582Y217461D01*
X135665Y218132D01*
X135628Y218508D01*
X135446Y218916D01*
X135219Y219219D01*
X134427Y218427D01*
G01X139887Y337792D02*
X139727Y337917D01*
X139540Y338000D01*
X139327D01*
X139087Y337875D01*
X138900Y337667D01*
X138767Y337417D01*
X138660Y337000D01*
X138633Y336625D01*
X138687Y336250D01*
X138767Y336000D01*
X138927Y335750D01*
X139113Y335583D01*
X139300Y335500D01*
X139487D01*
X139673Y335583D01*
X139833Y335708D01*
X139967Y335875D01*
G01X141500Y335500D02*
Y338000D01*
X141180Y337500D01*
G01Y335500D02*
X141820D01*
G01X144020D02*
Y338000D01*
X143033Y336208D01*
X144367D01*
G01X145847Y335500D02*
X145900Y336042D01*
X145980Y336500D01*
X146087Y336917D01*
X146220Y337375D01*
X146433Y338000D01*
X145367D01*
G01X132269Y411869D02*
X130077Y409677D01*
X132269Y407485D01*
G01X165549Y200610D02*
X165574Y200408D01*
X165647Y200218D01*
X165798Y200067D01*
X166056Y199986D01*
X166335Y200001D01*
X166606Y200083D01*
X166976Y200302D01*
X167260Y200549D01*
X167488Y200852D01*
X167608Y201085D01*
X167672Y201375D01*
X167657Y201625D01*
X167584Y201816D01*
X167452Y201948D01*
X167261Y202021D01*
X167060Y202046D01*
X166848Y202022D01*
G01X166029Y203371D02*
X164261Y201604D01*
X164841Y201731D01*
G01X166255Y203145D02*
X165802Y203598D01*
G01X164534Y204158D02*
X164628Y204478D01*
X164594Y204747D01*
X164454Y204946D01*
X164274Y205067D01*
X163976Y205071D01*
X163705Y204988D01*
X163509Y204830D01*
X163341Y204586D01*
X163325Y204307D01*
X163398Y204116D01*
X163568Y203946D01*
G01X163398Y204116D02*
X163197Y204141D01*
X162955Y204088D01*
X162741Y203949D01*
X162602Y203734D01*
X162549Y203493D01*
X162630Y203235D01*
X162829Y203094D01*
X163117Y203043D01*
G01X161150Y204715D02*
X161360Y204623D01*
X161620Y204657D01*
X161872Y204758D01*
X162164Y204938D01*
X162448Y205184D01*
X162695Y205468D01*
X162874Y205760D01*
X162975Y206012D01*
X163010Y206273D01*
X162918Y206482D01*
X162708Y206574D01*
X162447Y206540D01*
X162195Y206439D01*
X161903Y206260D01*
X161619Y206014D01*
X161372Y205729D01*
X161193Y205437D01*
X161092Y205185D01*
X161058Y204924D01*
X161150Y204715D01*
G01X172690Y204817D02*
X170923Y203049D01*
X170451Y203521D01*
X170389Y203760D01*
X170412Y203972D01*
X170610Y204246D01*
X170884Y204444D01*
X171144Y204478D01*
X171364Y204434D01*
X171836Y203963D01*
G01X171364Y204434D02*
X171936Y205572D01*
G01X170758Y206750D02*
X168990Y204982D01*
X169570Y205109D01*
G01X170984Y206524D02*
X170531Y206976D01*
G01X168824Y207211D02*
X168486Y207136D01*
X168255Y207132D01*
X168045Y207224D01*
X167972Y207415D01*
X167995Y207627D01*
X168097Y207879D01*
X168284Y208104D01*
X168480Y208262D01*
X168732Y208363D01*
X168992Y208398D01*
X169183Y208324D01*
X169275Y208115D01*
X169230Y207806D01*
X169041Y207465D01*
X168765Y207152D01*
X168344Y206807D01*
X168081Y206657D01*
X167781Y206545D01*
X167501Y206530D01*
X167340Y206632D01*
X167267Y206823D01*
X167320Y207065D01*
G01X167684Y209824D02*
X167263Y209478D01*
X166883Y209211D01*
X166513Y208991D01*
X166094Y208762D01*
X165502Y208470D01*
X166256Y207716D01*
G01X155745Y384009D02*
X157937Y381817D01*
X160129Y384009D01*
G01Y435345D02*
X157937Y437537D01*
X155745Y435345D01*
G01X174954Y210316D02*
X174979Y210114D01*
X175052Y209923D01*
X175203Y209772D01*
X175461Y209691D01*
X175740Y209707D01*
X176012Y209789D01*
X176382Y210008D01*
X176666Y210254D01*
X176893Y210557D01*
X177013Y210791D01*
X177077Y211081D01*
X177063Y211330D01*
X176990Y211521D01*
X176858Y211653D01*
X176667Y211726D01*
X176465Y211751D01*
X176253Y211728D01*
G01X175548Y212550D02*
X175564Y212830D01*
X175472Y213039D01*
X175262Y213131D01*
X174953Y213086D01*
X174594Y212916D01*
X174291Y212688D01*
X173967Y212364D01*
X173739Y212061D01*
X173598Y211731D01*
X173593Y211500D01*
X173666Y211309D01*
X173876Y211217D01*
X174107Y211222D01*
X174359Y211323D01*
X174633Y211521D01*
X174801Y211765D01*
X174913Y212066D01*
X174918Y212297D01*
X174815Y212458D01*
X174606Y212550D01*
X174345Y212516D01*
X173967Y212364D01*
G01X172111Y212865D02*
X172320Y212773D01*
X172581Y212807D01*
X172833Y212908D01*
X173126Y213088D01*
X173410Y213334D01*
X173656Y213618D01*
X173835Y213910D01*
X173936Y214162D01*
X173970Y214423D01*
X173878Y214633D01*
X173669Y214724D01*
X173408Y214690D01*
X173156Y214589D01*
X172864Y214410D01*
X172580Y214164D01*
X172334Y213880D01*
X172154Y213587D01*
X172053Y213335D01*
X172019Y213075D01*
X172111Y212865D01*
G01X180481Y216242D02*
X180506Y216041D01*
X180579Y215850D01*
X180730Y215699D01*
X180988Y215618D01*
X181267Y215633D01*
X181538Y215716D01*
X181908Y215935D01*
X182192Y216181D01*
X182420Y216484D01*
X182540Y216717D01*
X182604Y217007D01*
X182590Y217257D01*
X182516Y217448D01*
X182384Y217580D01*
X182194Y217653D01*
X181992Y217678D01*
X181780Y217654D01*
G01X180961Y219004D02*
X180799Y219106D01*
X180560Y219168D01*
X180319Y219116D01*
X180075Y218947D01*
X179906Y218703D01*
X179842Y218413D01*
X179924Y218155D01*
X180112Y217966D01*
X180166Y217794D01*
X180114Y217553D01*
X179945Y217309D01*
X179682Y217159D01*
X179403Y217144D01*
X179193Y217236D01*
X179101Y217446D01*
X179116Y217725D01*
X179266Y217988D01*
X179510Y218156D01*
X179752Y218209D01*
X179924Y218155D01*
X180112Y217966D01*
X180370Y217885D01*
X180660Y217949D01*
X180904Y218117D01*
X181073Y218361D01*
X181126Y218603D01*
X181063Y218842D01*
X180961Y219004D01*
G01X179520Y220032D02*
X179535Y220312D01*
X179443Y220521D01*
X179233Y220613D01*
X178924Y220569D01*
X178565Y220398D01*
X178262Y220170D01*
X177938Y219846D01*
X177711Y219543D01*
X177569Y219213D01*
X177564Y218982D01*
X177638Y218791D01*
X177847Y218699D01*
X178078Y218704D01*
X178330Y218805D01*
X178604Y219004D01*
X178772Y219247D01*
X178884Y219548D01*
X178889Y219779D01*
X178786Y219940D01*
X178577Y220032D01*
X178316Y219998D01*
X177938Y219846D01*
G01X189420Y222498D02*
X187652Y220730D01*
X187181Y221201D01*
X187118Y221440D01*
X187142Y221653D01*
X187340Y221926D01*
X187613Y222124D01*
X187874Y222158D01*
X188094Y222114D01*
X188566Y221643D01*
G01X188094Y222114D02*
X188666Y223252D01*
G01X187487Y224430D02*
X185720Y222662D01*
X186299Y222790D01*
G01X187714Y224204D02*
X187261Y224656D01*
G01X185554Y224891D02*
X185215Y224817D01*
X184984Y224812D01*
X184774Y224904D01*
X184701Y225095D01*
X184725Y225307D01*
X184826Y225559D01*
X185014Y225784D01*
X185209Y225942D01*
X185462Y226044D01*
X185722Y226078D01*
X185913Y226005D01*
X186005Y225795D01*
X185960Y225486D01*
X185770Y225146D01*
X185494Y224832D01*
X185074Y224487D01*
X184811Y224337D01*
X184510Y224225D01*
X184231Y224210D01*
X184070Y224312D01*
X183997Y224503D01*
X184050Y224745D01*
G01X183998Y226447D02*
X183660Y226372D01*
X183429Y226368D01*
X183219Y226460D01*
X183146Y226650D01*
X183169Y226862D01*
X183271Y227115D01*
X183458Y227340D01*
X183654Y227498D01*
X183906Y227599D01*
X184166Y227633D01*
X184357Y227560D01*
X184449Y227350D01*
X184404Y227042D01*
X184215Y226701D01*
X183939Y226388D01*
X183518Y226042D01*
X183255Y225893D01*
X182955Y225781D01*
X182676Y225765D01*
X182514Y225868D01*
X182441Y226059D01*
X182494Y226300D01*
G01X183605Y407485D02*
X185797Y409677D01*
X183605Y411869D01*
G01X194899Y397318D02*
X194924Y397117D01*
X194997Y396926D01*
X195148Y396775D01*
X195406Y396694D01*
X195685Y396709D01*
X195956Y396792D01*
X196326Y397011D01*
X196610Y397257D01*
X196838Y397560D01*
X196958Y397793D01*
X197022Y398083D01*
X197007Y398333D01*
X196934Y398524D01*
X196802Y398656D01*
X196611Y398729D01*
X196410Y398754D01*
X196198Y398730D01*
G01X195379Y400080D02*
X193611Y398312D01*
X194191Y398439D01*
G01X195605Y399853D02*
X195153Y400306D01*
G01X193597Y401862D02*
X191829Y400094D01*
X193794Y400663D01*
X192851Y401606D01*
G01X192382Y402664D02*
X192397Y402943D01*
X192305Y403153D01*
X192096Y403245D01*
X191787Y403200D01*
X191427Y403029D01*
X191124Y402802D01*
X190800Y402478D01*
X190573Y402175D01*
X190431Y401845D01*
X190427Y401614D01*
X190500Y401423D01*
X190710Y401331D01*
X190940Y401336D01*
X191193Y401437D01*
X191466Y401635D01*
X191635Y401879D01*
X191747Y402180D01*
X191751Y402411D01*
X191649Y402572D01*
X191439Y402664D01*
X191179Y402630D01*
X190800Y402478D01*
G01X175618Y613800D02*
Y616900D01*
X177382Y613800D01*
Y616900D01*
G01X179600Y613800D02*
X179370Y613852D01*
X179140Y614058D01*
X178987Y614420D01*
X178910Y614833D01*
X178987Y615247D01*
X179140Y615608D01*
X179370Y615815D01*
X179600Y615867D01*
X179830Y615815D01*
X180060Y615608D01*
X180213Y615247D01*
X180252Y614833D01*
X180213Y614420D01*
X180060Y614058D01*
X179830Y613852D01*
X179600Y613800D01*
G01X184842Y615867D02*
X185302Y613800D01*
X185800Y615867D01*
X186298Y613800D01*
X186758Y615867D01*
G01X188325Y615195D02*
X189552D01*
X189437Y615557D01*
X189245Y615763D01*
X188977Y615867D01*
X188708Y615815D01*
X188478Y615660D01*
X188325Y615298D01*
X188248Y614988D01*
Y614678D01*
X188325Y614368D01*
X188517Y614058D01*
X188747Y613852D01*
X189015Y613800D01*
X189283Y613903D01*
X189552Y614213D01*
G01X192690Y613800D02*
Y615867D01*
G01Y615505D02*
X192537Y615712D01*
X192307Y615815D01*
X192038Y615867D01*
X191770Y615763D01*
X191540Y615557D01*
X191387Y615247D01*
X191310Y614833D01*
X191387Y614420D01*
X191540Y614110D01*
X191770Y613903D01*
X192038Y613800D01*
X192307Y613852D01*
X192537Y614007D01*
X192690Y614213D01*
G01X194410Y612767D02*
Y615867D01*
G01Y615402D02*
X194602Y615660D01*
X194793Y615815D01*
X195100Y615867D01*
X195368Y615815D01*
X195637Y615557D01*
X195752Y615195D01*
X195790Y614833D01*
X195752Y614472D01*
X195637Y614110D01*
X195407Y613903D01*
X195100Y613800D01*
X194832Y613852D01*
X194563Y614007D01*
X194410Y614213D01*
G01X198200Y613800D02*
X197970Y613852D01*
X197740Y614058D01*
X197587Y614420D01*
X197510Y614833D01*
X197587Y615247D01*
X197740Y615608D01*
X197970Y615815D01*
X198200Y615867D01*
X198430Y615815D01*
X198660Y615608D01*
X198813Y615247D01*
X198852Y614833D01*
X198813Y614420D01*
X198660Y614058D01*
X198430Y613852D01*
X198200Y613800D01*
G01X200648D02*
Y615867D01*
G01Y615350D02*
X200802Y615608D01*
X201032Y615815D01*
X201338Y615867D01*
X201607Y615815D01*
X201837Y615608D01*
X201952Y615247D01*
Y613800D01*
G01X207270D02*
Y616435D01*
X207347Y616693D01*
X207500Y616848D01*
X207730Y616900D01*
X207960Y616797D01*
X208075Y616538D01*
G01X207615Y615660D02*
X206848D01*
G01X210600Y613800D02*
X210370Y613852D01*
X210140Y614058D01*
X209987Y614420D01*
X209910Y614833D01*
X209987Y615247D01*
X210140Y615608D01*
X210370Y615815D01*
X210600Y615867D01*
X210830Y615815D01*
X211060Y615608D01*
X211213Y615247D01*
X211252Y614833D01*
X211213Y614420D01*
X211060Y614058D01*
X210830Y613852D01*
X210600Y613800D01*
G01X213163D02*
Y615867D01*
G01Y615453D02*
X213355Y615660D01*
X213547Y615815D01*
X213815Y615867D01*
X214007Y615815D01*
X214237Y615660D01*
G01X215650Y613800D02*
Y615867D01*
G01Y615298D02*
X215765Y615557D01*
X215957Y615763D01*
X216225Y615867D01*
X216493Y615763D01*
X216685Y615557D01*
X216800Y615298D01*
Y613800D01*
G01Y615298D02*
X216915Y615557D01*
X217107Y615763D01*
X217375Y615867D01*
X217643Y615763D01*
X217835Y615557D01*
X217950Y615247D01*
Y613800D01*
G01X219325Y615195D02*
X220552D01*
X220437Y615557D01*
X220245Y615763D01*
X219977Y615867D01*
X219708Y615815D01*
X219478Y615660D01*
X219325Y615298D01*
X219248Y614988D01*
Y614678D01*
X219325Y614368D01*
X219517Y614058D01*
X219747Y613852D01*
X220015Y613800D01*
X220283Y613903D01*
X220552Y614213D01*
G01X223690Y616900D02*
Y613800D01*
G01Y614265D02*
X223537Y614007D01*
X223307Y613852D01*
X223038Y613800D01*
X222732Y613903D01*
X222502Y614162D01*
X222348Y614472D01*
X222310Y614833D01*
X222348Y615195D01*
X222502Y615505D01*
X222732Y615763D01*
X223038Y615867D01*
X223307Y615815D01*
X223498Y615712D01*
X223690Y615505D01*
G01X229890Y613800D02*
Y615867D01*
G01Y615505D02*
X229737Y615712D01*
X229507Y615815D01*
X229238Y615867D01*
X228970Y615763D01*
X228740Y615557D01*
X228587Y615247D01*
X228510Y614833D01*
X228587Y614420D01*
X228740Y614110D01*
X228970Y613903D01*
X229238Y613800D01*
X229507Y613852D01*
X229737Y614007D01*
X229890Y614213D01*
G01X231763Y613025D02*
X232032Y612818D01*
X232338Y612767D01*
X232607Y612818D01*
X232837Y613077D01*
X232990Y613438D01*
Y615867D01*
G01Y615453D02*
X232837Y615660D01*
X232607Y615815D01*
X232338Y615867D01*
X232032Y615763D01*
X231840Y615557D01*
X231687Y615195D01*
X231610Y614833D01*
X231648Y614523D01*
X231802Y614162D01*
X232032Y613903D01*
X232338Y613800D01*
X232568Y613852D01*
X232837Y614058D01*
X232990Y614265D01*
G01X236090Y613800D02*
Y615867D01*
G01Y615505D02*
X235937Y615712D01*
X235707Y615815D01*
X235438Y615867D01*
X235170Y615763D01*
X234940Y615557D01*
X234787Y615247D01*
X234710Y614833D01*
X234787Y614420D01*
X234940Y614110D01*
X235170Y613903D01*
X235438Y613800D01*
X235707Y613852D01*
X235937Y614007D01*
X236090Y614213D01*
G01X238500Y615867D02*
Y613800D01*
G01Y616693D02*
X238423Y616745D01*
Y616848D01*
X238500Y616900D01*
X238577Y616848D01*
Y616745D01*
X238500Y616693D01*
G01X240948Y613800D02*
Y615867D01*
G01Y615350D02*
X241102Y615608D01*
X241332Y615815D01*
X241638Y615867D01*
X241907Y615815D01*
X242137Y615608D01*
X242252Y615247D01*
Y613800D01*
G01X244125Y614162D02*
X244317Y613955D01*
X244585Y613800D01*
X244815D01*
X245045Y613903D01*
X245198Y614058D01*
X245275Y614265D01*
X245237Y614575D01*
X245083Y614730D01*
X244393Y615040D01*
X244240Y615402D01*
X244317Y615660D01*
X244470Y615815D01*
X244700Y615867D01*
X244930Y615815D01*
X245160Y615660D01*
G01X247800Y616900D02*
Y613800D01*
G01X247263Y615867D02*
X248337D01*
G01X252850Y613800D02*
Y615867D01*
G01Y615298D02*
X252965Y615557D01*
X253157Y615763D01*
X253425Y615867D01*
X253693Y615763D01*
X253885Y615557D01*
X254000Y615298D01*
Y613800D01*
G01Y615298D02*
X254115Y615557D01*
X254307Y615763D01*
X254575Y615867D01*
X254843Y615763D01*
X255035Y615557D01*
X255150Y615247D01*
Y613800D01*
G01X256525Y615195D02*
X257752D01*
X257637Y615557D01*
X257445Y615763D01*
X257177Y615867D01*
X256908Y615815D01*
X256678Y615660D01*
X256525Y615298D01*
X256448Y614988D01*
Y614678D01*
X256525Y614368D01*
X256717Y614058D01*
X256947Y613852D01*
X257215Y613800D01*
X257483Y613903D01*
X257752Y614213D01*
G01X262725Y614162D02*
X262917Y613955D01*
X263185Y613800D01*
X263415D01*
X263645Y613903D01*
X263798Y614058D01*
X263875Y614265D01*
X263837Y614575D01*
X263683Y614730D01*
X262993Y615040D01*
X262840Y615402D01*
X262917Y615660D01*
X263070Y615815D01*
X263300Y615867D01*
X263530Y615815D01*
X263760Y615660D01*
G01X265748Y613800D02*
Y616900D01*
G01Y615402D02*
X265940Y615660D01*
X266132Y615815D01*
X266438Y615867D01*
X266668Y615815D01*
X266937Y615608D01*
X267052Y615298D01*
Y613800D01*
G01X270190D02*
Y615867D01*
G01Y615505D02*
X270037Y615712D01*
X269807Y615815D01*
X269538Y615867D01*
X269270Y615763D01*
X269040Y615557D01*
X268887Y615247D01*
X268810Y614833D01*
X268887Y614420D01*
X269040Y614110D01*
X269270Y613903D01*
X269538Y613800D01*
X269807Y613852D01*
X270037Y614007D01*
X270190Y614213D01*
G01X272600Y613800D02*
Y616900D01*
G01X275700Y613800D02*
Y616900D01*
G01X281210Y612767D02*
Y615867D01*
G01Y615402D02*
X281402Y615660D01*
X281593Y615815D01*
X281900Y615867D01*
X282168Y615815D01*
X282437Y615557D01*
X282552Y615195D01*
X282590Y614833D01*
X282552Y614472D01*
X282437Y614110D01*
X282207Y613903D01*
X281900Y613800D01*
X281632Y613852D01*
X281363Y614007D01*
X281210Y614213D01*
G01X284463Y613800D02*
Y615867D01*
G01Y615453D02*
X284655Y615660D01*
X284847Y615815D01*
X285115Y615867D01*
X285307Y615815D01*
X285537Y615660D01*
G01X288100Y613800D02*
X287870Y613852D01*
X287640Y614058D01*
X287487Y614420D01*
X287410Y614833D01*
X287487Y615247D01*
X287640Y615608D01*
X287870Y615815D01*
X288100Y615867D01*
X288330Y615815D01*
X288560Y615608D01*
X288713Y615247D01*
X288752Y614833D01*
X288713Y614420D01*
X288560Y614058D01*
X288330Y613852D01*
X288100Y613800D01*
G01X290625Y614162D02*
X290817Y613955D01*
X291085Y613800D01*
X291315D01*
X291545Y613903D01*
X291698Y614058D01*
X291775Y614265D01*
X291737Y614575D01*
X291583Y614730D01*
X290893Y615040D01*
X290740Y615402D01*
X290817Y615660D01*
X290970Y615815D01*
X291200Y615867D01*
X291430Y615815D01*
X291660Y615660D01*
G01X293610Y612767D02*
Y615867D01*
G01Y615402D02*
X293802Y615660D01*
X293993Y615815D01*
X294300Y615867D01*
X294568Y615815D01*
X294837Y615557D01*
X294952Y615195D01*
X294990Y614833D01*
X294952Y614472D01*
X294837Y614110D01*
X294607Y613903D01*
X294300Y613800D01*
X294032Y613852D01*
X293763Y614007D01*
X293610Y614213D01*
G01X296825Y615195D02*
X298052D01*
X297937Y615557D01*
X297745Y615763D01*
X297477Y615867D01*
X297208Y615815D01*
X296978Y615660D01*
X296825Y615298D01*
X296748Y614988D01*
Y614678D01*
X296825Y614368D01*
X297017Y614058D01*
X297247Y613852D01*
X297515Y613800D01*
X297783Y613903D01*
X298052Y614213D01*
G01X299963Y613800D02*
Y615867D01*
G01Y615453D02*
X300155Y615660D01*
X300347Y615815D01*
X300615Y615867D01*
X300807Y615815D01*
X301037Y615660D01*
G01X303523Y613232D02*
X303677Y613903D01*
G01X307390Y613800D02*
Y615867D01*
G01Y615505D02*
X307237Y615712D01*
X307007Y615815D01*
X306738Y615867D01*
X306470Y615763D01*
X306240Y615557D01*
X306087Y615247D01*
X306010Y614833D01*
X306087Y614420D01*
X306240Y614110D01*
X306470Y613903D01*
X306738Y613800D01*
X307007Y613852D01*
X307237Y614007D01*
X307390Y614213D01*
G01X309148Y613800D02*
Y615867D01*
G01Y615350D02*
X309302Y615608D01*
X309532Y615815D01*
X309838Y615867D01*
X310107Y615815D01*
X310337Y615608D01*
X310452Y615247D01*
Y613800D01*
G01X313590Y616900D02*
Y613800D01*
G01Y614265D02*
X313437Y614007D01*
X313207Y613852D01*
X312938Y613800D01*
X312632Y613903D01*
X312402Y614162D01*
X312248Y614472D01*
X312210Y614833D01*
X312248Y615195D01*
X312402Y615505D01*
X312632Y615763D01*
X312938Y615867D01*
X313207Y615815D01*
X313398Y615712D01*
X313590Y615505D01*
G01X318525Y615195D02*
X319752D01*
X319637Y615557D01*
X319445Y615763D01*
X319177Y615867D01*
X318908Y615815D01*
X318678Y615660D01*
X318525Y615298D01*
X318448Y614988D01*
Y614678D01*
X318525Y614368D01*
X318717Y614058D01*
X318947Y613852D01*
X319215Y613800D01*
X319483Y613903D01*
X319752Y614213D01*
G01X321510Y615867D02*
X322200Y613800D01*
X322890Y615867D01*
G01X324725Y615195D02*
X325952D01*
X325837Y615557D01*
X325645Y615763D01*
X325377Y615867D01*
X325108Y615815D01*
X324878Y615660D01*
X324725Y615298D01*
X324648Y614988D01*
Y614678D01*
X324725Y614368D01*
X324917Y614058D01*
X325147Y613852D01*
X325415Y613800D01*
X325683Y613903D01*
X325952Y614213D01*
G01X327863Y613800D02*
Y615867D01*
G01Y615453D02*
X328055Y615660D01*
X328247Y615815D01*
X328515Y615867D01*
X328707Y615815D01*
X328937Y615660D01*
G01X330695Y612870D02*
X330925Y612767D01*
X331232Y612870D01*
X331423Y613077D01*
X331577Y613335D01*
X331807Y614162D01*
X332305Y615867D01*
G01X331078D02*
X331807Y614162D01*
G01X337700Y616900D02*
Y613800D01*
G01X337163Y615867D02*
X338237D01*
G01X340800Y613800D02*
X340570Y613852D01*
X340340Y614058D01*
X340187Y614420D01*
X340110Y614833D01*
X340187Y615247D01*
X340340Y615608D01*
X340570Y615815D01*
X340800Y615867D01*
X341030Y615815D01*
X341260Y615608D01*
X341413Y615247D01*
X341452Y614833D01*
X341413Y614420D01*
X341260Y614058D01*
X341030Y613852D01*
X340800Y613800D01*
G01X343248D02*
Y615867D01*
G01Y615350D02*
X343402Y615608D01*
X343632Y615815D01*
X343938Y615867D01*
X344207Y615815D01*
X344437Y615608D01*
X344552Y615247D01*
Y613800D01*
G01X346463Y613025D02*
X346732Y612818D01*
X347038Y612767D01*
X347307Y612818D01*
X347537Y613077D01*
X347690Y613438D01*
Y615867D01*
G01Y615453D02*
X347537Y615660D01*
X347307Y615815D01*
X347038Y615867D01*
X346732Y615763D01*
X346540Y615557D01*
X346387Y615195D01*
X346310Y614833D01*
X346348Y614523D01*
X346502Y614162D01*
X346732Y613903D01*
X347038Y613800D01*
X347268Y613852D01*
X347537Y614058D01*
X347690Y614265D01*
G01X349448Y615867D02*
Y614420D01*
X349602Y614058D01*
X349832Y613852D01*
X350100Y613800D01*
X350368Y613852D01*
X350598Y614058D01*
X350752Y614420D01*
G01Y613800D02*
Y615867D01*
G01X352625Y615195D02*
X353852D01*
X353737Y615557D01*
X353545Y615763D01*
X353277Y615867D01*
X353008Y615815D01*
X352778Y615660D01*
X352625Y615298D01*
X352548Y614988D01*
Y614678D01*
X352625Y614368D01*
X352817Y614058D01*
X353047Y613852D01*
X353315Y613800D01*
X353583Y613903D01*
X353852Y614213D01*
G01X359400Y616900D02*
Y613800D01*
G01X358863Y615867D02*
X359937D01*
G01X361848Y613800D02*
Y616900D01*
G01Y615402D02*
X362040Y615660D01*
X362232Y615815D01*
X362538Y615867D01*
X362768Y615815D01*
X363037Y615608D01*
X363152Y615298D01*
Y613800D01*
G01X366290D02*
Y615867D01*
G01Y615505D02*
X366137Y615712D01*
X365907Y615815D01*
X365638Y615867D01*
X365370Y615763D01*
X365140Y615557D01*
X364987Y615247D01*
X364910Y614833D01*
X364987Y614420D01*
X365140Y614110D01*
X365370Y613903D01*
X365638Y613800D01*
X365907Y613852D01*
X366137Y614007D01*
X366290Y614213D01*
G01X368700Y616900D02*
Y613800D01*
G01X368163Y615867D02*
X369237D01*
G01X374325Y614162D02*
X374517Y613955D01*
X374785Y613800D01*
X375015D01*
X375245Y613903D01*
X375398Y614058D01*
X375475Y614265D01*
X375437Y614575D01*
X375283Y614730D01*
X374593Y615040D01*
X374440Y615402D01*
X374517Y615660D01*
X374670Y615815D01*
X374900Y615867D01*
X375130Y615815D01*
X375360Y615660D01*
G01X377348Y613800D02*
Y616900D01*
G01Y615402D02*
X377540Y615660D01*
X377732Y615815D01*
X378038Y615867D01*
X378268Y615815D01*
X378537Y615608D01*
X378652Y615298D01*
Y613800D01*
G01X381790D02*
Y615867D01*
G01Y615505D02*
X381637Y615712D01*
X381407Y615815D01*
X381138Y615867D01*
X380870Y615763D01*
X380640Y615557D01*
X380487Y615247D01*
X380410Y614833D01*
X380487Y614420D01*
X380640Y614110D01*
X380870Y613903D01*
X381138Y613800D01*
X381407Y613852D01*
X381637Y614007D01*
X381790Y614213D01*
G01X384200Y613800D02*
Y616900D01*
G01X387300Y613800D02*
Y616900D01*
G01X392963Y613800D02*
Y615867D01*
G01Y615453D02*
X393155Y615660D01*
X393347Y615815D01*
X393615Y615867D01*
X393807Y615815D01*
X394037Y615660D01*
G01X396600Y615867D02*
Y613800D01*
G01Y616693D02*
X396523Y616745D01*
Y616848D01*
X396600Y616900D01*
X396677Y616848D01*
Y616745D01*
X396600Y616693D01*
G01X399125Y614162D02*
X399317Y613955D01*
X399585Y613800D01*
X399815D01*
X400045Y613903D01*
X400198Y614058D01*
X400275Y614265D01*
X400237Y614575D01*
X400083Y614730D01*
X399393Y615040D01*
X399240Y615402D01*
X399317Y615660D01*
X399470Y615815D01*
X399700Y615867D01*
X399930Y615815D01*
X400160Y615660D01*
G01X402225Y615195D02*
X403452D01*
X403337Y615557D01*
X403145Y615763D01*
X402877Y615867D01*
X402608Y615815D01*
X402378Y615660D01*
X402225Y615298D01*
X402148Y614988D01*
Y614678D01*
X402225Y614368D01*
X402417Y614058D01*
X402647Y613852D01*
X402915Y613800D01*
X403183Y613903D01*
X403452Y614213D01*
G01X409690Y613800D02*
Y615867D01*
G01Y615505D02*
X409537Y615712D01*
X409307Y615815D01*
X409038Y615867D01*
X408770Y615763D01*
X408540Y615557D01*
X408387Y615247D01*
X408310Y614833D01*
X408387Y614420D01*
X408540Y614110D01*
X408770Y613903D01*
X409038Y613800D01*
X409307Y613852D01*
X409537Y614007D01*
X409690Y614213D01*
G01X411563Y613025D02*
X411832Y612818D01*
X412138Y612767D01*
X412407Y612818D01*
X412637Y613077D01*
X412790Y613438D01*
Y615867D01*
G01Y615453D02*
X412637Y615660D01*
X412407Y615815D01*
X412138Y615867D01*
X411832Y615763D01*
X411640Y615557D01*
X411487Y615195D01*
X411410Y614833D01*
X411448Y614523D01*
X411602Y614162D01*
X411832Y613903D01*
X412138Y613800D01*
X412368Y613852D01*
X412637Y614058D01*
X412790Y614265D01*
G01X415890Y613800D02*
Y615867D01*
G01Y615505D02*
X415737Y615712D01*
X415507Y615815D01*
X415238Y615867D01*
X414970Y615763D01*
X414740Y615557D01*
X414587Y615247D01*
X414510Y614833D01*
X414587Y614420D01*
X414740Y614110D01*
X414970Y613903D01*
X415238Y613800D01*
X415507Y613852D01*
X415737Y614007D01*
X415890Y614213D01*
G01X418300Y615867D02*
Y613800D01*
G01Y616693D02*
X418223Y616745D01*
Y616848D01*
X418300Y616900D01*
X418377Y616848D01*
Y616745D01*
X418300Y616693D01*
G01X420748Y613800D02*
Y615867D01*
G01Y615350D02*
X420902Y615608D01*
X421132Y615815D01*
X421438Y615867D01*
X421707Y615815D01*
X421937Y615608D01*
X422052Y615247D01*
Y613800D01*
G01X423925Y614162D02*
X424117Y613955D01*
X424385Y613800D01*
X424615D01*
X424845Y613903D01*
X424998Y614058D01*
X425075Y614265D01*
X425037Y614575D01*
X424883Y614730D01*
X424193Y615040D01*
X424040Y615402D01*
X424117Y615660D01*
X424270Y615815D01*
X424500Y615867D01*
X424730Y615815D01*
X424960Y615660D01*
G01X427600Y616900D02*
Y613800D01*
G01X427063Y615867D02*
X428137D01*
G01X433800Y616900D02*
Y613800D01*
G01X433263Y615867D02*
X434337D01*
G01X436248Y613800D02*
Y616900D01*
G01Y615402D02*
X436440Y615660D01*
X436632Y615815D01*
X436938Y615867D01*
X437168Y615815D01*
X437437Y615608D01*
X437552Y615298D01*
Y613800D01*
G01X439425Y615195D02*
X440652D01*
X440537Y615557D01*
X440345Y615763D01*
X440077Y615867D01*
X439808Y615815D01*
X439578Y615660D01*
X439425Y615298D01*
X439348Y614988D01*
Y614678D01*
X439425Y614368D01*
X439617Y614058D01*
X439847Y613852D01*
X440115Y613800D01*
X440383Y613903D01*
X440652Y614213D01*
G01X442525Y615195D02*
X443752D01*
X443637Y615557D01*
X443445Y615763D01*
X443177Y615867D01*
X442908Y615815D01*
X442678Y615660D01*
X442525Y615298D01*
X442448Y614988D01*
Y614678D01*
X442525Y614368D01*
X442717Y614058D01*
X442947Y613852D01*
X443215Y613800D01*
X443483Y613903D01*
X443752Y614213D01*
G01X449300Y615867D02*
Y613800D01*
G01Y616693D02*
X449223Y616745D01*
Y616848D01*
X449300Y616900D01*
X449377Y616848D01*
Y616745D01*
X449300Y616693D01*
G01X451748Y613800D02*
Y615867D01*
G01Y615350D02*
X451902Y615608D01*
X452132Y615815D01*
X452438Y615867D01*
X452707Y615815D01*
X452937Y615608D01*
X453052Y615247D01*
Y613800D01*
G01X457987Y613025D02*
X458255Y612818D01*
X458485Y612767D01*
X458792Y612870D01*
X459022Y613128D01*
X459137Y613593D01*
Y615867D01*
G01Y616693D02*
X459060Y616745D01*
Y616848D01*
X459137Y616900D01*
X459213Y616848D01*
Y616745D01*
X459137Y616693D01*
G01X461048Y615867D02*
Y614420D01*
X461202Y614058D01*
X461432Y613852D01*
X461700Y613800D01*
X461968Y613852D01*
X462198Y614058D01*
X462352Y614420D01*
G01Y613800D02*
Y615867D01*
G01X465490Y616900D02*
Y613800D01*
G01Y614265D02*
X465337Y614007D01*
X465107Y613852D01*
X464838Y613800D01*
X464532Y613903D01*
X464302Y614162D01*
X464148Y614472D01*
X464110Y614833D01*
X464148Y615195D01*
X464302Y615505D01*
X464532Y615763D01*
X464838Y615867D01*
X465107Y615815D01*
X465298Y615712D01*
X465490Y615505D01*
G01X467363Y613025D02*
X467632Y612818D01*
X467938Y612767D01*
X468207Y612818D01*
X468437Y613077D01*
X468590Y613438D01*
Y615867D01*
G01Y615453D02*
X468437Y615660D01*
X468207Y615815D01*
X467938Y615867D01*
X467632Y615763D01*
X467440Y615557D01*
X467287Y615195D01*
X467210Y614833D01*
X467248Y614523D01*
X467402Y614162D01*
X467632Y613903D01*
X467938Y613800D01*
X468168Y613852D01*
X468437Y614058D01*
X468590Y614265D01*
G01X470425Y615195D02*
X471652D01*
X471537Y615557D01*
X471345Y615763D01*
X471077Y615867D01*
X470808Y615815D01*
X470578Y615660D01*
X470425Y615298D01*
X470348Y614988D01*
Y614678D01*
X470425Y614368D01*
X470617Y614058D01*
X470847Y613852D01*
X471115Y613800D01*
X471383Y613903D01*
X471652Y614213D01*
G01X473448Y613800D02*
Y615867D01*
G01Y615350D02*
X473602Y615608D01*
X473832Y615815D01*
X474138Y615867D01*
X474407Y615815D01*
X474637Y615608D01*
X474752Y615247D01*
Y613800D01*
G01X477200Y616900D02*
Y613800D01*
G01X476663Y615867D02*
X477737D01*
G01X483400Y616900D02*
Y613800D01*
G01X482863Y615867D02*
X483937D01*
G01X485848Y613800D02*
Y616900D01*
G01Y615402D02*
X486040Y615660D01*
X486232Y615815D01*
X486538Y615867D01*
X486768Y615815D01*
X487037Y615608D01*
X487152Y615298D01*
Y613800D01*
G01X489600D02*
X489370Y613852D01*
X489140Y614058D01*
X488987Y614420D01*
X488910Y614833D01*
X488987Y615247D01*
X489140Y615608D01*
X489370Y615815D01*
X489600Y615867D01*
X489830Y615815D01*
X490060Y615608D01*
X490213Y615247D01*
X490252Y614833D01*
X490213Y614420D01*
X490060Y614058D01*
X489830Y613852D01*
X489600Y613800D01*
G01X492048Y615867D02*
Y614420D01*
X492202Y614058D01*
X492432Y613852D01*
X492700Y613800D01*
X492968Y613852D01*
X493198Y614058D01*
X493352Y614420D01*
G01Y613800D02*
Y615867D01*
G01X498325Y614162D02*
X498517Y613955D01*
X498785Y613800D01*
X499015D01*
X499245Y613903D01*
X499398Y614058D01*
X499475Y614265D01*
X499437Y614575D01*
X499283Y614730D01*
X498593Y615040D01*
X498440Y615402D01*
X498517Y615660D01*
X498670Y615815D01*
X498900Y615867D01*
X499130Y615815D01*
X499360Y615660D01*
G01X501348Y613800D02*
Y616900D01*
G01Y615402D02*
X501540Y615660D01*
X501732Y615815D01*
X502038Y615867D01*
X502268Y615815D01*
X502537Y615608D01*
X502652Y615298D01*
Y613800D01*
G01X505790D02*
Y615867D01*
G01Y615505D02*
X505637Y615712D01*
X505407Y615815D01*
X505138Y615867D01*
X504870Y615763D01*
X504640Y615557D01*
X504487Y615247D01*
X504410Y614833D01*
X504487Y614420D01*
X504640Y614110D01*
X504870Y613903D01*
X505138Y613800D01*
X505407Y613852D01*
X505637Y614007D01*
X505790Y614213D01*
G01X508200Y613800D02*
Y616900D01*
G01X511300D02*
Y613800D01*
G01X510763Y615867D02*
X511837D01*
G01X518113Y615608D02*
X517845Y615815D01*
X517615Y615867D01*
X517308Y615763D01*
X517078Y615557D01*
X516925Y615195D01*
X516887Y614833D01*
X516925Y614472D01*
X517078Y614162D01*
X517308Y613903D01*
X517615Y613800D01*
X517883Y613903D01*
X518113Y614110D01*
G01X520600Y613800D02*
X520370Y613852D01*
X520140Y614058D01*
X519987Y614420D01*
X519910Y614833D01*
X519987Y615247D01*
X520140Y615608D01*
X520370Y615815D01*
X520600Y615867D01*
X520830Y615815D01*
X521060Y615608D01*
X521213Y615247D01*
X521252Y614833D01*
X521213Y614420D01*
X521060Y614058D01*
X520830Y613852D01*
X520600Y613800D01*
G01X523048D02*
Y615867D01*
G01Y615350D02*
X523202Y615608D01*
X523432Y615815D01*
X523738Y615867D01*
X524007Y615815D01*
X524237Y615608D01*
X524352Y615247D01*
Y613800D01*
G01X527490Y616900D02*
Y613800D01*
G01Y614265D02*
X527337Y614007D01*
X527107Y613852D01*
X526838Y613800D01*
X526532Y613903D01*
X526302Y614162D01*
X526148Y614472D01*
X526110Y614833D01*
X526148Y615195D01*
X526302Y615505D01*
X526532Y615763D01*
X526838Y615867D01*
X527107Y615815D01*
X527298Y615712D01*
X527490Y615505D01*
G01X529325Y615195D02*
X530552D01*
X530437Y615557D01*
X530245Y615763D01*
X529977Y615867D01*
X529708Y615815D01*
X529478Y615660D01*
X529325Y615298D01*
X529248Y614988D01*
Y614678D01*
X529325Y614368D01*
X529517Y614058D01*
X529747Y613852D01*
X530015Y613800D01*
X530283Y613903D01*
X530552Y614213D01*
G01X531850Y613800D02*
Y615867D01*
G01Y615298D02*
X531965Y615557D01*
X532157Y615763D01*
X532425Y615867D01*
X532693Y615763D01*
X532885Y615557D01*
X533000Y615298D01*
Y613800D01*
G01Y615298D02*
X533115Y615557D01*
X533307Y615763D01*
X533575Y615867D01*
X533843Y615763D01*
X534035Y615557D01*
X534150Y615247D01*
Y613800D01*
G01X535448D02*
Y615867D01*
G01Y615350D02*
X535602Y615608D01*
X535832Y615815D01*
X536138Y615867D01*
X536407Y615815D01*
X536637Y615608D01*
X536752Y615247D01*
Y613800D01*
G01X539200Y613697D02*
X539123Y613748D01*
Y613852D01*
X539200Y613903D01*
X539277Y613852D01*
Y613748D01*
X539200Y613697D01*
G01X206618Y386704D02*
X206778Y386579D01*
X206964Y386496D01*
X207178D01*
X207418Y386621D01*
X207604Y386829D01*
X207738Y387079D01*
X207844Y387496D01*
X207871Y387871D01*
X207818Y388246D01*
X207738Y388496D01*
X207578Y388746D01*
X207391Y388912D01*
X207204Y388996D01*
X207018D01*
X206831Y388912D01*
X206671Y388787D01*
X206538Y388621D01*
G01X205004Y388996D02*
Y386496D01*
X205324Y386996D01*
G01Y388996D02*
X204684D01*
G01X203391Y388621D02*
X203231Y388829D01*
X203044Y388954D01*
X202804Y388996D01*
X202564Y388912D01*
X202378Y388746D01*
X202244Y388454D01*
X202218Y388121D01*
X202271Y387787D01*
X202404Y387579D01*
X202591Y387412D01*
X202778Y387371D01*
X202964Y387412D01*
X203204Y387579D01*
X203124Y386496D01*
X202404D01*
G01X201191Y388496D02*
X201031Y388787D01*
X200818Y388954D01*
X200578Y388996D01*
X200364Y388954D01*
X200151Y388746D01*
X200018Y388496D01*
X199991Y388246D01*
X200044Y387954D01*
X200231Y387746D01*
X200418Y387662D01*
X200658D01*
G01X200418D02*
X200258Y387537D01*
X200124Y387329D01*
X200071Y387079D01*
X200124Y386829D01*
X200258Y386621D01*
X200498Y386496D01*
X200738Y386537D01*
X200978Y386704D01*
G01X206618Y381704D02*
X206778Y381579D01*
X206964Y381496D01*
X207178D01*
X207418Y381621D01*
X207604Y381829D01*
X207738Y382079D01*
X207844Y382496D01*
X207871Y382871D01*
X207818Y383246D01*
X207738Y383496D01*
X207578Y383746D01*
X207391Y383912D01*
X207204Y383996D01*
X207018D01*
X206831Y383912D01*
X206671Y383787D01*
X206538Y383621D01*
G01X205004Y383996D02*
Y381496D01*
X205324Y381996D01*
G01Y383996D02*
X204684D01*
G01X203391Y383621D02*
X203231Y383829D01*
X203044Y383954D01*
X202804Y383996D01*
X202564Y383912D01*
X202378Y383746D01*
X202244Y383454D01*
X202218Y383121D01*
X202271Y382787D01*
X202404Y382579D01*
X202591Y382412D01*
X202778Y382371D01*
X202964Y382412D01*
X203204Y382579D01*
X203124Y381496D01*
X202404D01*
G01X200604Y383996D02*
Y381496D01*
X200924Y381996D01*
G01Y383996D02*
X200284D01*
G01X202337Y467142D02*
X202177Y467267D01*
X201990Y467350D01*
X201777D01*
X201537Y467225D01*
X201350Y467017D01*
X201217Y466767D01*
X201110Y466350D01*
X201083Y465975D01*
X201137Y465600D01*
X201217Y465350D01*
X201377Y465100D01*
X201563Y464933D01*
X201750Y464850D01*
X201937D01*
X202123Y464933D01*
X202283Y465058D01*
X202417Y465225D01*
G01X203950Y464850D02*
Y467350D01*
X203630Y466850D01*
G01Y464850D02*
X204270D01*
G01X206470D02*
Y467350D01*
X205483Y465558D01*
X206817D01*
G01X208350Y464850D02*
X208537Y464892D01*
X208750Y465017D01*
X208883Y465225D01*
X208937Y465517D01*
X208883Y465808D01*
X208723Y466058D01*
X208483Y466183D01*
X208217D01*
X208057Y466267D01*
X207923Y466475D01*
X207870Y466767D01*
X207950Y467058D01*
X208137Y467267D01*
X208350Y467350D01*
X208563Y467267D01*
X208750Y467058D01*
X208830Y466767D01*
X208777Y466475D01*
X208643Y466267D01*
X208483Y466183D01*
X208217D01*
X207977Y466058D01*
X207817Y465808D01*
X207763Y465517D01*
X207817Y465225D01*
X207950Y465017D01*
X208163Y464892D01*
X208350Y464850D01*
G01X233792Y157613D02*
X233917Y157773D01*
X234000Y157960D01*
Y158173D01*
X233875Y158413D01*
X233667Y158600D01*
X233417Y158733D01*
X233000Y158840D01*
X232625Y158867D01*
X232250Y158813D01*
X232000Y158733D01*
X231750Y158573D01*
X231583Y158387D01*
X231500Y158200D01*
Y158013D01*
X231583Y157827D01*
X231708Y157667D01*
X231875Y157533D01*
G01X233583Y156507D02*
X233833Y156347D01*
X233958Y156160D01*
X234000Y155947D01*
X233917Y155680D01*
X233708Y155493D01*
X233458Y155440D01*
X233208Y155467D01*
X233000Y155573D01*
X232583Y156107D01*
X232292Y156347D01*
X231875Y156507D01*
X231500Y156560D01*
Y155440D01*
G01X231875Y154387D02*
X231667Y154227D01*
X231542Y154040D01*
X231500Y153800D01*
X231583Y153560D01*
X231750Y153373D01*
X232042Y153240D01*
X232375Y153213D01*
X232708Y153267D01*
X232917Y153400D01*
X233083Y153587D01*
X233125Y153773D01*
X233083Y153960D01*
X232917Y154200D01*
X234000Y154120D01*
Y153400D01*
G01X216767Y443000D02*
Y445500D01*
X217433D01*
X217647Y445375D01*
X217780Y445208D01*
X217833Y444875D01*
X217780Y444542D01*
X217620Y444333D01*
X217433Y444208D01*
X216767D01*
G01X217433D02*
X217833Y443000D01*
G01X219500D02*
Y445500D01*
X219180Y445000D01*
G01Y443000D02*
X219820D01*
G01X221247Y443292D02*
X221433Y443083D01*
X221647Y443000D01*
X221860Y443083D01*
X222047Y443333D01*
X222180Y443708D01*
X222233Y444083D01*
Y444542D01*
X222180Y444917D01*
X222047Y445250D01*
X221887Y445417D01*
X221700Y445500D01*
X221487Y445417D01*
X221327Y445250D01*
X221220Y445000D01*
X221167Y444667D01*
X221220Y444375D01*
X221353Y444083D01*
X221513Y443917D01*
X221700Y443875D01*
X221913Y443958D01*
X222073Y444167D01*
X222233Y444542D01*
G01X217267Y450000D02*
Y452500D01*
X217933D01*
X218147Y452375D01*
X218280Y452208D01*
X218333Y451875D01*
X218280Y451542D01*
X218120Y451333D01*
X217933Y451208D01*
X217267D01*
G01X217933D02*
X218333Y450000D01*
G01X220000D02*
Y452500D01*
X219680Y452000D01*
G01Y450000D02*
X220320D01*
G01X222200D02*
X222387Y450042D01*
X222600Y450167D01*
X222733Y450375D01*
X222787Y450667D01*
X222733Y450958D01*
X222573Y451208D01*
X222333Y451333D01*
X222067D01*
X221907Y451417D01*
X221773Y451625D01*
X221720Y451917D01*
X221800Y452208D01*
X221987Y452417D01*
X222200Y452500D01*
X222413Y452417D01*
X222600Y452208D01*
X222680Y451917D01*
X222627Y451625D01*
X222493Y451417D01*
X222333Y451333D01*
X222067D01*
X221827Y451208D01*
X221667Y450958D01*
X221613Y450667D01*
X221667Y450375D01*
X221800Y450167D01*
X222013Y450042D01*
X222200Y450000D01*
G01X236500Y158733D02*
X239000D01*
Y158067D01*
X238875Y157853D01*
X238708Y157720D01*
X238375Y157667D01*
X238042Y157720D01*
X237833Y157880D01*
X237708Y158067D01*
Y158733D01*
G01Y158067D02*
X236500Y157667D01*
G01Y156000D02*
X239000D01*
X238500Y156320D01*
G01X236500D02*
Y155680D01*
G01X237542Y154307D02*
X237833Y154120D01*
X238000Y153960D01*
X238083Y153747D01*
X238000Y153560D01*
X237833Y153427D01*
X237583Y153320D01*
X237292Y153293D01*
X237042Y153320D01*
X236792Y153427D01*
X236583Y153587D01*
X236500Y153773D01*
X236583Y153987D01*
X236833Y154173D01*
X237208Y154280D01*
X237625Y154307D01*
X238167Y154253D01*
X238458Y154173D01*
X238750Y154040D01*
X238958Y153853D01*
X239000Y153667D01*
X238917Y153480D01*
X238708Y153347D01*
G01X248790Y507492D02*
Y504992D01*
X249856D01*
G01X252056D02*
X250990D01*
Y507492D01*
X252056D01*
G01X251630Y506284D02*
X250990D01*
G01X253136Y504992D02*
Y507492D01*
X253670D01*
X253883Y507367D01*
X254043Y507200D01*
X254176Y506950D01*
X254283Y506659D01*
X254309Y506242D01*
X254283Y505825D01*
X254176Y505534D01*
X254043Y505284D01*
X253883Y505117D01*
X253670Y504992D01*
X253136D01*
G01X255923D02*
Y507492D01*
X255603Y506992D01*
G01Y504992D02*
X256243D01*
G01X258123D02*
Y507492D01*
X257803Y506992D01*
G01Y504992D02*
X258443D01*
G01X275400Y203350D02*
Y206450D01*
X275860Y205830D01*
G01Y203350D02*
X274940D01*
G01X262861Y340089D02*
X263144Y340080D01*
X263368Y340136D01*
X263533Y340257D01*
X263567Y340484D01*
X263502Y340705D01*
X263364Y340968D01*
X263102Y341180D01*
X261655Y342009D01*
G01X264653Y342212D02*
X262484Y343455D01*
X262758Y342929D01*
G01X264494Y341935D02*
X264812Y342490D01*
G01X263687Y344717D02*
X263549Y344980D01*
X263534Y345204D01*
X263604Y345410D01*
X263808Y345600D01*
X264082Y345659D01*
X264325Y345581D01*
X264529Y345433D01*
X264657Y345237D01*
X264753Y344567D01*
X264887Y344214D01*
X265169Y343868D01*
X265468Y343636D01*
X266025Y344608D01*
G01X260360Y362101D02*
X260158Y362076D01*
X259968Y362003D01*
X259817Y361852D01*
X259736Y361594D01*
X259751Y361315D01*
X259833Y361044D01*
X260053Y360674D01*
X260299Y360390D01*
X260602Y360162D01*
X260835Y360042D01*
X261125Y359978D01*
X261375Y359993D01*
X261566Y360066D01*
X261698Y360198D01*
X261771Y360389D01*
X261795Y360590D01*
X261772Y360802D01*
G01X263121Y361621D02*
X261353Y363389D01*
X261481Y362809D01*
G01X262895Y361395D02*
X263348Y361848D01*
G01X262846Y364292D02*
X262782Y364582D01*
X262825Y364802D01*
X262947Y364982D01*
X263194Y365112D01*
X263474Y365097D01*
X263688Y364958D01*
X263846Y364762D01*
X263918Y364539D01*
X263835Y363868D01*
X263872Y363492D01*
X264054Y363084D01*
X264281Y362781D01*
X265073Y363573D01*
G01X264401Y365847D02*
X264338Y366137D01*
X264381Y366358D01*
X264502Y366538D01*
X264750Y366668D01*
X265029Y366652D01*
X265244Y366513D01*
X265402Y366318D01*
X265474Y366095D01*
X265391Y365423D01*
X265428Y365047D01*
X265609Y364639D01*
X265836Y364336D01*
X266628Y365128D01*
G01X290213Y381000D02*
Y379208D01*
X290320Y378833D01*
X290533Y378583D01*
X290800Y378500D01*
X291067Y378583D01*
X291280Y378833D01*
X291387Y379208D01*
Y381000D01*
G01X293000Y378500D02*
Y381000D01*
X292680Y380500D01*
G01Y378500D02*
X293320D01*
G01X294693Y379542D02*
X294880Y379833D01*
X295040Y380000D01*
X295253Y380083D01*
X295440Y380000D01*
X295573Y379833D01*
X295680Y379583D01*
X295707Y379292D01*
X295680Y379042D01*
X295573Y378792D01*
X295413Y378583D01*
X295227Y378500D01*
X295013Y378583D01*
X294827Y378833D01*
X294720Y379208D01*
X294693Y379625D01*
X294747Y380167D01*
X294827Y380458D01*
X294960Y380750D01*
X295147Y380958D01*
X295333Y381000D01*
X295520Y380917D01*
X295653Y380708D01*
G01X279900Y507492D02*
Y504992D01*
X280966D01*
G01X283166D02*
X282100D01*
Y507492D01*
X283166D01*
G01X282740Y506284D02*
X282100D01*
G01X284246Y504992D02*
Y507492D01*
X284780D01*
X284993Y507367D01*
X285153Y507200D01*
X285286Y506950D01*
X285393Y506659D01*
X285420Y506242D01*
X285393Y505825D01*
X285286Y505534D01*
X285153Y505284D01*
X284993Y505117D01*
X284780Y504992D01*
X284246D01*
G01X287033D02*
Y507492D01*
X286713Y506992D01*
G01Y504992D02*
X287353D01*
G01X288726Y507075D02*
X288886Y507325D01*
X289073Y507450D01*
X289286Y507492D01*
X289553Y507409D01*
X289740Y507200D01*
X289793Y506950D01*
X289766Y506700D01*
X289659Y506492D01*
X289126Y506075D01*
X288886Y505784D01*
X288726Y505367D01*
X288673Y504992D01*
X289793D01*
G01X312050Y507492D02*
Y504992D01*
X313117D01*
G01X315317D02*
X314250D01*
Y507492D01*
X315317D01*
G01X314890Y506284D02*
X314250D01*
G01X316397Y504992D02*
Y507492D01*
X316930D01*
X317143Y507367D01*
X317303Y507200D01*
X317437Y506950D01*
X317543Y506659D01*
X317570Y506242D01*
X317543Y505825D01*
X317437Y505534D01*
X317303Y505284D01*
X317143Y505117D01*
X316930Y504992D01*
X316397D01*
G01X319183D02*
Y507492D01*
X318863Y506992D01*
G01Y504992D02*
X319503D01*
G01X320797Y505492D02*
X320957Y505200D01*
X321170Y505034D01*
X321410Y504992D01*
X321623Y505034D01*
X321837Y505242D01*
X321970Y505492D01*
X321997Y505742D01*
X321943Y506034D01*
X321757Y506242D01*
X321570Y506325D01*
X321330D01*
G01X321570D02*
X321730Y506450D01*
X321863Y506659D01*
X321917Y506909D01*
X321863Y507159D01*
X321730Y507367D01*
X321490Y507492D01*
X321250Y507450D01*
X321010Y507284D01*
G01X337107Y32050D02*
Y37050D01*
X338373D01*
X338880Y36800D01*
X339260Y36467D01*
X339577Y35967D01*
X339830Y35383D01*
X339893Y34550D01*
X339830Y33717D01*
X339577Y33133D01*
X339260Y32633D01*
X338880Y32300D01*
X338373Y32050D01*
X337107D01*
G01X342650Y34300D02*
X344677D01*
X344487Y34883D01*
X344170Y35217D01*
X343727Y35383D01*
X343283Y35300D01*
X342903Y35050D01*
X342650Y34467D01*
X342523Y33967D01*
Y33467D01*
X342650Y32967D01*
X342967Y32467D01*
X343347Y32133D01*
X343790Y32050D01*
X344233Y32217D01*
X344677Y32717D01*
G01X347750Y32633D02*
X348067Y32300D01*
X348510Y32050D01*
X348890D01*
X349270Y32217D01*
X349523Y32467D01*
X349650Y32800D01*
X349587Y33300D01*
X349333Y33550D01*
X348193Y34050D01*
X347940Y34633D01*
X348067Y35050D01*
X348320Y35300D01*
X348700Y35383D01*
X349080Y35300D01*
X349460Y35050D01*
G01X353800Y35383D02*
Y32050D01*
G01Y36717D02*
X353673Y36800D01*
Y36967D01*
X353800Y37050D01*
X353927Y36967D01*
Y36800D01*
X353800Y36717D01*
G01X358013Y30800D02*
X358457Y30467D01*
X358963Y30383D01*
X359407Y30467D01*
X359787Y30883D01*
X360040Y31467D01*
Y35383D01*
G01Y34717D02*
X359787Y35050D01*
X359407Y35300D01*
X358963Y35383D01*
X358457Y35217D01*
X358140Y34883D01*
X357887Y34300D01*
X357760Y33717D01*
X357823Y33217D01*
X358077Y32633D01*
X358457Y32217D01*
X358963Y32050D01*
X359343Y32133D01*
X359787Y32467D01*
X360040Y32800D01*
G01X362923Y32050D02*
Y35383D01*
G01Y34550D02*
X363177Y34967D01*
X363557Y35300D01*
X364063Y35383D01*
X364507Y35300D01*
X364887Y34967D01*
X365077Y34383D01*
Y32050D01*
G01X374200Y35383D02*
Y32050D01*
G01Y36717D02*
X374073Y36800D01*
Y36967D01*
X374200Y37050D01*
X374327Y36967D01*
Y36800D01*
X374200Y36717D01*
G01X378223Y32050D02*
Y35383D01*
G01Y34550D02*
X378477Y34967D01*
X378857Y35300D01*
X379363Y35383D01*
X379807Y35300D01*
X380187Y34967D01*
X380377Y34383D01*
Y32050D01*
G01X388297Y37050D02*
X390703D01*
X388297Y32050D01*
X390703D01*
G01X393523D02*
Y37050D01*
G01Y34633D02*
X393840Y35050D01*
X394157Y35300D01*
X394663Y35383D01*
X395043Y35300D01*
X395487Y34967D01*
X395677Y34467D01*
Y32050D01*
G01X398750Y34300D02*
X400777D01*
X400587Y34883D01*
X400270Y35217D01*
X399827Y35383D01*
X399383Y35300D01*
X399003Y35050D01*
X398750Y34467D01*
X398623Y33967D01*
Y33467D01*
X398750Y32967D01*
X399067Y32467D01*
X399447Y32133D01*
X399890Y32050D01*
X400333Y32217D01*
X400777Y32717D01*
G01X403723Y32050D02*
Y35383D01*
G01Y34550D02*
X403977Y34967D01*
X404357Y35300D01*
X404863Y35383D01*
X405307Y35300D01*
X405687Y34967D01*
X405877Y34383D01*
Y32050D01*
G01X409013Y30800D02*
X409457Y30467D01*
X409963Y30383D01*
X410407Y30467D01*
X410787Y30883D01*
X411040Y31467D01*
Y35383D01*
G01Y34717D02*
X410787Y35050D01*
X410407Y35300D01*
X409963Y35383D01*
X409457Y35217D01*
X409140Y34883D01*
X408887Y34300D01*
X408760Y33717D01*
X408823Y33217D01*
X409077Y32633D01*
X409457Y32217D01*
X409963Y32050D01*
X410343Y32133D01*
X410787Y32467D01*
X411040Y32800D01*
G01X413797Y37050D02*
X416203D01*
X413797Y32050D01*
X416203D01*
G01X419023D02*
Y37050D01*
G01Y34633D02*
X419340Y35050D01*
X419657Y35300D01*
X420163Y35383D01*
X420543Y35300D01*
X420987Y34967D01*
X421177Y34467D01*
Y32050D01*
G01X425200D02*
X424820Y32133D01*
X424440Y32467D01*
X424187Y33050D01*
X424060Y33717D01*
X424187Y34383D01*
X424440Y34967D01*
X424820Y35300D01*
X425200Y35383D01*
X425580Y35300D01*
X425960Y34967D01*
X426213Y34383D01*
X426277Y33717D01*
X426213Y33050D01*
X425960Y32467D01*
X425580Y32133D01*
X425200Y32050D01*
G01X429223Y35383D02*
Y33050D01*
X429477Y32467D01*
X429857Y32133D01*
X430300Y32050D01*
X430743Y32133D01*
X431123Y32467D01*
X431377Y33050D01*
G01Y32050D02*
Y35383D01*
G01X346034Y507492D02*
Y504992D01*
X347100D01*
G01X349300D02*
X348234D01*
Y507492D01*
X349300D01*
G01X348874Y506284D02*
X348234D01*
G01X350380Y504992D02*
Y507492D01*
X350914D01*
X351127Y507367D01*
X351287Y507200D01*
X351420Y506950D01*
X351527Y506659D01*
X351554Y506242D01*
X351527Y505825D01*
X351420Y505534D01*
X351287Y505284D01*
X351127Y505117D01*
X350914Y504992D01*
X350380D01*
G01X353167D02*
Y507492D01*
X352847Y506992D01*
G01Y504992D02*
X353487D01*
G01X355687D02*
Y507492D01*
X354700Y505700D01*
X356034D01*
G01X380010Y507492D02*
Y504992D01*
X381076D01*
G01X383276D02*
X382210D01*
Y507492D01*
X383276D01*
G01X382850Y506284D02*
X382210D01*
G01X384356Y504992D02*
Y507492D01*
X384890D01*
X385103Y507367D01*
X385263Y507200D01*
X385396Y506950D01*
X385503Y506659D01*
X385530Y506242D01*
X385503Y505825D01*
X385396Y505534D01*
X385263Y505284D01*
X385103Y505117D01*
X384890Y504992D01*
X384356D01*
G01X387143D02*
Y507492D01*
X386823Y506992D01*
G01Y504992D02*
X387463D01*
G01X388756Y505367D02*
X388916Y505159D01*
X389103Y505034D01*
X389343Y504992D01*
X389583Y505075D01*
X389770Y505242D01*
X389903Y505534D01*
X389930Y505867D01*
X389876Y506200D01*
X389743Y506409D01*
X389556Y506575D01*
X389370Y506617D01*
X389183Y506575D01*
X388943Y506409D01*
X389023Y507492D01*
X389743D01*
G01X402607Y19953D02*
X402760Y20108D01*
X402875Y20367D01*
X402952Y20728D01*
X402875Y21038D01*
X402722Y21245D01*
X402453Y21400D01*
X401418D01*
Y18300D01*
X402683D01*
X402952Y18507D01*
X403105Y18817D01*
X403182Y19178D01*
X403105Y19540D01*
X402875Y19850D01*
X402607Y19953D01*
X401418D01*
G01X404595Y17370D02*
X404825Y17267D01*
X405132Y17370D01*
X405323Y17577D01*
X405477Y17835D01*
X405707Y18662D01*
X406205Y20367D01*
G01X404978D02*
X405707Y18662D01*
G01X412443Y21142D02*
X412213Y21297D01*
X411945Y21400D01*
X411638D01*
X411293Y21245D01*
X411025Y20987D01*
X410833Y20677D01*
X410680Y20160D01*
X410642Y19695D01*
X410718Y19230D01*
X410833Y18920D01*
X411063Y18610D01*
X411332Y18403D01*
X411600Y18300D01*
X411868D01*
X412137Y18403D01*
X412367Y18558D01*
X412558Y18765D01*
G01X414700Y18300D02*
Y21400D01*
G01X418490Y18300D02*
Y20367D01*
G01Y20005D02*
X418337Y20212D01*
X418107Y20315D01*
X417838Y20367D01*
X417570Y20263D01*
X417340Y20057D01*
X417187Y19747D01*
X417110Y19333D01*
X417187Y18920D01*
X417340Y18610D01*
X417570Y18403D01*
X417838Y18300D01*
X418107Y18352D01*
X418337Y18507D01*
X418490Y18713D01*
G01X420095Y17370D02*
X420325Y17267D01*
X420632Y17370D01*
X420823Y17577D01*
X420977Y17835D01*
X421207Y18662D01*
X421705Y20367D01*
G01X420478D02*
X421207Y18662D01*
G01X424000Y21400D02*
Y18300D01*
G01X423463Y20367D02*
X424537D01*
G01X427100Y18300D02*
X426870Y18352D01*
X426640Y18558D01*
X426487Y18920D01*
X426410Y19333D01*
X426487Y19747D01*
X426640Y20108D01*
X426870Y20315D01*
X427100Y20367D01*
X427330Y20315D01*
X427560Y20108D01*
X427713Y19747D01*
X427752Y19333D01*
X427713Y18920D01*
X427560Y18558D01*
X427330Y18352D01*
X427100Y18300D01*
G01X429548D02*
Y20367D01*
G01Y19850D02*
X429702Y20108D01*
X429932Y20315D01*
X430238Y20367D01*
X430507Y20315D01*
X430737Y20108D01*
X430852Y19747D01*
Y18300D01*
G01X435633Y21400D02*
Y18300D01*
X437167D01*
G01X438925Y19695D02*
X440152D01*
X440037Y20057D01*
X439845Y20263D01*
X439577Y20367D01*
X439308Y20315D01*
X439078Y20160D01*
X438925Y19798D01*
X438848Y19488D01*
Y19178D01*
X438925Y18868D01*
X439117Y18558D01*
X439347Y18352D01*
X439615Y18300D01*
X439883Y18403D01*
X440152Y18713D01*
G01X442025Y19695D02*
X443252D01*
X443137Y20057D01*
X442945Y20263D01*
X442677Y20367D01*
X442408Y20315D01*
X442178Y20160D01*
X442025Y19798D01*
X441948Y19488D01*
Y19178D01*
X442025Y18868D01*
X442217Y18558D01*
X442447Y18352D01*
X442715Y18300D01*
X442983Y18403D01*
X443252Y18713D01*
G01X426767Y268550D02*
Y271050D01*
X427433D01*
X427647Y270925D01*
X427780Y270758D01*
X427833Y270425D01*
X427780Y270092D01*
X427620Y269883D01*
X427433Y269758D01*
X426767D01*
G01X427433D02*
X427833Y268550D01*
G01X429500D02*
Y271050D01*
X429180Y270550D01*
G01Y268550D02*
X429820D01*
G01X431193Y270633D02*
X431353Y270883D01*
X431540Y271008D01*
X431753Y271050D01*
X432020Y270967D01*
X432207Y270758D01*
X432260Y270508D01*
X432233Y270258D01*
X432127Y270050D01*
X431593Y269633D01*
X431353Y269342D01*
X431193Y268925D01*
X431140Y268550D01*
X432260D01*
G01X433313Y268925D02*
X433473Y268717D01*
X433660Y268592D01*
X433900Y268550D01*
X434140Y268633D01*
X434327Y268800D01*
X434460Y269092D01*
X434487Y269425D01*
X434433Y269758D01*
X434300Y269967D01*
X434113Y270133D01*
X433927Y270175D01*
X433740Y270133D01*
X433500Y269967D01*
X433580Y271050D01*
X434300D01*
G01X426417Y278450D02*
Y280950D01*
X427083D01*
X427297Y280825D01*
X427430Y280658D01*
X427483Y280325D01*
X427430Y279992D01*
X427270Y279783D01*
X427083Y279658D01*
X426417D01*
G01X427083D02*
X427483Y278450D01*
G01X429150D02*
Y280950D01*
X428830Y280450D01*
G01Y278450D02*
X429470D01*
G01X430843Y280533D02*
X431003Y280783D01*
X431190Y280908D01*
X431403Y280950D01*
X431670Y280867D01*
X431857Y280658D01*
X431910Y280408D01*
X431883Y280158D01*
X431777Y279950D01*
X431243Y279533D01*
X431003Y279242D01*
X430843Y278825D01*
X430790Y278450D01*
X431910D01*
G01X433043Y279492D02*
X433230Y279783D01*
X433390Y279950D01*
X433603Y280033D01*
X433790Y279950D01*
X433923Y279783D01*
X434030Y279533D01*
X434057Y279242D01*
X434030Y278992D01*
X433923Y278742D01*
X433763Y278533D01*
X433577Y278450D01*
X433363Y278533D01*
X433177Y278783D01*
X433070Y279158D01*
X433043Y279575D01*
X433097Y280117D01*
X433177Y280408D01*
X433310Y280700D01*
X433497Y280908D01*
X433683Y280950D01*
X433870Y280867D01*
X434003Y280658D01*
G01X426171Y273324D02*
Y275824D01*
X426838D01*
X427051Y275699D01*
X427184Y275532D01*
X427238Y275199D01*
X427184Y274865D01*
X427024Y274657D01*
X426838Y274532D01*
X426171D01*
G01X426838D02*
X427238Y273324D01*
G01X428904D02*
Y275824D01*
X428584Y275324D01*
G01Y273324D02*
X429224D01*
G01X430598Y275407D02*
X430758Y275657D01*
X430944Y275782D01*
X431158Y275824D01*
X431424Y275740D01*
X431611Y275532D01*
X431664Y275282D01*
X431638Y275032D01*
X431531Y274824D01*
X430998Y274407D01*
X430758Y274115D01*
X430598Y273699D01*
X430544Y273324D01*
X431664D01*
G01X433251D02*
X433304Y273865D01*
X433384Y274324D01*
X433491Y274740D01*
X433624Y275199D01*
X433838Y275824D01*
X432771D01*
G01X428837Y292392D02*
X428677Y292517D01*
X428490Y292600D01*
X428277D01*
X428037Y292475D01*
X427850Y292267D01*
X427717Y292017D01*
X427610Y291600D01*
X427583Y291225D01*
X427637Y290850D01*
X427717Y290600D01*
X427877Y290350D01*
X428063Y290183D01*
X428250Y290100D01*
X428437D01*
X428623Y290183D01*
X428783Y290308D01*
X428917Y290475D01*
G01X430770Y290100D02*
Y292600D01*
X429783Y290808D01*
X431117D01*
G01X432597Y290100D02*
X432650Y290642D01*
X432730Y291100D01*
X432837Y291517D01*
X432970Y291975D01*
X433183Y292600D01*
X432117D01*
G01X429237Y297192D02*
X429077Y297317D01*
X428890Y297400D01*
X428677D01*
X428437Y297275D01*
X428250Y297067D01*
X428117Y296817D01*
X428010Y296400D01*
X427983Y296025D01*
X428037Y295650D01*
X428117Y295400D01*
X428277Y295150D01*
X428463Y294983D01*
X428650Y294900D01*
X428837D01*
X429023Y294983D01*
X429183Y295108D01*
X429317Y295275D01*
G01X431170Y294900D02*
Y297400D01*
X430183Y295608D01*
X431517D01*
G01X433050Y294900D02*
X433237Y294942D01*
X433450Y295067D01*
X433583Y295275D01*
X433637Y295567D01*
X433583Y295858D01*
X433423Y296108D01*
X433183Y296233D01*
X432917D01*
X432757Y296317D01*
X432623Y296525D01*
X432570Y296817D01*
X432650Y297108D01*
X432837Y297317D01*
X433050Y297400D01*
X433263Y297317D01*
X433450Y297108D01*
X433530Y296817D01*
X433477Y296525D01*
X433343Y296317D01*
X433183Y296233D01*
X432917D01*
X432677Y296108D01*
X432517Y295858D01*
X432463Y295567D01*
X432517Y295275D01*
X432650Y295067D01*
X432863Y294942D01*
X433050Y294900D01*
G01X426617Y283650D02*
Y286150D01*
X427283D01*
X427497Y286025D01*
X427630Y285858D01*
X427683Y285525D01*
X427630Y285192D01*
X427470Y284983D01*
X427283Y284858D01*
X426617D01*
G01X427283D02*
X427683Y283650D01*
G01X429350D02*
Y286150D01*
X429030Y285650D01*
G01Y283650D02*
X429670D01*
G01X431043Y285733D02*
X431203Y285983D01*
X431390Y286108D01*
X431603Y286150D01*
X431870Y286067D01*
X432057Y285858D01*
X432110Y285608D01*
X432083Y285358D01*
X431977Y285150D01*
X431443Y284733D01*
X431203Y284442D01*
X431043Y284025D01*
X430990Y283650D01*
X432110D01*
G01X433750D02*
X433937Y283692D01*
X434150Y283817D01*
X434283Y284025D01*
X434337Y284317D01*
X434283Y284608D01*
X434123Y284858D01*
X433883Y284983D01*
X433617D01*
X433457Y285067D01*
X433323Y285275D01*
X433270Y285567D01*
X433350Y285858D01*
X433537Y286067D01*
X433750Y286150D01*
X433963Y286067D01*
X434150Y285858D01*
X434230Y285567D01*
X434177Y285275D01*
X434043Y285067D01*
X433883Y284983D01*
X433617D01*
X433377Y284858D01*
X433217Y284608D01*
X433163Y284317D01*
X433217Y284025D01*
X433350Y283817D01*
X433563Y283692D01*
X433750Y283650D01*
G01X426267Y300850D02*
Y303350D01*
X426933D01*
X427147Y303225D01*
X427280Y303058D01*
X427333Y302725D01*
X427280Y302392D01*
X427120Y302183D01*
X426933Y302058D01*
X426267D01*
G01X426933D02*
X427333Y300850D01*
G01X429000D02*
Y303350D01*
X428680Y302850D01*
G01Y300850D02*
X429320D01*
G01X430613Y301350D02*
X430773Y301058D01*
X430987Y300892D01*
X431227Y300850D01*
X431440Y300892D01*
X431653Y301100D01*
X431787Y301350D01*
X431813Y301600D01*
X431760Y301892D01*
X431573Y302100D01*
X431387Y302183D01*
X431147D01*
G01X431387D02*
X431547Y302308D01*
X431680Y302517D01*
X431733Y302767D01*
X431680Y303017D01*
X431547Y303225D01*
X431307Y303350D01*
X431067Y303308D01*
X430827Y303142D01*
G01X433400Y303350D02*
X433187Y303267D01*
X433027Y303058D01*
X432920Y302808D01*
X432840Y302475D01*
X432813Y302100D01*
X432840Y301725D01*
X432920Y301392D01*
X433027Y301142D01*
X433187Y300933D01*
X433400Y300850D01*
X433613Y300933D01*
X433773Y301142D01*
X433880Y301392D01*
X433960Y301725D01*
X433987Y302100D01*
X433960Y302475D01*
X433880Y302808D01*
X433773Y303058D01*
X433613Y303267D01*
X433400Y303350D01*
G01X428063Y326900D02*
Y329400D01*
X428597D01*
X428810Y329275D01*
X428970Y329108D01*
X429103Y328858D01*
X429210Y328567D01*
X429237Y328150D01*
X429210Y327733D01*
X429103Y327442D01*
X428970Y327192D01*
X428810Y327025D01*
X428597Y326900D01*
X428063D01*
G01X430343Y327942D02*
X430530Y328233D01*
X430690Y328400D01*
X430903Y328483D01*
X431090Y328400D01*
X431223Y328233D01*
X431330Y327983D01*
X431357Y327692D01*
X431330Y327442D01*
X431223Y327192D01*
X431063Y326983D01*
X430877Y326900D01*
X430663Y326983D01*
X430477Y327233D01*
X430370Y327608D01*
X430343Y328025D01*
X430397Y328567D01*
X430477Y328858D01*
X430610Y329150D01*
X430797Y329358D01*
X430983Y329400D01*
X431170Y329317D01*
X431303Y329108D01*
G01X427887Y313392D02*
X427727Y313517D01*
X427540Y313600D01*
X427327D01*
X427087Y313475D01*
X426900Y313267D01*
X426767Y313017D01*
X426660Y312600D01*
X426633Y312225D01*
X426687Y311850D01*
X426767Y311600D01*
X426927Y311350D01*
X427113Y311183D01*
X427300Y311100D01*
X427487D01*
X427673Y311183D01*
X427833Y311308D01*
X427967Y311475D01*
G01X429820Y311100D02*
Y313600D01*
X428833Y311808D01*
X430167D01*
G01X431113Y311475D02*
X431273Y311267D01*
X431460Y311142D01*
X431700Y311100D01*
X431940Y311183D01*
X432127Y311350D01*
X432260Y311642D01*
X432287Y311975D01*
X432233Y312308D01*
X432100Y312517D01*
X431913Y312683D01*
X431727Y312725D01*
X431540Y312683D01*
X431300Y312517D01*
X431380Y313600D01*
X432100D01*
G01X428137Y323292D02*
X427977Y323417D01*
X427790Y323500D01*
X427577D01*
X427337Y323375D01*
X427150Y323167D01*
X427017Y322917D01*
X426910Y322500D01*
X426883Y322125D01*
X426937Y321750D01*
X427017Y321500D01*
X427177Y321250D01*
X427363Y321083D01*
X427550Y321000D01*
X427737D01*
X427923Y321083D01*
X428083Y321208D01*
X428217Y321375D01*
G01X430070Y321000D02*
Y323500D01*
X429083Y321708D01*
X430417D01*
G01X431443Y322042D02*
X431630Y322333D01*
X431790Y322500D01*
X432003Y322583D01*
X432190Y322500D01*
X432323Y322333D01*
X432430Y322083D01*
X432457Y321792D01*
X432430Y321542D01*
X432323Y321292D01*
X432163Y321083D01*
X431977Y321000D01*
X431763Y321083D01*
X431577Y321333D01*
X431470Y321708D01*
X431443Y322125D01*
X431497Y322667D01*
X431577Y322958D01*
X431710Y323250D01*
X431897Y323458D01*
X432083Y323500D01*
X432270Y323417D01*
X432403Y323208D01*
G01X425817Y315500D02*
Y318000D01*
X426483D01*
X426697Y317875D01*
X426830Y317708D01*
X426883Y317375D01*
X426830Y317042D01*
X426670Y316833D01*
X426483Y316708D01*
X425817D01*
G01X426483D02*
X426883Y315500D01*
G01X428550D02*
Y318000D01*
X428230Y317500D01*
G01Y315500D02*
X428870D01*
G01X430243Y317583D02*
X430403Y317833D01*
X430590Y317958D01*
X430803Y318000D01*
X431070Y317917D01*
X431257Y317708D01*
X431310Y317458D01*
X431283Y317208D01*
X431177Y317000D01*
X430643Y316583D01*
X430403Y316292D01*
X430243Y315875D01*
X430190Y315500D01*
X431310D01*
G01X432497Y315792D02*
X432683Y315583D01*
X432897Y315500D01*
X433110Y315583D01*
X433297Y315833D01*
X433430Y316208D01*
X433483Y316583D01*
Y317042D01*
X433430Y317417D01*
X433297Y317750D01*
X433137Y317917D01*
X432950Y318000D01*
X432737Y317917D01*
X432577Y317750D01*
X432470Y317500D01*
X432417Y317167D01*
X432470Y316875D01*
X432603Y316583D01*
X432763Y316417D01*
X432950Y316375D01*
X433163Y316458D01*
X433323Y316667D01*
X433483Y317042D01*
G01X426267Y306350D02*
Y308850D01*
X426933D01*
X427147Y308725D01*
X427280Y308558D01*
X427333Y308225D01*
X427280Y307892D01*
X427120Y307683D01*
X426933Y307558D01*
X426267D01*
G01X426933D02*
X427333Y306350D01*
G01X429000D02*
Y308850D01*
X428680Y308350D01*
G01Y306350D02*
X429320D01*
G01X430613Y306850D02*
X430773Y306558D01*
X430987Y306392D01*
X431227Y306350D01*
X431440Y306392D01*
X431653Y306600D01*
X431787Y306850D01*
X431813Y307100D01*
X431760Y307392D01*
X431573Y307600D01*
X431387Y307683D01*
X431147D01*
G01X431387D02*
X431547Y307808D01*
X431680Y308017D01*
X431733Y308267D01*
X431680Y308517D01*
X431547Y308725D01*
X431307Y308850D01*
X431067Y308808D01*
X430827Y308642D01*
G01X433400Y306350D02*
Y308850D01*
X433080Y308350D01*
G01Y306350D02*
X433720D01*
G01X412156Y507492D02*
Y504992D01*
X413222D01*
G01X415422D02*
X414356D01*
Y507492D01*
X415422D01*
G01X414996Y506284D02*
X414356D01*
G01X416502Y504992D02*
Y507492D01*
X417036D01*
X417249Y507367D01*
X417409Y507200D01*
X417542Y506950D01*
X417649Y506659D01*
X417676Y506242D01*
X417649Y505825D01*
X417542Y505534D01*
X417409Y505284D01*
X417249Y505117D01*
X417036Y504992D01*
X416502D01*
G01X419289D02*
Y507492D01*
X418969Y506992D01*
G01Y504992D02*
X419609D01*
G01X420982Y506034D02*
X421169Y506325D01*
X421329Y506492D01*
X421542Y506575D01*
X421729Y506492D01*
X421862Y506325D01*
X421969Y506075D01*
X421996Y505784D01*
X421969Y505534D01*
X421862Y505284D01*
X421702Y505075D01*
X421516Y504992D01*
X421302Y505075D01*
X421116Y505325D01*
X421009Y505700D01*
X420982Y506117D01*
X421036Y506659D01*
X421116Y506950D01*
X421249Y507242D01*
X421436Y507450D01*
X421622Y507492D01*
X421809Y507409D01*
X421942Y507200D01*
G01X443238Y507492D02*
Y504992D01*
X444305D01*
G01X446505D02*
X445438D01*
Y507492D01*
X446505D01*
G01X446078Y506284D02*
X445438D01*
G01X447585Y504992D02*
Y507492D01*
X448118D01*
X448332Y507367D01*
X448492Y507200D01*
X448625Y506950D01*
X448732Y506659D01*
X448758Y506242D01*
X448732Y505825D01*
X448625Y505534D01*
X448492Y505284D01*
X448332Y505117D01*
X448118Y504992D01*
X447585D01*
G01X450372D02*
Y507492D01*
X450052Y506992D01*
G01Y504992D02*
X450692D01*
G01X452518D02*
X452572Y505534D01*
X452652Y505992D01*
X452758Y506409D01*
X452892Y506867D01*
X453105Y507492D01*
X452038D01*
G01X461708Y255887D02*
X461583Y255727D01*
X461500Y255540D01*
Y255327D01*
X461625Y255087D01*
X461833Y254900D01*
X462083Y254767D01*
X462500Y254660D01*
X462875Y254633D01*
X463250Y254687D01*
X463500Y254767D01*
X463750Y254927D01*
X463917Y255113D01*
X464000Y255300D01*
Y255487D01*
X463917Y255673D01*
X463792Y255833D01*
X463625Y255967D01*
G01X463500Y256913D02*
X463792Y257073D01*
X463958Y257287D01*
X464000Y257527D01*
X463958Y257740D01*
X463750Y257953D01*
X463500Y258087D01*
X463250Y258113D01*
X462958Y258060D01*
X462750Y257873D01*
X462667Y257687D01*
Y257447D01*
G01Y257687D02*
X462542Y257847D01*
X462333Y257980D01*
X462083Y258033D01*
X461833Y257980D01*
X461625Y257847D01*
X461500Y257607D01*
X461542Y257367D01*
X461708Y257127D01*
G01X464000Y259700D02*
X463958Y259887D01*
X463833Y260100D01*
X463625Y260233D01*
X463333Y260287D01*
X463042Y260233D01*
X462792Y260073D01*
X462667Y259833D01*
Y259567D01*
X462583Y259407D01*
X462375Y259273D01*
X462083Y259220D01*
X461792Y259300D01*
X461583Y259487D01*
X461500Y259700D01*
X461583Y259913D01*
X461792Y260100D01*
X462083Y260180D01*
X462375Y260127D01*
X462583Y259993D01*
X462667Y259833D01*
Y259567D01*
X462792Y259327D01*
X463042Y259167D01*
X463333Y259113D01*
X463625Y259167D01*
X463833Y259300D01*
X463958Y259513D01*
X464000Y259700D01*
G01X472708Y256887D02*
X472583Y256727D01*
X472500Y256540D01*
Y256327D01*
X472625Y256087D01*
X472833Y255900D01*
X473083Y255767D01*
X473500Y255660D01*
X473875Y255633D01*
X474250Y255687D01*
X474500Y255767D01*
X474750Y255927D01*
X474917Y256113D01*
X475000Y256300D01*
Y256487D01*
X474917Y256673D01*
X474792Y256833D01*
X474625Y256967D01*
G01X475000Y258820D02*
X472500D01*
X474292Y257833D01*
Y259167D01*
G01X475000Y261020D02*
X472500D01*
X474292Y260033D01*
Y261367D01*
G01X469500Y254767D02*
X467000D01*
Y255433D01*
X467125Y255647D01*
X467292Y255780D01*
X467625Y255833D01*
X467958Y255780D01*
X468167Y255620D01*
X468292Y255433D01*
Y254767D01*
G01Y255433D02*
X469500Y255833D01*
G01Y257500D02*
X467000D01*
X467500Y257180D01*
G01X469500D02*
Y257820D01*
G01X467417Y259193D02*
X467167Y259353D01*
X467042Y259540D01*
X467000Y259753D01*
X467083Y260020D01*
X467292Y260207D01*
X467542Y260260D01*
X467792Y260233D01*
X468000Y260127D01*
X468417Y259593D01*
X468708Y259353D01*
X469125Y259193D01*
X469500Y259140D01*
Y260260D01*
G01X469000Y261313D02*
X469292Y261473D01*
X469458Y261687D01*
X469500Y261927D01*
X469458Y262140D01*
X469250Y262353D01*
X469000Y262487D01*
X468750Y262513D01*
X468458Y262460D01*
X468250Y262273D01*
X468167Y262087D01*
Y261847D01*
G01Y262087D02*
X468042Y262247D01*
X467833Y262380D01*
X467583Y262433D01*
X467333Y262380D01*
X467125Y262247D01*
X467000Y262007D01*
X467042Y261767D01*
X467208Y261527D01*
G01X464637Y277509D02*
X472337D01*
G01X475300Y301283D02*
X477800D01*
Y300617D01*
X477675Y300403D01*
X477508Y300270D01*
X477175Y300217D01*
X476842Y300270D01*
X476633Y300430D01*
X476508Y300617D01*
Y301283D01*
G01Y300617D02*
X475300Y300217D01*
G01Y298550D02*
X477800D01*
X477300Y298870D01*
G01X475300D02*
Y298230D01*
G01X477383Y296857D02*
X477633Y296697D01*
X477758Y296510D01*
X477800Y296297D01*
X477717Y296030D01*
X477508Y295843D01*
X477258Y295790D01*
X477008Y295817D01*
X476800Y295923D01*
X476383Y296457D01*
X476092Y296697D01*
X475675Y296857D01*
X475300Y296910D01*
Y295790D01*
G01Y293830D02*
X477800D01*
X476008Y294817D01*
Y293483D01*
G01X471274Y283909D02*
Y285701D01*
X471167Y286076D01*
X470954Y286326D01*
X470687Y286409D01*
X470421Y286326D01*
X470207Y286076D01*
X470101Y285701D01*
Y283909D01*
G01X468487Y286409D02*
Y283909D01*
X468807Y284409D01*
G01Y286409D02*
X468167D01*
G01X466794Y284326D02*
X466634Y284076D01*
X466447Y283951D01*
X466234Y283909D01*
X465967Y283992D01*
X465781Y284201D01*
X465727Y284451D01*
X465754Y284701D01*
X465861Y284909D01*
X466394Y285326D01*
X466634Y285617D01*
X466794Y286034D01*
X466847Y286409D01*
X465727D01*
G01X472337Y290309D02*
X464637D01*
G01X465411Y303328D02*
X482111D01*
G01X476548Y313678D02*
Y315470D01*
X476441Y315845D01*
X476228Y316095D01*
X475961Y316178D01*
X475694Y316095D01*
X475481Y315845D01*
X475374Y315470D01*
Y313678D01*
G01X473761Y316178D02*
Y313678D01*
X474081Y314178D01*
G01Y316178D02*
X473441D01*
G01X472148Y315678D02*
X471988Y315970D01*
X471774Y316136D01*
X471534Y316178D01*
X471321Y316136D01*
X471108Y315928D01*
X470974Y315678D01*
X470948Y315428D01*
X471001Y315136D01*
X471188Y314928D01*
X471374Y314845D01*
X471614D01*
G01X471374D02*
X471214Y314720D01*
X471081Y314511D01*
X471028Y314261D01*
X471081Y314011D01*
X471214Y313803D01*
X471454Y313678D01*
X471694Y313720D01*
X471934Y313886D01*
G01X482111Y324028D02*
X465411D01*
G01X486208Y257387D02*
X486083Y257227D01*
X486000Y257040D01*
Y256827D01*
X486125Y256587D01*
X486333Y256400D01*
X486583Y256267D01*
X487000Y256160D01*
X487375Y256133D01*
X487750Y256187D01*
X488000Y256267D01*
X488250Y256427D01*
X488417Y256613D01*
X488500Y256800D01*
Y256987D01*
X488417Y257173D01*
X488292Y257333D01*
X488125Y257467D01*
G01X488500Y258947D02*
X487958Y259000D01*
X487500Y259080D01*
X487083Y259187D01*
X486625Y259320D01*
X486000Y259533D01*
Y258467D01*
G01Y261200D02*
X486083Y260987D01*
X486292Y260827D01*
X486542Y260720D01*
X486875Y260640D01*
X487250Y260613D01*
X487625Y260640D01*
X487958Y260720D01*
X488208Y260827D01*
X488417Y260987D01*
X488500Y261200D01*
X488417Y261413D01*
X488208Y261573D01*
X487958Y261680D01*
X487625Y261760D01*
X487250Y261787D01*
X486875Y261760D01*
X486542Y261680D01*
X486292Y261573D01*
X486083Y261413D01*
X486000Y261200D01*
G01X491208Y257387D02*
X491083Y257227D01*
X491000Y257040D01*
Y256827D01*
X491125Y256587D01*
X491333Y256400D01*
X491583Y256267D01*
X492000Y256160D01*
X492375Y256133D01*
X492750Y256187D01*
X493000Y256267D01*
X493250Y256427D01*
X493417Y256613D01*
X493500Y256800D01*
Y256987D01*
X493417Y257173D01*
X493292Y257333D01*
X493125Y257467D01*
G01X493500Y258947D02*
X492958Y259000D01*
X492500Y259080D01*
X492083Y259187D01*
X491625Y259320D01*
X491000Y259533D01*
Y258467D01*
G01X493500Y261200D02*
X491000D01*
X491500Y260880D01*
G01X493500D02*
Y261520D01*
G01X477350Y277550D02*
Y274450D01*
X476890Y275070D01*
G01Y277550D02*
X477810D01*
G01X478535Y280070D02*
G02I-300J0D01*
G01X482850Y303550D02*
Y300450D01*
X482390Y301070D01*
G01Y303550D02*
X483310D01*
G01X481542Y298313D02*
X481667Y298473D01*
X481750Y298660D01*
Y298873D01*
X481625Y299113D01*
X481417Y299300D01*
X481167Y299433D01*
X480750Y299540D01*
X480375Y299567D01*
X480000Y299513D01*
X479750Y299433D01*
X479500Y299273D01*
X479333Y299087D01*
X479250Y298900D01*
Y298713D01*
X479333Y298527D01*
X479458Y298367D01*
X479625Y298233D01*
G01X479750Y297287D02*
X479458Y297127D01*
X479292Y296913D01*
X479250Y296673D01*
X479292Y296460D01*
X479500Y296247D01*
X479750Y296113D01*
X480000Y296087D01*
X480292Y296140D01*
X480500Y296327D01*
X480583Y296513D01*
Y296753D01*
G01Y296513D02*
X480708Y296353D01*
X480917Y296220D01*
X481167Y296167D01*
X481417Y296220D01*
X481625Y296353D01*
X481750Y296593D01*
X481708Y296833D01*
X481542Y297073D01*
G01X479542Y294953D02*
X479333Y294767D01*
X479250Y294553D01*
X479333Y294340D01*
X479583Y294153D01*
X479958Y294020D01*
X480333Y293967D01*
X480792D01*
X481167Y294020D01*
X481500Y294153D01*
X481667Y294313D01*
X481750Y294500D01*
X481667Y294713D01*
X481500Y294873D01*
X481250Y294980D01*
X480917Y295033D01*
X480625Y294980D01*
X480333Y294847D01*
X480167Y294687D01*
X480125Y294500D01*
X480208Y294287D01*
X480417Y294127D01*
X480792Y293967D01*
G01X493587Y333042D02*
X493427Y333167D01*
X493240Y333250D01*
X493027D01*
X492787Y333125D01*
X492600Y332917D01*
X492467Y332667D01*
X492360Y332250D01*
X492333Y331875D01*
X492387Y331500D01*
X492467Y331250D01*
X492627Y331000D01*
X492813Y330833D01*
X493000Y330750D01*
X493187D01*
X493373Y330833D01*
X493533Y330958D01*
X493667Y331125D01*
G01X495520Y330750D02*
Y333250D01*
X494533Y331458D01*
X495867D01*
G01X497400Y333250D02*
X497187Y333167D01*
X497027Y332958D01*
X496920Y332708D01*
X496840Y332375D01*
X496813Y332000D01*
X496840Y331625D01*
X496920Y331292D01*
X497027Y331042D01*
X497187Y330833D01*
X497400Y330750D01*
X497613Y330833D01*
X497773Y331042D01*
X497880Y331292D01*
X497960Y331625D01*
X497987Y332000D01*
X497960Y332375D01*
X497880Y332708D01*
X497773Y332958D01*
X497613Y333167D01*
X497400Y333250D01*
G01X493487Y338342D02*
X493327Y338467D01*
X493140Y338550D01*
X492927D01*
X492687Y338425D01*
X492500Y338217D01*
X492367Y337967D01*
X492260Y337550D01*
X492233Y337175D01*
X492287Y336800D01*
X492367Y336550D01*
X492527Y336300D01*
X492713Y336133D01*
X492900Y336050D01*
X493087D01*
X493273Y336133D01*
X493433Y336258D01*
X493567Y336425D01*
G01X495420Y336050D02*
Y338550D01*
X494433Y336758D01*
X495767D01*
G01X497300Y336050D02*
Y338550D01*
X496980Y338050D01*
G01Y336050D02*
X497620D01*
G01X518310Y217851D02*
X518109Y217826D01*
X517918Y217753D01*
X517767Y217602D01*
X517686Y217344D01*
X517701Y217065D01*
X517783Y216794D01*
X518002Y216424D01*
X518249Y216140D01*
X518552Y215912D01*
X518785Y215792D01*
X519075Y215728D01*
X519325Y215743D01*
X519516Y215816D01*
X519648Y215948D01*
X519721Y216139D01*
X519746Y216340D01*
X519722Y216552D01*
G01X521071Y217371D02*
X521174Y217533D01*
X521236Y217772D01*
X521183Y218014D01*
X521015Y218258D01*
X520771Y218426D01*
X520481Y218490D01*
X520223Y218408D01*
X520034Y218220D01*
X519862Y218166D01*
X519620Y218219D01*
X519377Y218387D01*
X519227Y218650D01*
X519212Y218929D01*
X519304Y219139D01*
X519513Y219231D01*
X519793Y219216D01*
X520055Y219066D01*
X520224Y218822D01*
X520277Y218580D01*
X520223Y218408D01*
X520034Y218220D01*
X519953Y217962D01*
X520016Y217672D01*
X520185Y217428D01*
X520429Y217259D01*
X520671Y217206D01*
X520910Y217269D01*
X521071Y217371D01*
G01X521532Y219305D02*
X521458Y219643D01*
X521453Y219874D01*
X521545Y220084D01*
X521736Y220157D01*
X521948Y220134D01*
X522200Y220032D01*
X522425Y219845D01*
X522583Y219649D01*
X522685Y219397D01*
X522719Y219137D01*
X522646Y218946D01*
X522436Y218854D01*
X522127Y218899D01*
X521787Y219088D01*
X521473Y219364D01*
X521128Y219785D01*
X520978Y220048D01*
X520866Y220348D01*
X520851Y220628D01*
X520953Y220789D01*
X521144Y220862D01*
X521386Y220809D01*
G01X504500Y293733D02*
X502000D01*
Y292667D01*
G01Y291000D02*
X504500D01*
X504000Y291320D01*
G01X502000D02*
Y290680D01*
G01X523345Y144413D02*
X523652Y144155D01*
X523997Y144000D01*
X524303D01*
X524610Y144155D01*
X524840Y144413D01*
X524955Y144775D01*
X524878Y145137D01*
X524687Y145447D01*
X524342Y145653D01*
X523882Y145757D01*
X523613Y145963D01*
X523498Y146325D01*
X523575Y146687D01*
X523767Y146945D01*
X524035Y147100D01*
X524303D01*
X524572Y146997D01*
X524802Y146738D01*
G01X526100Y147100D02*
X526637Y144000D01*
X527250Y147100D01*
X527863Y144000D01*
X528400Y147100D01*
G01X529622Y146583D02*
X529852Y146893D01*
X530120Y147048D01*
X530427Y147100D01*
X530810Y146997D01*
X531078Y146738D01*
X531155Y146428D01*
X531117Y146118D01*
X530963Y145860D01*
X530197Y145343D01*
X529852Y144982D01*
X529622Y144465D01*
X529545Y144000D01*
X531155D01*
G01X534760Y203901D02*
X534558Y203876D01*
X534368Y203803D01*
X534217Y203652D01*
X534136Y203394D01*
X534151Y203115D01*
X534233Y202844D01*
X534452Y202474D01*
X534699Y202190D01*
X535002Y201962D01*
X535235Y201842D01*
X535525Y201778D01*
X535775Y201793D01*
X535966Y201866D01*
X536098Y201998D01*
X536171Y202189D01*
X536196Y202390D01*
X536172Y202602D01*
G01X537521Y203421D02*
X537624Y203583D01*
X537686Y203822D01*
X537633Y204064D01*
X537465Y204308D01*
X537221Y204476D01*
X536931Y204540D01*
X536673Y204458D01*
X536484Y204270D01*
X536312Y204216D01*
X536070Y204269D01*
X535827Y204437D01*
X535677Y204700D01*
X535662Y204979D01*
X535754Y205189D01*
X535963Y205281D01*
X536243Y205266D01*
X536505Y205116D01*
X536674Y204872D01*
X536727Y204630D01*
X536673Y204458D01*
X536484Y204270D01*
X536403Y204012D01*
X536466Y203722D01*
X536635Y203478D01*
X536879Y203309D01*
X537121Y203256D01*
X537360Y203319D01*
X537521Y203421D01*
G01X539077Y204977D02*
X539179Y205138D01*
X539242Y205378D01*
X539189Y205619D01*
X539020Y205863D01*
X538776Y206032D01*
X538486Y206095D01*
X538228Y206014D01*
X538040Y205825D01*
X537868Y205771D01*
X537626Y205824D01*
X537382Y205993D01*
X537232Y206256D01*
X537217Y206535D01*
X537309Y206745D01*
X537519Y206837D01*
X537798Y206821D01*
X538061Y206672D01*
X538230Y206428D01*
X538283Y206186D01*
X538228Y206014D01*
X538040Y205825D01*
X537958Y205567D01*
X538022Y205277D01*
X538191Y205034D01*
X538435Y204865D01*
X538676Y204812D01*
X538915Y204874D01*
X539077Y204977D01*
G01X529157Y208703D02*
X528955Y208679D01*
X528764Y208606D01*
X528614Y208455D01*
X528532Y208197D01*
X528548Y207917D01*
X528630Y207646D01*
X528849Y207276D01*
X529096Y206992D01*
X529398Y206765D01*
X529632Y206645D01*
X529922Y206581D01*
X530172Y206595D01*
X530362Y206668D01*
X530494Y206800D01*
X530568Y206991D01*
X530592Y207193D01*
X530569Y207405D01*
G01X531918Y208224D02*
X532021Y208385D01*
X532083Y208624D01*
X532030Y208866D01*
X531862Y209110D01*
X531618Y209278D01*
X531328Y209342D01*
X531070Y209261D01*
X530881Y209072D01*
X530709Y209018D01*
X530467Y209071D01*
X530223Y209240D01*
X530074Y209502D01*
X530058Y209782D01*
X530150Y209991D01*
X530360Y210083D01*
X530639Y210068D01*
X530902Y209918D01*
X531071Y209674D01*
X531124Y209433D01*
X531070Y209261D01*
X530881Y209072D01*
X530800Y208814D01*
X530863Y208524D01*
X531032Y208280D01*
X531276Y208112D01*
X531517Y208059D01*
X531757Y208121D01*
X531918Y208224D01*
G01X533436Y209742D02*
X533091Y210162D01*
X532823Y210543D01*
X532604Y210913D01*
X532374Y211331D01*
X532083Y211924D01*
X531329Y211170D01*
G01X524139Y210289D02*
X522371Y212056D01*
X522842Y212528D01*
X523082Y212590D01*
X523294Y212567D01*
X523567Y212369D01*
X523765Y212095D01*
X523799Y211835D01*
X523756Y211614D01*
X523284Y211143D01*
G01X523756Y211614D02*
X524893Y211043D01*
G01X526071Y212221D02*
X524304Y213989D01*
X524431Y213409D01*
G01X525845Y211995D02*
X526298Y212448D01*
G01X526532Y214155D02*
X526458Y214493D01*
X526453Y214724D01*
X526545Y214934D01*
X526736Y215007D01*
X526948Y214984D01*
X527200Y214882D01*
X527425Y214695D01*
X527583Y214499D01*
X527685Y214247D01*
X527719Y213987D01*
X527646Y213796D01*
X527436Y213704D01*
X527127Y213749D01*
X526787Y213938D01*
X526473Y214214D01*
X526128Y214635D01*
X525978Y214898D01*
X525866Y215198D01*
X525851Y215478D01*
X525953Y215639D01*
X526144Y215712D01*
X526386Y215659D01*
G01X529409Y215559D02*
X527641Y217326D01*
X528210Y215362D01*
X529153Y216305D01*
G01X540439Y196539D02*
X538671Y198306D01*
X539142Y198778D01*
X539382Y198840D01*
X539594Y198817D01*
X539867Y198619D01*
X540065Y198345D01*
X540099Y198085D01*
X540056Y197864D01*
X539584Y197393D01*
G01X540056Y197864D02*
X541193Y197293D01*
G01X542371Y198471D02*
X540604Y200239D01*
X540731Y199659D01*
G01X542145Y198245D02*
X542598Y198698D01*
G01X542832Y200405D02*
X542758Y200743D01*
X542753Y200974D01*
X542845Y201184D01*
X543036Y201257D01*
X543248Y201234D01*
X543500Y201132D01*
X543725Y200945D01*
X543883Y200749D01*
X543985Y200497D01*
X544019Y200237D01*
X543946Y200046D01*
X543736Y199954D01*
X543427Y199999D01*
X543087Y200188D01*
X542773Y200464D01*
X542428Y200885D01*
X542278Y201148D01*
X542166Y201448D01*
X542151Y201728D01*
X542253Y201889D01*
X542444Y201962D01*
X542686Y201909D01*
G01X544802Y201433D02*
X545063Y201399D01*
X545283Y201442D01*
X545482Y201582D01*
X545593Y201811D01*
X545607Y202061D01*
X545496Y202362D01*
X545279Y202616D01*
X545005Y202814D01*
X544764Y202867D01*
X544514Y202853D01*
X544352Y202750D01*
X544250Y202589D01*
X544198Y202301D01*
X543488Y203124D01*
X543998Y203633D01*
G01X579779Y144756D02*
X578012Y142988D01*
X578766Y142234D01*
G01X580321Y140679D02*
X579567Y141433D01*
X581335Y143201D01*
X582089Y142446D01*
G01X580933Y141894D02*
X580480Y142346D01*
G01X581085Y139915D02*
X582853Y141683D01*
X583230Y141306D01*
X583292Y141066D01*
X583288Y140835D01*
X583205Y140564D01*
X583074Y140283D01*
X582799Y139969D01*
X582485Y139693D01*
X582203Y139562D01*
X581932Y139480D01*
X581701Y139475D01*
X581462Y139538D01*
X581085Y139915D01*
G01X582994Y138713D02*
X582901Y138394D01*
X582934Y138125D01*
X583074Y137926D01*
X583255Y137804D01*
X583553Y137801D01*
X583824Y137883D01*
X584020Y138041D01*
X584188Y138285D01*
X584203Y138564D01*
X584130Y138755D01*
X583961Y138925D01*
G01X584130Y138755D02*
X584332Y138731D01*
X584573Y138784D01*
X584788Y138923D01*
X584927Y139137D01*
X584980Y139379D01*
X584899Y139637D01*
X584700Y139777D01*
X584412Y139829D01*
G01X584989Y137484D02*
X585328Y137558D01*
X585559Y137563D01*
X585768Y137471D01*
X585842Y137280D01*
X585818Y137068D01*
X585716Y136816D01*
X585529Y136590D01*
X585334Y136432D01*
X585081Y136331D01*
X584821Y136297D01*
X584630Y136370D01*
X584538Y136580D01*
X584583Y136888D01*
X584772Y137229D01*
X585048Y137543D01*
X585469Y137888D01*
X585732Y138038D01*
X586032Y138150D01*
X586312Y138165D01*
X586473Y138062D01*
X586546Y137872D01*
X586493Y137630D01*
G01X565779Y165256D02*
X564012Y163488D01*
X564766Y162734D01*
G01X566321Y161179D02*
X565567Y161933D01*
X567335Y163701D01*
X568089Y162946D01*
G01X566933Y162394D02*
X566480Y162846D01*
G01X567085Y160415D02*
X568853Y162183D01*
X569230Y161806D01*
X569292Y161566D01*
X569288Y161335D01*
X569205Y161064D01*
X569074Y160783D01*
X568799Y160469D01*
X568485Y160193D01*
X568203Y160062D01*
X567932Y159980D01*
X567701Y159975D01*
X567462Y160038D01*
X567085Y160415D01*
G01X568994Y159213D02*
X568901Y158894D01*
X568934Y158625D01*
X569074Y158426D01*
X569255Y158304D01*
X569553Y158301D01*
X569824Y158383D01*
X570020Y158541D01*
X570188Y158785D01*
X570203Y159064D01*
X570130Y159255D01*
X569961Y159425D01*
G01X570130Y159255D02*
X570332Y159231D01*
X570573Y159284D01*
X570788Y159423D01*
X570927Y159637D01*
X570980Y159879D01*
X570899Y160137D01*
X570700Y160277D01*
X570412Y160329D01*
G01X570573Y156927D02*
X570994Y157272D01*
X571375Y157539D01*
X571745Y157759D01*
X572163Y157988D01*
X572756Y158280D01*
X572002Y159034D01*
G01X568631Y214033D02*
X569898Y215300D01*
X570088Y215641D01*
X570114Y215968D01*
X569984Y216216D01*
X569737Y216345D01*
X569409Y216320D01*
X569069Y216130D01*
X567802Y214863D01*
G01X568429Y217771D02*
X566661Y216003D01*
X567241Y216131D01*
G01X568655Y217545D02*
X568202Y217997D01*
G01X566873Y219327D02*
X565105Y217559D01*
X565685Y217686D01*
G01X567099Y219101D02*
X566647Y219553D01*
G01X588774Y482991D02*
Y485491D01*
X587708D01*
G01X585508D02*
X586574D01*
Y482991D01*
X585508D01*
G01X585934Y484199D02*
X586574D01*
G01X584428Y485491D02*
Y482991D01*
X583894D01*
X583681Y483116D01*
X583521Y483283D01*
X583387Y483533D01*
X583281Y483824D01*
X583254Y484241D01*
X583281Y484658D01*
X583387Y484950D01*
X583521Y485199D01*
X583681Y485366D01*
X583894Y485491D01*
X584428D01*
G01X582148Y483408D02*
X581988Y483158D01*
X581801Y483033D01*
X581588Y482991D01*
X581321Y483074D01*
X581134Y483283D01*
X581081Y483533D01*
X581108Y483783D01*
X581214Y483991D01*
X581748Y484408D01*
X581988Y484699D01*
X582148Y485116D01*
X582201Y485491D01*
X581081D01*
G01X579494D02*
X579441Y484950D01*
X579361Y484491D01*
X579254Y484074D01*
X579121Y483616D01*
X578908Y482991D01*
X579974D01*
G01X598000Y73933D02*
X595500D01*
Y72867D01*
G01Y70667D02*
Y71733D01*
X598000D01*
Y70667D01*
G01X596792Y71093D02*
Y71733D01*
G01X595500Y69587D02*
X598000D01*
Y69053D01*
X597875Y68840D01*
X597708Y68680D01*
X597458Y68547D01*
X597167Y68440D01*
X596750Y68413D01*
X596333Y68440D01*
X596042Y68547D01*
X595792Y68680D01*
X595625Y68840D01*
X595500Y69053D01*
Y69587D01*
G01X596000Y67387D02*
X595708Y67227D01*
X595542Y67013D01*
X595500Y66773D01*
X595542Y66560D01*
X595750Y66347D01*
X596000Y66213D01*
X596250Y66187D01*
X596542Y66240D01*
X596750Y66427D01*
X596833Y66613D01*
Y66853D01*
G01Y66613D02*
X596958Y66453D01*
X597167Y66320D01*
X597417Y66267D01*
X597667Y66320D01*
X597875Y66453D01*
X598000Y66693D01*
X597958Y66933D01*
X597792Y67173D01*
G01X595500Y64280D02*
X598000D01*
X596208Y65267D01*
Y63933D01*
G01X598000Y109933D02*
X595500D01*
Y108867D01*
G01Y106667D02*
Y107733D01*
X598000D01*
Y106667D01*
G01X596792Y107093D02*
Y107733D01*
G01X595500Y105587D02*
X598000D01*
Y105053D01*
X597875Y104840D01*
X597708Y104680D01*
X597458Y104547D01*
X597167Y104440D01*
X596750Y104413D01*
X596333Y104440D01*
X596042Y104547D01*
X595792Y104680D01*
X595625Y104840D01*
X595500Y105053D01*
Y105587D01*
G01X596000Y103387D02*
X595708Y103227D01*
X595542Y103013D01*
X595500Y102773D01*
X595542Y102560D01*
X595750Y102347D01*
X596000Y102213D01*
X596250Y102187D01*
X596542Y102240D01*
X596750Y102427D01*
X596833Y102613D01*
Y102853D01*
G01Y102613D02*
X596958Y102453D01*
X597167Y102320D01*
X597417Y102267D01*
X597667Y102320D01*
X597875Y102453D01*
X598000Y102693D01*
X597958Y102933D01*
X597792Y103173D01*
G01X595875Y101187D02*
X595667Y101027D01*
X595542Y100840D01*
X595500Y100600D01*
X595583Y100360D01*
X595750Y100173D01*
X596042Y100040D01*
X596375Y100013D01*
X596708Y100067D01*
X596917Y100200D01*
X597083Y100387D01*
X597125Y100573D01*
X597083Y100760D01*
X596917Y101000D01*
X598000Y100920D01*
Y100200D01*
G54D13*
G01X85500Y428450D02*
X80100D01*
Y426450D01*
G01Y425550D02*
Y423250D01*
X85500D01*
G01X92400Y426150D02*
Y428450D01*
X87000D01*
G01Y423250D02*
X92400D01*
Y425250D01*
G01X153540Y222095D02*
X151914Y220469D01*
X155732Y216651D01*
G01X162662Y213822D02*
X164288Y215449D01*
X160470Y219267D01*
G01X156793Y215590D02*
X160611Y211772D01*
X162026Y213186D01*
G01X159409Y220328D02*
X155591Y224146D01*
X154177Y222732D01*
G01X176999Y237918D02*
X173181Y241736D01*
X171767Y240322D01*
G01X171130Y239685D02*
X169504Y238059D01*
X173322Y234241D01*
G01X180252Y231412D02*
X181878Y233039D01*
X178060Y236857D01*
G01X174383Y233180D02*
X178201Y229362D01*
X179616Y230776D01*
G01X203666Y441581D02*
X209066D01*
Y443581D01*
G01Y444481D02*
Y446781D01*
X203666D01*
G01X196766Y443881D02*
Y441581D01*
X202166D01*
G01Y446781D02*
X196766D01*
Y444781D01*
G01X203666Y446857D02*
X209066D01*
Y448857D01*
G01Y449757D02*
Y452057D01*
X203666D01*
G01X196766Y449157D02*
Y446857D01*
X202166D01*
G01Y452057D02*
X196766D01*
Y450057D01*
G01X219600Y155550D02*
Y150150D01*
X221600D01*
G01X222500D02*
X224800D01*
Y155550D01*
G01X221900Y162450D02*
X219600D01*
Y157050D01*
G01X224800D02*
Y162450D01*
X222800D01*
G01X449050Y271754D02*
X443650D01*
Y269754D01*
G01Y268854D02*
Y266554D01*
X449050D01*
G01X455950Y269454D02*
Y271754D01*
X450550D01*
G01Y266554D02*
X455950D01*
Y268554D01*
G01X450450Y277002D02*
X455850D01*
Y279002D01*
G01Y279902D02*
Y282202D01*
X450450D01*
G01X443550Y279302D02*
Y277002D01*
X448950D01*
G01Y282202D02*
X443550D01*
Y280202D01*
G01X449050Y276978D02*
X443650D01*
Y274978D01*
G01Y274078D02*
Y271778D01*
X449050D01*
G01X455950Y274678D02*
Y276978D01*
X450550D01*
G01Y271778D02*
X455950D01*
Y273778D01*
G01X443650Y284527D02*
Y282227D01*
X449050D01*
G01X450550D02*
X455950D01*
Y284227D01*
G01X449050Y287427D02*
X443650D01*
Y285427D01*
G01X455950Y285127D02*
Y287427D01*
X450550D01*
G01X443650Y305424D02*
Y303124D01*
X449050D01*
G01X450550D02*
X455950D01*
Y305124D01*
G01X450450Y297900D02*
X455850D01*
Y299900D01*
G01Y300800D02*
Y303100D01*
X450450D01*
G01X443550Y300200D02*
Y297900D01*
X448950D01*
G01Y303100D02*
X443550D01*
Y301100D01*
G01X449050Y318773D02*
X443650D01*
Y316773D01*
G01Y315873D02*
Y313573D01*
X449050D01*
G01X455950Y316473D02*
Y318773D01*
X450550D01*
G01Y313573D02*
X455950D01*
Y315573D01*
G01X449050Y308324D02*
X443650D01*
Y306324D01*
G01X455950Y306024D02*
Y308324D01*
X450550D01*
G01X471324Y271500D02*
Y276900D01*
X469324D01*
G01X468424D02*
X466124D01*
Y271500D01*
G01X469024Y264600D02*
X471324D01*
Y270000D01*
G01X466124D02*
Y264600D01*
X468124D01*
G01X461426Y296138D02*
Y290738D01*
X463426D01*
G01X464326D02*
X466626D01*
Y296138D01*
G01X463726Y303038D02*
X461426D01*
Y297638D01*
G01X466626D02*
Y303038D01*
X464626D01*
G01X540548Y224317D02*
X544366Y228136D01*
X542952Y229550D01*
G01X542316Y230186D02*
X540690Y231813D01*
X536871Y227994D01*
G01X534043Y221064D02*
X535669Y219438D01*
X539487Y223256D01*
G01X535810Y226934D02*
X531992Y223115D01*
X533406Y221701D01*
G01X555504Y209862D02*
X559322Y213680D01*
X557908Y215094D01*
G01X557271Y215731D02*
X555645Y217357D01*
X551826Y213539D01*
G01X548998Y206609D02*
X550624Y204983D01*
X554443Y208801D01*
G01X550766Y212478D02*
X546948Y208660D01*
X548362Y207246D01*
G54D14*
G01X102356Y365040D02*
X105697Y368381D01*
G01X104026Y366711D02*
X103191Y367546D01*
G01X93448Y368938D02*
X92612Y368102D01*
X107646Y353070D01*
X108481Y353905D01*
G01X101799Y377289D02*
X102634Y378124D01*
X117667Y363092D01*
X116832Y362256D01*
G01X107924Y366154D02*
X104583Y362813D01*
G01X106254Y364483D02*
X107089Y363648D01*
G54D15*
G01X482500Y301000D02*
Y283000D01*
G01X498500Y301000D02*
Y283000D01*
G54D16*
G01X445483Y328250D02*
G03I-394J0D01*
G54D17*
G01X51740Y72982D02*
X68275D01*
G01X51740D02*
Y73252D01*
G01Y77632D02*
Y81718D01*
G01X57008Y77174D02*
X63008D01*
G01X57008Y82174D02*
X63008D01*
G01X57012Y82172D02*
G03X57008Y77174I14J-2499D01*
G01X51740Y86368D02*
X68275D01*
G01X51740Y86097D02*
Y86368D01*
G01X40605Y498325D02*
X57140D01*
G01D02*
Y498596D01*
G01X40605Y498325D02*
Y498596D01*
G01Y511711D02*
X57140D01*
G01Y502975D02*
Y507061D01*
G01Y511440D02*
Y511711D01*
G01X40605Y502975D02*
Y507061D01*
G01Y511440D02*
Y511711D01*
G01X45873Y502518D02*
X51873D01*
G01X45873Y507518D02*
X51873D01*
G01X51877Y502516D02*
G03X51873Y507518I-2J2501D01*
G01X45877Y507516D02*
G03X45873Y502518I14J-2499D01*
G01X68275Y72982D02*
Y73252D01*
G01Y77632D02*
Y81718D01*
G01X63012Y77172D02*
G03X63008Y82174I-2J2501D01*
G01X68275Y86097D02*
Y86368D01*
G01X89443Y176570D02*
X105978D01*
G01X89443Y189956D02*
X105978D01*
G01X89443Y176570D02*
Y176841D01*
G01Y181220D02*
Y185306D01*
G01Y189685D02*
Y189956D01*
G01X94711Y180763D02*
X100711D01*
G01X94711Y185763D02*
X100711D01*
G01X100715Y180761D02*
G03X100711Y185763I-2J2501D01*
G01X94715Y185761D02*
G03X94711Y180763I14J-2499D01*
G01X105978Y176570D02*
Y176841D01*
G01Y181220D02*
Y185306D01*
G01Y189685D02*
Y189956D01*
G01X117374Y560026D02*
X133909D01*
G01X117374D02*
Y560297D01*
G01Y564676D02*
Y568762D01*
G01X122642Y564219D02*
X128642D01*
G01X122646Y569217D02*
G03X122642Y564219I14J-2499D01*
G01X117374Y573412D02*
X133909D01*
G01X117374Y573141D02*
Y573412D01*
G01X122642Y569219D02*
X128642D01*
G01X133909Y560026D02*
Y560297D01*
G01Y564676D02*
Y568762D01*
G01X128646Y564217D02*
G03X128642Y569219I-2J2501D01*
G01X133909Y573141D02*
Y573412D01*
G01X177930Y509698D02*
X194466D01*
G01X177930Y523084D02*
X194466D01*
G01X177930Y509698D02*
Y509969D01*
G01Y514348D02*
Y518434D01*
G01Y522813D02*
Y523084D01*
G01X183198Y513891D02*
X189198D01*
G01X183198Y518891D02*
X189198D01*
G01X189202Y513889D02*
G03X189198Y518891I-2J2501D01*
G01X183203Y518889D02*
G03X183198Y513891I14J-2499D01*
G01X194466Y509698D02*
Y509969D01*
G01Y514348D02*
Y518434D01*
G01Y522813D02*
Y523084D01*
G01X263106Y388446D02*
Y434782D01*
G01Y388446D02*
X271056D01*
G01X269120Y391399D02*
G03I-1643J0D01*
G01X267816Y396316D02*
Y455376D01*
G01Y396316D02*
X315056D01*
G01X267812Y455378D02*
X267816Y455376D01*
G01X267812Y455378D02*
X302476Y455376D01*
G01X263106Y444477D02*
Y459312D01*
G01D02*
X320192D01*
G01Y388446D02*
Y434782D01*
G01X311810Y388446D02*
X320192D01*
G01X315056Y396316D02*
Y443565D01*
G01X302476D02*
X315056D01*
G01X302476D02*
Y455376D01*
G01X320192Y444477D02*
Y459312D01*
G01X306414Y447501D02*
Y453406D01*
G01Y447501D02*
X312318D01*
G01D02*
Y453406D01*
G01X306414D02*
X312318D01*
G01X320192Y458984D02*
Y459312D01*
G01X508340Y509698D02*
X524875D01*
G01X508340Y523084D02*
X524875D01*
G01X508340Y509698D02*
Y509969D01*
G01Y514348D02*
Y518434D01*
G01Y522813D02*
Y523084D01*
G01X513608Y513891D02*
X519608D01*
G01X513608Y518891D02*
X519608D01*
G01X513612Y518889D02*
G03X513608Y513891I14J-2499D01*
G01X524875Y509698D02*
Y509969D01*
G01Y514348D02*
Y518434D01*
G01Y522813D02*
Y523084D01*
G01X519612Y513889D02*
G03X519608Y518891I-2J2501D01*
G01X568896Y560026D02*
X585431D01*
G01X568896D02*
Y560297D01*
G01Y564676D02*
Y568762D01*
G01X574164Y564219D02*
X580164D01*
G01X580168Y564217D02*
G03X580164Y569219I-2J2501D01*
G01X574168Y569217D02*
G03X574164Y564219I14J-2499D01*
G01X568896Y573412D02*
X585431D01*
G01X568896Y573141D02*
Y573412D01*
G01X574164Y569219D02*
X580164D01*
G01X596827Y176570D02*
X613362D01*
G01X596827Y189956D02*
X613362D01*
G01X596827Y176570D02*
Y176841D01*
G01Y181220D02*
Y185306D01*
G01Y189685D02*
Y189956D01*
G01X602096Y180763D02*
X608096D01*
G01X602096Y185763D02*
X608096D01*
G01X602100Y185761D02*
G03X602096Y180763I14J-2499D01*
G01X585431Y560026D02*
Y560297D01*
G01Y564676D02*
Y568762D01*
G01Y573141D02*
Y573412D01*
G01X613362Y176570D02*
Y176841D01*
G01Y181220D02*
Y185306D01*
G01Y189685D02*
Y189956D01*
G01X608100Y180761D02*
G03X608096Y185763I-2J2501D01*
G01X634531Y72981D02*
X651066D01*
G01X634531D02*
Y73252D01*
G01Y77631D02*
Y81717D01*
G01X639798Y77174D02*
X645798D01*
G01X639798Y82174D02*
X645798D01*
G01X645802Y77172D02*
G03X645798Y82174I-2J2501D01*
G01X639802Y82172D02*
G03X639798Y77174I14J-2499D01*
G01X634531Y86367D02*
X651066D01*
G01X634531Y86096D02*
Y86367D01*
G01X645665Y498324D02*
X662200D01*
G01X645665D02*
Y498595D01*
G01Y511710D02*
X662200D01*
G01X645665Y502974D02*
Y507060D01*
G01Y511440D02*
Y511710D01*
G01X650937Y507515D02*
G03X650933Y502518I14J-2499D01*
G01X651066Y72981D02*
Y73252D01*
G01Y77631D02*
Y81717D01*
G01Y86096D02*
Y86367D01*
G01X662200Y498324D02*
Y498595D01*
G01Y502974D02*
Y507060D01*
G01Y511440D02*
Y511710D01*
G01X650933Y502518D02*
X656933D01*
G01X650933Y507518D02*
X656933D01*
G01X656937Y502516D02*
G03X656933Y507518I-2J2501D01*
G54D18*
G01X35669Y504021D02*
G03I-186J0D01*
G01X46804Y78678D02*
G03I-186J0D01*
G01X56823Y493852D02*
G03I-186J0D01*
G01X55587Y517805D02*
G03I-186J0D01*
G01X67958Y68509D02*
G03I-186J0D01*
G01X66722Y92462D02*
G03I-186J0D01*
G01X84507Y182266D02*
G03I-186J0D01*
G01X105661Y172097D02*
G03I-186J0D01*
G01X104425Y196050D02*
G03I-186J0D01*
G01X112438Y565722D02*
G03I-186J0D01*
G01X133592Y555553D02*
G03I-186J0D01*
G01X132356Y579506D02*
G03I-186J0D01*
G01X172994Y515395D02*
G03I-186J0D01*
G01X194148Y505226D02*
G03I-186J0D01*
G01X192912Y529179D02*
G03I-186J0D01*
G01X503404Y515395D02*
G03I-186J0D01*
G01X524558Y505226D02*
G03I-186J0D01*
G01X523322Y529179D02*
G03I-186J0D01*
G01X585114Y555553D02*
G03I-186J0D01*
G01X563960Y565722D02*
G03I-186J0D01*
G01X583878Y579506D02*
G03I-186J0D01*
G01X591892Y182266D02*
G03I-186J0D01*
G01X613046Y172097D02*
G03I-186J0D01*
G01X611810Y196050D02*
G03I-186J0D01*
G01X650748Y68509D02*
G03I-186J0D01*
G01X629594Y78678D02*
G03I-186J0D01*
G01X649512Y92462D02*
G03I-186J0D01*
G01X640729Y504021D02*
G03I-186J0D01*
G01X661883Y493852D02*
G03I-186J0D01*
G01X660647Y517805D02*
G03I-186J0D01*
M02*
