G04 ================== begin FILE IDENTIFICATION RECORD ==================*
G04 Layout Name:  C:/CenturyPlan/scxStandard/scxStandard.brd*
G04 Film Name:    SOLDERMASK_TOP*
G04 File Format:  Gerber RS274X*
G04 File Origin:  Cadence Allegro -unreleased*
G04 Origin Date:  Sat Sep 20 16:10:48 2025*
G04 *
G04 Layer:  BOARD GEOMETRY/SOLDERMASK_TOP*
G04 Layer:  VIA CLASS/SOLDERMASK_TOP*
G04 Layer:  PIN/SOLDERMASK_TOP*
G04 Layer:  DRC ERROR CLASS/SOLDERMASK_TOP*
G04 *
G04 Offset:    (0.000 0.000)*
G04 Mirror:    No*
G04 Mode:      Positive*
G04 Rotation:  0*
G04 FullContactRelief:  No*
G04 UndefLineWidth:     0.000*
G04 ================== end FILE IDENTIFICATION RECORD ====================*
%FSLAX25Y25*MOIN*%
%IR0*IPPOS*OFA0.00000B0.00000*MIA0B0*SFA1.00000B1.00000*%
%AMMACRO27*
21,1,.018874,.065874,0.0,0.0,45.*%
%ADD27MACRO27*%
%ADD37R,.077559X.021968*%
%AMMACRO14*
21,1,.025,.03544,0.0,0.0,150.*%
%ADD14MACRO14*%
%AMMACRO41*
21,1,.0276,.063,0.0,0.0,135.*%
%ADD41MACRO41*%
%AMMACRO21*
21,1,.0827,.1181,0.0,0.0,45.*%
%ADD21MACRO21*%
%AMMACRO31*
21,1,.0709,.122,0.0,0.0,60.199*%
%ADD31MACRO31*%
%AMMACRO24*
21,1,.051181,.047244,0.0,0.0,135.*%
%ADD24MACRO24*%
%AMMACRO18*
21,1,.047244,.047244,0.0,0.0,135.*%
%ADD18MACRO18*%
%AMMACRO26*
21,1,.018874,.065874,0.0,0.0,135.*%
%ADD26MACRO26*%
%ADD38R,.101X.136*%
%AMMACRO12*
21,1,.025,.03544,0.0,0.0,30.*%
%ADD12MACRO12*%
%ADD36R,.047X.016*%
%AMMACRO42*
21,1,.0827,.1181,0.0,0.0,135.*%
%ADD42MACRO42*%
%ADD13R,.03544X.025*%
%AMMACRO25*
21,1,.0276,.063,0.0,0.0,45.*%
%ADD25MACRO25*%
%ADD30O,.05315X.043307*%
%ADD28C,.0709*%
%AMMACRO16*
21,1,.086614,.102362,0.0,0.0,135.*%
%ADD16MACRO16*%
%ADD29C,.047244*%
%ADD22R,.047244X.051181*%
%AMMACRO17*
21,1,.051181,.047244,0.0,0.0,45.*%
%ADD17MACRO17*%
%ADD15R,.051181X.047244*%
%ADD35R,.055512X.036614*%
%ADD10C,.07874*%
%AMMACRO32*
21,1,.0315,.0709,0.0,0.0,60.199*%
%ADD32MACRO32*%
%AMMACRO20*
21,1,.047244,.047244,0.0,0.0,45.*%
%ADD20MACRO20*%
%ADD19R,.047244X.047244*%
%ADD11R,.05918X.03556*%
%ADD23R,.047244X.047244*%
%ADD34R,.08674X.08674*%
%ADD33R,.04737X.08674*%
%ADD39R,.079528X.053543*%
%ADD40R,.098425X.059055*%
G75*
%LPD*%
G75*
G36*
G01X229969Y120685D02*
G02X229443Y120712I-256J148D01*
G02X229323Y131216I11607J5386D01*
G02X229594Y131394I271J-118D01*
G01X235890D01*
G02X236102Y130893I0J-295D01*
G03X235083Y129543I4948J-4795D01*
G01X229969Y120685D01*
G37*
G36*
G01X230754Y118502D02*
G02X230736Y118824I238J175D01*
G01X233884Y124278D01*
G02X234424Y124211I256J-148D01*
G03X235083Y122653I6626J1887D01*
G01X240197Y113795D01*
G02X239916Y113353I-256J-148D01*
G02X230754Y118502I1134J12745D01*
G37*
G36*
G01X230821Y132988D02*
G02X230580Y133453I0J295D01*
G02X239619Y138813I10470J-7355D01*
G02X239908Y138667I33J-293D01*
G01X243056Y133214D01*
G02X242729Y132780I-256J-148D01*
G03X241050Y132988I-1679J-6682D01*
G01X230821D01*
G37*
G36*
G01X251346Y133798D02*
G02X251364Y133476I-238J-175D01*
G01X248216Y128022D01*
G02X247676Y128089I-256J148D01*
G03X247017Y129647I-6626J-1887D01*
G01X241902Y138505D01*
G02X242184Y138947I256J148D01*
G02X251346Y133798I-1134J-12745D01*
G37*
G36*
G01X245998Y121303D02*
G03X246209Y120803I212J-205D01*
G01X252506D01*
G03X252777Y120980I0J295D01*
G03X252654Y131488I-11727J5119D01*
G03X252131Y131511I-268J-124D01*
G01X247017Y122653D01*
G02X245998Y121303I-5967J3445D01*
G37*
G36*
G01X242478Y113383D02*
G02X242192Y113529I-30J294D01*
G01X239044Y118982D01*
G02X239375Y119415I256J148D01*
G03X241050Y119208I1675J6683D01*
G01X251279D01*
G02X251520Y118743I0J-295D01*
G02X242478Y113383I-10470J7355D01*
G37*
G36*
G01X309214Y70456D02*
X311080D01*
X311177Y65780D01*
X311197D01*
X313122Y70456D01*
X314531D01*
X314706Y65761D01*
X314725D01*
X316572Y70456D01*
X318429D01*
X315192Y63262D01*
X313578D01*
X313364Y67919D01*
X313345D01*
X311401Y63262D01*
X309739D01*
X309214Y70456D01*
G37*
G36*
G01X326109D02*
X327966D01*
X324729Y63262D01*
X323115D01*
X322901Y67919D01*
X322882D01*
X320938Y63262D01*
X319275D01*
X318750Y70456D01*
X320617D01*
X320714Y65780D01*
X320733D01*
X322658Y70456D01*
X324068D01*
X324243Y65761D01*
X324262D01*
X326109Y70456D01*
G37*
G36*
G01X332195D02*
X333604D01*
X333780Y65761D01*
X333799D01*
X335646Y70456D01*
X337503D01*
X334266Y63262D01*
X332652D01*
X332438Y67919D01*
X332419D01*
X330474Y63262D01*
X328812D01*
X328287Y70456D01*
X330154D01*
X330251Y65780D01*
X330270D01*
X332195Y70456D01*
G37*
G36*
G01X337989Y64915D02*
X337678Y63262D01*
X335996D01*
X336307Y64915D01*
X337989D01*
G37*
G36*
G01X339846Y70456D02*
X344386D01*
X344114Y68969D01*
X341061Y64876D01*
X343355D01*
X343054Y63262D01*
X338514D01*
X338738Y64468D01*
X342024Y68842D01*
X339545D01*
X339846Y70456D01*
G37*
G36*
G01X354069Y65333D02*
G02X353936Y64845I-2875J518D01*
G02X352852Y63547I-2310J828D01*
G02X351904Y63197I-1513J2644D01*
G02X350711Y63150I-754J3979D01*
G02X350106Y63282I302J2851D01*
G02X349654Y63500I623J1868D01*
G02X349110Y64124I812J1256D01*
G02X348963Y64649I1615J735D01*
G02X348964Y65254I2462J298D01*
G02X349023Y65644I6911J-840D01*
G01X350851D01*
G03X350827Y65450I11199J-1454D01*
G03X350827Y65241I982J-106D01*
G03X350904Y64972I764J73D01*
G03X351268Y64680I488J235D01*
G03X351598Y64683I160J717D01*
G03X352260Y65473I-208J846D01*
G03X352182Y65745I-427J24D01*
G03X351988Y65933I-633J-456D01*
G03X351752Y66076I-1196J-1703D01*
G03X351368Y66259I-3062J-5950D01*
G02X350943Y66452I7408J16855D01*
G02X350622Y66618I2140J4535D01*
G02X350318Y66813I1467J2623D01*
G02X350049Y67046I1193J1649D01*
G02X349636Y67928I1034J1023D01*
G02X349987Y69285I2061J191D01*
G02X350532Y69873I2188J-1481D01*
G02X352133Y70560I2087J-2654D01*
G02X353255Y70509I433J-2850D01*
G02X353918Y70221I-503J-2063D01*
G02X354609Y69096I-832J-1287D01*
G02X354616Y68694I-2144J-236D01*
G02X354574Y68357I-3689J288D01*
G01X352756D01*
Y68473D01*
G03X352756Y68539I-1117J35D01*
G03X352745Y68660I-914J-20D01*
G03X352718Y68768I-614J-96D01*
G03X352452Y69025I-375J-121D01*
G03X351903Y68989I-224J-779D01*
G03X351473Y68337I279J-652D01*
G03X351503Y68198I340J0D01*
G03X351561Y68103I421J190D01*
G03X351646Y68012I568J453D01*
G03X351841Y67870I940J1083D01*
G03X352086Y67734I1845J3024D01*
G03X352310Y67624I4415J8676D01*
G02X352671Y67450I-13996J-29600D01*
G02X352919Y67324I-3599J-7356D01*
G02X353162Y67185I-2326J-4371D01*
G02X353504Y66947I-1610J-2674D01*
G02X353834Y66611I-1188J-1497D01*
G02X354117Y65761I-1090J-835D01*
G02X354069Y65333I-2077J19D01*
G37*
G36*
G01X345193Y70456D02*
X349188D01*
X348887Y68842D01*
X346651D01*
X346447Y67725D01*
X348615D01*
X348313Y66111D01*
X346146D01*
X345922Y64876D01*
X348158D01*
X347856Y63262D01*
X343861D01*
X345193Y70456D01*
G37*
G36*
G01X360748D02*
X364743D01*
X364441Y68842D01*
X362205D01*
X362002Y67725D01*
X364169D01*
X363868Y66111D01*
X361700D01*
X361476Y64876D01*
X363712D01*
X363411Y63262D01*
X359416D01*
X360748Y70456D01*
G37*
G36*
G01X355342D02*
X360008D01*
X359707Y68842D01*
X358298D01*
X357267Y63262D01*
X355430D01*
X356460Y68842D01*
X355041D01*
X355342Y70456D01*
G37*
G36*
G01X369963D02*
X371888D01*
X368845Y66869D01*
X370712Y63262D01*
X368563D01*
X367173Y66373D01*
X367154D01*
X366580Y63262D01*
X364743D01*
X366075Y70456D01*
X367912D01*
X367310Y67219D01*
X367329D01*
X369963Y70456D01*
G37*
G36*
G01X375806D02*
X377390D01*
X379335Y65936D01*
X379354Y65955D01*
X380112Y70456D01*
X381872D01*
X380540Y63262D01*
X378946D01*
X377011Y67637D01*
X376992Y67627D01*
X376234Y63262D01*
X374474D01*
X375806Y70456D01*
G37*
G36*
G01X373453Y64915D02*
X373142Y63262D01*
X371460D01*
X371772Y64915D01*
X373453D01*
G37*
G36*
G01X383185Y70456D02*
X387180D01*
X386879Y68842D01*
X384643D01*
X384439Y67725D01*
X386606D01*
X386305Y66111D01*
X384137D01*
X383914Y64876D01*
X386150D01*
X385848Y63262D01*
X381853D01*
X383185Y70456D01*
G37*
G36*
G01X387763D02*
X392429D01*
X392128Y68842D01*
X390719D01*
X389688Y63262D01*
X387851D01*
X388881Y68842D01*
X387462D01*
X387763Y70456D01*
G37*
G36*
G01X397978Y152951D02*
X385263D01*
X385498Y154884D01*
G02X385551Y155189I1916J-179D01*
G02X386580Y156362I1664J-422D01*
G02X387368Y156511I772J-1927D01*
G01X405449D01*
Y156510D01*
X405036Y152957D01*
X391504Y145568D01*
X404145D01*
X403935Y143635D01*
G02X403806Y143126I-1984J232D01*
G02X402810Y142141I-1612J634D01*
G02X402065Y142008I-730J1932D01*
G01X384036Y142007D01*
X384309Y144367D01*
G02X385505Y146141I2311J-267D01*
G01X397978Y152951D01*
G37*
G36*
G01X421919Y150990D02*
X421699Y148894D01*
G02X420080Y147436I-1619J170D01*
G01X405974D01*
X406348Y150990D01*
X421919D01*
G37*
G36*
G01X405720Y145562D02*
X423926D01*
X423706Y143466D01*
G02X422086Y142008I-1619J170D01*
G01X405347D01*
X405720Y145562D01*
G37*
G36*
G01X425125Y156511D02*
X424904Y154415D01*
G02X423285Y152957I-1619J170D01*
G01X406546D01*
X406766Y155053D01*
G02X408386Y156511I1619J-170D01*
G01X425125D01*
G37*
G36*
G01X429520D02*
X479993D01*
X479773Y154415D01*
G02X478154Y152957I-1619J170D01*
G01X455385Y152951D01*
X454173Y142008D01*
X450613D01*
X451825Y152951D01*
X430517D01*
G03X430377Y152942I-1J-1121D01*
G03X430025Y152831I116J-983D01*
G03X429581Y152137I395J-741D01*
G01X429445Y150996D01*
X445770D01*
X445097Y144881D01*
G02X444997Y144342I-3405J349D01*
G02X443233Y142300I-2962J776D01*
G02X441765Y142008I-1439J3391D01*
G01X424880D01*
X425115Y143940D01*
G02X425169Y144246I1916J-179D01*
G02X426197Y145419I1664J-422D01*
G02X426986Y145568I773J-1928D01*
G01X440768D01*
G03X441100Y145620I8J1036D01*
G03X441527Y145928I-270J826D01*
G03X441703Y146381I-769J558D01*
G01X441834Y147436D01*
X425509D01*
X426193Y153612D01*
G02X426311Y154233I3443J-335D01*
G02X428191Y156275I2947J-827D01*
G02X429520Y156511I1304J-3481D01*
G37*
G36*
G01X450469Y120785D02*
G02X449943Y120813I-256J148D01*
G02X449823Y131316I11607J5386D01*
G02X450094Y131494I271J-118D01*
G01X456390D01*
G02X456602Y130993I0J-295D01*
G03X455583Y129643I4948J-4795D01*
G01X450469Y120785D01*
G37*
G36*
G01X451254Y118602D02*
G02X451236Y118924I238J175D01*
G01X454384Y124378D01*
G02X454924Y124311I256J-148D01*
G03X455583Y122753I6626J1887D01*
G01X460698Y113895D01*
G02X460416Y113453I-256J-148D01*
G02X451254Y118602I1134J12745D01*
G37*
G36*
G01X451321Y133088D02*
G02X451080Y133553I0J295D01*
G02X460119Y138913I10470J-7355D01*
G02X460408Y138767I33J-293D01*
G01X463556Y133314D01*
G02X463229Y132880I-256J-148D01*
G03X461550Y133088I-1679J-6682D01*
G01X451321D01*
G37*
G36*
G01X471846Y133898D02*
G02X471864Y133576I-238J-175D01*
G01X468716Y128122D01*
G02X468176Y128189I-256J148D01*
G03X467517Y129747I-6626J-1887D01*
G01X462402Y138605D01*
G02X462684Y139047I256J148D01*
G02X471846Y133898I-1134J-12745D01*
G37*
G36*
G01X466498Y121403D02*
G03X466710Y120902I212J-205D01*
G01X473006D01*
G03X473277Y121080I0J295D01*
G03X473155Y131588I-11727J5119D01*
G03X472631Y131611I-268J-124D01*
G01X467517Y122753D01*
G02X466498Y121403I-5967J3445D01*
G37*
G36*
G01X462978Y113483D02*
G02X462692Y113629I-30J294D01*
G01X459544Y119082D01*
G02X459875Y119515I256J148D01*
G03X461550Y119308I1675J6683D01*
G01X471779D01*
G02X472020Y118843I0J-295D01*
G02X462978Y113483I-10470J7355D01*
G37*
G36*
G01X476788Y150990D02*
X476567Y148894D01*
G02X474948Y147436I-1619J170D01*
G01X460843D01*
X461216Y150990D01*
X476788D01*
G37*
G36*
G01X460589Y145562D02*
X478794D01*
X478574Y143466D01*
G02X476955Y142008I-1619J170D01*
G01X460215D01*
X460589Y145562D01*
G37*
G36*
G01X497296Y156511D02*
X502370D01*
X493807Y149291D01*
X493804Y149289D01*
X500751Y142007D01*
X495795D01*
X491057Y146972D01*
X485168Y142007D01*
X480094D01*
X481523Y155060D01*
G02X483141Y156511I1619J-177D01*
G01X485242D01*
X484010Y145308D01*
X497296Y156511D01*
G37*
G54D10*
X7500Y30500D03*
X23000Y575500D03*
X695500Y29500D03*
X686500Y578000D03*
G54D11*
X40015Y500786D03*
Y509251D03*
X51150Y83908D03*
Y75442D03*
X57731Y500786D03*
Y509251D03*
X68866Y83908D03*
Y75442D03*
X88853Y187496D03*
Y179031D03*
X106569Y187496D03*
Y179031D03*
X116784Y562487D03*
Y570952D03*
X134500Y562487D03*
Y570952D03*
X177340Y520624D03*
Y512159D03*
X195056Y520624D03*
Y512159D03*
X507750Y520624D03*
Y512159D03*
X525466Y520624D03*
Y512159D03*
X568306Y562487D03*
X586022D03*
X568306Y570952D03*
X586022D03*
X596238Y187496D03*
Y179031D03*
X613954Y187496D03*
Y179031D03*
X633940Y83907D03*
X651656D03*
X633940Y75442D03*
X651656D03*
X645075Y500785D03*
Y509250D03*
X662791Y500785D03*
Y509250D03*
G54D20*
X124860Y129475D03*
X126893Y138745D03*
X121241Y133094D03*
X130512Y135126D03*
X147225Y155929D03*
X150844Y152310D03*
X156496Y157961D03*
X152877Y161580D03*
X577934Y65378D03*
X581553Y61758D03*
X587204Y67410D03*
X583585Y71029D03*
G54D30*
X180612Y142196D03*
Y159126D03*
X199510Y142196D03*
Y159126D03*
G54D12*
X37777Y494268D03*
X34367Y492299D03*
X30568Y498879D03*
X33978Y500848D03*
X48912Y68924D03*
X45502Y66956D03*
X41703Y73536D03*
X45113Y75504D03*
X79406Y177124D03*
X82816Y179093D03*
X86615Y172513D03*
X83205Y170544D03*
X114546Y555969D03*
X111136Y554000D03*
X107337Y560580D03*
X110747Y562549D03*
X167894Y510252D03*
X175102Y505641D03*
X171692Y503672D03*
X171304Y512221D03*
X498303Y510252D03*
X505512Y505641D03*
X502102Y503672D03*
X501713Y512221D03*
X562658Y554000D03*
X558859Y560580D03*
X562269Y562549D03*
X566068Y555969D03*
X594000Y172513D03*
X590590Y170544D03*
X586790Y177124D03*
X590200Y179093D03*
X628292Y66955D03*
X624494Y73535D03*
X627904Y75504D03*
X631702Y68924D03*
X642837Y494268D03*
X639427Y492298D03*
X635628Y498878D03*
X639038Y500848D03*
G54D21*
X124951Y229418D03*
X154465Y258933D03*
G54D40*
X490500Y284716D03*
Y299284D03*
G54D22*
X114500Y401846D03*
Y395154D03*
X215971Y152873D03*
X222200Y152904D03*
X215971Y159566D03*
X222200Y159596D03*
X463500Y267454D03*
Y274146D03*
X473949D03*
Y267454D03*
X468724D03*
Y274146D03*
X469250Y300184D03*
Y293491D03*
X464026Y300184D03*
Y293491D03*
G54D13*
X56244Y94662D03*
Y98600D03*
X45109Y520006D03*
Y523944D03*
X52707D03*
Y520006D03*
X63842Y98600D03*
Y94662D03*
X93947Y198251D03*
Y202189D03*
X101545D03*
Y198251D03*
X121878Y581707D03*
Y585645D03*
X129476D03*
Y581707D03*
X182434Y531379D03*
Y535317D03*
X190032D03*
Y531379D03*
X512844D03*
Y535317D03*
X520442D03*
Y531379D03*
X573400Y581707D03*
Y585645D03*
X580998D03*
Y581707D03*
X601332Y198251D03*
Y202189D03*
X608930D03*
Y198251D03*
X639035Y94662D03*
Y98600D03*
X646632D03*
Y94662D03*
X650169Y520006D03*
Y523944D03*
X657767D03*
Y520006D03*
G54D31*
X272023Y317917D03*
X289338Y348149D03*
G54D23*
X115106Y494443D03*
Y489325D03*
X123098D03*
Y494443D03*
X258219Y491039D03*
Y496157D03*
X250227D03*
Y491039D03*
X289329D03*
Y496157D03*
X281337D03*
Y491039D03*
X321479D03*
Y496157D03*
X313487D03*
Y491039D03*
X355463D03*
Y496157D03*
X347471D03*
Y491039D03*
X389439D03*
Y496157D03*
X381447D03*
Y491039D03*
X421585D03*
Y496157D03*
X413593D03*
Y491039D03*
X452668D03*
Y496157D03*
X444676D03*
Y491039D03*
X579845Y494444D03*
Y489326D03*
X587837D03*
Y494444D03*
G54D32*
X266652Y332563D03*
X269097Y336832D03*
X271542Y341102D03*
X273987Y345371D03*
G54D41*
X563870Y229143D03*
X560390Y232622D03*
X556912Y236101D03*
X553433Y239580D03*
X549954Y243059D03*
G54D14*
X59934Y494201D03*
X74868Y75438D03*
X78278Y73468D03*
X74479Y66888D03*
X71069Y68858D03*
X63733Y500781D03*
X67143Y498812D03*
X63344Y492232D03*
X112182Y170477D03*
X108772Y172446D03*
X112571Y179026D03*
X115981Y177057D03*
X140502Y562482D03*
X143912Y560513D03*
X140113Y553933D03*
X136703Y555902D03*
X201059Y512154D03*
X204468Y510185D03*
X200670Y503605D03*
X197260Y505574D03*
X531468Y512154D03*
X534878Y510185D03*
X531079Y503605D03*
X527669Y505574D03*
X592024Y562482D03*
X595434Y560513D03*
X591635Y553933D03*
X588225Y555902D03*
X619566Y170477D03*
X616156Y172446D03*
X619956Y179026D03*
X623366Y177057D03*
X657658Y75437D03*
X661068Y73468D03*
X657270Y66888D03*
X653860Y68857D03*
X668793Y500780D03*
X672203Y498811D03*
X668404Y492231D03*
X664994Y494200D03*
G54D33*
X278930Y388454D03*
X273934Y388444D03*
X298930Y388454D03*
X293930D03*
X288930D03*
X283930D03*
X308930D03*
X303930D03*
G54D15*
X82854Y425850D03*
X89546D03*
X107154Y412000D03*
X113846D03*
X139154Y346000D03*
X145846D03*
X208847Y391500D03*
X202154D03*
X208847Y386500D03*
X202154D03*
X199620Y444181D03*
X206313D03*
X199620Y449457D03*
X206313D03*
X208847Y461500D03*
X202154D03*
X453096Y269154D03*
X446404D03*
Y279602D03*
X453096D03*
Y274378D03*
X446404D03*
X453096Y290051D03*
X446404D03*
X453096Y295276D03*
X446404D03*
X453096Y284827D03*
X446404D03*
X453096Y305724D03*
X446404D03*
Y300500D03*
X453096D03*
Y310949D03*
X446404D03*
Y321398D03*
X453096D03*
Y316173D03*
X446404D03*
X490954Y320673D03*
X497646D03*
X490954Y327398D03*
X497646D03*
G54D42*
X550229Y258933D03*
X579744Y229418D03*
G54D24*
X149836Y214497D03*
X154569Y209765D03*
X160432Y215628D03*
X161563Y226224D03*
X166295Y221491D03*
X167426Y232087D03*
X172159Y227355D03*
X155700Y220360D03*
X178022Y233218D03*
X173290Y237950D03*
X199866Y399134D03*
X195134Y403866D03*
G54D34*
X263106Y439630D03*
X320192D03*
G54D16*
X99572Y371165D03*
X110708Y360029D03*
G54D25*
X147783Y236101D03*
X144304Y232622D03*
X140825Y229143D03*
X151262Y239580D03*
X154741Y243059D03*
G54D35*
X450286Y328250D03*
X463514D03*
G54D17*
X96852Y378617D03*
X92120Y373885D03*
X118160Y357309D03*
X113428Y352577D03*
X273366Y364366D03*
X268634Y359634D03*
X539985Y218658D03*
X530394Y227749D03*
X535126Y232482D03*
X535848Y223294D03*
X540581Y228027D03*
X551514Y218094D03*
X546781Y213361D03*
X550804Y208839D03*
X555536Y213572D03*
X544718Y223390D03*
G54D26*
X144432Y391929D03*
X145775Y390586D03*
X147189Y389171D03*
X148603Y387757D03*
X143017Y393343D03*
X131845Y404516D03*
X133259Y403101D03*
X134673Y401687D03*
X136017Y400344D03*
X137431Y398929D03*
X138845Y397515D03*
X140189Y396172D03*
X141603Y394757D03*
X149947Y386414D03*
X151361Y384999D03*
X152775Y383585D03*
X171443Y427426D03*
X170099Y428769D03*
X168685Y430184D03*
X167271Y431598D03*
X165928Y432941D03*
X164513Y434355D03*
X163099Y435770D03*
X184029Y414839D03*
X182615Y416254D03*
X181201Y417668D03*
X179858Y419011D03*
X178443Y420425D03*
X177029Y421840D03*
X175686Y423183D03*
X174271Y424597D03*
X172857Y426012D03*
G54D36*
X473606Y280070D03*
Y282630D03*
X463369D03*
Y280070D03*
X473606Y285189D03*
Y287748D03*
X463369D03*
Y285189D03*
G54D18*
X121478Y61973D03*
X125098Y65592D03*
X119446Y71243D03*
X115827Y67624D03*
X551696Y152310D03*
X549663Y161580D03*
X546044Y157961D03*
X555315Y155929D03*
X578074Y129081D03*
X576041Y138352D03*
X572422Y134732D03*
X581693Y132700D03*
G54D27*
X133259Y416254D03*
X131845Y414839D03*
X148603Y431598D03*
X147189Y430184D03*
X145775Y428769D03*
X144432Y427426D03*
X143017Y426012D03*
X141603Y424597D03*
X140189Y423183D03*
X138845Y421840D03*
X137431Y420425D03*
X136017Y419011D03*
X134673Y417668D03*
X163099Y383585D03*
X164513Y384999D03*
X165928Y386414D03*
X167271Y387757D03*
X168685Y389171D03*
X170099Y390586D03*
X171443Y391929D03*
X152775Y435770D03*
X151361Y434355D03*
X149947Y432941D03*
X172857Y393343D03*
X174271Y394757D03*
X175686Y396172D03*
X177029Y397515D03*
X178443Y398929D03*
X179858Y400344D03*
X181201Y401687D03*
X182615Y403101D03*
X184029Y404516D03*
G54D19*
X117018Y105035D03*
X111900D03*
Y97043D03*
X117018D03*
X585916Y105035D03*
Y97043D03*
X591034Y105035D03*
Y97043D03*
G54D28*
X152389Y89512D03*
Y101332D03*
X187039Y67942D03*
X177199Y64712D03*
Y126132D03*
X188999D03*
X179159Y118182D03*
X213809Y89512D03*
X210099Y80662D03*
X213809Y101332D03*
X489124Y89512D03*
Y101332D03*
X513934Y64712D03*
Y126132D03*
X515894Y118182D03*
X523774Y67942D03*
X525734Y126132D03*
X550544Y89512D03*
X546834Y80662D03*
X550544Y101332D03*
G54D37*
X464061Y321178D03*
Y316178D03*
Y311178D03*
Y306178D03*
X483461D03*
Y311178D03*
Y316178D03*
Y321178D03*
G54D29*
X158662Y316659D03*
Y324533D03*
X544650Y324844D03*
Y316970D03*
G54D38*
X473761Y313678D03*
G54D39*
X482370Y265993D03*
Y277607D03*
X492488Y265993D03*
Y277607D03*
M02*
