G04 ================== begin FILE IDENTIFICATION RECORD ==================*
G04 Layout Name:  C:/CenturyPlan/scxStandard/scxStandard.brd*
G04 Film Name:    SOLDERMASK_BOTTOM*
G04 File Format:  Gerber RS274X*
G04 File Origin:  Cadence Allegro -unreleased*
G04 Origin Date:  Sat Sep 20 16:10:48 2025*
G04 *
G04 Layer:  BOARD GEOMETRY/SOLDERMASK_BOTTOM*
G04 Layer:  VIA CLASS/SOLDERMASK_BOTTOM*
G04 Layer:  PIN/SOLDERMASK_BOTTOM*
G04 Layer:  DRC ERROR CLASS/SOLDERMASK_BOTTOM*
G04 *
G04 Offset:    (0.000 0.000)*
G04 Mirror:    No*
G04 Mode:      Positive*
G04 Rotation:  0*
G04 FullContactRelief:  No*
G04 UndefLineWidth:     0.000*
G04 ================== end FILE IDENTIFICATION RECORD ====================*
%FSLAX25Y25*MOIN*%
%IR0*IPPOS*OFA0.00000B0.00000*MIA0B0*SFA1.00000B1.00000*%
%ADD23R,.020968X.066559*%
%AMMACRO21*
21,1,.0315,.0709,0.0,0.0,150.339*%
%ADD21MACRO21*%
%AMMACRO19*
4,1,40,.011811,-.02126,
.011811,.02126,
.011765,.021773,
.011631,.022271,
.011413,.022738,
.011116,.02316,
.010751,.023524,
.010329,.023819,
.009861,.024036,
.009363,.024169,
.008858,.024213,
-.008858,.024213,
-.009371,.024167,
-.009869,.024033,
-.010336,.023815,
-.010758,.023518,
-.011122,.023153,
-.011417,.022731,
-.011634,.022263,
-.011767,.021765,
-.011811,.02126,
-.011811,-.02126,
-.011765,-.021773,
-.011631,-.022271,
-.011413,-.022738,
-.011116,-.02316,
-.010751,-.023524,
-.010329,-.023819,
-.009861,-.024036,
-.009363,-.024169,
-.008858,-.024213,
.008858,-.024213,
.009371,-.024167,
.009869,-.024033,
.010336,-.023815,
.010758,-.023518,
.011122,-.023153,
.011417,-.022731,
.011634,-.022263,
.011767,-.021765,
.011811,-.02126,
0.0*
%
%ADD19MACRO19*%
%ADD18R,.011811X.034252*%
%ADD17O,.05315X.043307*%
%ADD14C,.0709*%
%AMMACRO22*
21,1,.0709,.1142,0.0,0.0,150.339*%
%ADD22MACRO22*%
%ADD15C,.047244*%
%ADD20C,.028346*%
%AMMACRO12*
21,1,.051181,.047244,0.0,0.0,45.*%
%ADD12MACRO12*%
%ADD11R,.047244X.051181*%
%ADD13R,.051181X.047244*%
%ADD24R,.03937X.043307*%
%ADD10C,.07874*%
%ADD16O,.035433X.027559*%
%LPD*%
G75*
G54D10*
X7500Y30500D03*
X23000Y575500D03*
X695500Y29500D03*
X686500Y578000D03*
G54D11*
X59500Y76154D03*
Y82846D03*
X48960Y501726D03*
Y508420D03*
X97500Y180154D03*
Y186846D03*
X124851Y564502D03*
Y571195D03*
X187601Y512791D03*
Y519484D03*
X208000Y170154D03*
Y176846D03*
X520000Y327154D03*
Y333846D03*
X516051Y514208D03*
Y520901D03*
X577000Y563654D03*
Y570346D03*
X605801Y181130D03*
Y187823D03*
X642551Y75419D03*
Y82112D03*
X653500Y502154D03*
Y508846D03*
G54D20*
X204825Y150661D03*
G54D12*
X83363Y379732D03*
X105686Y366875D03*
X100953Y362143D03*
X99822Y372738D03*
X95090Y368006D03*
X93959Y378602D03*
X89226Y373869D03*
X88095Y384465D03*
X124406Y338689D03*
X123275Y349285D03*
X118543Y344552D03*
X112680Y350416D03*
X117412Y355148D03*
X111549Y361012D03*
X106816Y356279D03*
X129139Y343422D03*
G54D21*
X386874Y381156D03*
X408251Y368982D03*
X403976Y371417D03*
X399700Y373851D03*
X395425Y376286D03*
X391150Y378721D03*
G54D13*
X114346Y394000D03*
X107654D03*
X114346Y402500D03*
X107654D03*
X134846Y101649D03*
X128154D03*
X134846Y95424D03*
X128154D03*
Y89200D03*
X134846D03*
X169346Y136000D03*
X162654D03*
X157154Y301500D03*
X163846D03*
X207846Y466000D03*
X201154D03*
X240154Y75302D03*
X246846D03*
X240154Y68578D03*
X246846D03*
X240154Y82027D03*
X246846D03*
X240154Y102200D03*
X246846D03*
X240154Y95476D03*
X246846D03*
Y88751D03*
X240154D03*
X407796Y407900D03*
X401103D03*
X397004Y416067D03*
X403697D03*
X411154Y455000D03*
X426846Y407900D03*
X420154D03*
X417846Y455000D03*
X462497Y61904D03*
X455804D03*
X462497Y68628D03*
X455804D03*
X462497Y75352D03*
X455804D03*
Y82077D03*
X462497D03*
Y95526D03*
X455804D03*
X462497Y102250D03*
X455804D03*
X462497Y88801D03*
X455804D03*
X580654Y90800D03*
X580804Y96600D03*
X587346Y90800D03*
X587496Y96600D03*
G54D22*
X373043Y377156D03*
X411868Y355046D03*
G54D14*
X152389Y89512D03*
Y101332D03*
X187039Y67942D03*
X177199Y64712D03*
Y126132D03*
X188999D03*
X179159Y118182D03*
X213809Y89512D03*
X210099Y80662D03*
X213809Y101332D03*
X489124Y89512D03*
Y101332D03*
X513934Y64712D03*
Y126132D03*
X515894Y118182D03*
X523774Y67942D03*
X525734Y126132D03*
X550544Y89512D03*
X546834Y80662D03*
X550544Y101332D03*
G54D23*
X406400Y424900D03*
Y445400D03*
X421400Y424900D03*
X416400D03*
X411400D03*
Y445400D03*
X416400D03*
X421400D03*
G54D24*
X410124Y416187D03*
X413865Y407919D03*
X417605Y416187D03*
G54D15*
X158662Y316659D03*
Y324533D03*
X544650Y324844D03*
Y316970D03*
G54D16*
X175297Y150661D03*
G54D17*
X180612Y142196D03*
Y159126D03*
X199510Y142196D03*
Y159126D03*
G54D18*
X179234Y147256D03*
X185140D03*
X187108D03*
X189077D03*
X191045D03*
Y154066D03*
X189077D03*
X187108D03*
X185140D03*
X179234D03*
X193014Y147256D03*
X194982D03*
X200888D03*
Y154066D03*
X194982D03*
X193014D03*
G54D19*
X188260Y474673D03*
X195740D03*
X192000Y466327D03*
M02*
