G04 ================== begin FILE IDENTIFICATION RECORD ==================*
G04 Layout Name:  C:/CenturyPlan/scxStandard/scxStandard.brd*
G04 Film Name:    TOP*
G04 File Format:  Gerber RS274X*
G04 File Origin:  Cadence Allegro -unreleased*
G04 Origin Date:  Sat Sep 20 16:10:48 2025*
G04 *
G04 Layer:  ETCH/TOP*
G04 Layer:  PIN/TOP*
G04 Layer:  VIA CLASS/TOP*
G04 *
G04 Offset:    (0.000 0.000)*
G04 Mirror:    No*
G04 Mode:      Positive*
G04 Rotation:  0*
G04 FullContactRelief:  No*
G04 UndefLineWidth:     2.000*
G04 ================== end FILE IDENTIFICATION RECORD ====================*
%FSLAX25Y25*MOIN*%
%IR0*IPPOS*OFA0.00000B0.00000*MIA0B0*SFA1.00000B1.00000*%
%ADD43R,.077559X.021968*%
%AMMACRO28*
21,1,.011,.058,0.0,0.0,135.*%
%ADD28MACRO28*%
%AMMACRO16*
21,1,.02106,.0315,0.0,0.0,150.*%
%ADD16MACRO16*%
%AMMACRO47*
21,1,.0276,.063,0.0,0.0,135.*%
%ADD47MACRO47*%
%AMMACRO23*
21,1,.0827,.1181,0.0,0.0,45.*%
%ADD23MACRO23*%
%AMMACRO37*
21,1,.0709,.122,0.0,0.0,60.199*%
%ADD37MACRO37*%
%AMMACRO26*
21,1,.043307,.03937,0.0,0.0,135.*%
%ADD26MACRO26*%
%AMMACRO20*
21,1,.03937,.03937,0.0,0.0,135.*%
%ADD20MACRO20*%
%AMMACRO18*
21,1,.07874,.094488,0.0,0.0,135.*%
%ADD18MACRO18*%
%ADD44R,.101X.136*%
%AMMACRO13*
21,1,.02106,.0315,0.0,0.0,30.*%
%ADD13MACRO13*%
%AMMACRO29*
21,1,.011,.058,0.0,0.0,45.*%
%ADD29MACRO29*%
%ADD15R,.0315X.02106*%
%ADD42R,.047X.016*%
%ADD14C,.024*%
%AMMACRO48*
21,1,.0827,.1181,0.0,0.0,135.*%
%ADD48MACRO48*%
%AMMACRO27*
21,1,.0276,.063,0.0,0.0,45.*%
%ADD27MACRO27*%
%ADD11C,.039*%
%ADD34O,.05315X.043307*%
%ADD30C,.0709*%
%ADD31C,.0719*%
%ADD36C,.024409*%
%ADD32C,.047244*%
%ADD12R,.05118X.02756*%
%ADD10C,.03937*%
%ADD35C,.017717*%
%ADD24R,.03937X.043307*%
%AMMACRO19*
21,1,.043307,.03937,0.0,0.0,45.*%
%ADD19MACRO19*%
%ADD17R,.043307X.03937*%
%AMMACRO38*
21,1,.0315,.0709,0.0,0.0,60.199*%
%ADD38MACRO38*%
%ADD33O,.035433X.027559*%
%AMMACRO22*
21,1,.03937,.03937,0.0,0.0,45.*%
%ADD22MACRO22*%
%ADD21R,.03937X.03937*%
%ADD25R,.03937X.03937*%
%ADD40R,.07874X.07874*%
%ADD39R,.03937X.07874*%
%ADD41R,.047638X.02874*%
%ADD46R,.098425X.059055*%
%ADD45R,.071654X.045669*%
%ADD49C,.006*%
%ADD50C,.02*%
%ADD51C,.012*%
G75*
%LPD*%
G75*
G36*
G01X28950Y498950D02*
G02X28000I-475J1140D01*
G01X27823Y496823D01*
X29950Y497000D01*
G02Y497950I1140J475D01*
G03X28950Y498950I-1000J0D01*
G37*
G36*
G01X28376Y496976D02*
G02X30444Y496988I1051J-2830D01*
G01X30783Y499007D01*
X28869Y499716D01*
G02X27854Y497862I-3032J455D01*
G03X28376Y496976I1000J-8D01*
G37*
G36*
G01X32245Y503021D02*
G02X32279Y501685I-1628J-710D01*
G01X34021Y500786D01*
X34103Y502738D01*
G02X32581Y503258I-126J2118D01*
G03X32245Y503021I-42J-297D01*
G37*
G36*
G01X39817Y513112D02*
G02X37456Y510629I-4172J1602D01*
G01X40015Y509176D01*
X42574Y510629D01*
G02X40214Y513112I1812J4085D01*
G03X39817I-199J-225D01*
G37*
G36*
G01X50066Y66970D02*
G02X50240Y66020I-1053J-683D01*
G01X52364Y66038D01*
X52174Y68150D01*
G02X51050I-562J1348D01*
G03X50066Y66970I0J-1000D01*
G37*
G36*
G01X50958Y87581D02*
G02X48660Y85285I-3916J1621D01*
G01X51150Y83833D01*
X53639Y85285D01*
G02X51341Y87581I1618J3917D01*
G03X50958I-192J-231D01*
G37*
G36*
G01X47232Y64987D02*
G02X47201Y66118I1392J605D01*
G01X45456Y67015D01*
X45377Y65065D01*
G02X46940Y64759I407J-2063D01*
G03X47232Y64987I1J300D01*
G37*
G36*
G01X54515Y75230D02*
G02X55152Y74594I-446J-1082D01*
G01X56075Y75442D01*
X55152Y76291D01*
G02X54515Y75655I-1082J446D01*
G03Y75230I212J-212D01*
G37*
G36*
G01X55023Y75627D02*
G02X53709Y76820I796J2197D01*
G01X51075Y75442D01*
X53709Y74064D01*
G02X55023Y75258I2110J-1004D01*
G03Y75627I-236J185D01*
G37*
G36*
G01X54213Y95370D02*
G02X53541Y96041I471J1143D01*
G01X51913Y94662D01*
X53541Y93284D01*
G02X54213Y93955I1143J-471D01*
G03Y95370I-707J707D01*
G37*
G36*
G01X51362Y85866D02*
G02X51998Y86502I1082J-446D01*
G01X51150Y87425D01*
X50301Y86502D01*
G02X50938Y85866I-446J-1082D01*
G03X51362I212J212D01*
G37*
G36*
G01X53592Y98300D02*
G02X54669Y97548I-389J-1704D01*
G01X56318Y98604D01*
X54669Y99654D01*
G02X53574Y98678I-1743J854D01*
G03X53592Y98300I241J-178D01*
G37*
G36*
G01X39682Y493560D02*
G02X40354Y492889I-471J-1143D01*
G01X41982Y494268D01*
X40354Y495646D01*
G02X39682Y494975I-1143J471D01*
G03Y493560I707J-707D01*
G37*
G36*
G01X58800Y491885D02*
G02X60059Y492310I1153J-1338D01*
G01X59972Y494266D01*
X58235Y493363D01*
G02X58498Y492060I-1474J-975D01*
G03X58800Y491885I273J124D01*
G37*
G36*
G01X42200Y487100D02*
G02Y488000I1080J450D01*
G01X40947Y488053D01*
X41000Y486800D01*
G02X41900I450J-1080D01*
G03X42200Y487100I0J300D01*
G37*
G36*
G01X55165Y501066D02*
G02X54243Y501417I-40J1282D01*
G01X53426Y500486D01*
X54348Y499652D01*
G02X55270Y500573I1567J-645D01*
G03X55165Y501066I-212J212D01*
G37*
G36*
G01X42730Y500573D02*
G02X43652Y499652I-645J-1567D01*
G01X44574Y500486D01*
X43757Y501417D01*
G02X42835Y501066I-882J931D01*
G03X42730Y500573I107J-280D01*
G37*
G36*
G01X43889Y500970D02*
G02X42574Y502164I796J2197D01*
G01X39940Y500786D01*
X42574Y499408D01*
G02X43889Y500601I2110J-1004D01*
G03Y500970I-236J185D01*
G37*
G36*
G01X53858Y500601D02*
G02X55172Y499408I-796J-2197D01*
G01X57806Y500786D01*
X55172Y502164D01*
G02X53858Y500970I-2110J1004D01*
G03Y500601I236J-185D01*
G37*
G36*
G01X42556Y520713D02*
G02X41884Y521384I471J1143D01*
G01X40256Y520006D01*
X41884Y518627D01*
G02X42556Y519298I1143J-471D01*
G03Y520713I-707J707D01*
G37*
G36*
G01X40228Y511500D02*
G02X40864Y512136I1082J-446D01*
G01X40015Y513060D01*
X39167Y512136D01*
G02X39803Y511500I-446J-1082D01*
G03X40228I212J212D01*
G37*
G36*
G01X57545Y512467D02*
G02X55704Y510629I-3141J1305D01*
G01X57731Y509176D01*
X59758Y510629D01*
G02X57918Y512467I1300J3143D01*
G03X57545I-186J-235D01*
G37*
G36*
G01X42538Y523769D02*
G02X43534Y522891I-584J-1668D01*
G01X45184Y523944D01*
X43534Y524997D01*
G02X42538Y524118I-1581J789D01*
G03Y523769I244J-175D01*
G37*
G36*
G01X55279Y520180D02*
G02X54282Y521059I584J1668D01*
G01X52632Y520006D01*
X54282Y518953D01*
G02X55279Y519831I1581J-789D01*
G03Y520180I-244J175D01*
G37*
G36*
G01X53414Y525242D02*
G02X54086Y525914I1142J-470D01*
G01X52707Y527543D01*
X51329Y525914D01*
G02X52000Y525242I-471J-1143D01*
G03X53414Y525242I707J707D01*
G37*
G36*
G01X52364Y526511D02*
G02X51132Y524997I-2732J965D01*
G01X52707Y523694D01*
X54282Y524997D01*
G02X53050Y526511I1500J2479D01*
G03X52364I-343J-939D01*
G37*
G36*
G01X75575Y75817D02*
G02X77379Y77621I3067J-1263D01*
G01X76104Y79227D01*
X74868Y77868D01*
Y76524D01*
X75575Y75817D01*
G37*
G36*
G01X77754Y65098D02*
X79098D01*
X80232Y66093D01*
X78621Y67379D01*
G02X77047Y65805I-2675J1102D01*
G01X77754Y65098D01*
G37*
G36*
G01X76649Y65451D02*
G02X76178Y67726I2789J1764D01*
G01X74302Y67065D01*
X74603Y64998D01*
G02X76219Y64848I579J-2536D01*
G03X76649Y65451I-541J841D01*
G37*
G36*
G01X68674Y87596D02*
G02X66361Y85285I-3941J1631D01*
G01X68866Y83833D01*
X71370Y85285D01*
G02X69057Y87596I1628J3942D01*
G03X68674I-192J-231D01*
G37*
G36*
G01X64992Y83723D02*
G02X66307Y82530I-796J-2197D01*
G01X68941Y83908D01*
X66307Y85286D01*
G02X64992Y84092I-2110J1004D01*
G03Y83723I236J-185D01*
G37*
G36*
G01X65485Y76212D02*
G02X64848Y76849I446J1082D01*
G01X63925Y76000D01*
X64848Y75152D01*
G02X65485Y75788I1082J-446D01*
G03Y76212I-212J212D01*
G37*
G36*
G01X64212Y74515D02*
G02X64848Y75152I1082J-446D01*
G01X64000Y76075D01*
X63152Y75152D01*
G02X63788Y74515I-446J-1082D01*
G03X64212I212J212D01*
G37*
G36*
G01X63788Y66855D02*
G02X62957Y66024I-1412J581D01*
G01X63795Y65101D01*
X64707Y65952D01*
G02X64265Y66783I777J946D01*
G03X63788Y66855I-265J-141D01*
G37*
G36*
G01X64442Y75806D02*
G02X66307Y74064I-1173J-3124D01*
G01X68940Y75433D01*
X66307Y76820D01*
G02X64537Y76268I-1557J1876D01*
G03X64442Y75806I134J-268D01*
G37*
G36*
G01X79744Y75516D02*
G02X78153Y75359I-987J1865D01*
G01X78230Y73411D01*
X79977Y74306D01*
G02X80006Y75300I1265J461D01*
G03X79744Y75516I-289J-82D01*
G37*
G36*
G01X64549Y100291D02*
G02X65220Y100963I1142J-470D01*
G01X63842Y102592D01*
X62463Y100963D01*
G02X63135Y100291I-471J-1143D01*
G03X64549Y100291I707J707D01*
G37*
G36*
G01X63499Y101168D02*
G02X62267Y99654I-2732J965D01*
G01X63842Y98350D01*
X65417Y99654D01*
G02X64184Y101168I1500J2479D01*
G03X63499I-343J-939D01*
G37*
G36*
G01X69078Y85881D02*
G02X69714Y86517I1082J-446D01*
G01X68866Y87441D01*
X68017Y86517D01*
G02X68654Y85881I-446J-1082D01*
G03X69078I212J212D01*
G37*
G36*
G01X66414Y94837D02*
G02X65417Y95716I584J1668D01*
G01X63767Y94662D01*
X65417Y93610D01*
G02X66414Y94488I1581J-789D01*
G03Y94837I-244J174D01*
G37*
G36*
G01X76990Y349222D02*
G02X76346Y349851I433J1087D01*
G01X75425Y349000D01*
X76349Y348152D01*
G02X76992Y348795I1094J-450D01*
G03X76990Y349222I-212J212D01*
G37*
G36*
G01X83049Y421789D02*
G02X85019Y423882I3510J-1330D01*
G01X82854Y425925D01*
X80688Y423882D01*
G02X82658Y421789I-1540J-3423D01*
G03X83049I196J227D01*
G37*
G36*
G01X82658Y429911D02*
G02X80688Y427819I-3510J1330D01*
G01X82854Y425775D01*
X85019Y427819D01*
G02X83049Y429911I1540J3423D01*
G03X82658I-196J-227D01*
G37*
G36*
G01X64218Y491524D02*
G02X66121Y489621I-1332J-3235D01*
G01X67726Y490892D01*
X66268Y492232D01*
X64925D01*
X64218Y491524D01*
G37*
G36*
G01X68908Y500851D02*
G02X67019Y500702I-1125J2221D01*
G01X67090Y498759D01*
X68843Y499649D01*
G02X69184Y500538I1294J14D01*
G03X68908Y500851I-300J14D01*
G37*
G36*
G01X64440Y503683D02*
G02X65379Y504621I1595J-657D01*
G01X64041Y506247D01*
X62410Y504932D01*
G02X62815Y503993I-923J-955D01*
G03X64440Y503683I918J396D01*
G37*
G36*
G01X100212Y87015D02*
G02X100849Y87652I1082J-446D01*
G01X100000Y88575D01*
X99152Y87652D01*
G02X99788Y87015I-446J-1082D01*
G03X100212I212J212D01*
G37*
G36*
G01X97212Y89515D02*
G02X97848Y90152I1082J-446D01*
G01X97000Y91075D01*
X96152Y90152D01*
G02X96788Y89515I-446J-1082D01*
G03X97212I212J212D01*
G37*
G36*
G01X88937Y171806D02*
G02X89609Y171134I-471J-1143D01*
G01X91237Y172513D01*
X89609Y173891D01*
G02X88937Y173220I-1143J471D01*
G03Y171806I707J-707D01*
G37*
G36*
G01X82047Y169222D02*
G02X82891Y169200I393J-1095D01*
G01X83258Y170597D01*
X81505Y171381D01*
G02X81878Y169401I-2216J-1442D01*
G03X82047Y169222I283J99D01*
G37*
G36*
G01X91984Y178818D02*
G02X92621Y178182I-446J-1082D01*
G01X93544Y179031D01*
X92621Y179879D01*
G02X91984Y179243I-1082J446D01*
G03Y178818I212J-212D01*
G37*
G36*
G01X103516Y179243D02*
G02X102879Y179879I446J1082D01*
G01X101956Y179031D01*
X102879Y178182D01*
G02X103516Y178818I1082J-446D01*
G03Y179243I-212J212D01*
G37*
G36*
G01X92726Y179215D02*
G02X91412Y180409I796J2197D01*
G01X88778Y179031D01*
X91412Y177653D01*
G02X92726Y178846I2110J-1004D01*
G03Y179215I-236J185D01*
G37*
G36*
G01X102695Y178846D02*
G02X104010Y177653I-796J-2197D01*
G01X106644Y179031D01*
X104010Y180409D01*
G02X102695Y179215I-2110J1004D01*
G03Y178846I236J-185D01*
G37*
G36*
G01X88668Y190590D02*
G02X86949Y188874I-2934J1220D01*
G01X88853Y187421D01*
X90756Y188874D01*
G02X89037Y190590I1215J2936D01*
G03X88668I-184J-237D01*
G37*
G36*
G01X102695Y187311D02*
G02X104010Y186118I-796J-2197D01*
G01X106644Y187496D01*
X104010Y188874D01*
G02X102695Y187680I-2110J1004D01*
G03Y187311I236J-185D01*
G37*
G36*
G01X84497Y181019D02*
G02X82940Y180983I-822J1887D01*
G01X82763Y179040D01*
X84515Y178255D01*
G02X84746Y180732I3109J959D01*
G03X84497Y181019I-300J-8D01*
G37*
G36*
G01X90510Y199160D02*
G02X89587Y199581I44J1318D01*
G01X88253Y197961D01*
X89879Y196621D01*
G02X90801Y197544I1568J-645D01*
G03X90510Y199160I-707J707D01*
G37*
G36*
G01X102252Y203905D02*
G02X102923Y204576I1142J-470D01*
G01X101545Y206205D01*
X100166Y204577D01*
G02X100838Y203905I-471J-1143D01*
G03X102252Y203905I707J707D01*
G37*
G36*
G01X101202Y204756D02*
G02X99970Y203242I-2732J965D01*
G01X101545Y201939D01*
X103120Y203242D01*
G02X101888Y204756I1500J2479D01*
G03X101202I-343J-939D01*
G37*
G36*
G01X104116Y198425D02*
G02X103120Y199304I584J1668D01*
G01X101470Y198251D01*
X103120Y197198D01*
G02X104116Y198076I1581J-789D01*
G03Y198425I-244J175D01*
G37*
G36*
G01X91227Y201779D02*
G02X92372Y201136I-221J-1732D01*
G01X94021Y202194D01*
X92372Y203242D01*
G02X91191Y202181I-1886J913D01*
G03X91227Y201779I239J-181D01*
G37*
G36*
G01X83485Y298212D02*
G02X82848Y298848I446J1082D01*
G01X81925Y298000D01*
X82848Y297152D01*
G02X83485Y297788I1082J-446D01*
G03Y298212I-212J212D01*
G37*
G36*
G01X87309Y302798D02*
G02X86172Y302934I-405J1432D01*
G01X85428Y301980D01*
X86348Y301152D01*
G02X87485Y302288I1932J-796D01*
G03X87309Y302798I-212J212D01*
G37*
G36*
G01X86985Y305712D02*
G02X86348Y306348I446J1082D01*
G01X85425Y305500D01*
X86348Y304652D01*
G02X86985Y305288I1082J-446D01*
G03Y305712I-212J212D01*
G37*
G36*
G01X90200Y308100D02*
G02Y309000I1080J450D01*
G01X88947Y309053D01*
X89000Y307800D01*
G02X89900I450J-1080D01*
G03X90200Y308100I0J300D01*
G37*
G36*
G01X101800Y353100D02*
G02Y352500I-720J-300D01*
G01X103106Y352394D01*
X103000Y353700D01*
G02X102400I-300J720D01*
G03X101800Y353100I0J-600D01*
G37*
G36*
G01X98200Y357900D02*
G02Y358500I720J300D01*
G01X96894Y358606D01*
X97000Y357300D01*
G02X97600I300J-720D01*
G03X98200Y357900I0J600D01*
G37*
G36*
G01X85450Y370950D02*
G02X84500I-475J1140D01*
G01X84323Y368823D01*
X86450Y369000D01*
G02Y369950I1140J475D01*
G03X85450Y370950I-1000J0D01*
G37*
G36*
G01X104036Y366971D02*
G02X104037Y370062I3727J1544D01*
G01X99519Y371218D01*
X100675Y366700D01*
G02X103766Y366701I1547J-3726D01*
G03X104036Y366971I-29J299D01*
G37*
G36*
G01X91343Y348795D02*
G02X91980Y348159I-446J-1082D01*
G01X92903Y349007D01*
X91980Y349856D01*
G02X91343Y349220I-1082J446D01*
G03Y348795I212J-212D01*
G37*
G36*
G01X99862Y375884D02*
G02X99776Y378756I3422J1541D01*
G01X96799Y378670D01*
X96713Y375694D01*
G02X99586Y375607I1331J-3509D01*
G03X99862Y375884I-22J299D01*
G37*
G36*
G01X97088Y378106D02*
G02X97087Y374247I-4645J-1928D01*
G01X99595Y371093D01*
X99820Y376618D01*
G02X97542Y378340I938J3610D01*
G03X97088Y378106I-155J-257D01*
G37*
G36*
G01X100400Y387200D02*
G02X99500I-450J1080D01*
G01X99447Y385947D01*
X100700Y386000D01*
G02Y386900I1080J450D01*
G03X100400Y387200I-300J0D01*
G37*
G36*
G01X102521Y385079D02*
G02X101621I-450J1080D01*
G01X101568Y383826D01*
X102821Y383879D01*
G02Y384779I1080J450D01*
G03X102521Y385079I-300J0D01*
G37*
G36*
G01X97581Y428575D02*
G02X98253Y429247I1142J-470D01*
G01X96874Y430876D01*
X95495Y429247D01*
G02X96167Y428575I-471J-1143D01*
G03X97581Y428575I707J707D01*
G37*
G36*
G01X93578Y426291D02*
G02X91712Y427819I1081J3224D01*
G01X89296Y425850D01*
X91712Y423882D01*
G02X93578Y425409I2947J-1697D01*
G03Y426291I-897J441D01*
G37*
G36*
G01X83066Y429369D02*
G02X83702Y430005I1082J-446D01*
G01X82854Y430928D01*
X82005Y430005D01*
G02X82641Y429369I-446J-1082D01*
G03X83066I212J212D01*
G37*
G36*
G01X84485Y476212D02*
G02X83848Y476848I446J1082D01*
G01X82925Y476000D01*
X83848Y475152D01*
G02X84485Y475788I1082J-446D01*
G03Y476212I-212J212D01*
G37*
G36*
G01X105130Y561287D02*
G02X104459Y561958I471J1143D01*
G01X102830Y560580D01*
X104459Y559201D01*
G02X105130Y559873I1143J-471D01*
G03Y561287I-707J707D01*
G37*
G36*
G01X124349Y59376D02*
G02X124262Y61973I3093J1403D01*
G01X121426Y62026D01*
X121478Y59189D01*
G02X124075Y59102I1193J-3180D01*
G03X124349Y59376I-25J299D01*
G37*
G36*
G01X127497Y68615D02*
G02X125098Y68376I-1515J3045D01*
G01X124921Y65415D01*
X127882Y65592D01*
G02X128121Y67991I3284J884D01*
G03X127497Y68615I-947J-322D01*
G37*
G36*
G01X113450Y66450D02*
G02X112500I-475J1140D01*
G01X112323Y64323D01*
X114450Y64500D01*
G02Y65450I1140J475D01*
G03X113450Y66450I-1000J0D01*
G37*
G36*
G01X113251Y64592D02*
G02X115827Y64840I1611J-3228D01*
G01X116012Y67793D01*
X113043Y67624D01*
G02X112576Y65312I-3297J-537D01*
G03X113251Y64592I972J236D01*
G37*
G36*
G01X116576Y73840D02*
G02X116662Y71243I-3093J-1403D01*
G01X119499Y71190D01*
X119446Y74027D01*
G02X116850Y74114I-1193J3180D01*
G03X116576Y73840I25J-299D01*
G37*
G36*
G01X116311Y94569D02*
G02X115639Y93897I-1142J470D01*
G01X117018Y92268D01*
X118397Y93897D01*
G02X117725Y94569I471J1143D01*
G03X116311Y94569I-707J-707D01*
G37*
G36*
G01X117460Y93209D02*
G02X118987Y95075I3224J-1081D01*
G01X117018Y97293D01*
X115050Y95075D01*
G02X116577Y93209I-1697J-2947D01*
G03X117460I441J897D01*
G37*
G36*
G01X109086Y105742D02*
G02X108414Y106414I471J1143D01*
G01X106785Y105035D01*
X108414Y103657D01*
G02X109086Y104328I1143J-471D01*
G03Y105742I-707J707D01*
G37*
G36*
G01X108066Y104594D02*
G02X109931Y103067I-1081J-3224D01*
G01X112150Y105035D01*
X109931Y107004D01*
G02X108066Y105477I-2947J1697D01*
G03Y104594I897J-441D01*
G37*
G36*
G01X112094Y93177D02*
G02X113868Y95075I3180J-1195D01*
G01X111900Y97118D01*
X109931Y95075D01*
G02X111706Y93177I-1405J-3093D01*
G03X112094I194J229D01*
G37*
G36*
G01X116824Y108901D02*
G02X115050Y107004I-3180J1195D01*
G01X117018Y104960D01*
X118987Y107004D01*
G02X117212Y108901I1405J3093D01*
G03X116824I-194J-229D01*
G37*
G36*
G01X121950Y127450D02*
G02X121000I-475J1140D01*
G01X120823Y125323D01*
X122950Y125500D01*
G02Y126450I1140J475D01*
G03X121950Y127450I-1000J0D01*
G37*
G36*
G01X122509Y126322D02*
G02X124860Y126691I1664J-2925D01*
G01X125032Y129656D01*
X122076Y129475D01*
G02X121832Y126976I-3390J-929D01*
G03X122509Y126322I952J307D01*
G37*
G36*
G01X125912Y109365D02*
G02X126698Y110152I1337J-551D01*
G01X125858Y111075D01*
X124959Y110206D01*
G02X125445Y109419I-701J-977D01*
G03X125912Y109365I255J158D01*
G37*
G36*
G01X123450Y142050D02*
X122500Y143000D01*
X121034Y143100D01*
X121264Y141050D01*
G02X123450I1093J-2624D01*
G01Y142050D01*
G37*
G36*
G01X123714Y141086D02*
G02X124109Y138745I-2899J-1693D01*
G01X127075Y138574D01*
X126893Y141529D01*
G02X124374Y141775I-939J3412D01*
G03X123714Y141086I304J-953D01*
G37*
G36*
G01X118499Y130223D02*
G02X121241Y130310I1476J-3267D01*
G01X121296Y133146D01*
X118457Y133094D01*
G02X118222Y130515I-3233J-1006D01*
G03X118499Y130223I300J8D01*
G37*
G36*
G01X114050Y169450D02*
G02Y168500I-1140J-475D01*
G01X116177Y168323D01*
X116000Y170450D01*
G02X115050I-475J1140D01*
G03X114050Y169450I0J-1000D01*
G37*
G36*
G01X116985Y161712D02*
G02X116348Y162348I446J1082D01*
G01X115425Y161500D01*
X116348Y160652D01*
G02X116985Y161288I1082J-446D01*
G03Y161712I-212J212D01*
G37*
G36*
G01X113278Y181520D02*
G02X113949Y182192I1142J-470D01*
G01X112571Y183821D01*
X111192Y182192D01*
G02X111864Y181520I-471J-1143D01*
G03X113278Y181520I707J707D01*
G37*
G36*
G01X106383Y190667D02*
G02X104586Y188874I-3066J1274D01*
G01X106569Y187421D01*
X108551Y188874D01*
G02X106754Y190667I1269J3068D01*
G03X106383I-185J-236D01*
G37*
G36*
G01X116838Y179934D02*
G02X115856Y178947I-1703J713D01*
G01X115953Y176987D01*
X117680Y177894D01*
G02X117280Y179788I2100J1432D01*
G03X116838Y179934I-280J-107D01*
G37*
G36*
G01X106450Y345450D02*
G02X105000I-725J1740D01*
G01X104791Y343363D01*
X106835Y343034D01*
G02X107335Y343984I1391J-125D01*
G03X106450Y345450I-885J466D01*
G37*
G36*
G01X105900Y338700D02*
G02X105000I-450J1080D01*
G01X104947Y337447D01*
X106200Y337500D01*
G02Y338400I1080J450D01*
G03X105900Y338700I-300J0D01*
G37*
G36*
G01X111420Y348234D02*
G02X113288Y349654I2818J-1768D01*
G01X113565Y352786D01*
X110505Y352438D01*
G02X110235Y348998I-4448J-1382D01*
G03X111420Y348234I977J214D01*
G37*
G36*
G01X115150Y360043D02*
G02X115237Y357170I-3422J-1541D01*
G01X118213Y357256D01*
X118300Y360232D01*
G02X115427Y360320I-1331J3509D01*
G03X115150Y360043I22J-299D01*
G37*
G36*
G01X117883Y357999D02*
G02X116161Y360277I1888J3216D01*
G01X110636Y360052D01*
X113790Y357544D01*
G02X117649Y357545I1931J-4644D01*
G03X117883Y357999I-23J299D01*
G37*
G36*
G01X106698Y364566D02*
G02X106697Y361586I-3595J-1488D01*
G01X110756Y359971D01*
X109683Y364496D01*
G02X107001Y364835I-932J3408D01*
G03X106698Y364566I-4J-300D01*
G37*
G36*
G01X117288Y367985D02*
G02X116652Y367349I-1082J446D01*
G01X117500Y366425D01*
X118348Y367349D01*
G02X117712Y367985I446J1082D01*
G03X117288I-212J-212D01*
G37*
G36*
G01X115754Y371162D02*
G02X114854Y370662I-1050J830D01*
G01X114959Y369437D01*
X116200Y369500D01*
G02Y370900I1680J700D01*
G03X115754Y371162I-300J0D01*
G37*
G36*
G01X122788Y367485D02*
G02X122152Y366848I-1082J446D01*
G01X123000Y365925D01*
X123848Y366848D01*
G02X123212Y367485I446J1082D01*
G03X122788I-212J-212D01*
G37*
G36*
G01X107229Y391604D02*
G02X106805Y391180I-721J297D01*
G01X107654Y390182D01*
X108502Y391180D01*
G02X108078Y391604I297J721D01*
G03X107229I-424J-424D01*
G37*
G36*
G01X104643Y382957D02*
G02X103743I-450J1080D01*
G01X103690Y381704D01*
X104943Y381757D01*
G02X104943Y382657I1080J450D01*
G03X104643Y382957I-300J0D01*
G37*
G36*
G01X122900Y374700D02*
G02X122000I-450J1080D01*
G01X121947Y373447D01*
X123200Y373500D01*
G02Y374400I1080J450D01*
G03X122900Y374700I-300J0D01*
G37*
G36*
G01X121100Y372300D02*
G02X122000I450J-1080D01*
G01X122053Y373553D01*
X120800Y373500D01*
G02Y372600I-1080J-450D01*
G03X121100Y372300I300J0D01*
G37*
G36*
G01X119985Y378712D02*
G02X119348Y379348I446J1082D01*
G01X118425Y378500D01*
X119348Y377652D01*
G02X119985Y378288I1082J-446D01*
G03Y378712I-212J212D01*
G37*
G36*
G01X113422Y408926D02*
G02X112998Y408502I-721J297D01*
G01X113846Y407504D01*
X114695Y408502D01*
G02X114271Y408926I297J721D01*
G03X113422I-424J-424D01*
G37*
G36*
G01X118520Y395505D02*
G02X116468Y397319I1205J3431D01*
G01X114350Y395154D01*
X116468Y392988D01*
G02X118520Y394802I3257J-1617D01*
G03Y395505I-486J351D01*
G37*
G36*
G01X110480Y394802D02*
G02X112532Y392988I-1205J-3431D01*
G01X114650Y395154D01*
X112532Y397319D01*
G02X110480Y395505I-3257J1617D01*
G03Y394802I486J-352D01*
G37*
G36*
G01X114198Y407980D02*
G02X116012Y410031I3431J-1205D01*
G01X113846Y412150D01*
X111681Y410031D01*
G02X113495Y407980I-1617J-3257D01*
G03X114198I351J486D01*
G37*
G36*
G01X117873Y412342D02*
G02X116012Y413968I1080J3115D01*
G01X113696Y412000D01*
X116012Y410031D01*
G02X117873Y411658I2942J-1489D01*
G03Y412342I-493J343D01*
G37*
G36*
G01X107860Y405603D02*
G02X108532Y406274I1142J-470D01*
G01X107154Y407904D01*
X105775Y406275D01*
G02X106446Y405603I-471J-1143D01*
G03X107860Y405603I707J707D01*
G37*
G36*
G01X106446Y409704D02*
G02X105775Y409032I-1142J470D01*
G01X107154Y407404D01*
X108532Y409032D01*
G02X107861Y409704I471J1143D01*
G03X106446Y409704I-707J-707D01*
G37*
G36*
G01X118520Y402198D02*
G02X116468Y404012I1205J3431D01*
G01X114350Y401846D01*
X116468Y399681D01*
G02X118520Y401495I3257J-1617D01*
G03Y402198I-486J352D01*
G37*
G36*
G01X110486Y401373D02*
G02X112532Y399681I-1168J-3496D01*
G01X114750Y401846D01*
X112532Y404012D01*
G02X110486Y402320I-3214J1805D01*
G03Y401373I881J-474D01*
G37*
G36*
G01X107627Y407986D02*
G02X109319Y410031I3496J-1168D01*
G01X107154Y412250D01*
X104988Y410031D01*
G02X106680Y407986I-1805J-3214D01*
G03X107627I474J881D01*
G37*
G36*
G01X106019Y416358D02*
G02X104988Y413968I-3463J76D01*
G01X107178Y411852D01*
X109319Y413968D01*
G02X106851Y416487I1832J4264D01*
G03X106019Y416358I-351J-487D01*
G37*
G36*
G01X120515Y424288D02*
G02X121152Y423652I-446J-1082D01*
G01X122075Y424500D01*
X121152Y425348D01*
G02X120515Y424712I-1082J446D01*
G03Y424288I212J-212D01*
G37*
G36*
G01X123805Y498548D02*
G02X124477Y499219I1142J-470D01*
G01X123098Y500848D01*
X121720Y499219D01*
G02X122391Y498548I-471J-1143D01*
G03X123805Y498548I707J707D01*
G37*
G36*
G01X122657Y498277D02*
G02X121130Y496411I-3224J1081D01*
G01X123098Y494193D01*
X125067Y496411D01*
G02X123540Y498277I1697J2947D01*
G03X122657I-441J-897D01*
G37*
G36*
G01X114399Y485657D02*
G02X113727Y484985I-1142J470D01*
G01X115106Y483356D01*
X116485Y484985D01*
G02X115813Y485657I471J1143D01*
G03X114399Y485657I-707J-707D01*
G37*
G36*
G01X115547Y485490D02*
G02X117074Y487356I3224J-1081D01*
G01X115106Y489575D01*
X113138Y487356D01*
G02X114665Y485490I-1697J-2947D01*
G03X115547I441J897D01*
G37*
G36*
G01X111240Y494249D02*
G02X113138Y492474I-1195J-3180D01*
G01X115181Y494443D01*
X113138Y496411D01*
G02X111240Y494637I-3093J1405D01*
G03Y494249I229J-194D01*
G37*
G36*
G01X123292Y485459D02*
G02X125067Y487356I3180J-1195D01*
G01X123098Y489400D01*
X121130Y487356D01*
G02X122904Y485459I-1405J-3093D01*
G03X123292I194J229D01*
G37*
G36*
G01X116050Y553450D02*
G02Y552500I-1140J-475D01*
G01X118177Y552323D01*
X118000Y554450D01*
G02X117050I-475J1140D01*
G03X116050Y553450I0J-1000D01*
G37*
G36*
G01X108803Y553782D02*
G02X111012Y552109I-915J-3503D01*
G01X111211Y554000D01*
X109436Y554837D01*
G02X108742Y554136I-1231J525D01*
G03X108803Y553782I267J-136D01*
G37*
G36*
G01X124788Y560283D02*
G02X124002Y559498I-1335J549D01*
G01X124843Y558575D01*
X125742Y559444D01*
G02X125255Y560229I698J977D01*
G03X124788Y560283I-255J-158D01*
G37*
G36*
G01X120657Y562672D02*
G02X119343Y563865I796J2197D01*
G01X116709Y562487D01*
X119343Y561109D01*
G02X120657Y562302I2110J-1004D01*
G03Y562672I-236J185D01*
G37*
G36*
G01X109013Y564751D02*
G02X109047Y563386I-1663J-725D01*
G01X110789Y562486D01*
X110871Y564439D01*
G02X109355Y564989I-87J2127D01*
G03X109013Y564751I-48J-296D01*
G37*
G36*
G01X119844Y582414D02*
G02X119172Y583086I471J1143D01*
G01X117543Y581707D01*
X119172Y580328D01*
G02X119844Y581000I1143J-471D01*
G03Y582414I-707J707D01*
G37*
G36*
G01X116996Y572799D02*
G02X117848Y573652I1449J-597D01*
G01X117011Y574574D01*
X116095Y573731D01*
G02X116515Y572878I-813J-930D01*
G03X116996Y572799I269J133D01*
G37*
G36*
G01X116593Y574516D02*
G02X114406Y572330I-3729J1545D01*
G01X116784Y570877D01*
X119162Y572330D01*
G02X116974Y574516I1541J3731D01*
G03X116593I-190J-232D01*
G37*
G36*
G01X119306Y585470D02*
G02X120303Y584592I-584J-1668D01*
G01X121953Y585645D01*
X120303Y586698D01*
G02X119306Y585819I-1581J789D01*
G03Y585470I244J-174D01*
G37*
G36*
G01X127803Y67297D02*
G02X128753I475J-1140D01*
G01X128930Y69424D01*
X126803Y69247D01*
G02Y68297I-1140J-475D01*
G03X127803Y67297I1000J0D01*
G37*
G36*
G01X131485Y108212D02*
G02X130848Y108848I446J1082D01*
G01X129925Y108000D01*
X130848Y107152D01*
G02X131485Y107788I1082J-446D01*
G03Y108212I-212J212D01*
G37*
G36*
G01X137300Y120700D02*
G02X136400I-450J1080D01*
G01X136347Y119447D01*
X137600Y119500D01*
G02Y120400I1080J450D01*
G03X137300Y120700I-300J0D01*
G37*
G36*
G01X147950Y150450D02*
G02X147000I-475J1140D01*
G01X146823Y148323D01*
X148950Y148500D01*
G02Y149450I1140J475D01*
G03X147950Y150450I-1000J0D01*
G37*
G36*
G01X133222Y137997D02*
G02X130512Y137910I-1460J3228D01*
G01X130457Y135074D01*
X133296Y135126D01*
G02X133498Y137709I3222J1047D01*
G03X133222Y137997I-300J-11D01*
G37*
G36*
G01X144629Y153058D02*
G02X147225Y153145I1403J-3093D01*
G01X147278Y155982D01*
X144442Y155929D01*
G02X144355Y153332I-3180J-1193D01*
G03X144629Y153058I299J25D01*
G37*
G36*
G01X146826Y217233D02*
G02X146913Y214636I-3093J-1403D01*
G01X149889Y214444D01*
X149697Y217420D01*
G02X147100Y217507I-1193J3180D01*
G03X146826Y217233I25J-299D01*
G37*
G36*
G01X144114Y226115D02*
G02X144028Y227891I2119J992D01*
G01X140772Y229196D01*
X142077Y225940D01*
G02X143852Y225854I784J-2204D01*
G03X144114Y226115I-36J298D01*
G37*
G36*
G01X147668Y229607D02*
G02X147507Y231370I2066J1078D01*
G01X144251Y232674D01*
X145556Y229418D01*
G02X147404Y229333I820J-2291D01*
G03X147668Y229607I-35J298D01*
G37*
G36*
G01X141014Y236214D02*
G02X141101Y233873I-2789J-1275D01*
G01X144352Y232564D01*
X143053Y235825D01*
G02X141374Y236480I-41J2371D01*
G03X141014Y236214I-61J-294D01*
G37*
G36*
G01X135027Y304300D02*
G02X136000I486J-1167D01*
G01X136055Y305551D01*
X134801Y305524D01*
G02X134728Y304624I-1117J-362D01*
G03X135027Y304300I299J-24D01*
G37*
G36*
G01X139015Y308288D02*
G02X139652Y307652I-446J-1082D01*
G01X140575Y308500D01*
X139652Y309348D01*
G02X139015Y308712I-1082J446D01*
G03Y308288I212J-212D01*
G37*
G36*
G01X130649Y315000D02*
X129376D01*
X128610Y314279D01*
X129529Y313455D01*
G02X130861Y314788I2265J-933D01*
G01X130649Y315000D01*
G37*
G36*
G01X145422Y342426D02*
G02X144998Y342002I-721J297D01*
G01X145846Y341003D01*
X146695Y342002D01*
G02X146271Y342426I297J721D01*
G03X145422I-424J-424D01*
G37*
G36*
G01X146198Y341980D02*
G02X148012Y344032I3431J-1205D01*
G01X145846Y346150D01*
X143681Y344032D01*
G02X145495Y341980I-1617J-3257D01*
G03X146198I351J486D01*
G37*
G36*
G01X145536Y349778D02*
G02X143702Y347968I-3150J1358D01*
G01X145846Y345850D01*
X147991Y347968D01*
G02X146157Y349778I1316J3168D01*
G03X145536I-310J-513D01*
G37*
G36*
G01X138446Y343704D02*
G02X137775Y343032I-1142J470D01*
G01X139154Y341403D01*
X140532Y343032D01*
G02X139861Y343704I471J1143D01*
G03X138446Y343704I-707J-707D01*
G37*
G36*
G01X139627Y341986D02*
G02X141319Y344032I3496J-1168D01*
G01X139154Y346250D01*
X136988Y344032D01*
G02X138680Y341986I-1805J-3214D01*
G03X139627I474J881D01*
G37*
G36*
G01X138984Y350337D02*
G02X136988Y347968I-4001J1347D01*
G01X139129Y345751D01*
X141319Y347968D01*
G02X140139Y350249I2382J2677D01*
G03X138984Y350337I-639J-769D01*
G37*
G36*
G01X130288Y359485D02*
G02X129652Y358849I-1082J446D01*
G01X130500Y357925D01*
X131348Y358849D01*
G02X130712Y359485I446J1082D01*
G03X130288I-212J-212D01*
G37*
G36*
G01X129015Y357788D02*
G02X129652Y357152I-446J-1082D01*
G01X130575Y358000D01*
X129652Y358849D01*
G02X129015Y358212I-1082J446D01*
G03Y357788I212J-212D01*
G37*
G36*
G01X133800Y353900D02*
G02Y353000I-1080J-450D01*
G01X135053Y352947D01*
X135000Y354200D01*
G02X134100I-450J1080D01*
G03X133800Y353900I0J-300D01*
G37*
G36*
G01X126788Y366985D02*
G02X126152Y366348I-1082J446D01*
G01X127000Y365425D01*
X127848Y366348D01*
G02X127212Y366985I446J1082D01*
G03X126788I-212J-212D01*
G37*
G36*
G01X144856Y386663D02*
G02X145528Y386732I428J-865D01*
G01X147242Y389224D01*
X144750Y387510D01*
G02X144681Y386839I-933J-243D01*
G03X144856Y386663I281J105D01*
G37*
G36*
G01X140684Y390835D02*
G02X141356Y390904I428J-865D01*
G01X143070Y393396D01*
X140578Y391682D01*
G02X140509Y391010I-933J-243D01*
G03X140684Y390835I281J105D01*
G37*
G36*
G01X142099Y389421D02*
G02X142770Y389490I428J-865D01*
G01X144485Y391982D01*
X141992Y390267D01*
G02X141923Y389596I-933J-243D01*
G03X142099Y389421I281J105D01*
G37*
G36*
G01X146271Y385249D02*
G02X146942Y385318I428J-865D01*
G01X148656Y387810D01*
X146164Y386095D01*
G02X146095Y385424I-933J-243D01*
G03X146271Y385249I281J105D01*
G37*
G36*
G01X143442Y388077D02*
G02X144113Y388146I428J-865D01*
G01X145828Y390638D01*
X143336Y388924D01*
G02X143267Y388253I-933J-243D01*
G03X143442Y388077I281J105D01*
G37*
G36*
G01X136513Y395007D02*
G02X137184Y395076I428J-865D01*
G01X138898Y397568D01*
X136406Y395854D01*
G02X136337Y395182I-933J-243D01*
G03X136513Y395007I281J105D01*
G37*
G36*
G01X135098Y396421D02*
G02X135769Y396490I428J-865D01*
G01X137484Y398982D01*
X134992Y397268D01*
G02X134923Y396597I-933J-243D01*
G03X135098Y396421I281J105D01*
G37*
G36*
G01X130927Y400593D02*
G02X131598Y400662I428J-865D01*
G01X133312Y403154D01*
X130820Y401440D01*
G02X130751Y400769I-933J-243D01*
G03X130927Y400593I281J105D01*
G37*
G36*
G01X132341Y399179D02*
G02X133012Y399248I428J-865D01*
G01X134726Y401740D01*
X132234Y400025D01*
G02X132165Y399354I-932J-243D01*
G03X132341Y399179I281J105D01*
G37*
G36*
G01X133684Y397835D02*
G02X134355Y397904I428J-865D01*
G01X136070Y400397D01*
X133577Y398682D01*
G02X133508Y398011I-933J-243D01*
G03X133684Y397835I281J105D01*
G37*
G36*
G01X139270Y392249D02*
G02X139941Y392318I428J-865D01*
G01X141656Y394810D01*
X139164Y393096D01*
G02X139095Y392425I-933J-243D01*
G03X139270Y392249I281J105D01*
G37*
G36*
G01X137842Y393662D02*
G02X138527Y393732I436J-879D01*
G01X140242Y396224D01*
X137749Y394510D01*
G02X137661Y393847I-935J-213D01*
G03X137842Y393662I284J98D01*
G37*
G36*
G01X136337Y424172D02*
G02X136406Y423501I-865J-428D01*
G01X138898Y421787D01*
X137184Y424279D01*
G02X136513Y424348I-243J932D01*
G03X136337Y424172I105J-281D01*
G37*
G36*
G01X137681Y425516D02*
G02X137749Y424845I-865J-428D01*
G01X140242Y423130D01*
X138527Y425623D01*
G02X137856Y425691I-243J933D01*
G03X137681Y425516I105J-281D01*
G37*
G36*
G01X134923Y422758D02*
G02X134992Y422087I-865J-428D01*
G01X137484Y420372D01*
X135769Y422865D01*
G02X135098Y422934I-243J933D01*
G03X134923Y422758I105J-281D01*
G37*
G36*
G01X146085Y434195D02*
G02X146164Y433259I-1145J-568D01*
G01X148653Y431541D01*
X146942Y434037D01*
G02X146422Y434420I259J896D01*
G03X146085Y434195I-46J-297D01*
G37*
G36*
G01X141923Y429758D02*
G02X141992Y429088I-865J-428D01*
G01X144485Y427373D01*
X142770Y429865D01*
G02X142099Y429934I-243J933D01*
G03X141923Y429758I105J-281D01*
G37*
G36*
G01X144681Y432516D02*
G02X144750Y431845I-865J-428D01*
G01X147242Y430130D01*
X145528Y432623D01*
G02X144856Y432692I-243J933D01*
G03X144681Y432516I105J-281D01*
G37*
G36*
G01X132158Y420138D02*
G02X132234Y419329I-1007J-502D01*
G01X134725Y417613D01*
X133012Y420107D01*
G02X132418Y420353I36J928D01*
G03X132158Y420138I28J-299D01*
G37*
G36*
G01X145525Y423679D02*
G02X145457Y424350I865J428D01*
G01X142964Y426065D01*
X144679Y423572D01*
G02X145350Y423503I243J-933D01*
G03X145525Y423679I-105J281D01*
G37*
G36*
G01X139095Y426930D02*
G02X139164Y426259I-865J-428D01*
G01X141656Y424544D01*
X139941Y427037D01*
G02X139270Y427106I-243J933D01*
G03X139095Y426930I105J-281D01*
G37*
G36*
G01X142550Y552950D02*
G02Y552000I-1140J-475D01*
G01X144677Y551823D01*
X144500Y553950D01*
G02X143550I-475J1140D01*
G03X142550Y552950I0J-1000D01*
G37*
G36*
G01X135310Y553467D02*
G02X136827Y554011I1423J-1580D01*
G01X136745Y555964D01*
X135004Y555064D01*
G02X134969Y553705I-1690J-638D01*
G03X135310Y553467I294J59D01*
G37*
G36*
G01X130627Y562302D02*
G02X131941Y561109I-796J-2197D01*
G01X134575Y562487D01*
X131941Y563865D01*
G02X130627Y562672I-2110J1004D01*
G03Y562302I236J-185D01*
G37*
G36*
G01X144834Y563456D02*
G02X143788Y562403I-1813J756D01*
G01X143884Y560443D01*
X145611Y561350D01*
G02X145285Y563300I2204J1371D01*
G03X144834Y563456I-285J-94D01*
G37*
G36*
G01X130183Y587925D02*
G02X130855Y588597I1142J-470D01*
G01X129476Y590226D01*
X128097Y588597D01*
G02X128769Y587925I-471J-1143D01*
G03X130183Y587925I707J707D01*
G37*
G36*
G01X129133Y588212D02*
G02X127901Y586698I-2732J965D01*
G01X129476Y585395D01*
X131051Y586698D01*
G02X129819Y588212I1500J2479D01*
G03X129133I-343J-939D01*
G37*
G36*
G01X134712Y573515D02*
G02X135348Y574151I1082J-446D01*
G01X134500Y575075D01*
X133651Y574151D01*
G02X134288Y573515I-446J-1082D01*
G03X134712I212J212D01*
G37*
G36*
G01X134301Y574814D02*
G02X131941Y572330I-4172J1602D01*
G01X134500Y570877D01*
X137059Y572330D01*
G02X134698Y574814I1812J4085D01*
G03X134301I-198J-225D01*
G37*
G36*
G01X132048Y581881D02*
G02X131051Y582760I584J1668D01*
G01X129401Y581707D01*
X131051Y580654D01*
G02X132048Y581532I1581J-789D01*
G03Y581881I-244J174D01*
G37*
G36*
G01X166309Y76298D02*
G02X165172Y76434I-405J1432D01*
G01X164428Y75480D01*
X165348Y74652D01*
G02X166485Y75788I1932J-796D01*
G03X166309Y76298I-212J212D01*
G37*
G36*
G01X155640Y104877D02*
G02X152389I-1625J3901D01*
G01X152336Y101279D01*
X155934Y101331D01*
G02X155940Y104576I3896J1615D01*
G03X155640Y104877I-300J1D01*
G37*
G36*
G01X165985Y101212D02*
G02X165348Y101849I446J1082D01*
G01X164425Y101000D01*
X165348Y100152D01*
G02X165985Y100788I1082J-446D01*
G03Y101212I-212J212D01*
G37*
G36*
G01X148415Y149285D02*
G02X150844Y149526I1532J-3075D01*
G01X151023Y152485D01*
X148061Y152310D01*
G02X147781Y149925I-3288J-824D01*
G03X148415Y149285I951J308D01*
G37*
G36*
G01X150950Y164550D02*
G02Y165500I1140J475D01*
G01X148823Y165677D01*
X149000Y163550D01*
G02X149950I475J-1140D01*
G03X150950Y164550I0J1000D01*
G37*
G36*
G01X149851Y164016D02*
G02X150093Y161580I-3082J-1536D01*
G01X153052Y161401D01*
X152877Y164364D01*
G02X150496Y164652I-809J3288D01*
G03X149851Y164016I305J-952D01*
G37*
G36*
G01X159033Y160763D02*
G02X156496Y160745I-1291J3057D01*
G01X156443Y157908D01*
X159280Y157961D01*
G02X159298Y160498I3076J1247D01*
G03X159033Y160763I-298J-33D01*
G37*
G36*
G01X167515Y191788D02*
G02X168152Y191152I-446J-1082D01*
G01X169075Y192000D01*
X168152Y192848D01*
G02X167515Y192212I-1082J446D01*
G03Y191788I212J-212D01*
G37*
G36*
G01X149015Y175788D02*
G02X149652Y175152I-446J-1082D01*
G01X150575Y176000D01*
X149652Y176848D01*
G02X149015Y176212I-1082J446D01*
G03Y175788I212J-212D01*
G37*
G36*
G01X158485Y176212D02*
G02X157848Y176848I446J1082D01*
G01X156925Y176000D01*
X157848Y175152D01*
G02X158485Y175788I1082J-446D01*
G03Y176212I-212J212D01*
G37*
G36*
G01X161600Y209700D02*
G02X161000I-300J720D01*
G01X160894Y208394D01*
X162200Y208500D01*
G02Y209100I720J300D01*
G03X161600Y209700I-600J0D01*
G37*
G36*
G01X163522Y212966D02*
G02X163355Y215489I3033J1467D01*
G01X160327Y215735D01*
X160571Y212705D01*
G02X163022Y212476I943J-3146D01*
G03X163522Y212966I-92J593D01*
G37*
G36*
G01X147459Y211864D02*
G02X149688Y211861I1111J-2701D01*
G01X149889Y214550D01*
X147200Y214350D01*
G02X147203Y212120I-2699J-1118D01*
G03X147459Y211864I297J41D01*
G37*
G36*
G01X156776Y212220D02*
G02X154894Y212224I-937J2290D01*
G01X154516Y209712D01*
X157028Y210089D01*
G02X157024Y211972I2286J946D01*
G03X156776Y212220I-296J-48D01*
G37*
G36*
G01X157579Y207029D02*
G02X157492Y209625I3093J1403D01*
G01X154516Y209818D01*
X154708Y206842D01*
G02X157304Y206755I1193J-3180D01*
G03X157579Y207029I-25J299D01*
G37*
G36*
G01X154790Y236698D02*
G02X154465Y238328I1935J1233D01*
G01X151153Y239683D01*
X152514Y236376D01*
G02X154346Y236219I716J-2406D01*
G03X154790Y236698I-146J582D01*
G37*
G36*
G01X169386Y218611D02*
G02X169218Y221352I3287J1577D01*
G01X166195Y221603D01*
X166435Y218568D01*
G02X168829Y218107I626J-3196D01*
G03X169386Y218611I-35J599D01*
G37*
G36*
G01X164416Y234823D02*
G02X164503Y232226I-3093J-1403D01*
G01X167479Y232034D01*
X167287Y235010D01*
G02X164690Y235097I-1193J3180D01*
G03X164416Y234823I25J-299D01*
G37*
G36*
G01X170159Y235097D02*
G02X167287Y235010I-1541J3422D01*
G01X167373Y232034D01*
X170349Y231948D01*
G02X170436Y234820I3510J1331D01*
G03X170159Y235097I-299J-22D01*
G37*
G36*
G01X151190Y233093D02*
G02X150986Y234849I2037J1126D01*
G01X147729Y236153D01*
X149035Y232897D01*
G02X150924Y232812I840J-2340D01*
G03X151190Y233093I-34J298D01*
G37*
G36*
G01X158553Y228960D02*
G02X158640Y226363I-3093J-1403D01*
G01X161616Y226171D01*
X161424Y229147D01*
G02X158827Y229234I-1193J3180D01*
G03X158553Y228960I25J-299D01*
G37*
G36*
G01X158830Y223214D02*
G02X161702Y223301I1541J-3422D01*
G01X161616Y226277D01*
X158640Y226363D01*
G02X158553Y223491I-3510J-1331D01*
G03X158830Y223214I299J22D01*
G37*
G36*
G01X158433Y223370D02*
G02X155560Y223284I-1541J3422D01*
G01X155646Y220307D01*
X158623Y220221D01*
G02X158710Y223094I3509J1331D01*
G03X158433Y223370I-299J-22D01*
G37*
G36*
G01X161790Y324746D02*
G02X160332Y326204I1021J2479D01*
G01X158587Y324533D01*
X160332Y322863D01*
G02X161790Y324321I2479J-1021D01*
G03Y324746I-212J212D01*
G37*
G36*
G01X156600Y314297D02*
G02X158662I1031J-2475D01*
G01X158715Y316712D01*
X156300Y316659D01*
G02Y314597I-2475J-1031D01*
G03X156600Y314297I300J0D01*
G37*
G36*
G01X168436Y384081D02*
G02X168367Y384752I865J428D01*
G01X165874Y386467D01*
X167589Y383974D01*
G02X168260Y383905I243J-933D01*
G03X168436Y384081I-105J281D01*
G37*
G36*
G01X165607Y381253D02*
G02X165539Y381924I865J428D01*
G01X163046Y383638D01*
X164761Y381146D01*
G02X165432Y381077I243J-933D01*
G03X165607Y381253I-105J281D01*
G37*
G36*
G01X167022Y382667D02*
G02X166953Y383338I865J428D01*
G01X164460Y385052D01*
X166175Y382560D01*
G02X166846Y382491I243J-933D01*
G03X167022Y382667I-105J281D01*
G37*
G36*
G01X171193Y386839D02*
G02X171125Y387510I865J428D01*
G01X168632Y389224D01*
X170347Y386732D01*
G02X171018Y386663I243J-933D01*
G03X171193Y386839I-105J281D01*
G37*
G36*
G01X148617Y436580D02*
G02X148922Y436017I-614J-695D01*
G01X151416Y434305D01*
X149699Y436795D01*
G02X148839Y436872I-331J1141D01*
G03X148617Y436580I78J-290D01*
G37*
G36*
G01X147433Y435370D02*
G02X147507Y434603I-963J-480D01*
G01X149999Y432887D01*
X148285Y435381D01*
G02X147667Y435576I-45J934D01*
G03X147433Y435370I52J-295D01*
G37*
G36*
G01X168260Y435449D02*
G02X167589Y435381I-428J865D01*
G01X165874Y432888D01*
X168367Y434603D01*
G02X168436Y435274I933J243D01*
G03X168260Y435449I-281J-105D01*
G37*
G36*
G01X171017Y432694D02*
G02X170347Y432623I-430J863D01*
G01X168632Y430130D01*
X171125Y431845D01*
G02X171194Y432518I935J244D01*
G03X171017Y432694I-281J-105D01*
G37*
G36*
G01X169624Y434107D02*
G02X168933Y434037I-439J884D01*
G01X167218Y431545D01*
X169710Y433259D01*
G02X169807Y433920I936J201D01*
G03X169624Y434107I-285J-95D01*
G37*
G36*
G01X150256Y438414D02*
G02X150336Y437431I-1198J-592D01*
G01X152824Y435713D01*
X151114Y438209D01*
G02X150619Y438638I332J883D01*
G03X150256Y438414I-71J-292D01*
G37*
G36*
G01X166303Y510959D02*
G02X165631Y511631I471J1143D01*
G01X164002Y510252D01*
X165631Y508873D01*
G02X166303Y509545I1143J-471D01*
G03Y510959I-707J707D01*
G37*
G36*
G01X172398Y64500D02*
G02X174692Y62205I-1606J-3901D01*
G01X177274Y64712D01*
X174692Y67219D01*
G02X172398Y64924I-3901J1606D01*
G03Y64500I212J-212D01*
G37*
G36*
G01X182000Y64924D02*
G02X179706Y67219I1606J3901D01*
G01X177124Y64712D01*
X179706Y62205D01*
G02X182000Y64500I3901J-1606D01*
G03Y64924I-212J212D01*
G37*
G36*
G01X182238Y67730D02*
G02X184532Y65435I-1606J-3901D01*
G01X187114Y67942D01*
X184532Y70449D01*
G02X182238Y68154I-3901J1606D01*
G03Y67730I212J-212D01*
G37*
G36*
G01X191840Y68154D02*
G02X189546Y70449I1606J3901D01*
G01X186964Y67942D01*
X189546Y65435D01*
G02X191840Y67730I3901J-1606D01*
G03Y68154I-212J212D01*
G37*
G36*
G01X185454Y129382D02*
G02Y126132I-3900J-1625D01*
G01X189052Y126079D01*
X188999Y129677D01*
G02X185754Y129682I-1616J3896D01*
G03X185454Y129382I0J-300D01*
G37*
G36*
G01X179371Y113381D02*
G02X181666Y115675I3900J-1606D01*
G01X179159Y118257D01*
X176652Y115675D01*
G02X178947Y113381I-1606J-3901D01*
G03X179371I212J212D01*
G37*
G36*
G01X187125Y167212D02*
G02X185988Y168348I796J1932D01*
G01X185068Y167520D01*
X185812Y166566D01*
G02X186948Y166702I732J-1296D01*
G03X187125Y167212I-36J298D01*
G37*
G36*
G01X170485Y192212D02*
G02X169848Y192848I446J1082D01*
G01X168925Y192000D01*
X169848Y191152D01*
G02X170485Y191788I1082J-446D01*
G03Y192212I-212J212D01*
G37*
G36*
G01X179800Y230600D02*
G02Y230000I-720J-300D01*
G01X181106Y229894D01*
X181000Y231200D01*
G02X180400I-300J720D01*
G03X179800Y230600I0J-600D01*
G37*
G36*
G01X181113Y230382D02*
G02X180945Y233079I3235J1555D01*
G01X177921Y233329D01*
X178161Y230295D01*
G02X180568Y229881I691J-3186D01*
G03X181113Y230382I-47J598D01*
G37*
G36*
G01X173800Y224600D02*
G02Y224000I-720J-300D01*
G01X175106Y223894D01*
X175000Y225200D01*
G02X174400I-300J720D01*
G03X173800Y224600I0J-600D01*
G37*
G36*
G01X169300Y217600D02*
G02Y217000I-720J-300D01*
G01X170606Y216894D01*
X170500Y218200D01*
G02X169900I-300J720D01*
G03X169300Y217600I0J-600D01*
G37*
G36*
G01X175251Y224255D02*
G02X175082Y227215I3542J1688D01*
G01X172063Y227470D01*
X172298Y224432D01*
G02X174635Y223743I316J-3238D01*
G03X175251Y224255I23J600D01*
G37*
G36*
G01X175447Y241295D02*
G02X173244Y240597I-1946J2317D01*
G01X173246Y237890D01*
X175800Y238224D01*
G02X175798Y241032I3388J1406D01*
G03X175447Y241295I-298J-32D01*
G37*
G36*
G01X170556Y234940D02*
G02X173429Y235027I1541J-3422D01*
G01X173342Y238004D01*
X170366Y238090D01*
G02X170279Y235217I-3509J-1331D01*
G03X170556Y234940I299J22D01*
G37*
G36*
G01X174600Y239800D02*
G02X175500I450J-1080D01*
G01X175553Y241053D01*
X174300Y241000D01*
G02Y240100I-1080J-450D01*
G03X174600Y239800I300J0D01*
G37*
G36*
G01X183485Y264204D02*
G02X182848Y264840I446J1082D01*
G01X181925Y263992D01*
X182848Y263143D01*
G02X183485Y263780I1082J-446D01*
G03Y264204I-212J212D01*
G37*
G36*
G01X180500Y339300D02*
G02X181400I450J-1080D01*
G01X181453Y340553D01*
X180200Y340500D01*
G02Y339600I-1080J-450D01*
G03X180500Y339300I300J0D01*
G37*
G36*
G01X180777Y370183D02*
G02X180141Y369546I-1082J446D01*
G01X180989Y368623D01*
X181838Y369546D01*
G02X181201Y370183I446J1082D01*
G03X180777I-212J-212D01*
G37*
G36*
G01X189015Y366788D02*
G02X189652Y366152I-446J-1082D01*
G01X190575Y367000D01*
X189652Y367848D01*
G02X189015Y367212I-1082J446D01*
G03Y366788I212J-212D01*
G37*
G36*
G01X172608Y388253D02*
G02X172539Y388924I865J428D01*
G01X170046Y390638D01*
X171761Y388146D01*
G02X172432Y388077I243J-933D01*
G03X172608Y388253I-105J281D01*
G37*
G36*
G01X173951Y389596D02*
G02X173882Y390267I865J428D01*
G01X171390Y391982D01*
X173105Y389490D01*
G02X173776Y389421I243J-933D01*
G03X173951Y389596I-105J281D01*
G37*
G36*
G01X179800Y380900D02*
G02Y380000I-1080J-450D01*
G01X181053Y379947D01*
X181000Y381200D01*
G02X180100I-450J1080D01*
G03X179800Y380900I0J-300D01*
G37*
G36*
G01X175365Y391010D02*
G02X175297Y391682I865J428D01*
G01X172804Y393396D01*
X174519Y390904D01*
G02X175190Y390835I243J-933D01*
G03X175365Y391010I-105J281D01*
G37*
G36*
G01X181788Y385985D02*
G02X181152Y385348I-1082J446D01*
G01X182000Y384425D01*
X182848Y385348D01*
G02X182212Y385985I446J1082D01*
G03X181788I-212J-212D01*
G37*
G36*
G01X172800Y384757D02*
G02Y383500I-1508J-628D01*
G01X174044Y383439D01*
X174110Y384679D01*
G02X173210Y385035I-22J1258D01*
G03X172800Y384757I-111J-279D01*
G37*
G36*
G01X178353Y393908D02*
G02X178125Y394510I702J611D01*
G01X175631Y396223D01*
X177347Y393732D01*
G02X178142Y393657I300J-1067D01*
G03X178353Y393908I-86J287D01*
G37*
G36*
G01X176780Y392425D02*
G02X176711Y393096I864J428D01*
G01X174218Y394810D01*
X175933Y392318D01*
G02X176604Y392249I243J-934D01*
G03X176780Y392425I-105J281D01*
G37*
G36*
G01X183709Y399354D02*
G02X183640Y400025I864J428D01*
G01X181148Y401740D01*
X182863Y399248D01*
G02X183534Y399179I243J-934D01*
G03X183709Y399354I-105J281D01*
G37*
G36*
G01X189300Y407900D02*
G02Y406400I-1801J-750D01*
G01X190539Y406336D01*
X190666Y407549D01*
G02X189766Y408150I270J1380D01*
G03X189300Y407900I-166J-250D01*
G37*
G36*
G01X173776Y429934D02*
G02X173105Y429865I-428J865D01*
G01X171390Y427373D01*
X173882Y429088D01*
G02X173951Y429758I933J243D01*
G03X173776Y429934I-281J-105D01*
G37*
G36*
G01X179362Y424348D02*
G02X178691Y424279I-428J865D01*
G01X176976Y421787D01*
X179469Y423501D01*
G02X179537Y424172I933J243D01*
G03X179362Y424348I-281J-105D01*
G37*
G36*
G01X177525Y416503D02*
G02X178196Y416572I428J-865D01*
G01X179910Y419064D01*
X177418Y417350D01*
G02X177349Y416678I-933J-243D01*
G03X177525Y416503I281J105D01*
G37*
G36*
G01X180768Y422954D02*
G02X180105Y422865I-452J845D01*
G01X178390Y420372D01*
X180883Y422087D01*
G02X180952Y422773I950J250D01*
G03X180768Y422954I-282J-102D01*
G37*
G36*
G01X183534Y420176D02*
G02X182863Y420107I-428J865D01*
G01X181148Y417615D01*
X183640Y419329D01*
G02X183709Y420000I933J243D01*
G03X183534Y420176I-281J-105D01*
G37*
G36*
G01X186362Y417348D02*
G02X185691Y417279I-428J865D01*
G01X183976Y414786D01*
X186469Y416501D01*
G02X186538Y417172I933J243D01*
G03X186362Y417348I-281J-105D01*
G37*
G36*
G01X184948Y418762D02*
G02X184277Y418693I-428J865D01*
G01X182562Y416201D01*
X185055Y417915D01*
G02X185123Y418586I933J243D01*
G03X184948Y418762I-281J-105D01*
G37*
G36*
G01X175016Y428877D02*
G02X174519Y428451I-822J457D01*
G01X172808Y425955D01*
X175297Y427673D01*
G02X175377Y428652I1274J389D01*
G03X175016Y428877I-292J-68D01*
G37*
G36*
G01X180600Y430300D02*
G02X181500I450J-1080D01*
G01X181553Y431553D01*
X180300Y431500D01*
G02Y430600I-1080J-450D01*
G03X180600Y430300I300J0D01*
G37*
G36*
G01X176894Y427116D02*
G02X175933Y427037I-581J1174D01*
G01X174215Y424548D01*
X176711Y426259D01*
G02X177119Y426765I889J-299D01*
G03X176894Y427116I-294J59D01*
G37*
G36*
G01X172432Y431277D02*
G02X171761Y431209I-428J865D01*
G01X170046Y428716D01*
X172539Y430431D01*
G02X172608Y431102I933J243D01*
G03X172432Y431277I-281J-105D01*
G37*
G36*
G01X185459Y457788D02*
G02X185874Y457374I-290J-704D01*
G01X186575Y458000D01*
X185874Y458626D01*
G02X185459Y458212I-704J290D01*
G03Y457788I212J-212D01*
G37*
G36*
G01X179164Y440364D02*
G02X179750Y440364I293J-703D01*
G01X179803Y441303D01*
X178864Y441250D01*
G02X178864Y440664I-703J-293D01*
G03X179164Y440364I300J0D01*
G37*
G36*
G01X189212Y459459D02*
G02X189626Y459874I704J-290D01*
G01X189000Y460575D01*
X188374Y459874D01*
G02X188788Y459459I-290J-704D01*
G03X189212I212J212D01*
G37*
G36*
G01X177550Y502450D02*
G02Y501500I-1140J-475D01*
G01X179677Y501323D01*
X179500Y503450D01*
G02X178550I-475J1140D01*
G03X177550Y502450I0J-1000D01*
G37*
G36*
G01X169445Y501744D02*
G02X171568Y501782I1107J-2555D01*
G01X171753Y503717D01*
X169993Y504510D01*
G02X169188Y502102I-3311J-231D01*
G03X169445Y501744I294J-61D01*
G37*
G36*
G01X181212Y507015D02*
G02X181848Y507652I1082J-446D01*
G01X181000Y508575D01*
X180152Y507652D01*
G02X180788Y507015I-446J-1082D01*
G03X181212I212J212D01*
G37*
G36*
G01X179515Y508288D02*
G02X180152Y507652I-446J-1082D01*
G01X181075Y508500D01*
X180152Y509348D01*
G02X179515Y508712I-1082J446D01*
G03Y508288I212J-212D01*
G37*
G36*
G01X177528Y508866D02*
G02X179446Y510781I3272J-1358D01*
G01X177340Y512234D01*
X175235Y510781D01*
G02X177153Y508866I-1354J-3274D01*
G03X177528I187J234D01*
G37*
G36*
G01X177553Y522856D02*
G02X178189Y523492I1082J-446D01*
G01X177340Y524416D01*
X176492Y523492D01*
G02X177128Y522856I-446J-1082D01*
G03X177553I212J212D01*
G37*
G36*
G01X177142Y524486D02*
G02X174782Y522002I-4172J1602D01*
G01X177340Y520549D01*
X179900Y522002D01*
G02X177539Y524486I1812J4085D01*
G03X177142I-199J-225D01*
G37*
G36*
G01X179491Y532342D02*
G02X178440Y532635I-174J1407D01*
G01X177256Y530946D01*
X178879Y529621D01*
G02X179930Y530672I1786J-735D01*
G03X179491Y532342I-707J707D01*
G37*
G36*
G01X190740Y537917D02*
G02X191411Y538588I1142J-470D01*
G01X190032Y540218D01*
X188654Y538589D01*
G02X189325Y537917I-471J-1143D01*
G03X190740Y537917I707J707D01*
G37*
G36*
G01X189690Y537884D02*
G02X188458Y536370I-2732J965D01*
G01X190032Y535067D01*
X191608Y536370D01*
G02X190375Y537884I1500J2479D01*
G03X189690I-343J-939D01*
G37*
G36*
G01X192604Y531554D02*
G02X191608Y532432I584J1668D01*
G01X189958Y531379D01*
X191608Y530326D01*
G02X192604Y531205I1581J-789D01*
G03Y531554I-244J174D01*
G37*
G36*
G01X179684Y535319D02*
G02X180860Y534264I-702J-1964D01*
G01X182509Y535312D01*
X180860Y536370D01*
G02X179719Y535720I-1372J1081D01*
G03X179684Y535319I204J-220D01*
G37*
G36*
G01X204100Y56300D02*
G02X205000I450J-1080D01*
G01X205053Y57553D01*
X203800Y57500D01*
G02Y56600I-1080J-450D01*
G03X204100Y56300I300J0D01*
G37*
G36*
G01X206485Y57712D02*
G02X205848Y58348I446J1082D01*
G01X204925Y57500D01*
X205848Y56652D01*
G02X206485Y57288I1082J-446D01*
G03Y57712I-212J212D01*
G37*
G36*
G01X209008Y101120D02*
G02X211302Y98825I-1606J-3901D01*
G01X213884Y101332D01*
X211302Y103839D01*
G02X209008Y101544I-3901J1606D01*
G03Y101120I212J-212D01*
G37*
G36*
G01X211957Y152399D02*
G02X214002Y150707I-1168J-3495D01*
G01X216221Y152873D01*
X214002Y155038D01*
G02X211957Y153347I-3214J1804D01*
G03Y152399I881J-474D01*
G37*
G36*
G01X197041Y167212D02*
G02X196626Y167626I290J704D01*
G01X195925Y167000D01*
X196626Y166374D01*
G02X197041Y166788I704J-290D01*
G03Y167212I-212J212D01*
G37*
G36*
G01X194959Y166788D02*
G02X195374Y166374I-290J-704D01*
G01X196075Y167000D01*
X195374Y167626D01*
G02X194959Y167212I-704J290D01*
G03Y166788I212J-212D01*
G37*
G36*
G01X209073Y194800D02*
X207800D01*
X206930Y193973D01*
X207848Y193152D01*
G02X209285Y194588I2442J-1006D01*
G01X209073Y194800D01*
G37*
G36*
G01X191712Y217015D02*
G02X192348Y217651I1082J-446D01*
G01X191500Y218575D01*
X190652Y217651D01*
G02X191288Y217015I-446J-1082D01*
G03X191712I212J212D01*
G37*
G36*
G01X193971Y347465D02*
G02X193674Y346934I-786J91D01*
G01X194359Y346299D01*
X194976Y347000D01*
G02X194445Y347531I372J903D01*
G03X193971Y347465I-212J-212D01*
G37*
G36*
G01X192353Y343744D02*
G02X192651Y343158I-554J-650D01*
G01X193567Y343252D01*
X193504Y344179D01*
G02X192621Y344179I-442J1060D01*
G03X192353Y343744I0J-300D01*
G37*
G36*
G01X202505Y387480D02*
G02X204319Y389532I3431J-1205D01*
G01X202154Y391650D01*
X199988Y389532D01*
G02X201802Y387480I-1617J-3257D01*
G03X202505I352J486D01*
G37*
G36*
G01X198127Y391158D02*
G02X199988Y389532I-1080J-3115D01*
G01X202304Y391500D01*
X199988Y393468D01*
G02X198127Y391842I-2942J1489D01*
G03Y391158I493J-343D01*
G37*
G36*
G01Y386158D02*
G02X199988Y384532I-1080J-3115D01*
G01X202304Y386500D01*
X199988Y388468D01*
G02X198127Y386842I-2942J1489D01*
G03Y386158I493J-343D01*
G37*
G36*
G01X201802Y390520D02*
G02X199988Y388468I-3431J1205D01*
G01X202154Y386350D01*
X204319Y388468D01*
G02X202505Y390520I1617J3257D01*
G03X201802I-351J-486D01*
G37*
G36*
G01X202456Y382828D02*
G02X204187Y384532I2975J-1292D01*
G01X202154Y386650D01*
X200120Y384532D01*
G02X201851Y382828I-1243J-2996D01*
G03X202456I302J518D01*
G37*
G36*
G01X212449Y390793D02*
G02X213121Y390121I-471J-1143D01*
G01X214750Y391500D01*
X213121Y392879D01*
G02X212449Y392207I-1143J471D01*
G03Y390793I707J-707D01*
G37*
G36*
G01X212878Y391941D02*
G02X211012Y393468I1081J3224D01*
G01X208597Y391500D01*
X211012Y389532D01*
G02X212878Y391059I2947J-1697D01*
G03Y391941I-897J441D01*
G37*
G36*
G01X209320Y387486D02*
G02X211012Y389532I3496J-1168D01*
G01X208847Y391750D01*
X206681Y389532D01*
G02X208373Y387486I-1805J-3214D01*
G03X209320I474J881D01*
G37*
G36*
G01X208373Y390514D02*
G02X206681Y388468I-3496J1168D01*
G01X208847Y386250D01*
X211012Y388468D01*
G02X209320Y390514I1805J3214D01*
G03X208373I-474J-881D01*
G37*
G36*
G01X209198Y382480D02*
G02X211012Y384532I3431J-1205D01*
G01X208847Y386650D01*
X206681Y384532D01*
G02X208495Y382480I-1617J-3257D01*
G03X209198I352J486D01*
G37*
G36*
G01X198000Y408652D02*
Y409500D01*
X197448Y410141D01*
X196652Y409152D01*
G02X197576Y408227I-647J-1571D01*
G01X198000Y408652D01*
G37*
G36*
G01X197953Y406958D02*
G02X194994Y406789I-1686J3542D01*
G01X195023Y403765D01*
X198057Y403727D01*
G02X198463Y406409I3503J840D01*
G03X197953Y406958I-598J-44D01*
G37*
G36*
G01X192540Y400775D02*
G02X195273Y400943I1573J-3277D01*
G01X195240Y403972D01*
X192211Y404006D01*
G02X192043Y401272I-3445J-1160D01*
G03X192540Y400775I592J95D01*
G37*
G36*
G01X205449Y401293D02*
G02X206121Y400621I-471J-1143D01*
G01X207750Y402000D01*
X206121Y403379D01*
G02X205449Y402707I-1143J471D01*
G03Y401293I707J-707D01*
G37*
G36*
G01X197551Y396405D02*
G02X199834Y396382I1113J-2850D01*
G01X199972Y399240D01*
X197115Y399101D01*
G02X197138Y396819I-2828J-1170D01*
G03X197551Y396405I577J164D01*
G37*
G36*
G01X202280Y402562D02*
G02X199727Y402057I-1933J3064D01*
G01X199698Y398948D01*
X202789Y398994D01*
G02X203047Y401846I3780J1096D01*
G03X202280Y402562I-965J-264D01*
G37*
G36*
G01X203600Y396800D02*
G02X204500I450J-1080D01*
G01X204553Y398053D01*
X203300Y398000D01*
G02Y397100I-1080J-450D01*
G03X203600Y396800I300J0D01*
G37*
G36*
G01X202505Y457480D02*
G02X204319Y459531I3431J-1205D01*
G01X202154Y461650D01*
X199988Y459531D01*
G02X201802Y457480I-1617J-3257D01*
G03X202505I352J486D01*
G37*
G36*
G01X209198D02*
G02X211012Y459531I3431J-1205D01*
G01X208847Y461650D01*
X206681Y459531D01*
G02X208495Y457480I-1617J-3257D01*
G03X209198I352J486D01*
G37*
G36*
G01X210376Y449651D02*
G02X208478Y451425I1195J3180D01*
G01X206238Y449457D01*
X208478Y447488D01*
G02X210376Y449263I3093J-1405D01*
G03Y449651I-229J194D01*
G37*
G36*
G01X195557Y449263D02*
G02X197455Y447488I-1195J-3180D01*
G01X199695Y449457D01*
X197455Y451425D01*
G02X195557Y449651I-3093J1405D01*
G03Y449263I229J-194D01*
G37*
G36*
G01Y443987D02*
G02X197455Y442213I-1195J-3180D01*
G01X199695Y444181D01*
X197455Y446150D01*
G02X195557Y444375I-3093J1405D01*
G03Y443987I229J-194D01*
G37*
G36*
G01X210959Y443788D02*
G02X211374Y443374I-290J-704D01*
G01X212075Y444000D01*
X211374Y444626D01*
G02X210959Y444212I-704J290D01*
G03Y443788I212J-212D01*
G37*
G36*
G01X213541Y443712D02*
G02X212626Y444626I640J1554D01*
G01X211930Y444026D01*
X212500Y443500D01*
X213328D01*
X213541Y443712D01*
G37*
G36*
G01X210555Y444196D02*
G02X208478Y446150I1319J3483D01*
G01X206238Y444184D01*
X208478Y442213D01*
G02X210536Y443784I2928J-1700D01*
G03X210555Y444196I-208J216D01*
G37*
G36*
G01X198127Y461158D02*
G02X199988Y459531I-1080J-3115D01*
G01X202304Y461500D01*
X199988Y463468D01*
G02X198127Y461842I-2942J1489D01*
G03Y461158I493J-343D01*
G37*
G36*
G01X212878Y461941D02*
G02X211012Y463468I1081J3224D01*
G01X208597Y461500D01*
X211012Y459531D01*
G02X212878Y461059I2947J-1697D01*
G03Y461941I-897J441D01*
G37*
G36*
G01X203707Y516449D02*
G02X204379Y517121I1142J-470D01*
G01X203000Y518750D01*
X201621Y517121D01*
G02X202293Y516449I-471J-1143D01*
G03X203707Y516449I707J707D01*
G37*
G36*
G01X202555Y502898D02*
G02X203226Y502226I-471J-1143D01*
G01X204855Y503605D01*
X203226Y504984D01*
G02X202555Y504312I-1143J471D01*
G03Y502898I707J-707D01*
G37*
G36*
G01X195695Y503790D02*
G02X197384Y503684I714J-2113D01*
G01X197312Y505627D01*
X195774Y504907D01*
G02X195467Y504084I-1205J-19D01*
G03X195695Y503790I300J-2D01*
G37*
G36*
G01X193985Y508712D02*
G02X193348Y509348I446J1082D01*
G01X192425Y508500D01*
X193348Y507652D01*
G02X193985Y508288I1082J-446D01*
G03Y508712I-212J212D01*
G37*
G36*
G01X195244Y508866D02*
G02X197162Y510781I3272J-1358D01*
G01X195056Y512234D01*
X192951Y510781D01*
G02X194869Y508866I-1354J-3274D01*
G03X195244I187J234D01*
G37*
G36*
G01X195269Y522959D02*
G02X195905Y523595I1082J-446D01*
G01X195056Y524518D01*
X194208Y523595D01*
G02X194844Y522959I-446J-1082D01*
G03X195269I212J212D01*
G37*
G36*
G01X194858Y524486D02*
G02X192498Y522002I-4172J1602D01*
G01X195056Y520549D01*
X197616Y522002D01*
G02X195255Y524486I1812J4085D01*
G03X194858I-198J-225D01*
G37*
G36*
G01X205846Y512701D02*
G02X204344Y512076I-1515J1520D01*
G01X204428Y510122D01*
X206168Y511023D01*
G02X206203Y512463I1784J677D01*
G03X205846Y512701I-295J-55D01*
G37*
G36*
G01X219100Y58300D02*
G02X220000I450J-1080D01*
G01X220053Y59553D01*
X218800Y59500D01*
G02Y58600I-1080J-450D01*
G03X219100Y58300I300J0D01*
G37*
G36*
G01X229969Y120685D02*
G02X229443Y120712I-256J148D01*
G02X229323Y131216I11607J5386D01*
G02X229594Y131394I271J-118D01*
G01X235890D01*
G02X236102Y130893I0J-295D01*
G03X235083Y129543I4948J-4795D01*
G01X229969Y120685D01*
G37*
G36*
G01X230754Y118502D02*
G02X230736Y118824I238J175D01*
G01X233884Y124278D01*
G02X234424Y124211I256J-148D01*
G03X235083Y122653I6626J1887D01*
G01X240197Y113795D01*
G02X239916Y113353I-256J-148D01*
G02X230754Y118502I1134J12745D01*
G37*
G36*
G01X219985Y153347D02*
G02X217939Y155038I1168J3495D01*
G01X215721Y152873D01*
X217939Y150707D01*
G02X219985Y152399I3214J-1804D01*
G03Y153347I-881J474D01*
G37*
G36*
G01X218163Y152384D02*
G02X220232Y150738I-1099J-3505D01*
G01X222450Y152906D01*
X220232Y155069D01*
G02X218157Y153351I-3257J1822D01*
G03X218163Y152384I878J-478D01*
G37*
G36*
G01X230821Y132988D02*
G02X230580Y133453I0J295D01*
G02X239619Y138813I10470J-7355D01*
G02X239908Y138667I33J-293D01*
G01X243056Y133214D01*
G02X242729Y132780I-256J-148D01*
G03X241050Y132988I-1679J-6682D01*
G01X230821D01*
G37*
G36*
G01X225046Y158889D02*
G02X225718Y158218I-471J-1143D01*
G01X227347Y159596D01*
X225718Y160975D01*
G02X225046Y160304I-1143J471D01*
G03Y158889I707J-707D01*
G37*
G36*
G01X219985Y160040D02*
G02X217939Y161731I1168J3495D01*
G01X215721Y159566D01*
X217939Y157400D01*
G02X219985Y159092I3214J-1804D01*
G03Y160040I-881J474D01*
G37*
G36*
G01X226214Y160070D02*
G02X224168Y161762I1168J3496D01*
G01X221950Y159596D01*
X224168Y157431D01*
G02X226214Y159123I3214J-1805D01*
G03Y160070I-881J474D01*
G37*
G36*
G01X218163Y159077D02*
G02X220232Y157431I-1099J-3505D01*
G01X222450Y159599D01*
X220232Y161762D01*
G02X218157Y160044I-3257J1822D01*
G03X218163Y159077I878J-478D01*
G37*
G36*
G01X213788Y450541D02*
G02X213374Y450126I-704J290D01*
G01X214000Y449425D01*
X214626Y450126D01*
G02X214212Y450541I290J704D01*
G03X213788I-212J-212D01*
G37*
G36*
G01X212939Y449224D02*
G02X213397Y448853I-216J-735D01*
G01X214075Y449504D01*
X213374Y450126D01*
G02X212916Y449669I-778J320D01*
G03X212939Y449224I212J-212D01*
G37*
G36*
G01X220336Y448636D02*
G02X219750Y448636I-293J703D01*
G01X219697Y447697D01*
X220636Y447750D01*
G02X220636Y448336I703J293D01*
G03X220336Y448636I-300J0D01*
G37*
G36*
G01X219164Y446864D02*
G02X219750Y446864I293J-703D01*
G01X219803Y447803D01*
X218864Y447750D01*
G02X218864Y447164I-703J-293D01*
G03X219164Y446864I300J0D01*
G37*
G36*
G01X215449Y460793D02*
G02X216121Y460121I-471J-1143D01*
G01X217750Y461500D01*
X216121Y462879D01*
G02X215449Y462207I-1143J471D01*
G03Y460793I707J-707D01*
G37*
G36*
G01X224286Y459386D02*
G02X223700Y459386I-293J703D01*
G01X223647Y458447D01*
X224586Y458500D01*
G02X224586Y459086I703J293D01*
G03X224286Y459386I-300J0D01*
G37*
G36*
G01X222659Y458288D02*
G02X223074Y457874I-290J-704D01*
G01X223775Y458500D01*
X223074Y459126D01*
G02X222659Y458712I-704J290D01*
G03Y458288I212J-212D01*
G37*
G36*
G01X245998Y121303D02*
G03X246209Y120803I212J-205D01*
G01X252506D01*
G03X252777Y120980I0J295D01*
G03X252654Y131488I-11727J5119D01*
G03X252131Y131511I-268J-124D01*
G01X247017Y122653D01*
G02X245998Y121303I-5967J3445D01*
G37*
G36*
G01X242478Y113383D02*
G02X242192Y113529I-30J294D01*
G01X239044Y118982D01*
G02X239375Y119415I256J148D01*
G03X241050Y119208I1675J6683D01*
G01X251279D01*
G02X251520Y118743I0J-295D01*
G02X242478Y113383I-10470J7355D01*
G37*
G36*
G01X251346Y133798D02*
G02X251364Y133476I-238J-175D01*
G01X248216Y128022D01*
G02X247676Y128089I-256J148D01*
G03X247017Y129647I-6626J-1887D01*
G01X241902Y138505D01*
G02X242184Y138947I256J148D01*
G02X251346Y133798I-1134J-12745D01*
G37*
G36*
G01X254300Y384900D02*
G02Y383500I-1680J-700D01*
G01X255541Y383437D01*
X255646Y384662D01*
G02X254746Y385162I150J1330D01*
G03X254300Y384900I-146J-262D01*
G37*
G36*
G01X249520Y489277D02*
G02X248848Y488606I-1142J470D01*
G01X250227Y486977D01*
X251605Y488606D01*
G02X250934Y489277I471J1143D01*
G03X249520Y489277I-707J-707D01*
G37*
G36*
G01X250668Y487205D02*
G02X252195Y489071I3224J-1081D01*
G01X250227Y491289D01*
X248258Y489071D01*
G02X249785Y487205I-1697J-2947D01*
G03X250668I441J897D01*
G37*
G36*
G01X257778Y499992D02*
G02X256250Y498126I-3224J1081D01*
G01X258219Y495907D01*
X260187Y498126D01*
G02X258660Y499992I1697J2947D01*
G03X257778I-441J-897D01*
G37*
G36*
G01X250033Y500023D02*
G02X248258Y498126I-3180J1195D01*
G01X250227Y496082D01*
X252195Y498126D01*
G02X250421Y500023I1405J3093D01*
G03X250033I-194J-229D01*
G37*
G36*
G01X261400Y81200D02*
G02X260500I-450J1080D01*
G01X260447Y79947D01*
X261700Y80000D01*
G02Y80900I1080J450D01*
G03X261400Y81200I-300J0D01*
G37*
G36*
G01X260572Y67872D02*
G02X258493I-1040J2495D01*
G01X258424Y66642D01*
X259672Y66672D01*
X260572Y67572D01*
Y67872D01*
G37*
G36*
G01X257400Y191700D02*
G02X256500I-450J1080D01*
G01X256447Y190447D01*
X257700Y190500D01*
G02Y191400I1080J450D01*
G03X257400Y191700I-300J0D01*
G37*
G36*
G01X271145Y329964D02*
G02X270511Y332168I2423J1890D01*
G01X266527Y332646D01*
X268945Y329434D01*
G02X270730Y329385I829J-2300D01*
G03X271145Y329964I-186J571D01*
G37*
G36*
G01X264618Y339180D02*
G02X265238Y337227I-2059J-1728D01*
G01X269162Y336795D01*
X266804Y339961D01*
G02X264806Y339507I-1549J2197D01*
G03X264618Y339180I109J-280D01*
G37*
G36*
G01X267231Y343951D02*
G02X267683Y341497I-2742J-1774D01*
G01X271603Y341058D01*
X269249Y344230D01*
G02X267485Y344266I-838J2165D01*
G03X267231Y343951I45J-297D01*
G37*
G36*
G01X269652Y348104D02*
G02X270128Y345766I-2852J-1798D01*
G01X274188Y345222D01*
X271694Y348500D01*
G02X270120Y348738I-419J2545D01*
G03X269652Y348104I505J-863D01*
G37*
G36*
G01X270700Y367400D02*
G02Y368000I720J300D01*
G01X269394Y368106D01*
X269500Y366800D01*
G02X270100I300J-720D01*
G03X270700Y367400I0J600D01*
G37*
G36*
G01X276457Y361772D02*
G02X276289Y364506I3277J1573D01*
G01X273260Y364472D01*
X273227Y361443D01*
G02X275960Y361275I1160J-3445D01*
G03X276457Y361772I-95J592D01*
G37*
G36*
G01X270037Y366908D02*
G02X270443Y364227I-3096J-1841D01*
G01X273477Y364265D01*
X273506Y367289D01*
G02X270547Y367458I-1272J3711D01*
G03X270037Y366908I88J-594D01*
G37*
G36*
G01X266095Y356471D02*
G02X268495Y356711I1515J-3045D01*
G01X268810Y359810D01*
X265711Y359494D01*
G02X265471Y357095I-3284J-884D01*
G03X266095Y356471I947J322D01*
G37*
G36*
G01X265460Y362137D02*
G02X265711Y359494I-3297J-1646D01*
G01X268810Y359457D01*
X268773Y362557D01*
G02X266130Y362807I-997J3548D01*
G03X265460Y362137I288J-958D01*
G37*
G36*
G01X268424Y391727D02*
G02X268848Y392152I721J-297D01*
G01X268000Y393150D01*
X267152Y392152D01*
G02X267576Y391727I-297J-721D01*
G03X268424I424J424D01*
G37*
G36*
G01X268985Y388084D02*
G02X271966Y385095I-2134J-5109D01*
G01X274084Y388444D01*
X271966Y391792D01*
G02X268985Y388802I-5115J2119D01*
G03Y388084I481J-359D01*
G37*
G36*
G01X266207Y371449D02*
G02X266879Y372121I1142J-470D01*
G01X265500Y373750D01*
X264121Y372121D01*
G02X264793Y371449I-471J-1143D01*
G03X266207Y371449I707J707D01*
G37*
G36*
G01X278745Y394167D02*
G02X276966Y392390I-3036J1262D01*
G01X278930Y388378D01*
X280895Y392390D01*
G02X279116Y394167I1257J3039D01*
G03X278745I-185J-236D01*
G37*
G36*
G01X263812Y446344D02*
G02X264484Y447016I1142J-470D01*
G01X263106Y448644D01*
X261727Y447016D01*
G02X262398Y446344I-471J-1143D01*
G03X263812Y446344I707J707D01*
G37*
G36*
G01X262567Y446909D02*
G02X259191Y443566I-5792J2473D01*
G01X263106Y439380D01*
X267020Y443566D01*
G02X263644Y446909I2416J5816D01*
G03X262567I-538J-843D01*
G37*
G36*
G01X258926Y498730D02*
G02X259598Y499402I1142J-470D01*
G01X258219Y501031D01*
X256840Y499402D01*
G02X257512Y498730I-471J-1143D01*
G03X258926Y498730I707J707D01*
G37*
G36*
G01X262085Y491233D02*
G02X260187Y493008I1195J3180D01*
G01X258144Y491039D01*
X260187Y489071D01*
G02X262085Y490845I3093J-1405D01*
G03Y491233I-229J194D01*
G37*
G36*
G01X277131Y496303D02*
G02X279368Y494189I-1431J-3755D01*
G01X281411Y496151D01*
X279368Y498126D01*
G02X277169Y496733I-2782J1960D01*
G03X277131Y496303I189J-233D01*
G37*
G36*
G01X299124Y382619D02*
G02X300899Y384516I3180J-1195D01*
G01X298930Y388528D01*
X296962Y384516D01*
G02X298736Y382619I-1405J-3093D01*
G03X299124I194J229D01*
G37*
G36*
G01X294302Y394853D02*
G02X291962Y392391I-4137J1587D01*
G01X293924Y388379D01*
X295899Y392391D01*
G02X294754Y394787I2323J2581D01*
G03X294302Y394853I-254J-159D01*
G37*
G36*
G01X288736Y394288D02*
G02X286962Y392391I-3180J1195D01*
G01X288930Y388378D01*
X290899Y392391D01*
G02X289124Y394288I1405J3093D01*
G03X288736I-194J-229D01*
G37*
G36*
G01X283736D02*
G02X281962Y392391I-3180J1195D01*
G01X283930Y388378D01*
X285899Y392391D01*
G02X284124Y394288I1405J3093D01*
G03X283736I-194J-229D01*
G37*
G36*
G01X280630Y488387D02*
G02X279958Y487716I-1142J470D01*
G01X281337Y486087D01*
X282715Y487716D01*
G02X282044Y488387I471J1143D01*
G03X280630Y488387I-707J-707D01*
G37*
G36*
G01X281778Y487205D02*
G02X283305Y489071I3224J-1081D01*
G01X281337Y491289D01*
X279368Y489071D01*
G02X280895Y487205I-1697J-2947D01*
G03X281778I441J897D01*
G37*
G36*
G01X290036Y498278D02*
G02X290708Y498950I1142J-470D01*
G01X289329Y500579D01*
X287950Y498950D01*
G02X288622Y498278I-471J-1143D01*
G03X290036Y498278I707J707D01*
G37*
G36*
G01X288888Y499992D02*
G02X287360Y498126I-3224J1081D01*
G01X289329Y495907D01*
X291297Y498126D01*
G02X289770Y499992I1697J2947D01*
G03X288888I-441J-897D01*
G37*
G36*
G01X293195Y491233D02*
G02X291297Y493008I1195J3180D01*
G01X289254Y491039D01*
X291297Y489071D01*
G02X293195Y490845I3093J-1405D01*
G03Y491233I-229J194D01*
G37*
G36*
G01X309214Y70456D02*
X311080D01*
X311177Y65780D01*
X311197D01*
X313122Y70456D01*
X314531D01*
X314706Y65761D01*
X314725D01*
X316572Y70456D01*
X318429D01*
X315192Y63262D01*
X313578D01*
X313364Y67919D01*
X313345D01*
X311401Y63262D01*
X309739D01*
X309214Y70456D01*
G37*
G36*
G01X326109D02*
X327966D01*
X324729Y63262D01*
X323115D01*
X322901Y67919D01*
X322882D01*
X320938Y63262D01*
X319275D01*
X318750Y70456D01*
X320617D01*
X320714Y65780D01*
X320733D01*
X322658Y70456D01*
X324068D01*
X324243Y65761D01*
X324262D01*
X326109Y70456D01*
G37*
G36*
G01X314242Y388992D02*
G02X310899Y392368I2472J5791D01*
G01X308680Y388454D01*
X310899Y384539D01*
G02X314242Y387915I5815J-2415D01*
G03Y388992I-843J538D01*
G37*
G36*
G01X303753Y393811D02*
G02X302327Y392390I-2437J1020D01*
G01X303930Y388378D01*
X305534Y392390D01*
G02X304108Y393811I1012J2441D01*
G03X303753I-178J-242D01*
G37*
G36*
G01X320900Y446757D02*
G02X321571Y447428I1142J-470D01*
G01X320192Y449058D01*
X318814Y447429D01*
G02X319485Y446757I-471J-1143D01*
G03X320900Y446757I707J707D01*
G37*
G36*
G01X319654Y446909D02*
G02X316278Y443566I-5792J2473D01*
G01X320192Y439380D01*
X324107Y443566D01*
G02X320731Y446909I2416J5816D01*
G03X319654I-538J-843D01*
G37*
G36*
G01X312780Y488064D02*
G02X312108Y487392I-1142J470D01*
G01X313487Y485763D01*
X314866Y487392D01*
G02X314194Y488063I471J1143D01*
G03X312780Y488064I-707J-707D01*
G37*
G36*
G01X313929Y487205D02*
G02X315456Y489071I3224J-1081D01*
G01X313487Y491289D01*
X311519Y489071D01*
G02X313046Y487205I-1697J-2947D01*
G03X313929I441J897D01*
G37*
G36*
G01X322186Y498929D02*
G02X322858Y499600I1142J-470D01*
G01X321479Y501229D01*
X320101Y499601D01*
G02X320772Y498929I-471J-1143D01*
G03X322186Y498929I707J707D01*
G37*
G36*
G01X321038Y499992D02*
G02X319511Y498126I-3224J1081D01*
G01X321479Y495907D01*
X323448Y498126D01*
G02X321921Y499992I1697J2947D01*
G03X321038I-441J-897D01*
G37*
G36*
G01X309482Y495787D02*
G02X311519Y494189I-912J-3260D01*
G01X313562Y496160D01*
X311519Y498126D01*
G02X309465Y496195I-3357J1513D01*
G03X309482Y495787I228J-195D01*
G37*
G36*
G01X325345Y491233D02*
G02X323448Y493008I1195J3180D01*
G01X321404Y491039D01*
X323448Y489071D01*
G02X325345Y490845I3093J-1405D01*
G03Y491233I-229J194D01*
G37*
G36*
G01X332195Y70456D02*
X333604D01*
X333780Y65761D01*
X333799D01*
X335646Y70456D01*
X337503D01*
X334266Y63262D01*
X332652D01*
X332438Y67919D01*
X332419D01*
X330474Y63262D01*
X328812D01*
X328287Y70456D01*
X330154D01*
X330251Y65780D01*
X330270D01*
X332195Y70456D01*
G37*
G36*
G01X337989Y64915D02*
X337678Y63262D01*
X335996D01*
X336307Y64915D01*
X337989D01*
G37*
G36*
G01X339846Y70456D02*
X344386D01*
X344114Y68969D01*
X341061Y64876D01*
X343355D01*
X343054Y63262D01*
X338514D01*
X338738Y64468D01*
X342024Y68842D01*
X339545D01*
X339846Y70456D01*
G37*
G36*
G01X326035Y386915D02*
G02Y385965I-1140J-475D01*
G01X328162Y385788D01*
X327985Y387915D01*
G02X327035I-475J1140D01*
G03X326035Y386915I0J-1000D01*
G37*
G36*
G01X343605Y495963D02*
G02X345502Y494189I-1195J-3180D01*
G01X347546Y496157D01*
X345502Y498126D01*
G02X343605Y496351I-3093J1405D01*
G03Y495963I229J-194D01*
G37*
G36*
G01X354069Y65333D02*
G02X353936Y64845I-2875J518D01*
G02X352852Y63547I-2310J828D01*
G02X351904Y63197I-1513J2644D01*
G02X350711Y63150I-754J3979D01*
G02X350106Y63282I302J2851D01*
G02X349654Y63500I623J1868D01*
G02X349110Y64124I812J1256D01*
G02X348963Y64649I1615J735D01*
G02X348964Y65254I2462J298D01*
G02X349023Y65644I6911J-840D01*
G01X350851D01*
G03X350827Y65450I11199J-1454D01*
G03X350827Y65241I982J-106D01*
G03X350904Y64972I764J73D01*
G03X351268Y64680I488J235D01*
G03X351598Y64683I160J717D01*
G03X352260Y65473I-208J846D01*
G03X352182Y65745I-427J24D01*
G03X351988Y65933I-633J-456D01*
G03X351752Y66076I-1196J-1703D01*
G03X351368Y66259I-3062J-5950D01*
G02X350943Y66452I7408J16855D01*
G02X350622Y66618I2140J4535D01*
G02X350318Y66813I1467J2623D01*
G02X350049Y67046I1193J1649D01*
G02X349636Y67928I1034J1023D01*
G02X349987Y69285I2061J191D01*
G02X350532Y69873I2188J-1481D01*
G02X352133Y70560I2087J-2654D01*
G02X353255Y70509I433J-2850D01*
G02X353918Y70221I-503J-2063D01*
G02X354609Y69096I-832J-1287D01*
G02X354616Y68694I-2144J-236D01*
G02X354574Y68357I-3689J288D01*
G01X352756D01*
Y68473D01*
G03X352756Y68539I-1117J35D01*
G03X352745Y68660I-914J-20D01*
G03X352718Y68768I-614J-96D01*
G03X352452Y69025I-375J-121D01*
G03X351903Y68989I-224J-779D01*
G03X351473Y68337I279J-652D01*
G03X351503Y68198I340J0D01*
G03X351561Y68103I421J190D01*
G03X351646Y68012I568J453D01*
G03X351841Y67870I940J1083D01*
G03X352086Y67734I1845J3024D01*
G03X352310Y67624I4415J8676D01*
G02X352671Y67450I-13996J-29600D01*
G02X352919Y67324I-3599J-7356D01*
G02X353162Y67185I-2326J-4371D01*
G02X353504Y66947I-1610J-2674D01*
G02X353834Y66611I-1188J-1497D01*
G02X354117Y65761I-1090J-835D01*
G02X354069Y65333I-2077J19D01*
G37*
G36*
G01X345193Y70456D02*
X349188D01*
X348887Y68842D01*
X346651D01*
X346447Y67725D01*
X348615D01*
X348313Y66111D01*
X346146D01*
X345922Y64876D01*
X348158D01*
X347856Y63262D01*
X343861D01*
X345193Y70456D01*
G37*
G36*
G01X360748D02*
X364743D01*
X364441Y68842D01*
X362205D01*
X362002Y67725D01*
X364169D01*
X363868Y66111D01*
X361700D01*
X361476Y64876D01*
X363712D01*
X363411Y63262D01*
X359416D01*
X360748Y70456D01*
G37*
G36*
G01X355342D02*
X360008D01*
X359707Y68842D01*
X358298D01*
X357267Y63262D01*
X355430D01*
X356460Y68842D01*
X355041D01*
X355342Y70456D01*
G37*
G36*
G01X369963D02*
X371888D01*
X368845Y66869D01*
X370712Y63262D01*
X368563D01*
X367173Y66373D01*
X367154D01*
X366580Y63262D01*
X364743D01*
X366075Y70456D01*
X367912D01*
X367310Y67219D01*
X367329D01*
X369963Y70456D01*
G37*
G36*
G01X346764Y487080D02*
G02X346092Y486408I-1142J470D01*
G01X347471Y484779D01*
X348850Y486408D01*
G02X348178Y487080I471J1143D01*
G03X346764Y487080I-707J-707D01*
G37*
G36*
G01X347912Y487205D02*
G02X349439Y489071I3224J-1081D01*
G01X347471Y491289D01*
X345502Y489071D01*
G02X347029Y487205I-1697J-2947D01*
G03X347912I441J897D01*
G37*
G36*
G01X356170Y499912D02*
G02X356842Y500584I1142J-470D01*
G01X355463Y502213D01*
X354084Y500584D01*
G02X354756Y499912I-471J-1143D01*
G03X356170Y499912I707J707D01*
G37*
G36*
G01X355022Y499992D02*
G02X353495Y498126I-3224J1081D01*
G01X355463Y495907D01*
X357432Y498126D01*
G02X355904Y499992I1697J2947D01*
G03X355022I-441J-897D01*
G37*
G36*
G01X359329Y491233D02*
G02X357432Y493008I1195J3180D01*
G01X355388Y491039D01*
X357432Y489071D01*
G02X359329Y490845I3093J-1405D01*
G03Y491233I-229J194D01*
G37*
G36*
G01X375806Y70456D02*
X377390D01*
X379335Y65936D01*
X379354Y65955D01*
X380112Y70456D01*
X381872D01*
X380540Y63262D01*
X378946D01*
X377011Y67637D01*
X376992Y67627D01*
X376234Y63262D01*
X374474D01*
X375806Y70456D01*
G37*
G36*
G01X373453Y64915D02*
X373142Y63262D01*
X371460D01*
X371772Y64915D01*
X373453D01*
G37*
G36*
G01X383185Y70456D02*
X387180D01*
X386879Y68842D01*
X384643D01*
X384439Y67725D01*
X386606D01*
X386305Y66111D01*
X384137D01*
X383914Y64876D01*
X386150D01*
X385848Y63262D01*
X381853D01*
X383185Y70456D01*
G37*
G36*
G01X387763D02*
X392429D01*
X392128Y68842D01*
X390719D01*
X389688Y63262D01*
X387851D01*
X388881Y68842D01*
X387462D01*
X387763Y70456D01*
G37*
G36*
G01X397978Y152951D02*
X385263D01*
X385498Y154884D01*
G02X385551Y155189I1916J-179D01*
G02X386580Y156362I1664J-422D01*
G02X387368Y156511I772J-1927D01*
G01X405449D01*
Y156510D01*
X405036Y152957D01*
X391504Y145568D01*
X404145D01*
X403935Y143635D01*
G02X403806Y143126I-1984J232D01*
G02X402810Y142141I-1612J634D01*
G02X402065Y142008I-730J1932D01*
G01X384036Y142007D01*
X384309Y144367D01*
G02X385505Y146141I2311J-267D01*
G01X397978Y152951D01*
G37*
G36*
G01X384350Y428550D02*
G02X385250I450J-1080D01*
G01X385303Y429803D01*
X384050Y429750D01*
G02Y428850I-1080J-450D01*
G03X384350Y428550I300J0D01*
G37*
G36*
G01X386212Y424015D02*
G02X386848Y424652I1082J-446D01*
G01X386000Y425575D01*
X385152Y424652D01*
G02X385788Y424015I-446J-1082D01*
G03X386212I212J212D01*
G37*
G36*
G01X386800Y465400D02*
G02Y464500I-1080J-450D01*
G01X388053Y464447D01*
X388000Y465700D01*
G02X387100I-450J1080D01*
G03X386800Y465400I0J-300D01*
G37*
G36*
G01X380740Y487104D02*
G02X380068Y486432I-1142J470D01*
G01X381447Y484803D01*
X382826Y486432D01*
G02X382154Y487104I471J1143D01*
G03X380740Y487104I-707J-707D01*
G37*
G36*
G01X381888Y487205D02*
G02X383415Y489071I3224J-1081D01*
G01X381447Y491289D01*
X379478Y489071D01*
G02X381005Y487205I-1697J-2947D01*
G03X381888I441J897D01*
G37*
G36*
G01X388998Y499992D02*
G02X387470Y498126I-3224J1081D01*
G01X389439Y495907D01*
X391408Y498126D01*
G02X389880Y499992I1697J2947D01*
G03X388998I-441J-897D01*
G37*
G36*
G01X377581Y495963D02*
G02X379478Y494189I-1195J-3180D01*
G01X381522Y496157D01*
X379478Y498126D01*
G02X377581Y496351I-3093J1405D01*
G03Y495963I229J-194D01*
G37*
G36*
G01X421919Y150990D02*
X421699Y148894D01*
G02X420080Y147436I-1619J170D01*
G01X405974D01*
X406348Y150990D01*
X421919D01*
G37*
G36*
G01X405720Y145562D02*
X423926D01*
X423706Y143466D01*
G02X422086Y142008I-1619J170D01*
G01X405347D01*
X405720Y145562D01*
G37*
G36*
G01X425125Y156511D02*
X424904Y154415D01*
G02X423285Y152957I-1619J170D01*
G01X406546D01*
X406766Y155053D01*
G02X408386Y156511I1619J-170D01*
G01X425125D01*
G37*
G36*
G01X402541Y399712D02*
G02X402126Y400126I290J704D01*
G01X401425Y399500D01*
X402126Y398874D01*
G02X402541Y399288I704J-290D01*
G03Y399712I-212J212D01*
G37*
G36*
G01X400788Y462041D02*
G02X400374Y461626I-704J290D01*
G01X401000Y460925D01*
X401626Y461626D01*
G02X401212Y462041I290J704D01*
G03X400788I-212J-212D01*
G37*
G36*
G01X397114Y464586D02*
G02X397114Y463500I-1303J-543D01*
G01X398036Y463434D01*
X398195Y464314D01*
G02X397609Y464814I307J953D01*
G03X397114Y464586I-195J-228D01*
G37*
G36*
G01X389200Y463600D02*
G02Y464500I1080J450D01*
G01X387947Y464553D01*
X388000Y463300D01*
G02X388900I450J-1080D01*
G03X389200Y463600I0J300D01*
G37*
G36*
G01X390146Y499010D02*
G02X390818Y499682I1142J-470D01*
G01X389439Y501311D01*
X388060Y499682D01*
G02X388732Y499010I-471J-1143D01*
G03X390146Y499010I707J707D01*
G37*
G36*
G01X393305Y491233D02*
G02X391408Y493008I1195J3180D01*
G01X389364Y491039D01*
X391408Y489071D01*
G02X393305Y490845I3093J-1405D01*
G03Y491233I-229J194D01*
G37*
G36*
G01X429520Y156511D02*
X479993D01*
X479773Y154415D01*
G02X478154Y152957I-1619J170D01*
G01X455385Y152951D01*
X454173Y142008D01*
X450613D01*
X451825Y152951D01*
X430517D01*
G03X430377Y152942I-1J-1121D01*
G03X430025Y152831I116J-983D01*
G03X429581Y152137I395J-741D01*
G01X429445Y150996D01*
X445770D01*
X445097Y144881D01*
G02X444997Y144342I-3405J349D01*
G02X443233Y142300I-2962J776D01*
G02X441765Y142008I-1439J3391D01*
G01X424880D01*
X425115Y143940D01*
G02X425169Y144246I1916J-179D01*
G02X426197Y145419I1664J-422D01*
G02X426986Y145568I773J-1928D01*
G01X440768D01*
G03X441100Y145620I8J1036D01*
G03X441527Y145928I-270J826D01*
G03X441703Y146381I-769J558D01*
G01X441834Y147436D01*
X425509D01*
X426193Y153612D01*
G02X426311Y154233I3443J-335D01*
G02X428191Y156275I2947J-827D01*
G02X429520Y156511I1304J-3481D01*
G37*
G36*
G01X425459Y399288D02*
G02X425874Y398874I-290J-704D01*
G01X426575Y399500D01*
X425874Y400126D01*
G02X425459Y399712I-704J290D01*
G03Y399288I212J-212D01*
G37*
G36*
G01X412886Y487958D02*
G02X412214Y487286I-1142J470D01*
G01X413593Y485657D01*
X414972Y487286D01*
G02X414300Y487958I471J1143D01*
G03X412886Y487958I-707J-707D01*
G37*
G36*
G01X414034Y487205D02*
G02X415561Y489071I3224J-1081D01*
G01X413593Y491289D01*
X411624Y489071D01*
G02X413152Y487205I-1697J-2947D01*
G03X414034I441J897D01*
G37*
G36*
G01X422292Y499034D02*
G02X422964Y499706I1142J-470D01*
G01X421585Y501335D01*
X420206Y499706D01*
G02X420878Y499035I-471J-1143D01*
G03X422292Y499034I707J707D01*
G37*
G36*
G01X421144Y499992D02*
G02X419617Y498126I-3224J1081D01*
G01X421585Y495907D01*
X423554Y498126D01*
G02X422027Y499992I1697J2947D01*
G03X421144I-441J-897D01*
G37*
G36*
G01X409727Y495963D02*
G02X411624Y494189I-1195J-3180D01*
G01X413668Y496157D01*
X411624Y498126D01*
G02X409727Y496351I-3093J1405D01*
G03Y495963I229J-194D01*
G37*
G36*
G01X425451Y491233D02*
G02X423554Y493008I1195J3180D01*
G01X421510Y491039D01*
X423554Y489071D01*
G02X425451Y490845I3093J-1405D01*
G03Y491233I-229J194D01*
G37*
G36*
G01X450469Y120785D02*
G02X449943Y120813I-256J148D01*
G02X449823Y131316I11607J5386D01*
G02X450094Y131494I271J-118D01*
G01X456390D01*
G02X456602Y130993I0J-295D01*
G03X455583Y129643I4948J-4795D01*
G01X450469Y120785D01*
G37*
G36*
G01X451254Y118602D02*
G02X451236Y118924I238J175D01*
G01X454384Y124378D01*
G02X454924Y124311I256J-148D01*
G03X455583Y122753I6626J1887D01*
G01X460698Y113895D01*
G02X460416Y113453I-256J-148D01*
G02X451254Y118602I1134J12745D01*
G37*
G36*
G01X451321Y133088D02*
G02X451080Y133553I0J295D01*
G02X460119Y138913I10470J-7355D01*
G02X460408Y138767I33J-293D01*
G01X463556Y133314D01*
G02X463229Y132880I-256J-148D01*
G03X461550Y133088I-1679J-6682D01*
G01X451321D01*
G37*
G36*
G01X452390Y258147D02*
G02X451718Y257476I-1142J470D01*
G01X453096Y255846D01*
X454475Y257475D01*
G02X453804Y258147I471J1143D01*
G03X452390Y258147I-707J-707D01*
G37*
G36*
G01X453570Y265139D02*
G02X455262Y267185I3496J-1168D01*
G01X453096Y269404D01*
X450931Y267185D01*
G02X452623Y265139I-1805J-3214D01*
G03X453570I474J881D01*
G37*
G36*
G01X457128Y274819D02*
G02X455262Y276346I1081J3224D01*
G01X452847Y274378D01*
X455262Y272410D01*
G02X457128Y273937I2947J-1697D01*
G03Y274819I-897J441D01*
G37*
G36*
G01X446208Y273215D02*
G02X444238Y271122I-3510J1330D01*
G01X446404Y269079D01*
X448569Y271122D01*
G02X446599Y273215I1540J3423D01*
G03X446208I-196J-227D01*
G37*
G36*
G01X446599Y275541D02*
G02X448569Y277634I3510J-1330D01*
G01X446404Y279677D01*
X444238Y277634D01*
G02X446208Y275541I-1540J-3423D01*
G03X446599I196J227D01*
G37*
G36*
G01Y270317D02*
G02X448569Y272410I3510J-1330D01*
G01X446404Y274453D01*
X444238Y272410D01*
G02X446208Y270317I-1540J-3423D01*
G03X446599I196J227D01*
G37*
G36*
G01X446208Y278439D02*
G02X444238Y276346I-3510J1330D01*
G01X446404Y274303D01*
X448569Y276346D01*
G02X446599Y278439I1540J3423D01*
G03X446208I-196J-227D01*
G37*
G36*
G01X457686Y279521D02*
G02X455262Y281571I1379J4090D01*
G01X452850Y279642D01*
X455262Y277634D01*
G02X457489Y278245I1928J-2659D01*
G03X457686Y279521I-656J755D01*
G37*
G36*
G01X440829Y293576D02*
G02X441253Y293152I-297J-721D01*
G01X442252Y294000D01*
X441253Y294848D01*
G02X440829Y294424I-721J297D01*
G03Y293576I424J-424D01*
G37*
G36*
G01X446052Y294071D02*
G02X444238Y292020I-3431J1205D01*
G01X446404Y289901D01*
X448569Y292020D01*
G02X446755Y294071I1617J3257D01*
G03X446052I-352J-486D01*
G37*
G36*
G01X442377Y289709D02*
G02X444238Y288083I-1080J-3115D01*
G01X446554Y290051D01*
X444238Y292020D01*
G02X442377Y290394I-2942J1489D01*
G03Y289709I493J-342D01*
G37*
G36*
G01X446052Y299296D02*
G02X444238Y297244I-3431J1205D01*
G01X446404Y295126D01*
X448569Y297244D01*
G02X446755Y299296I1617J3257D01*
G03X446052I-352J-486D01*
G37*
G36*
G01X446755Y291256D02*
G02X448569Y293307I3431J-1205D01*
G01X446404Y295426D01*
X444238Y293307D01*
G02X446052Y291256I-1617J-3257D01*
G03X446755I351J486D01*
G37*
G36*
G01Y296480D02*
G02X448569Y298532I3431J-1205D01*
G01X446404Y300650D01*
X444238Y298532D01*
G02X446052Y296480I-1617J-3257D01*
G03X446755I351J486D01*
G37*
G36*
G01X442377Y300158D02*
G02X444238Y298532I-1080J-3115D01*
G01X446554Y300500D01*
X444238Y302468D01*
G02X442377Y300843I-2942J1489D01*
G03Y300158I493J-343D01*
G37*
G36*
G01X457128Y290493D02*
G02X455262Y292020I1081J3224D01*
G01X452847Y290051D01*
X455262Y288083D01*
G02X457128Y289610I2947J-1697D01*
G03Y290493I-897J441D01*
G37*
G36*
G01X443877Y285534D02*
G02X443206Y286206I471J1143D01*
G01X441577Y284827D01*
X443206Y283448D01*
G02X443877Y284120I1143J-471D01*
G03Y285534I-707J707D01*
G37*
G36*
G01X442372Y284385D02*
G02X444238Y282858I-1081J-3224D01*
G01X446654Y284827D01*
X444238Y286795D01*
G02X442372Y285268I-2947J1697D01*
G03Y284385I897J-441D01*
G37*
G36*
G01X457159Y285021D02*
G02X455262Y286795I1195J3180D01*
G01X453022Y284827D01*
X455262Y282858D01*
G02X457159Y284633I3093J-1405D01*
G03Y285021I-229J194D01*
G37*
G36*
G01X452745Y299296D02*
G02X450931Y297244I-3431J1205D01*
G01X453096Y295126D01*
X455262Y297244D01*
G02X453448Y299296I1617J3257D01*
G03X452745I-351J-486D01*
G37*
G36*
G01X453448Y301704D02*
G02X455262Y303756I3431J-1205D01*
G01X453096Y305874D01*
X450931Y303756D01*
G02X452745Y301704I-1617J-3257D01*
G03X453448I352J486D01*
G37*
G36*
G01Y296480D02*
G02X455262Y298532I3431J-1205D01*
G01X453096Y300650D01*
X450931Y298532D01*
G02X452745Y296480I-1617J-3257D01*
G03X453448I352J486D01*
G37*
G36*
G01X452745Y304520D02*
G02X450931Y302468I-3431J1205D01*
G01X453096Y300350D01*
X455262Y302468D01*
G02X453448Y304520I1617J3257D01*
G03X452745I-351J-486D01*
G37*
G36*
G01X457159Y316367D02*
G02X455262Y318142I1195J3180D01*
G01X453022Y316173D01*
X455262Y314205D01*
G02X457159Y315979I3093J-1405D01*
G03Y316367I-229J194D01*
G37*
G36*
G01Y311143D02*
G02X455262Y312917I1195J3180D01*
G01X453022Y310949D01*
X455262Y308980D01*
G02X457159Y310755I3093J-1405D01*
G03Y311143I-229J194D01*
G37*
G36*
G01X442377Y315831D02*
G02X444238Y314205I-1080J-3115D01*
G01X446554Y316173D01*
X444238Y318142D01*
G02X442377Y316516I-2942J1489D01*
G03Y315831I493J-343D01*
G37*
G36*
G01X457128Y321839D02*
G02X455262Y323366I1081J3224D01*
G01X452847Y321398D01*
X455262Y319429D01*
G02X457128Y320956I2947J-1697D01*
G03Y321839I-897J441D01*
G37*
G36*
G01X442653Y322105D02*
G02X441981Y322776I471J1143D01*
G01X440352Y321398D01*
X441981Y320019D01*
G02X442653Y320691I1143J-471D01*
G03Y322105I-707J707D01*
G37*
G36*
G01X443602Y311656D02*
G02X442930Y312328I471J1143D01*
G01X441301Y310949D01*
X442930Y309570D01*
G02X443602Y310242I1143J-471D01*
G03Y311656I-707J707D01*
G37*
G36*
G01X442372Y310507D02*
G02X444238Y308980I-1081J-3224D01*
G01X446654Y310949D01*
X444238Y312917D01*
G02X442372Y311390I-2947J1697D01*
G03Y310507I897J-441D01*
G37*
G36*
G01X446877Y306934D02*
G02X448569Y308980I3496J-1168D01*
G01X446404Y311199D01*
X444238Y308980D01*
G02X445930Y306934I-1805J-3214D01*
G03X446877I474J881D01*
G37*
G36*
G01X442372Y320956D02*
G02X444238Y319429I-1081J-3224D01*
G01X446654Y321398D01*
X444238Y323366D01*
G02X442372Y321839I-2947J1697D01*
G03Y320956I897J-441D01*
G37*
G36*
G01X445930Y309739D02*
G02X444238Y307693I-3496J1168D01*
G01X446404Y305474D01*
X448569Y307693D01*
G02X446877Y309739I1805J3214D01*
G03X445930I-474J-881D01*
G37*
G36*
G01X457467Y306639D02*
G02X455262Y307693I201J3257D01*
G01X452948Y305707D01*
X455262Y303756D01*
G02X457563Y305817I3672J-1785D01*
G03X457467Y306639I-479J361D01*
G37*
G36*
G01X450088Y331995D02*
G02X447904Y329687I-3874J1479D01*
G01X450286Y328175D01*
X452668Y329687D01*
G02X450483Y331995I1689J3787D01*
G03X450088I-197J-226D01*
G37*
G36*
G01X435452Y455800D02*
G02X436352I450J-1080D01*
G01X436404Y457053D01*
X435152Y457000D01*
G02Y456100I-1080J-450D01*
G03X435452Y455800I300J0D01*
G37*
G36*
G01X443969Y488375D02*
G02X443297Y487704I-1142J470D01*
G01X444676Y486074D01*
X446054Y487703D01*
G02X445383Y488375I471J1143D01*
G03X443969Y488375I-707J-707D01*
G37*
G36*
G01X445117Y487205D02*
G02X446644Y489071I3224J-1081D01*
G01X444676Y491289D01*
X442707Y489071D01*
G02X444234Y487205I-1697J-2947D01*
G03X445117I441J897D01*
G37*
G36*
G01X453375Y498617D02*
G02X454046Y499289I1142J-470D01*
G01X452668Y500918D01*
X451289Y499289D01*
G02X451961Y498617I-471J-1143D01*
G03X453375Y498617I707J707D01*
G37*
G36*
G01X452226Y499992D02*
G02X450699Y498126I-3224J1081D01*
G01X452668Y495907D01*
X454636Y498126D01*
G02X453109Y499992I1697J2947D01*
G03X452226I-441J-897D01*
G37*
G36*
G01X452862Y487173D02*
G02X454636Y489071I3180J-1195D01*
G01X452668Y491114D01*
X450699Y489071D01*
G02X452474Y487173I-1405J-3093D01*
G03X452862I194J229D01*
G37*
G36*
G01X440810Y495963D02*
G02X442707Y494189I-1195J-3180D01*
G01X444751Y496157D01*
X442707Y498126D01*
G02X440810Y496351I-3093J1405D01*
G03Y495963I229J-194D01*
G37*
G36*
G01X466800Y95400D02*
G02Y94500I-1080J-450D01*
G01X468053Y94447D01*
X468000Y95700D01*
G02X467100I-450J1080D01*
G03X466800Y95400I0J-300D01*
G37*
G36*
G01X466498Y121403D02*
G03X466710Y120902I212J-205D01*
G01X473006D01*
G03X473277Y121080I0J295D01*
G03X473155Y131588I-11727J5119D01*
G03X472631Y131611I-268J-124D01*
G01X467517Y122753D01*
G02X466498Y121403I-5967J3445D01*
G37*
G36*
G01X462978Y113483D02*
G02X462692Y113629I-30J294D01*
G01X459544Y119082D01*
G02X459875Y119515I256J148D01*
G03X461550Y119308I1675J6683D01*
G01X471779D01*
G02X472020Y118843I0J-295D01*
G02X462978Y113483I-10470J7355D01*
G37*
G36*
G01X471846Y133898D02*
G02X471864Y133576I-238J-175D01*
G01X468716Y128122D01*
G02X468176Y128189I-256J148D01*
G03X467517Y129747I-6626J-1887D01*
G01X462402Y138605D01*
G02X462684Y139047I256J148D01*
G02X471846Y133898I-1134J-12745D01*
G37*
G36*
G01X476788Y150990D02*
X476567Y148894D01*
G02X474948Y147436I-1619J170D01*
G01X460843D01*
X461216Y150990D01*
X476788D01*
G37*
G36*
G01X460589Y145562D02*
X478794D01*
X478574Y143466D01*
G02X476955Y142008I-1619J170D01*
G01X460215D01*
X460589Y145562D01*
G37*
G36*
G01X457114Y186086D02*
G02X457114Y185500I-703J-293D01*
G01X458053Y185447D01*
X458000Y186386D01*
G02X457414Y186386I-293J703D01*
G03X457114Y186086I0J-300D01*
G37*
G36*
G01X457793Y262551D02*
G02X457121Y261879I-1142J470D01*
G01X458500Y260250D01*
X459879Y261879D01*
G02X459207Y262551I471J1143D01*
G03X457793Y262551I-707J-707D01*
G37*
G36*
G01X459486Y273673D02*
G02X461532Y271981I-1168J-3496D01*
G01X463750Y274146D01*
X461532Y276312D01*
G02X459486Y274620I-3214J1805D01*
G03Y273673I881J-474D01*
G37*
G36*
G01X468592Y276994D02*
G02X467887Y276312I-1211J546D01*
G01X468724Y274072D01*
X469561Y276312D01*
G02X468857Y276994I507J1228D01*
G03X468592I-133J-269D01*
G37*
G36*
G01X473678Y277858D02*
G02X475095Y279271I2424J-1015D01*
G01X473610Y280145D01*
X472020Y279293D01*
G02X473312Y277866I-1086J-2282D01*
G03X473678Y277858I188J234D01*
G37*
G36*
G01X463288Y264485D02*
G02X462652Y263848I-1082J446D01*
G01X463500Y262925D01*
X464348Y263848D01*
G02X463712Y264485I446J1082D01*
G03X463288I-212J-212D01*
G37*
G36*
G01X460115Y282842D02*
G02X459478Y283478I446J1082D01*
G01X458555Y282630D01*
X459478Y281781D01*
G02X460115Y282418I1082J-446D01*
G03Y282842I-212J212D01*
G37*
G36*
G01X463694Y263391D02*
G02X465469Y265288I3180J-1195D01*
G01X463500Y267528D01*
X461532Y265288D01*
G02X463306Y263391I-1405J-3093D01*
G03X463694I194J229D01*
G37*
G36*
G01X467561Y267649D02*
G02X465469Y269619I1330J3510D01*
G01X463425Y267454D01*
X465469Y265288D01*
G02X467561Y267258I3423J-1540D01*
G03Y267649I-227J196D01*
G37*
G36*
G01X464663Y267258D02*
G02X466756Y265288I-1330J-3510D01*
G01X468799Y267454D01*
X466756Y269619D01*
G02X464663Y267649I-3423J1540D01*
G03Y267258I227J-196D01*
G37*
G36*
G01X460265Y282471D02*
G02X461019Y281830I-430J-1270D01*
G01X463444Y282630D01*
X461019Y283430D01*
G02X460265Y282789I-1184J629D01*
G03Y282471I254J-159D01*
G37*
G36*
G01X474656Y289550D02*
G02X476500I922J-2214D01*
G01X476722Y291614D01*
X474822Y292185D01*
G02X473928Y291236I-1587J599D01*
G03X474656Y289550I728J-685D01*
G37*
G36*
G01X459207Y298449D02*
G02X459879Y299121I1142J-470D01*
G01X458500Y300750D01*
X457121Y299121D01*
G02X457793Y298449I-471J-1143D01*
G03X459207Y298449I707J707D01*
G37*
G36*
G01X494500Y302500D02*
G02X495500Y301500I0J-1000D01*
G01Y296500D01*
X481000D01*
G03X480000Y295500I0J-1000D01*
G02X479000Y294500I-1000J0D01*
G01X472500D01*
G03X471500Y293500I0J-1000D01*
G01Y291500D01*
G02X471000Y291000I-500J0D01*
G03X470500Y290500I0J-500D01*
G01Y287000D01*
G03X471500Y286000I1000J0D01*
G01X476000D01*
Y284500D01*
X468000D01*
G02X467000Y285500I0J1000D01*
G01Y295500D01*
G02X468000Y296500I1000J0D01*
G01X475500D01*
G03X476500Y297500I0J1000D01*
G01Y301500D01*
G02X477500Y302500I1000J0D01*
G01X494500D01*
G37*
G36*
G01X464220Y289429D02*
G02X465994Y291326I3180J-1195D01*
G01X464026Y293566D01*
X462057Y291326D01*
G02X463832Y289429I-1405J-3093D01*
G03X464220I194J229D01*
G37*
G36*
G01X463831Y291276D02*
G02X461101Y288548I-4648J1921D01*
G01X463355Y287674D01*
X465717Y288418D01*
G02X464278Y291210I2646J3131D01*
G03X463831Y291276I-252J-162D01*
G37*
G36*
G01X460022Y284559D02*
G02X461019Y284389I284J-1339D01*
G01X463444Y285197D01*
X461019Y285989D01*
G02X459917Y285006I-1757J860D01*
G03X460022Y284559I241J-179D01*
G37*
G36*
G01X465189Y299989D02*
G02X467282Y298019I-1330J-3510D01*
G01X469325Y300184D01*
X467282Y302350D01*
G02X465189Y300380I-3423J1540D01*
G03Y299989I227J-196D01*
G37*
G36*
G01X468087Y300380D02*
G02X465994Y302350I1330J3510D01*
G01X463951Y300184D01*
X465994Y298019D01*
G02X468087Y299989I3423J-1540D01*
G03Y300380I-227J196D01*
G37*
G36*
G01X459142Y316002D02*
G02X460183Y315080I-612J-1740D01*
G01X464136Y316178D01*
X460183Y317276D01*
G02X459142Y316354I-1653J818D01*
G03Y316002I243J-176D01*
G37*
G36*
G01Y311002D02*
G02X460183Y310080I-612J-1740D01*
G01X464136Y311178D01*
X460183Y312276D01*
G02X459142Y311354I-1653J818D01*
G03Y311002I243J-176D01*
G37*
G36*
G01X464785Y324195D02*
G02X465896Y326813I3912J-115D01*
G01X463474Y328497D01*
X461132Y326813D01*
G02X463511Y324049I-2259J-4350D01*
G03X464785Y324195I550J835D01*
G37*
G36*
G01X463519Y325617D02*
G02X460183Y322276I-5770J2426D01*
G01X464061Y320928D01*
X467939Y322276D01*
G02X464603Y325617I2433J5766D01*
G03X463519I-542J-840D01*
G37*
G36*
G01X474468Y323210D02*
G02X475140Y323882I1142J-470D01*
G01X473761Y325511D01*
X472382Y323882D01*
G02X473054Y323210I-471J-1143D01*
G03X474468Y323210I707J707D01*
G37*
G36*
G01X459138Y305930D02*
G02X460183Y305080I-618J-1826D01*
G01X464211Y306178D01*
X460183Y307276D01*
G02X459138Y306426I-1663J975D01*
G03Y305930I546J-248D01*
G37*
G36*
G01X466050Y329550D02*
G02X467000I475J-1140D01*
G01X467177Y331677D01*
X465050Y331500D01*
G02Y330550I-1140J-475D01*
G03X466050Y329550I1000J0D01*
G37*
G36*
G01X460459Y335788D02*
G02X460874Y335374I-290J-704D01*
G01X461575Y336000D01*
X460874Y336626D01*
G02X460459Y336212I-704J290D01*
G03Y335788I212J-212D01*
G37*
G36*
G01X489336Y84711D02*
G02X491631Y87005I3900J-1606D01*
G01X489124Y89587D01*
X486618Y87005D01*
G02X488912Y84711I-1606J-3901D01*
G03X489336I212J212D01*
G37*
G36*
G01X494077Y101727D02*
G02X491615Y103854I1320J4018D01*
G01X489049Y101329D01*
X491631Y98825D01*
G02X494093Y101288I4186J-1724D01*
G03X494077Y101727I-212J212D01*
G37*
G36*
G01X485575Y104577D02*
G02X485579Y101332I-3891J-1627D01*
G01X489177Y101279D01*
X489124Y104877D01*
G02X485875I-1624J3899D01*
G03X485575Y104577I0J-300D01*
G37*
G36*
G01X497296Y156511D02*
X502370D01*
X493807Y149291D01*
X493804Y149289D01*
X500751Y142007D01*
X495795D01*
X491057Y146972D01*
X485168Y142007D01*
X480094D01*
X481523Y155060D01*
G02X483141Y156511I1619J-177D01*
G01X485242D01*
X484010Y145308D01*
X497296Y156511D01*
G37*
G36*
G01X481663Y261551D02*
G02X480991Y260879I-1142J470D01*
G01X482370Y259250D01*
X483749Y260879D01*
G02X483077Y261551I471J1143D01*
G03X481663Y261551I-707J-707D01*
G37*
G36*
G01X482942Y260389D02*
G02X485953Y263709I5592J-2046D01*
G01X482370Y266243D01*
X478787Y263709D01*
G02X481798Y260389I-2582J-5366D01*
G03X482942I572J820D01*
G37*
G36*
G01X505000Y283000D02*
G02X504000Y282000I-1000J0D01*
G01X485500D01*
Y287000D01*
G02X486500Y288000I1000J0D01*
G01X504000D01*
G02X505000Y287000I0J-1000D01*
G01Y283000D01*
G37*
G36*
G01X488108Y266483D02*
G02X485953Y268276I1227J3666D01*
G01X482120Y265993D01*
X485953Y263709D01*
G02X488108Y265503I3382J-1872D01*
G03Y266483I-872J490D01*
G37*
G36*
G01X476632Y265503D02*
G02X478787Y263709I-1227J-3666D01*
G01X482620Y265993D01*
X478787Y268276D01*
G02X476632Y266483I-3382J1872D01*
G03Y265503I872J-490D01*
G37*
G36*
G01X486751D02*
G02X488906Y263709I-1227J-3666D01*
G01X492738Y265993D01*
X488906Y268276D01*
G02X486751Y266483I-3382J1872D01*
G03Y265503I872J-490D01*
G37*
G36*
G01X488108Y278097D02*
G02X485953Y279891I1227J3666D01*
G01X482120Y277607D01*
X485953Y275324D01*
G02X488108Y277117I3382J-1872D01*
G03Y278097I-872J490D01*
G37*
G36*
G01X482983Y273120D02*
G02X485110Y275400I3953J-1554D01*
G01X482360Y277857D01*
X479771Y275324D01*
G02X482074Y273100I-1658J-4021D01*
G03X482983Y273120I435J900D01*
G37*
G36*
G01X486751Y277117D02*
G02X488906Y275324I-1227J-3666D01*
G01X492738Y277607D01*
X488906Y279891D01*
G02X486751Y278097I-3382J1872D01*
G03Y277117I872J-490D01*
G37*
G36*
G01X498326Y278003D02*
G02X496071Y279891I1281J3821D01*
G01X492238Y277612D01*
X496071Y275324D01*
G02X498304Y276962I3225J-2055D01*
G03X498326Y278003I-843J538D01*
G37*
G36*
G01X490978Y307378D02*
G02X491722I372J-892D01*
G01X491839Y308672D01*
X490538Y308718D01*
G02X490394Y308118I-791J-127D01*
G03X490978Y307378I583J-140D01*
G37*
G36*
G01X488384Y306426D02*
G02X487339Y307276I618J1826D01*
G01X483311Y306178D01*
X487339Y305080D01*
G02X488384Y305930I1663J-975D01*
G03Y306426I-546J248D01*
G37*
G36*
G01X486922Y320232D02*
G02X488788Y318705I-1081J-3224D01*
G01X491204Y320673D01*
X488788Y322642D01*
G02X486922Y321115I-2947J1697D01*
G03Y320232I897J-441D01*
G37*
G36*
G01X490480Y324688D02*
G02X488788Y322642I-3496J1168D01*
G01X490954Y320423D01*
X493119Y322642D01*
G02X491427Y324688I1805J3214D01*
G03X490480I-474J-881D01*
G37*
G36*
G01X491427Y323383D02*
G02X493119Y325429I3496J-1168D01*
G01X490954Y327648D01*
X488788Y325429D01*
G02X490480Y323383I-1805J-3214D01*
G03X491427I474J881D01*
G37*
G36*
G01X482919Y325617D02*
G02X479583Y322276I-5770J2426D01*
G01X483461Y320928D01*
X487339Y322276D01*
G02X484003Y325617I2433J5766D01*
G03X482919I-542J-840D01*
G37*
G36*
G01X497173Y324688D02*
G02X495481Y322642I-3496J1168D01*
G01X497646Y320423D01*
X499812Y322642D01*
G02X498120Y324688I1805J3214D01*
G03X497173I-474J-881D01*
G37*
G36*
G01X498120Y323383D02*
G02X499812Y325429I3496J-1168D01*
G01X497646Y327648D01*
X495481Y325429D01*
G02X497173Y323383I-1805J-3214D01*
G03X498120I474J881D01*
G37*
G36*
G01X491660Y331403D02*
G02X492332Y332074I1142J-470D01*
G01X490954Y333704D01*
X489575Y332075D01*
G02X490246Y331403I-471J-1143D01*
G03X491660Y331403I707J707D01*
G37*
G36*
G01X484168Y329449D02*
G02X484840Y330121I1142J-470D01*
G01X483461Y331750D01*
X482082Y330121D01*
G02X482754Y329449I-471J-1143D01*
G03X484168Y329449I707J707D01*
G37*
G36*
G01X490480Y331412D02*
G02X488788Y329366I-3496J1168D01*
G01X490954Y327148D01*
X493119Y329366D01*
G02X491427Y331412I1805J3214D01*
G03X490480I-474J-881D01*
G37*
G36*
G01X494051Y507707D02*
G02X493379Y508379I471J1143D01*
G01X491750Y507000D01*
X493379Y505621D01*
G02X494051Y506293I1143J-471D01*
G03Y507707I-707J707D01*
G37*
G36*
G01X496562Y508212D02*
G02X498178Y508362I1037J-2386D01*
G01X498479Y510429D01*
X496603Y511090D01*
G02X496132Y508814I-3260J-511D01*
G03X496562Y508212I971J238D01*
G37*
G36*
G01X509133Y64500D02*
G02X511427Y62205I-1606J-3901D01*
G01X514009Y64712D01*
X511427Y67219D01*
G02X509133Y64924I-3901J1606D01*
G03Y64500I212J-212D01*
G37*
G36*
G01X505276Y103586D02*
G02X505654Y104481I1263J-6D01*
G01X504729Y105308D01*
X503893Y104386D01*
G02X504788Y103491I-626J-1521D01*
G03X505276Y103586I212J212D01*
G37*
G36*
G01X498400Y117700D02*
G02X497500I-450J1080D01*
G01X497447Y116447D01*
X498700Y116500D01*
G02Y117400I1080J450D01*
G03X498400Y117700I-300J0D01*
G37*
G36*
G01X497300Y189900D02*
G02Y189000I-1080J-450D01*
G01X498553Y188947D01*
X498500Y190200D01*
G02X497600I-450J1080D01*
G03X497300Y189900I0J-300D01*
G37*
G36*
G01X507197Y274647D02*
G02X506525Y273976I-1142J470D01*
G01X507904Y272346D01*
X509282Y273975D01*
G02X508611Y274647I471J1143D01*
G03X507197Y274647I-707J-707D01*
G37*
G36*
G01X503449Y326691D02*
G02X504121Y326019I-471J-1143D01*
G01X505750Y327398D01*
X504121Y328776D01*
G02X503449Y328105I-1143J471D01*
G03Y326691I707J-707D01*
G37*
G36*
G01X501678Y327839D02*
G02X499812Y329366I1081J3224D01*
G01X497397Y327398D01*
X499812Y325429D01*
G02X501678Y326956I2947J-1697D01*
G03Y327839I-897J441D01*
G37*
G36*
G01X515485Y479712D02*
G02X514848Y480348I446J1082D01*
G01X513925Y479500D01*
X514848Y478652D01*
G02X515485Y479288I1082J-446D01*
G03Y479712I-212J212D01*
G37*
G36*
G01X506550Y503950D02*
G02Y503000I-1140J-475D01*
G01X508677Y502823D01*
X508500Y504950D01*
G02X507550I-475J1140D01*
G03X506550Y503950I0J-1000D01*
G37*
G36*
G01X511109Y512300D02*
G02X512009I450J-1080D01*
G01X512062Y513553D01*
X510809Y513500D01*
G02Y512600I-1080J-450D01*
G03X511109Y512300I300J0D01*
G37*
G36*
G01X510940Y512284D02*
G02X510308Y512943I521J1132D01*
G01X507675Y512159D01*
X510308Y511376D01*
G02X510940Y512034I1153J-474D01*
G03Y512284I-273J125D01*
G37*
G36*
G01X503274Y501878D02*
G02X503300Y502672I1041J364D01*
G01X502066Y503738D01*
X502220Y501964D01*
G02X503014Y501700I58J-1153D01*
G03X503274Y501878I-14J300D01*
G37*
G36*
G01X507304Y522923D02*
G02X507940Y523560I1082J-446D01*
G01X507092Y524483D01*
X506244Y523560D01*
G02X506880Y522923I-446J-1082D01*
G03X507304I212J212D01*
G37*
G36*
G01X506844Y524578D02*
G02X505364Y521883I-3989J439D01*
G01X507762Y520550D01*
X509922Y522002D01*
G02X507286Y524637I1854J4491D01*
G03X506844Y524578I-194J-229D01*
G37*
G36*
G01X499980Y514292D02*
G02X500013Y513059I-1509J-657D01*
G01X501756Y512160D01*
X501837Y514112D01*
G02X500295Y514526I-265J2090D01*
G03X499980Y514292I-22J-299D01*
G37*
G36*
G01X510430Y532086D02*
G02X509758Y532758I471J1143D01*
G01X508129Y531379D01*
X509758Y530000D01*
G02X510430Y530672I1143J-471D01*
G03Y532086I-707J707D01*
G37*
G36*
G01X510272Y535143D02*
G02X511269Y534264I-584J-1668D01*
G01X512919Y535317D01*
X511269Y536370D01*
G02X510272Y535492I-1581J789D01*
G03Y535143I244J-174D01*
G37*
G36*
G01X520226Y71187D02*
G02X520229Y67942I-3892J-1626D01*
G01X523827Y67889D01*
X523774Y71487D01*
G02X520526I-1624J3898D01*
G03X520226Y71187I0J-300D01*
G37*
G36*
G01X525946Y121331D02*
G02X528241Y123625I3900J-1606D01*
G01X525734Y126207D01*
X523227Y123625D01*
G02X525522Y121331I-1606J-3901D01*
G03X525946I212J212D01*
G37*
G36*
G01X523800Y192400D02*
G02Y191500I-1080J-450D01*
G01X525053Y191447D01*
X525000Y192700D01*
G02X524100I-450J1080D01*
G03X523800Y192400I0J-300D01*
G37*
G36*
G01X537600Y216700D02*
G02X537000I-300J720D01*
G01X536894Y215394D01*
X538200Y215500D01*
G02Y216100I720J300D01*
G03X537600Y216700I-600J0D01*
G37*
G36*
G01X533100Y221200D02*
G02X532500I-300J720D01*
G01X532394Y219894D01*
X533700Y220000D01*
G02Y220600I720J300D01*
G03X533100Y221200I-600J0D01*
G37*
G36*
G01X533192Y220205D02*
G02X535709Y220371I1464J-3027D01*
G01X535956Y223399D01*
X532925Y223155D01*
G02X532703Y220703I-3145J-951D01*
G03X533192Y220205I593J93D01*
G37*
G36*
G01X525712Y221015D02*
G02X526348Y221651I1082J-446D01*
G01X525500Y222575D01*
X524652Y221651D01*
G02X525288Y221015I-446J-1082D01*
G03X525712I212J212D01*
G37*
G36*
G01X526400Y223700D02*
G02X525500I-450J1080D01*
G01X525447Y222447D01*
X526700Y222500D01*
G02Y223400I1080J450D01*
G03X526400Y223700I-300J0D01*
G37*
G36*
G01X527699Y224383D02*
G02X530254Y224826I1813J-2865D01*
G01X530443Y227805D01*
X527470Y227610D01*
G02X527383Y224661I-3600J-1370D01*
G03X527699Y224383I299J22D01*
G37*
G36*
G01X532430Y225915D02*
G02X532443Y227015I1377J535D01*
G01X530340Y227802D01*
X531128Y225700D01*
G02X532228Y225712I565J-1365D01*
G03X532430Y225915I-85J288D01*
G37*
G36*
G01X531700Y235600D02*
G02Y236500I1080J450D01*
G01X530447Y236553D01*
X530500Y235300D01*
G02X531400I450J-1080D01*
G03X531700Y235600I0J300D01*
G37*
G36*
G01X531510Y235151D02*
G02X532203Y232343I-3043J-2240D01*
G01X535184Y232434D01*
X535265Y235405D01*
G02X531789Y235492I-1633J4231D01*
G03X531510Y235151I18J-299D01*
G37*
G36*
G01X537862Y235492D02*
G02X535265Y235405I-1403J3093D01*
G01X535073Y232429D01*
X538049Y232621D01*
G02X538136Y235217I3180J1193D01*
G03X537862Y235492I-299J-25D01*
G37*
G36*
G01X543310Y231091D02*
G02X540720Y230950I-1466J3059D01*
G01X540528Y227973D01*
X543504Y228166D01*
G02X543591Y230816I3245J1220D01*
G03X543310Y231091I-299J-24D01*
G37*
G36*
G01X543591Y225294D02*
G02X543504Y228166I3422J1541D01*
G01X540528Y228080D01*
X540442Y225104D01*
G02X543314Y225017I1331J-3509D01*
G03X543591Y225294I-22J299D01*
G37*
G36*
G01X523815Y425788D02*
G02X524952Y424652I-796J-1932D01*
G01X525872Y425480D01*
X525128Y426434D01*
G02X523991Y426298I-732J1296D01*
G03X523815Y425788I36J-298D01*
G37*
G36*
G01X538949Y501793D02*
G02X539621Y501121I-471J-1143D01*
G01X541250Y502500D01*
X539621Y503879D01*
G02X538949Y503207I-1143J471D01*
G03Y501793I707J-707D01*
G37*
G36*
G01X532550Y514050D02*
G02X533500I475J-1140D01*
G01X533677Y516177D01*
X531550Y516000D01*
G02Y515050I-1140J-475D01*
G03X532550Y514050I1000J0D01*
G37*
G36*
G01X533140Y502208D02*
G02X532778Y504443I2809J1602D01*
G01X530902Y503782D01*
X531203Y501715D01*
G02X532809Y501720I810J-2460D01*
G03X533140Y502208I-625J781D01*
G37*
G36*
G01X521868Y512268D02*
G02Y513168I1080J450D01*
G01X520615Y513221D01*
X520668Y511968D01*
G02X521568I450J-1080D01*
G03X521868Y512268I0J300D01*
G37*
G36*
G01X521592Y511974D02*
G02X522907Y510781I-796J-2197D01*
G01X525541Y512159D01*
X522907Y513537D01*
G02X521592Y512344I-2110J1004D01*
G03Y511974I236J-185D01*
G37*
G36*
G01X526313Y502941D02*
G02X527793Y503684I1646J-1435D01*
G01X527708Y505638D01*
X525969Y504737D01*
G02X525934Y503178I-1924J-736D01*
G03X526313Y502941I296J51D01*
G37*
G36*
G01X525020Y522823D02*
G02X525656Y523460I1082J-446D01*
G01X524808Y524383D01*
X523960Y523460D01*
G02X524596Y522823I-446J-1082D01*
G03X525020I212J212D01*
G37*
G36*
G01X524561Y524478D02*
G02X523134Y521883I-3844J423D01*
G01X525479Y520550D01*
X527538Y522002D01*
G02X525002Y524537I1785J4322D01*
G03X524561Y524478I-194J-229D01*
G37*
G36*
G01X536642Y512225D02*
G02X534753Y512076I-1125J2221D01*
G01X534825Y510132D01*
X536577Y511023D01*
G02X536918Y511912I1294J14D01*
G03X536642Y512225I-300J14D01*
G37*
G36*
G01X521149Y539949D02*
G02X521820Y540621I1142J-470D01*
G01X520442Y542250D01*
X519063Y540621D01*
G02X519735Y539949I-471J-1143D01*
G03X521149Y539949I707J707D01*
G37*
G36*
G01X520099Y537884D02*
G02X518867Y536370I-2732J965D01*
G01X520442Y535067D01*
X522017Y536370D01*
G02X520785Y537884I1500J2479D01*
G03X520099I-343J-939D01*
G37*
G36*
G01X523014Y531554D02*
G02X522017Y532432I584J1668D01*
G01X520367Y531379D01*
X522017Y530326D01*
G02X523014Y531205I1581J-789D01*
G03Y531554I-244J174D01*
G37*
G36*
G01X555060Y149771D02*
G02X554480Y152310I2777J1971D01*
G01X551638Y152358D01*
X551696Y149526D01*
G02X554783Y149439I1439J-3765D01*
G03X555060Y149771I-21J299D01*
G37*
G36*
G01X557714Y158952D02*
G02X555315Y158713I-1515J3045D01*
G01X555138Y155752D01*
X558099Y155929D01*
G02X558338Y158328I3284J884D01*
G03X557714Y158952I-947J-322D01*
G37*
G36*
G01X542450Y155450D02*
G02X541500I-475J1140D01*
G01X541323Y153323D01*
X543450Y153500D01*
G02Y154450I1140J475D01*
G03X542450Y155450I-1000J0D01*
G37*
G36*
G01X543573Y154934D02*
G02X546044Y155177I1554J-3118D01*
G01X546224Y158134D01*
X543260Y157961D01*
G02X542926Y155596I-3292J-741D01*
G03X543573Y154934I958J288D01*
G37*
G36*
G01X546793Y164176D02*
G02X546880Y161580I-3093J-1403D01*
G01X549716Y161527D01*
X549663Y164364D01*
G02X547067Y164451I-1193J3180D01*
G03X546793Y164176I25J-299D01*
G37*
G36*
G01X548100Y206200D02*
G02X547500I-300J720D01*
G01X547394Y204894D01*
X548700Y205000D01*
G02Y205600I720J300D01*
G03X548100Y206200I-600J0D01*
G37*
G36*
G01X548333Y205206D02*
G02X550665Y205916I2045J-2531D01*
G01X550899Y208955D01*
X547881Y208700D01*
G02X547711Y205718I-3737J-1284D01*
G03X548333Y205206I594J87D01*
G37*
G36*
G01X543600Y211200D02*
G02X543000I-300J720D01*
G01X542894Y209894D01*
X544200Y210000D01*
G02Y210600I720J300D01*
G03X543600Y211200I-600J0D01*
G37*
G36*
G01X543772Y210270D02*
G02X546642Y210438I1642J-3438D01*
G01X546895Y213459D01*
X543858Y213222D01*
G02X543263Y210862I-3220J-443D01*
G03X543772Y210270I600J1D01*
G37*
G36*
G01X554524Y215361D02*
G02X554437Y218233I3422J1541D01*
G01X551461Y218147D01*
X551375Y215171D01*
G02X554247Y215084I1331J-3509D01*
G03X554524Y215361I-22J299D01*
G37*
G36*
G01X552526Y216802D02*
G02X552613Y213432I-4016J-1790D01*
G01X555585Y213514D01*
X555676Y216495D01*
G02X552856Y217081I-703J3696D01*
G03X552526Y216802I-30J-298D01*
G37*
G36*
G01X557205Y229259D02*
G02X559139Y229418I1168J-2361D01*
G01X560501Y232723D01*
X557187Y231370D01*
G02X556746Y229782I-2267J-225D01*
G03X557205Y229259I597J61D01*
G37*
G36*
G01X550405Y236291D02*
G02X552181Y236376I992J-2119D01*
G01X553486Y239633D01*
X550229Y238328D01*
G02X550144Y236552I-2204J-784D01*
G03X550405Y236291I298J36D01*
G37*
G36*
G01X547100Y225800D02*
G02X548000I450J-1080D01*
G01X548053Y227053D01*
X546800Y227000D01*
G02Y226100I-1080J-450D01*
G03X547100Y225800I300J0D01*
G37*
G36*
G01X553884Y232812D02*
G02X555660Y232897I992J-2119D01*
G01X556964Y236154D01*
X553708Y234849D01*
G02X553623Y233073I-2204J-784D01*
G03X553884Y232812I298J36D01*
G37*
G36*
G01X541708Y226620D02*
G02X541795Y223251I-4016J-1790D01*
G01X544766Y223333D01*
X544857Y226313D01*
G02X542037Y226899I-703J3695D01*
G03X541708Y226620I-30J-298D01*
G37*
G36*
G01X560842Y225854D02*
G02X562618Y225940I992J-2119D01*
G01X563923Y229196D01*
X560666Y227891D01*
G02X560581Y226115I-2204J-784D01*
G03X560842Y225854I298J36D01*
G37*
G36*
G01X555488Y221039D02*
G02X551653Y221017I-1943J4606D01*
G01X551452Y218052D01*
X554437Y218233D01*
G02X555744Y220626I3542J-382D01*
G03X555488Y221039I-277J114D01*
G37*
G36*
G01X546926Y239770D02*
G02X548702Y239855I992J-2119D01*
G01X550007Y243112D01*
X546750Y241807D01*
G02X546665Y240031I-2204J-784D01*
G03X546926Y239770I298J36D01*
G37*
G36*
G01X546712Y327207D02*
G02X544650I-1031J2475D01*
G01X544597Y324791D01*
X547012Y324844D01*
G02Y326907I2475J1031D01*
G03X546712Y327207I-300J0D01*
G37*
G36*
G01X544862Y313842D02*
G02X546320Y315300I2479J-1021D01*
G01X544650Y317045D01*
X542980Y315300D01*
G02X544438Y313842I-1021J-2479D01*
G03X544862I212J212D01*
G37*
G36*
G01X562515Y479288D02*
G02X563152Y478652I-446J-1082D01*
G01X564075Y479500D01*
X563152Y480348D01*
G02X562515Y479712I-1082J446D01*
G03Y479288I212J-212D01*
G37*
G36*
G01X555950Y560450D02*
G02X555000I-475J1140D01*
G01X554823Y558323D01*
X556950Y558500D01*
G02Y559450I1140J475D01*
G03X555950Y560450I-1000J0D01*
G37*
G36*
G01X564298Y552625D02*
G02X564070Y553290I769J635D01*
G01X562605Y554053D01*
X562534Y552109D01*
G02X564105Y552377I1113J-1786D01*
G03X564298Y552625I-105J281D01*
G37*
G36*
G01X560414Y564336D02*
G02X560570Y563386I-1121J-671D01*
G01X562319Y562493D01*
X562394Y564439D01*
G02X560684Y564588I-673J2159D01*
G03X560414Y564336I27J-299D01*
G37*
G36*
G01X583550Y59450D02*
G02Y58500I-1140J-475D01*
G01X585677Y58323D01*
X585500Y60450D01*
G02X584550I-475J1140D01*
G03X583550Y59450I0J-1000D01*
G37*
G36*
G01X585318Y59673D02*
G02X584337Y61758I2287J2350D01*
G01X581353Y61908D01*
X581553Y58974D01*
G02X584566Y58713I1174J-3962D01*
G03X585318Y59673I-248J969D01*
G37*
G36*
G01X585961Y74116D02*
G02X583585Y73813I-1589J2986D01*
G01X583411Y70850D01*
X586369Y71029D01*
G02X586611Y73477I3336J906D01*
G03X585961Y74116I-949J-315D01*
G37*
G36*
G01X575202Y67849D02*
G02X575200Y65427I-2929J-1208D01*
G01X577987Y65324D01*
X577884Y68112D01*
G02X575462Y68109I-1214J2927D01*
G03X575202Y67849I38J-298D01*
G37*
G36*
G01X585474Y108870D02*
G02X583947Y107004I-3224J1081D01*
G01X585916Y104785D01*
X587884Y107004D01*
G02X586357Y108870I1697J2947D01*
G03X585474I-441J-897D01*
G37*
G36*
G01X586110Y93177D02*
G02X587884Y95075I3180J-1195D01*
G01X585916Y97118D01*
X583947Y95075D01*
G02X585722Y93177I-1405J-3093D01*
G03X586110I194J229D01*
G37*
G36*
G01X580944Y126485D02*
G02X580858Y129081I3093J1403D01*
G01X578021Y129134D01*
X578074Y126297D01*
G02X580670Y126210I1193J-3180D01*
G03X580944Y126485I-25J299D01*
G37*
G36*
G01X584837Y130346D02*
G02X584477Y132700I2932J1654D01*
G01X581512Y132873D01*
X581693Y129916D01*
G02X584184Y129672I926J-3384D01*
G03X584837Y130346I-308J951D01*
G37*
G36*
G01X569450Y132950D02*
G02X568500I-475J1140D01*
G01X568323Y130823D01*
X570450Y131000D01*
G02Y131950I1140J475D01*
G03X569450Y132950I-1000J0D01*
G37*
G36*
G01X569858Y131701D02*
G02X572422Y131949I1604J-3216D01*
G01X572607Y134901D01*
X569638Y134732D01*
G02X569186Y132414I-3297J-559D01*
G03X569858Y131701I970J242D01*
G37*
G36*
G01X573171Y140948D02*
G02X573258Y138352I-3093J-1403D01*
G01X576094Y138299D01*
X576041Y141136D01*
G02X573445Y141222I-1193J3180D01*
G03X573171Y140948I25J-299D01*
G37*
G36*
G01X566050Y155450D02*
G02Y154500I-1140J-475D01*
G01X568177Y154323D01*
X568000Y156450D01*
G02X567050I-475J1140D01*
G03X566050Y155450I0J-1000D01*
G37*
G36*
G01X584950Y179550D02*
G02Y180500I1140J475D01*
G01X582823Y180677D01*
X583000Y178550D01*
G02X583950I475J-1140D01*
G03X584950Y179550I0J1000D01*
G37*
G36*
G01X579138Y483551D02*
G02X578466Y482879I-1142J470D01*
G01X579845Y481250D01*
X581223Y482879D01*
G02X580552Y483551I471J1143D01*
G03X579138Y483551I-707J-707D01*
G37*
G36*
G01X580286Y485492D02*
G02X581813Y487357I3224J-1081D01*
G01X579845Y489576D01*
X577876Y487357D01*
G02X579403Y485492I-1697J-2947D01*
G03X580286I441J897D01*
G37*
G36*
G01X575979Y494250D02*
G02X577876Y492475I-1195J-3180D01*
G01X579920Y494444D01*
X577876Y496412D01*
G02X575979Y494638I-3093J1405D01*
G03Y494250I229J-194D01*
G37*
G36*
G01X569449Y555262D02*
G02X570121Y554590I-471J-1143D01*
G01X571750Y555969D01*
X570121Y557348D01*
G02X569449Y556676I-1143J471D01*
G03Y555262I707J-707D01*
G37*
G36*
G01X582985Y562712D02*
G02X582348Y563348I446J1082D01*
G01X581425Y562500D01*
X582348Y561652D01*
G02X582985Y562288I1082J-446D01*
G03Y562712I-212J212D01*
G37*
G36*
G01X571502Y562275D02*
G02X572138Y561638I-446J-1082D01*
G01X573062Y562487D01*
X572138Y563335D01*
G02X571502Y562699I-1082J446D01*
G03Y562275I212J-212D01*
G37*
G36*
G01X572179Y562672D02*
G02X570865Y563865I796J2197D01*
G01X568231Y562487D01*
X570865Y561109D01*
G02X572179Y562302I2110J-1004D01*
G03Y562672I-236J185D01*
G37*
G36*
G01X582136Y562315D02*
G02X583463Y561109I-805J-2219D01*
G01X586097Y562486D01*
X583463Y563865D01*
G02X582138Y562687I-2097J1025D01*
G03X582136Y562315I234J-187D01*
G37*
G36*
G01X570344Y582414D02*
G02X569672Y583086I471J1143D01*
G01X568043Y581707D01*
X569672Y580328D01*
G02X570344Y581000I1143J-471D01*
G03Y582414I-707J707D01*
G37*
G36*
G01X584305Y584938D02*
G02X584976Y584266I-471J-1143D01*
G01X586605Y585645D01*
X584976Y587024D01*
G02X584305Y586352I-1143J471D01*
G03Y584938I707J-707D01*
G37*
G36*
G01X568115Y574538D02*
G02X565906Y572330I-3767J1560D01*
G01X568306Y570877D01*
X570707Y572330D01*
G02X568497Y574538I1557J3768D01*
G03X568115I-191J-232D01*
G37*
G36*
G01X585829Y574708D02*
G02X583463Y572330I-4048J1662D01*
G01X586022Y570877D01*
X588581Y572330D01*
G02X586215Y574708I1682J4040D01*
G03X585829I-193J-230D01*
G37*
G36*
G01X583570Y581881D02*
G02X582573Y582760I584J1668D01*
G01X580923Y581707D01*
X582573Y580654D01*
G02X583570Y581532I1581J-789D01*
G03Y581881I-244J174D01*
G37*
G36*
G01X570828Y585470D02*
G02X571825Y584592I-584J-1668D01*
G01X573475Y585645D01*
X571825Y586698D01*
G02X570828Y585819I-1581J789D01*
G03Y585470I244J-174D01*
G37*
G36*
G01X586050Y72550D02*
G02X587000I475J-1140D01*
G01X587177Y74677D01*
X585050Y74500D01*
G02Y73550I-1140J-475D01*
G03X586050Y72550I1000J0D01*
G37*
G36*
G01X590461Y64858D02*
G02X589988Y67410I2847J1847D01*
G01X587148Y67459D01*
X587204Y64626D01*
G02X590184Y64539I1385J-3637D01*
G03X590461Y64858I-22J299D01*
G37*
G36*
G01X593906Y96336D02*
G02X594578Y95664I-471J-1143D01*
G01X596207Y97043D01*
X594578Y98422D01*
G02X593906Y97750I-1143J471D01*
G03Y96336I707J-707D01*
G37*
G36*
G01X594868Y97484D02*
G02X593002Y99012I1081J3224D01*
G01X590784Y97043D01*
X593002Y95075D01*
G02X594868Y96602I2947J-1697D01*
G03Y97484I-897J441D01*
G37*
G36*
G01X590840Y108901D02*
G02X589065Y107004I-3180J1195D01*
G01X591034Y104960D01*
X593002Y107004D01*
G02X591228Y108901I1405J3093D01*
G03X590840I-194J-229D01*
G37*
G36*
G01X587949Y128793D02*
G02X588621Y128121I-471J-1143D01*
G01X590250Y129500D01*
X588621Y130879D01*
G02X587949Y130207I-1143J471D01*
G03Y128793I707J-707D01*
G37*
G36*
G01X586623Y108365D02*
G02X587294Y109037I1142J-470D01*
G01X585916Y110666D01*
X584537Y109037D01*
G02X585209Y108365I-471J-1143D01*
G03X586623Y108365I707J707D01*
G37*
G36*
G01X588257Y170326D02*
G02X590465Y168653I-915J-3503D01*
G01X590664Y170544D01*
X588890Y171381D01*
G02X588195Y170680I-1231J525D01*
G03X588257Y170326I267J-136D01*
G37*
G36*
G01X596250Y189727D02*
G02X596756Y190494I1173J-223D01*
G01X595862Y191370D01*
X595021Y190447D01*
G02X595788Y189680I-537J-1305D01*
G03X596250Y189727I212J212D01*
G37*
G36*
G01X595785Y191374D02*
G02X593723Y188829I-4099J1213D01*
G01X596242Y187421D01*
X598716Y188873D01*
G02X596194Y191394I1774J4298D01*
G03X595785Y191374I-193J-229D01*
G37*
G36*
G01X600100Y178800D02*
G02X601000I450J-1080D01*
G01X601053Y180053D01*
X599800Y180000D01*
G02Y179100I-1080J-450D01*
G03X600100Y178800I300J0D01*
G37*
G36*
G01X600111Y179215D02*
G02X598796Y180409I796J2197D01*
G01X596162Y179031D01*
X598796Y177653D01*
G02X600111Y178846I2110J-1004D01*
G03Y179215I-236J185D01*
G37*
G36*
G01X596367Y176992D02*
G02X597052Y177653I1178J-536D01*
G01X596238Y179106D01*
X595423Y177653D01*
G02X596108Y176992I-494J-1197D01*
G03X596367I130J270D01*
G37*
G36*
G01X588464Y181782D02*
G02X588501Y179930I-2233J-971D01*
G01X590236Y179027D01*
X590325Y180983D01*
G02X588892Y182009I533J2258D01*
G03X588464Y181782I-131J-270D01*
G37*
G36*
G01X599301Y198958D02*
G02X598629Y199629I471J1143D01*
G01X597001Y198251D01*
X598629Y196872D01*
G02X599301Y197544I1143J-471D01*
G03Y198958I-707J707D01*
G37*
G36*
G01X598760Y202014D02*
G02X599756Y201136I-584J-1668D01*
G01X601406Y202189D01*
X599756Y203242D01*
G02X598760Y202363I-1581J789D01*
G03Y202014I244J-175D01*
G37*
G36*
G01X604485Y229212D02*
G02X603848Y229849I446J1082D01*
G01X602925Y229000D01*
X603848Y228151D01*
G02X604485Y228788I1082J-446D01*
G03Y229212I-212J212D01*
G37*
G36*
G01X590893Y493737D02*
G02X591565Y493065I-471J-1143D01*
G01X593194Y494444D01*
X591565Y495823D01*
G02X590893Y495151I-1143J471D01*
G03Y493737I707J-707D01*
G37*
G36*
G01X591671Y494885D02*
G02X589805Y496412I1081J3224D01*
G01X587587Y494444D01*
X589805Y492475D01*
G02X591671Y494002I2947J-1697D01*
G03Y494885I-897J441D01*
G37*
G36*
G01X591703Y489520D02*
G02X589805Y491294I1195J3180D01*
G01X587762Y489326D01*
X589805Y487357D01*
G02X591703Y489132I3093J-1405D01*
G03Y489520I-229J194D01*
G37*
G36*
G01X592731Y563474D02*
G02X594379Y565121I2801J-1153D01*
G01X593097Y566730D01*
X592024Y565524D01*
Y564181D01*
X592731Y563474D01*
G37*
G36*
G01X593949Y551793D02*
G02X594621Y551121I-471J-1143D01*
G01X596250Y552500D01*
X594621Y553879D01*
G02X593949Y553207I-1143J471D01*
G03Y551793I707J-707D01*
G37*
G36*
G01X593806Y552495D02*
G02X593334Y554770I2789J1764D01*
G01X591458Y554110D01*
X591760Y552042D01*
G02X593375Y551892I579J-2536D01*
G03X593806Y552495I-541J841D01*
G37*
G36*
G01X587638Y553305D02*
G02X588350Y554011I1244J-542D01*
G01X588247Y555973D01*
X586526Y555064D01*
G02X587249Y553408I-1654J-1708D01*
G03X587638Y553305I251J164D01*
G37*
G36*
G01X597057Y562373D02*
G02X595310Y562403I-837J2143D01*
G01X595381Y560460D01*
X596956Y561160D01*
G02X597300Y562064I1314J18D01*
G03X597057Y562373I-300J14D01*
G37*
G36*
G01X586234Y572993D02*
G02X586871Y573629I1082J-446D01*
G01X586022Y574553D01*
X585174Y573629D01*
G02X585810Y572993I-446J-1082D01*
G03X586234I212J212D01*
G37*
G36*
G01X622586Y74242D02*
G02X621914Y74914I471J1143D01*
G01X620285Y73535D01*
X621914Y72157D01*
G02X622586Y72828I1143J-471D01*
G03Y74242I-707J707D01*
G37*
G36*
G01X626773Y65207D02*
G02X628217Y65200I713J-1774D01*
G01X628346Y67008D01*
X626593Y67793D01*
G02X626539Y65468I-2840J-1097D01*
G03X626773Y65207I298J32D01*
G37*
G36*
G01X626729Y78142D02*
G02X626204Y76342I-2451J-262D01*
G01X627929Y75434D01*
X628028Y77395D01*
G02X627155Y78270I646J1518D01*
G03X626729Y78142I-155J-257D01*
G37*
G36*
G01X622528Y168300D02*
G02X623200Y167628I-471J-1143D01*
G01X624828Y169007D01*
X623200Y170385D01*
G02X622528Y169714I-1143J471D01*
G03Y168300I707J-707D01*
G37*
G36*
G01X622041Y169336D02*
G02X621266Y171314I2302J2043D01*
G01X619361Y170619D01*
X619691Y168586D01*
G02X621586Y168609I980J-2666D01*
G03X622041Y169336I-538J843D01*
G37*
G36*
G01X615629Y169913D02*
G02X616281Y170555I1141J-507D01*
G01X616177Y172518D01*
X614457Y171608D01*
G02X615258Y170007I-1548J-1775D01*
G03X615629Y169913I242J177D01*
G37*
G36*
G01X621006Y182550D02*
G02X622500I747J-1794D01*
G01X622711Y184634D01*
X620682Y184997D01*
G02X620138Y184047I-1412J179D01*
G03X621006Y182550I868J-497D01*
G37*
G36*
G01X614166Y190211D02*
G02X615606Y191652I2450J-1009D01*
G01X614785Y192570D01*
X613954Y191696D01*
Y190423D01*
X614166Y190211D01*
G37*
G36*
G01X613755Y191357D02*
G02X611394Y188874I-4172J1602D01*
G01X613954Y187421D01*
X616512Y188874D01*
G02X614152Y191357I1812J4085D01*
G03X613755I-199J-225D01*
G37*
G36*
G01X612085Y179243D02*
G02X610664Y180664I994J2415D01*
G01X609745Y179842D01*
X610600Y179031D01*
X611873D01*
X612085Y179243D01*
G37*
G36*
G01X610349Y178867D02*
G02X611395Y177812I-769J-1809D01*
G01X614028Y179031D01*
X611395Y180250D01*
G02X610349Y179194I-1815J754D01*
G03Y178867I251J-164D01*
G37*
G36*
G01X624661Y180068D02*
G02X623241Y178947I-2074J1167D01*
G01X623331Y176990D01*
X625065Y177894D01*
G02X625102Y179845I2388J930D01*
G03X624661Y180068I-297J-40D01*
G37*
G36*
G01X611261Y201482D02*
G02X611933Y200810I-471J-1143D01*
G01X613561Y202189D01*
X611933Y203567D01*
G02X611261Y202896I-1143J471D01*
G03Y201482I707J-707D01*
G37*
G36*
G01X611501Y198425D02*
G02X610504Y199304I584J1668D01*
G01X608854Y198251D01*
X610504Y197198D01*
G02X611501Y198076I1581J-789D01*
G03Y198425I-244J175D01*
G37*
G36*
G01X632550Y67874D02*
G02Y65000I-3450J-1437D01*
G01X634578Y64763D01*
X634500Y66924D01*
X633550Y67874D01*
X632550D01*
G37*
G36*
G01X633742Y87769D02*
G02X631382Y85285I-4172J1602D01*
G01X633940Y83832D01*
X636500Y85285D01*
G02X634139Y87769I1812J4085D01*
G03X633742I-199J-225D01*
G37*
G36*
G01X651458D02*
G02X649098Y85285I-4172J1602D01*
G01X651656Y83832D01*
X654216Y85285D01*
G02X651855Y87769I1812J4085D01*
G03X651458I-199J-225D01*
G37*
G36*
G01X648182Y75418D02*
G02X647282I-450J1080D01*
G01X647229Y74165D01*
X648482Y74218D01*
G02Y75118I1080J450D01*
G03X648182Y75418I-300J0D01*
G37*
G36*
G01X637018Y75118D02*
G02Y74218I-1080J-450D01*
G01X638271Y74165D01*
X638218Y75418D01*
G02X637318I-450J1080D01*
G03X637018Y75118I0J-300D01*
G37*
G36*
G01X637197Y75647D02*
G02X636477Y76316I482J1242D01*
G01X633866Y75441D01*
X636499Y74639D01*
G02X637204Y75364I1264J-523D01*
G03X637197Y75647I-268J136D01*
G37*
G36*
G01X648247Y75291D02*
G02X649098Y74427I-645J-1486D01*
G01X651732Y75442D01*
X649098Y76458D01*
G02X648247Y75593I-1496J621D01*
G03Y75291I259J-151D01*
G37*
G36*
G01X638327Y93585D02*
G02X637656Y92914I-1142J470D01*
G01X639035Y91284D01*
X640413Y92913D01*
G02X639742Y93585I471J1143D01*
G03X638327Y93585I-707J-707D01*
G37*
G36*
G01X639377Y92095D02*
G02X640610Y93609I2732J-965D01*
G01X639035Y94912D01*
X637460Y93609D01*
G02X638692Y92095I-1500J-2479D01*
G03X639377I343J939D01*
G37*
G36*
G01X647340Y100949D02*
G02X648011Y101621I1142J-470D01*
G01X646632Y103250D01*
X645254Y101621D01*
G02X645925Y100949I-471J-1143D01*
G03X647340Y100949I707J707D01*
G37*
G36*
G01X646290Y101168D02*
G02X645058Y99653I-2732J965D01*
G01X646632Y98350D01*
X648208Y99653D01*
G02X646975Y101168I1500J2479D01*
G03X646290I-343J-939D01*
G37*
G36*
G01X634153Y86456D02*
G02X634848Y87152I1184J-488D01*
G01X634003Y88075D01*
X633133Y87172D01*
G02X633710Y86476I-547J-1040D01*
G03X634153Y86456I231J192D01*
G37*
G36*
G01X649204Y94837D02*
G02X648208Y95715I584J1668D01*
G01X646558Y94662D01*
X648208Y93609D01*
G02X649204Y94488I1581J-789D01*
G03Y94837I-244J174D01*
G37*
G36*
G01X636463Y98426D02*
G02X637460Y97547I-584J-1668D01*
G01X639110Y98600D01*
X637460Y99653D01*
G02X636463Y98775I-1581J789D01*
G03Y98426I244J-175D01*
G37*
G36*
G01X646122Y493500D02*
X647465D01*
X648468Y494353D01*
X646854Y495646D01*
G02X645414Y494207I-2447J1008D01*
G01X646122Y493500D01*
G37*
G36*
G01X633200Y498200D02*
G02X632250I-475J1140D01*
G01X632073Y496073D01*
X634200Y496250D01*
G02Y497200I1140J475D01*
G03X633200Y498200I-1000J0D01*
G37*
G36*
G01X633389Y496969D02*
G02X635503Y496988I1083J-2869D01*
G01X635844Y499004D01*
X633928Y499716D01*
G02X632855Y497894I-3018J551D01*
G03X633389Y496969I999J-40D01*
G37*
G36*
G01X647013Y500785D02*
X648286D01*
X649071Y501525D01*
X648152Y502348D01*
G02X646801Y500998I-2297J946D01*
G01X647013Y500785D01*
G37*
G36*
G01X648542Y500941D02*
G02X647634Y501862I682J1582D01*
G01X645000Y500785D01*
X647634Y499709D01*
G02X648542Y500630I1590J-661D01*
G03Y500941I-257J155D01*
G37*
G36*
G01X637094Y492080D02*
G02X639302Y490408I-915J-3503D01*
G01X639502Y492298D01*
X637727Y493136D01*
G02X637032Y492435I-1231J525D01*
G03X637094Y492080I267J-136D01*
G37*
G36*
G01X637302Y503447D02*
G02X637338Y501685I-2127J-926D01*
G01X639074Y500782D01*
X639162Y502738D01*
G02X637715Y503678I422J2233D01*
G03X637302Y503447I-117J-276D01*
G37*
G36*
G01X647056Y520713D02*
G02X646384Y521384I471J1143D01*
G01X644756Y520006D01*
X646384Y518627D01*
G02X647056Y519298I1143J-471D01*
G03Y520713I-707J707D01*
G37*
G36*
G01X645310Y512466D02*
G02X645872Y513178I1134J-318D01*
G01X644996Y514075D01*
X644152Y513152D01*
G02X644863Y512440I-497J-1208D01*
G03X645310Y512466I212J212D01*
G37*
G36*
G01X644876Y513112D02*
G02X642516Y510628I-4172J1602D01*
G01X645075Y509176D01*
X647634Y510628D01*
G02X645273Y513112I1812J4085D01*
G03X644876I-198J-225D01*
G37*
G36*
G01X647597Y523769D02*
G02X648594Y522890I-584J-1668D01*
G01X650244Y523944D01*
X648594Y524996D01*
G02X647597Y524118I-1581J789D01*
G03Y523769I244J-175D01*
G37*
G36*
G01X658366Y77108D02*
G02X659879Y78621I2573J-1060D01*
G01X658590Y80233D01*
X657658Y79159D01*
Y77815D01*
X658366Y77108D01*
G37*
G36*
G01X658550Y65950D02*
G02Y65000I-1140J-475D01*
G01X660677Y64823D01*
X660500Y66950D01*
G02X659550I-475J1140D01*
G03X658550Y65950I0J-1000D01*
G37*
G36*
G01X652429Y66620D02*
G02X653984Y66967I1201J-1726D01*
G01X653904Y68918D01*
X652160Y68020D01*
G02X652128Y66851I-1467J-545D01*
G03X652429Y66620I292J69D01*
G37*
G36*
G01X662393Y76285D02*
G02X660944Y75359I-1853J1303D01*
G01X661032Y73403D01*
X662768Y74306D01*
G02X662805Y76053I2147J829D01*
G03X662393Y76285I-297J-45D01*
G37*
G36*
G01X651869Y86464D02*
G02X652556Y87152I1170J-482D01*
G01X651711Y88075D01*
X650843Y87169D01*
G02X651428Y86481I-533J-1046D01*
G03X651869Y86464I229J194D01*
G37*
G36*
G01X669550Y490950D02*
G02Y490000I-1140J-475D01*
G01X671677Y489823D01*
X671500Y491950D01*
G02X670550I-475J1140D01*
G03X669550Y490950I0J-1000D01*
G37*
G36*
G01X671288Y491308D02*
G02X670103Y493069I1803J2492D01*
G01X668184Y492351D01*
X668528Y490341D01*
G02X670734Y490309I1060J-2985D01*
G03X671288Y491308I-441J898D01*
G37*
G36*
G01X659046Y501254D02*
G02Y502154I1080J450D01*
G01X657794Y502206D01*
X657846Y500953D01*
G02X658746I450J-1080D01*
G03X659046Y501254I0J300D01*
G37*
G36*
G01X658973Y500607D02*
G02X660232Y499407I-832J-2133D01*
G01X662866Y500785D01*
X660232Y502164D01*
G02X658973Y500964I-2091J933D01*
G03Y500607I241J-178D01*
G37*
G36*
G01X663229Y492161D02*
G02X665118Y492310I1125J-2221D01*
G01X665047Y494254D01*
X663294Y493363D01*
G02X662954Y492474I-1294J-14D01*
G03X663229Y492161I300J-14D01*
G37*
G36*
G01X669500Y501242D02*
G02X671379Y503121I3194J-1315D01*
G01X670107Y504726D01*
X668793Y503293D01*
Y501949D01*
X669500Y501242D01*
G37*
G36*
G01X663003Y512224D02*
G02X663639Y512861I1082J-446D01*
G01X662791Y513784D01*
X661942Y512861D01*
G02X662579Y512224I-446J-1082D01*
G03X663003I212J212D01*
G37*
G36*
G01X662592Y513112D02*
G02X660232Y510628I-4172J1602D01*
G01X662791Y509176D01*
X665350Y510628D01*
G02X662989Y513112I1812J4085D01*
G03X662592I-198J-225D01*
G37*
G36*
G01X660344Y520175D02*
G02X659342Y521058I587J1676D01*
G01X657692Y520006D01*
X659342Y518952D01*
G02X660343Y519824I1575J-798D01*
G03X660344Y520175I-243J176D01*
G37*
G36*
G01X658474Y525183D02*
G02X659145Y525854I1142J-470D01*
G01X657767Y527483D01*
X656388Y525854D01*
G02X657060Y525183I-471J-1143D01*
G03X658474Y525183I707J707D01*
G37*
G36*
G01X657424Y526511D02*
G02X656192Y524996I-2732J965D01*
G01X657767Y523694D01*
X659342Y524996D01*
G02X658110Y526511I1500J2479D01*
G03X657424I-343J-939D01*
G37*
G36*
G01X673654Y500942D02*
G02X672078Y500702I-1081J1805D01*
G01X672156Y498752D01*
X673902Y499649D01*
G02X673932Y500718I1352J497D01*
G03X673654Y500942I-290J-76D01*
G37*
G36*
G01X57943Y510747D02*
G02X58580Y511383I1082J-446D01*
G01X57731Y512306D01*
X56883Y511383D01*
G02X57519Y510747I-446J-1082D01*
G03X57943I212J212D01*
G37*
G36*
G01X89065Y188868D02*
G02X89701Y189504I1082J-446D01*
G01X88853Y190428D01*
X88004Y189504D01*
G02X88640Y188868I-446J-1082D01*
G03X89065I212J212D01*
G37*
G36*
G01X106781Y188946D02*
G02X107417Y189583I1082J-446D01*
G01X106569Y190506D01*
X105720Y189583D01*
G02X106357Y188946I-446J-1082D01*
G03X106781I212J212D01*
G37*
G36*
G01X201729Y458926D02*
G02X201305Y458502I-721J297D01*
G01X202154Y457504D01*
X203002Y458502D01*
G02X202578Y458926I297J721D01*
G03X201729I-424J-424D01*
G37*
G36*
G01X568518Y572821D02*
G02X569155Y573458I1082J-446D01*
G01X568306Y574381D01*
X567458Y573458D01*
G02X568094Y572821I-446J-1082D01*
G03X568518I212J212D01*
G37*
G54D10*
X7500Y30500D03*
X23000Y575500D03*
X695500Y29500D03*
X686500Y578000D03*
G54D11*
X38500Y72000D03*
X28000Y497000D03*
X52174Y66200D03*
X52162Y94662D03*
X41732Y494268D03*
X40506Y520006D03*
X52707Y527293D03*
X76000Y79000D03*
X80000Y66000D03*
X63842Y102342D03*
X76000Y175500D03*
X67500Y491000D03*
X64000Y506000D03*
X90987Y172513D03*
X88500Y198000D03*
X101545Y205955D03*
X105000Y343500D03*
X84500Y369000D03*
X95500Y402500D03*
X96874Y430626D03*
X103080Y560580D03*
X112500Y64500D03*
X117018Y92518D03*
X107035Y105035D03*
X121000Y125500D03*
X121264Y143000D03*
X116000Y168500D03*
X112571Y183571D03*
X107154Y407654D03*
X123098Y500598D03*
X115106Y483606D03*
X118000Y552500D03*
X117793Y581707D03*
X128753Y69247D03*
X147000Y148500D03*
X139154Y341654D03*
X142000Y566500D03*
X144500Y552000D03*
X129476Y589976D03*
X164604Y130604D03*
X149000Y165500D03*
X164252Y510252D03*
X172500Y143500D03*
X179500Y501500D03*
X177500Y531000D03*
X190032Y539968D03*
X209500Y146500D03*
X203154Y176846D03*
X207500Y402000D03*
X203000Y518500D03*
X204605Y503605D03*
X227097Y159596D03*
X214500Y391500D03*
X217500Y461500D03*
X250227Y487227D03*
X265500Y373500D03*
X263106Y448394D03*
X258219Y500781D03*
X281337Y486337D03*
X289329Y500329D03*
X320192Y448808D03*
X313487Y486013D03*
X321479Y500979D03*
X327985Y385965D03*
X347471Y485029D03*
X355463Y501963D03*
X387000Y390500D03*
X384000Y386500D03*
X381447Y485053D03*
X389439Y501061D03*
X390000Y394000D03*
X398500Y422500D03*
X411154Y459654D03*
X413000Y376000D03*
Y382000D03*
Y387000D03*
X413865Y403135D03*
X417846Y459846D03*
X413593Y485907D03*
X421585Y501085D03*
X453096Y256097D03*
X441827Y284827D03*
X441551Y310949D03*
X440602Y321398D03*
X444676Y486324D03*
X452668Y500668D03*
X458500Y260500D03*
Y300500D03*
X476500Y291500D03*
X473761Y325261D03*
X467000Y331500D03*
X482370Y259500D03*
X483461Y331500D03*
X490954Y333454D03*
X492000Y507000D03*
X507904Y272597D03*
X505500Y327398D03*
X508500Y503000D03*
X508379Y531379D03*
X520442Y542000D03*
X541500Y153500D03*
X541000Y502500D03*
X533500Y516000D03*
X555000Y558500D03*
X585500Y58500D03*
X568500Y131000D03*
X585916Y110416D03*
X568000Y154500D03*
X583000Y180500D03*
X579845Y481500D03*
X571500Y555969D03*
X568293Y581707D03*
X586355Y585645D03*
X587000Y74500D03*
X595957Y97043D03*
X590000Y129500D03*
X598000Y171000D03*
X597251Y198251D03*
X592944Y494444D03*
X593000Y566500D03*
X596000Y552500D03*
X620535Y73535D03*
X624578Y169007D03*
X622500Y184500D03*
X613311Y202189D03*
X634500Y65000D03*
X639035Y91535D03*
X646632Y103000D03*
X648232Y494268D03*
X632250Y496250D03*
X645006Y520006D03*
X660500Y65000D03*
X658500Y80000D03*
X671500Y490000D03*
X670000Y504500D03*
X657767Y527233D03*
G54D20*
X121478Y61973D03*
X125098Y65592D03*
X119446Y71243D03*
X115827Y67624D03*
X551696Y152310D03*
X549663Y161580D03*
X546044Y157961D03*
X555315Y155929D03*
X578074Y129081D03*
X576041Y138352D03*
X572422Y134732D03*
X581693Y132700D03*
G54D21*
X117018Y105035D03*
X111900D03*
Y97043D03*
X117018D03*
X585916Y105035D03*
Y97043D03*
X591034Y105035D03*
Y97043D03*
G54D12*
X40015Y500786D03*
Y509251D03*
X51150Y83908D03*
Y75442D03*
X57731Y500786D03*
Y509251D03*
X68866Y83908D03*
Y75442D03*
X88853Y187496D03*
Y179031D03*
X106569Y187496D03*
Y179031D03*
X116784Y562487D03*
Y570952D03*
X134500Y562487D03*
Y570952D03*
X177340Y520624D03*
Y512159D03*
X195056Y520624D03*
Y512159D03*
X507750Y520624D03*
Y512159D03*
X525466Y520624D03*
Y512159D03*
X568306Y562487D03*
X586022D03*
X568306Y570952D03*
X586022D03*
X596238Y187496D03*
Y179031D03*
X613954Y187496D03*
Y179031D03*
X633940Y83907D03*
X651656D03*
X633940Y75442D03*
X651656D03*
X645075Y500785D03*
Y509250D03*
X662791Y500785D03*
Y509250D03*
G54D30*
X152389Y89512D03*
Y101332D03*
X187039Y67942D03*
X177199Y64712D03*
Y126132D03*
X188999D03*
X179159Y118182D03*
X213809Y89512D03*
X210099Y80662D03*
X213809Y101332D03*
X489124Y89512D03*
Y101332D03*
X513934Y64712D03*
Y126132D03*
X515894Y118182D03*
X523774Y67942D03*
X525734Y126132D03*
X550544Y89512D03*
X546834Y80662D03*
X550544Y101332D03*
G54D40*
X263106Y439630D03*
X320192D03*
G54D22*
X124860Y129475D03*
X126893Y138745D03*
X121241Y133094D03*
X130512Y135126D03*
X147225Y155929D03*
X150844Y152310D03*
X156496Y157961D03*
X152877Y161580D03*
X577934Y65378D03*
X581553Y61758D03*
X587204Y67410D03*
X583585Y71029D03*
G54D31*
X168139Y89512D03*
X504874D03*
G54D13*
X37777Y494268D03*
X34367Y492299D03*
X30568Y498879D03*
X33978Y500848D03*
X48912Y68924D03*
X45502Y66956D03*
X41703Y73536D03*
X45113Y75504D03*
X79406Y177124D03*
X82816Y179093D03*
X86615Y172513D03*
X83205Y170544D03*
X114546Y555969D03*
X111136Y554000D03*
X107337Y560580D03*
X110747Y562549D03*
X167894Y510252D03*
X175102Y505641D03*
X171692Y503672D03*
X171304Y512221D03*
X498303Y510252D03*
X505512Y505641D03*
X502102Y503672D03*
X501713Y512221D03*
X562658Y554000D03*
X558859Y560580D03*
X562269Y562549D03*
X566068Y555969D03*
X594000Y172513D03*
X590590Y170544D03*
X586790Y177124D03*
X590200Y179093D03*
X628292Y66955D03*
X624494Y73535D03*
X627904Y75504D03*
X631702Y68924D03*
X642837Y494268D03*
X639427Y492298D03*
X635628Y498878D03*
X639038Y500848D03*
G54D50*
G01X41703Y73536D02*
X40036D01*
X38500Y72000D01*
G01X37777Y494268D02*
X41732D01*
G01X30568Y498879D02*
X29879D01*
X28000Y497000D01*
G01X48912Y68924D02*
X49275D01*
X52000Y66200D01*
X52174D01*
G01X56244Y94662D02*
X52162D01*
G01X45109Y520006D02*
X40506D01*
G01X52707Y523944D02*
Y527293D01*
G01X74868Y75438D02*
Y77868D01*
X76000Y79000D01*
G01X74479Y66888D02*
X76269Y65098D01*
X79098D01*
X80000Y66000D01*
G01X63842Y98600D02*
Y102342D01*
G01X79406Y177124D02*
X77624D01*
X76000Y175500D01*
G01X63733Y500781D02*
Y505733D01*
X64000Y506000D01*
G01X63344Y492232D02*
X66268D01*
X67500Y491000D01*
G01X86615Y172513D02*
X90987D01*
G01X93947Y198251D02*
X88751D01*
X88500Y198000D01*
G01X101545Y202189D02*
Y205955D01*
G01X92120Y373885D02*
X89385D01*
X84500Y369000D01*
G01X89546Y425850D02*
X94874D01*
X96874Y427850D01*
Y430626D01*
G01X107337Y560580D02*
X103080D01*
G01X115827Y67624D02*
X115624D01*
X112500Y64500D01*
G01X128753Y69247D02*
X125098Y65592D01*
G01X117018Y97043D02*
Y92518D01*
G01X111900Y105035D02*
X107035D01*
G01X124860Y129475D02*
Y129360D01*
X121000Y125500D01*
G01X126893Y138745D02*
X126755D01*
X122500Y143000D01*
X121264D01*
G01X112182Y170477D02*
X114023D01*
X116000Y168500D01*
G01X112571Y179026D02*
Y183571D01*
G01X113428Y352577D02*
Y351428D01*
X105500Y343500D01*
X105000D01*
G01X107154Y407654D02*
Y412000D01*
G01X114500Y401846D02*
X109154D01*
X107154Y403847D01*
Y407654D01*
G01X123098Y494443D02*
Y500598D01*
G01X115106Y489325D02*
Y483606D01*
G01X114546Y555969D02*
Y555954D01*
X118000Y552500D01*
G01X121878Y581707D02*
X117793D01*
G01X150844Y152310D02*
X150810D01*
X147000Y148500D01*
G01X139154Y341654D02*
Y346000D01*
G01D02*
X139500Y346346D01*
Y353000D01*
G01X140502Y562482D02*
Y565002D01*
X142000Y566500D01*
G01X140113Y553933D02*
X142567D01*
X144500Y552000D01*
G01X129476Y585645D02*
Y589976D01*
G01X152877Y161580D02*
Y161623D01*
X149000Y165500D01*
G01X167894Y510252D02*
X164252D01*
G01X175102Y505641D02*
X175359D01*
X179500Y501500D01*
G01X182434Y531379D02*
X177879D01*
X177500Y531000D01*
G01X190032Y535317D02*
Y539968D01*
G01X199510Y159126D02*
X203374D01*
X209627Y152873D01*
X215971D01*
G01X214500Y391500D02*
X208847D01*
G01D02*
Y386500D01*
G01X199866Y399134D02*
Y399366D01*
X202500Y402000D01*
X207500D01*
G01X217500Y461500D02*
X208847D01*
G01X201059Y512154D02*
X203000Y514096D01*
Y518500D01*
G01X200670Y503605D02*
X204605D01*
G01X227097Y159596D02*
X222200D01*
G01D02*
X222169Y159566D01*
X215971D01*
G01X222200Y152904D02*
X222169Y152873D01*
X215971D01*
G01X250227Y491039D02*
Y487227D01*
G01X273987Y345371D02*
X273129D01*
X265000Y353500D01*
Y356000D01*
X268634Y359634D01*
G01D02*
X265500Y362767D01*
Y373500D01*
G01X263106Y439630D02*
Y448394D01*
G01X258219Y496157D02*
Y500781D01*
G01X281337Y491039D02*
Y486337D01*
G01X289329Y496157D02*
Y500329D01*
G01X308930Y388454D02*
X325497D01*
X327985Y385965D01*
G01X320192Y439630D02*
Y448808D01*
G01X313487Y491039D02*
Y486013D01*
G01X321479Y496157D02*
Y500979D01*
G01X347471Y491039D02*
Y485029D01*
G01X355463Y496157D02*
Y501963D01*
G01X381447Y491039D02*
Y485053D01*
G01X389439Y496157D02*
Y501061D01*
G01X413593Y491039D02*
Y485907D01*
G01X421585Y496157D02*
Y501085D01*
G01X453096Y269154D02*
Y256097D01*
G01Y274378D02*
X456500D01*
X458500Y272378D01*
G01X463369Y280070D02*
X461070D01*
X460000Y279000D01*
X453699D01*
X453096Y279602D01*
G01Y290051D02*
X456500D01*
X458500Y292051D01*
Y300500D01*
G01X446404Y284827D02*
X441827D01*
G01X464061Y321178D02*
X463841Y321398D01*
X453096D01*
G01X441551Y310949D02*
X446404D01*
G01Y321398D02*
X440602D01*
G01X446404Y310949D02*
Y305724D01*
G01X444676Y491039D02*
Y486324D01*
G01X452668Y496157D02*
Y500668D01*
G01X458500Y272378D02*
Y260500D01*
G01X463500Y274146D02*
X460268D01*
X458500Y272378D01*
G01X482370Y265993D02*
X475409D01*
X473949Y267454D01*
G01X473606Y282630D02*
X477348D01*
X482370Y277607D01*
G01D02*
X482509Y277468D01*
Y274000D01*
X480509Y272000D01*
X477000D01*
X474854Y274146D01*
X473949D01*
G01X473606Y287748D02*
Y289500D01*
X475606Y291500D01*
X476500D01*
G01X463514Y328250D02*
X464061Y327703D01*
Y321178D01*
G01X473761Y313678D02*
Y325261D01*
G01X463514Y328250D02*
X463750D01*
X467000Y331500D01*
G01X482370Y259500D02*
Y265993D01*
G01X492488D02*
X482370D01*
G01Y277607D02*
X492488D01*
G01D02*
X492595Y277500D01*
X507904D01*
Y272597D01*
G01X483461Y331500D02*
Y321178D01*
G01X490954Y327398D02*
Y320673D01*
G01X483461Y321178D02*
X483966Y320673D01*
X490954D01*
G01X483461Y316178D02*
X493678D01*
X497646Y320146D01*
Y320673D01*
G01Y327398D02*
Y320673D01*
G01X490954Y333454D02*
Y327398D01*
G01X505500D02*
X497646D01*
G01X498303Y510252D02*
X495051Y507000D01*
X492000D01*
G01X505512Y505641D02*
X505859D01*
X508500Y503000D01*
G01X512844Y531379D02*
X508379D01*
G01X546044Y157961D02*
X545961D01*
X541500Y153500D01*
G01X531079Y503605D02*
X532184Y502500D01*
X541000D01*
G01X531468Y512154D02*
Y513968D01*
X533500Y516000D01*
G01X520442Y535317D02*
Y542000D01*
G01X555315Y155929D02*
X557886Y158500D01*
X564000D01*
X568000Y154500D01*
G01X558859Y560580D02*
X557080D01*
X555000Y558500D01*
G01X581553Y61758D02*
X582242D01*
X585500Y58500D01*
G01X583585Y71029D02*
Y71085D01*
X587000Y74500D01*
G01X581693Y132700D02*
X581800D01*
X585000Y129500D01*
X590000D01*
G01X572422Y134732D02*
X572232D01*
X568500Y131000D01*
G01X586790Y177124D02*
X586376D01*
X583000Y180500D01*
G01X579845Y489326D02*
Y481500D01*
G01X566068Y555969D02*
X571500D01*
G01X573400Y581707D02*
X568293D01*
G01X580998Y585645D02*
X586355D01*
G01X591034Y97043D02*
X595957D01*
G01X585916Y105035D02*
Y110416D01*
G01X594000Y172513D02*
X596487D01*
X598000Y171000D01*
G01X601332Y198251D02*
X597251D01*
G01X587837Y494444D02*
X592944D01*
G01X592024Y562482D02*
Y565524D01*
X593000Y566500D01*
G01X591635Y553933D02*
X593068Y552500D01*
X596000D01*
G01X624494Y73535D02*
X620535D01*
G01X619566Y170477D02*
X620023D01*
X621493Y169007D01*
X624578D01*
G01X619956Y179026D02*
Y182500D01*
X621956Y184500D01*
X622500D01*
G01X608930Y202189D02*
X613311D01*
G01X631702Y68924D02*
X632500D01*
X634500Y66924D01*
Y65000D01*
G01X639035Y94662D02*
Y91535D01*
G01X646632Y98600D02*
Y103000D01*
G01X642837Y494268D02*
X643604Y493500D01*
X647465D01*
X648232Y494268D01*
G01X635628Y498878D02*
X634878D01*
X632250Y496250D01*
G01X650169Y520006D02*
X645006D01*
G01X657658Y75437D02*
Y79159D01*
X658500Y80000D01*
G01X657270Y66888D02*
X658612D01*
X660500Y65000D01*
G01X668793Y500780D02*
Y503293D01*
X670000Y504500D01*
G01X668404Y492231D02*
X669269D01*
X671500Y490000D01*
G01X657767Y523944D02*
Y527233D01*
G54D41*
X450286Y328250D03*
X463514D03*
G54D32*
X158662Y316659D03*
Y324533D03*
X544650Y324844D03*
Y316970D03*
G54D14*
X56000Y75442D03*
X51150Y87350D03*
X41000Y488000D03*
X53500Y500500D03*
X44500D03*
X40015Y512985D03*
X57731Y512231D03*
X63805Y65175D03*
X64000Y76000D03*
X68866Y87366D03*
X82000Y298000D03*
X75500Y349000D03*
X80500Y370500D03*
X80548Y382548D03*
X82854Y430854D03*
X83000Y476000D03*
X100000Y88500D03*
X97000Y91000D03*
X102031Y179031D03*
X93469D03*
X88853Y190353D03*
X85500Y305500D03*
Y302000D03*
X89000Y309000D03*
X92828Y349007D03*
X85000Y359500D03*
X97000Y358500D03*
X103000Y352500D03*
X99500Y386000D03*
X101621Y383879D03*
X103743Y381757D03*
X122576Y95424D03*
X125850Y111000D03*
X115500Y161500D03*
X106569Y190431D03*
X115500Y341500D03*
X109000Y337500D03*
X105000D03*
X117500Y366500D03*
X115000Y369500D03*
X123000Y366000D03*
X107654Y390332D03*
X122000Y373500D03*
X118500Y378500D03*
X113846Y407654D03*
X122000Y424500D03*
X124851Y558649D03*
X117000Y574500D03*
X138000Y83346D03*
X130000Y108000D03*
X136400Y119500D03*
X136000Y305500D03*
X140500Y308500D03*
X128680Y314304D03*
X127000Y336500D03*
X145846Y341154D03*
X130500Y358000D03*
X135000Y353000D03*
X127000Y365500D03*
X134500Y575000D03*
X164500Y75500D03*
Y101000D03*
X169000Y192000D03*
X157000Y176000D03*
X150500D03*
X161000Y208500D03*
X170500Y217000D03*
X185140Y167500D03*
X191500Y218500D03*
X181000Y230000D03*
X175000Y224000D03*
X175500Y241000D03*
X184000Y255500D03*
X182000Y263992D03*
X181400Y340500D03*
X180989Y368698D03*
X190500Y367000D03*
X181000Y380000D03*
X182000Y384500D03*
X174000Y383500D03*
X190500Y406400D03*
X181500Y431500D03*
X184493Y440328D03*
X181000Y508500D03*
X177340Y524340D03*
X205000Y57500D03*
X207000Y194000D03*
X195000Y360500D03*
X192500Y357500D03*
X205000Y381500D03*
X197500Y410000D03*
X204500Y398000D03*
X202154Y457654D03*
X213000Y466000D03*
X192500Y508500D03*
X195056Y524444D03*
X220000Y59500D03*
X251749Y88751D03*
X251476Y95476D03*
X256500Y190500D03*
X255500Y383500D03*
Y432500D03*
X260500Y80000D03*
X258493Y66672D03*
X269500Y368000D03*
X268000Y393000D03*
X265500Y379500D03*
X385250Y429750D03*
X386000Y425500D03*
X388000Y464500D03*
X432000Y474500D03*
X450423Y82077D03*
X451148Y75352D03*
X436500Y218500D03*
X442102Y294000D03*
X441000Y447500D03*
X436352Y457000D03*
X468000Y94500D03*
X458630Y282630D03*
X463500Y263000D03*
X497500Y116500D03*
X498500Y189000D03*
X497500Y286000D03*
X491722Y308578D03*
X487500Y441500D03*
X491500Y467000D03*
X483000Y461500D03*
X504741Y105234D03*
X500500Y286000D03*
X503500D03*
X504500Y449500D03*
X514000Y479500D03*
X512009Y513500D03*
X507092Y524408D03*
X525000Y191500D03*
X537000Y215500D03*
X532500Y220000D03*
X525500Y222500D03*
X530500Y236500D03*
X524500Y250500D03*
X525800Y425500D03*
X520668Y513168D03*
X524808Y524308D03*
X547500Y205000D03*
X543000Y210000D03*
X548000Y227000D03*
X564000Y479500D03*
X572987Y562487D03*
X581500Y562500D03*
X586022Y574478D03*
X568306Y574306D03*
X587346Y85154D03*
X606000Y106000D03*
X595869Y191296D03*
X601000Y180000D03*
X603000Y229000D03*
X614758Y192500D03*
X609815Y179815D03*
X638218Y74218D03*
X647282D03*
X651708Y88000D03*
X634000D03*
X649000Y501500D03*
X645000Y514000D03*
X657846Y502154D03*
X662791Y513709D03*
G54D23*
X124951Y229418D03*
X154465Y258933D03*
G54D51*
G01X103000Y352500D02*
X97000Y358500D01*
G01X114500Y395154D02*
X108854D01*
X107654Y393954D01*
Y390332D01*
G01X113846Y407654D02*
Y412000D01*
G01X131845Y404516D02*
X122483Y395154D01*
X114500D01*
G01X113846Y412000D02*
X129006D01*
X131845Y414839D01*
G01X136017Y419011D02*
Y418983D01*
X140000Y415000D01*
Y410500D01*
X138500Y409000D01*
X130000D01*
X122846Y401846D01*
X114500D01*
G01X107154Y412000D02*
X106500Y412653D01*
Y416000D01*
X111500Y421000D01*
X128513D01*
X133259Y416254D01*
G01X145846Y341154D02*
Y346000D01*
G01D02*
Y349265D01*
X142000Y353111D01*
Y372810D01*
X152775Y383585D01*
G01X139500Y353000D02*
Y372856D01*
X143000Y376356D01*
Y376638D01*
X151361Y384999D01*
G01X160432Y215628D02*
Y215568D01*
X163402Y212598D01*
Y210902D01*
X161000Y208500D01*
G01X170500Y217000D02*
X166295Y221205D01*
Y221491D01*
G01D02*
X166000Y221787D01*
Y227500D01*
X162000Y231500D01*
X159500D01*
X151420Y239580D01*
X151262D01*
G01X163099Y435770D02*
X163224D01*
G01X202154Y461500D02*
X197000D01*
X186000Y450500D01*
X177830D01*
X163099Y435770D01*
G01X208847Y461500D02*
Y456500D01*
X207346Y455000D01*
X194000D01*
X187000Y448000D01*
X178158D01*
X164513Y434355D01*
G01X178022Y233218D02*
Y232978D01*
X181000Y230000D01*
G01X172159Y227355D02*
Y226841D01*
X175000Y224000D01*
G01X202154Y391500D02*
X188500D01*
X179858Y400142D01*
Y400344D01*
G01X202154Y386500D02*
X191000D01*
X178571Y398929D01*
X178443D01*
G01X208847Y386500D02*
Y381665D01*
X205181Y378000D01*
X196500D01*
X177029Y397471D01*
Y397515D01*
G01X195134Y403866D02*
X192267Y401000D01*
X187500D01*
X184029Y404471D01*
Y404516D01*
G01X182615Y403101D02*
Y402885D01*
X188518Y396982D01*
X197715D01*
X199866Y399134D01*
G01X202154Y391500D02*
Y386500D01*
G01D02*
Y383347D01*
X203000Y382500D01*
X204000D01*
X205000Y381500D01*
G01X197500Y410000D02*
X198000Y409500D01*
Y406500D01*
X195366Y403866D01*
X195134D01*
G01X202154Y457654D02*
Y461500D01*
G01X266652Y332563D02*
X267937D01*
X271651Y328848D01*
X277348D01*
X282000Y333500D01*
Y345000D01*
X278500Y348500D01*
Y359233D01*
X273366Y364366D01*
G01D02*
X273134D01*
X269500Y368000D01*
G01X273934Y388444D02*
X269200D01*
X268000Y389644D01*
Y393000D01*
G01X446404Y295276D02*
Y300500D01*
G01Y290051D02*
X441449D01*
X439977Y291523D01*
Y293477D01*
X440500Y294000D01*
X442102D01*
G01X446404Y295276D02*
Y290051D01*
G01Y300500D02*
X438000D01*
X436500Y302000D01*
Y314000D01*
X438673Y316173D01*
X446404D01*
G01X453096Y295276D02*
Y300500D01*
G01D02*
Y305724D01*
G01X464061Y306178D02*
X453550D01*
X453096Y305724D01*
G01X483461Y306178D02*
X489178D01*
X491578Y308578D01*
X491722D01*
G01X539985Y218515D02*
Y218485D01*
X537000Y215500D01*
G01X535848Y223294D02*
X535794D01*
X532500Y220000D01*
G01X539985Y218658D02*
Y218515D01*
G01X560390Y232622D02*
X560122D01*
X544349Y216849D01*
X541651D01*
X539985Y218515D01*
G01X550804Y208839D02*
Y208304D01*
X547500Y205000D01*
G01X546781Y213361D02*
X546362D01*
X543000Y210000D01*
G54D33*
X175297Y150661D03*
G54D24*
X114500Y401846D03*
Y395154D03*
X215971Y152873D03*
X222200Y152904D03*
X215971Y159566D03*
X222200Y159596D03*
X463500Y267454D03*
Y274146D03*
X473949D03*
Y267454D03*
X468724D03*
Y274146D03*
X469250Y300184D03*
Y293491D03*
X464026Y300184D03*
Y293491D03*
G54D42*
X473606Y280070D03*
Y282630D03*
X463369D03*
Y280070D03*
X473606Y285189D03*
Y287748D03*
X463369D03*
Y285189D03*
G54D15*
X56244Y94662D03*
Y98600D03*
X45109Y520006D03*
Y523944D03*
X52707D03*
Y520006D03*
X63842Y98600D03*
Y94662D03*
X93947Y198251D03*
Y202189D03*
X101545D03*
Y198251D03*
X121878Y581707D03*
Y585645D03*
X129476D03*
Y581707D03*
X182434Y531379D03*
Y535317D03*
X190032D03*
Y531379D03*
X512844D03*
Y535317D03*
X520442D03*
Y531379D03*
X573400Y581707D03*
Y585645D03*
X580998D03*
Y581707D03*
X601332Y198251D03*
Y202189D03*
X608930D03*
Y198251D03*
X639035Y94662D03*
Y98600D03*
X646632D03*
Y94662D03*
X650169Y520006D03*
Y523944D03*
X657767D03*
Y520006D03*
G54D25*
X115106Y494443D03*
Y489325D03*
X123098D03*
Y494443D03*
X258219Y491039D03*
Y496157D03*
X250227D03*
Y491039D03*
X289329D03*
Y496157D03*
X281337D03*
Y491039D03*
X321479D03*
Y496157D03*
X313487D03*
Y491039D03*
X355463D03*
Y496157D03*
X347471D03*
Y491039D03*
X389439D03*
Y496157D03*
X381447D03*
Y491039D03*
X421585D03*
Y496157D03*
X413593D03*
Y491039D03*
X452668D03*
Y496157D03*
X444676D03*
Y491039D03*
X579845Y494444D03*
Y489326D03*
X587837D03*
Y494444D03*
G54D34*
X180612Y142196D03*
Y159126D03*
X199510Y142196D03*
Y159126D03*
G54D16*
X59934Y494201D03*
X74868Y75438D03*
X78278Y73468D03*
X74479Y66888D03*
X71069Y68858D03*
X63733Y500781D03*
X67143Y498812D03*
X63344Y492232D03*
X112182Y170477D03*
X108772Y172446D03*
X112571Y179026D03*
X115981Y177057D03*
X140502Y562482D03*
X143912Y560513D03*
X140113Y553933D03*
X136703Y555902D03*
X201059Y512154D03*
X204468Y510185D03*
X200670Y503605D03*
X197260Y505574D03*
X531468Y512154D03*
X534878Y510185D03*
X531079Y503605D03*
X527669Y505574D03*
X592024Y562482D03*
X595434Y560513D03*
X591635Y553933D03*
X588225Y555902D03*
X619566Y170477D03*
X616156Y172446D03*
X619956Y179026D03*
X623366Y177057D03*
X657658Y75437D03*
X661068Y73468D03*
X657270Y66888D03*
X653860Y68857D03*
X668793Y500780D03*
X672203Y498811D03*
X668404Y492231D03*
X664994Y494200D03*
G54D43*
X464061Y321178D03*
Y316178D03*
Y311178D03*
Y306178D03*
X483461D03*
Y311178D03*
Y316178D03*
Y321178D03*
G54D17*
X82854Y425850D03*
X89546D03*
X107154Y412000D03*
X113846D03*
X139154Y346000D03*
X145846D03*
X208847Y391500D03*
X202154D03*
X208847Y386500D03*
X202154D03*
X199620Y444181D03*
X206313D03*
X199620Y449457D03*
X206313D03*
X208847Y461500D03*
X202154D03*
X453096Y269154D03*
X446404D03*
Y279602D03*
X453096D03*
Y274378D03*
X446404D03*
X453096Y290051D03*
X446404D03*
X453096Y295276D03*
X446404D03*
X453096Y284827D03*
X446404D03*
X453096Y305724D03*
X446404D03*
Y300500D03*
X453096D03*
Y310949D03*
X446404D03*
Y321398D03*
X453096D03*
Y316173D03*
X446404D03*
X490954Y320673D03*
X497646D03*
X490954Y327398D03*
X497646D03*
G54D35*
X186500Y458000D03*
X179750Y441250D03*
X189000Y460500D03*
X196000Y167000D03*
X194350Y346373D03*
X193504Y343294D03*
X212000Y444000D03*
X214000Y449500D03*
X219750Y447750D03*
X223700Y458500D03*
X257500Y462000D03*
X401500Y399500D03*
X401000Y461000D03*
X398000Y463500D03*
X426500Y399500D03*
X458000Y185500D03*
X461500Y336000D03*
G54D44*
X473761Y313678D03*
G54D26*
X149836Y214497D03*
X154569Y209765D03*
X160432Y215628D03*
X161563Y226224D03*
X166295Y221491D03*
X167426Y232087D03*
X172159Y227355D03*
X155700Y220360D03*
X178022Y233218D03*
X173290Y237950D03*
X199866Y399134D03*
X195134Y403866D03*
G54D45*
X482370Y265993D03*
Y277607D03*
X492488Y265993D03*
Y277607D03*
G54D36*
X204825Y150661D03*
G54D27*
X147783Y236101D03*
X144304Y232622D03*
X140825Y229143D03*
X151262Y239580D03*
X154741Y243059D03*
G54D18*
X99572Y371165D03*
X110708Y360029D03*
G54D46*
X490500Y284716D03*
Y299284D03*
G54D19*
X96852Y378617D03*
X92120Y373885D03*
X118160Y357309D03*
X113428Y352577D03*
X273366Y364366D03*
X268634Y359634D03*
X539985Y218658D03*
X530394Y227749D03*
X535126Y232482D03*
X535848Y223294D03*
X540581Y228027D03*
X551514Y218094D03*
X546781Y213361D03*
X550804Y208839D03*
X555536Y213572D03*
X544718Y223390D03*
G54D37*
X272023Y317917D03*
X289338Y348149D03*
G54D28*
X144432Y391929D03*
X145775Y390586D03*
X147189Y389171D03*
X148603Y387757D03*
X143017Y393343D03*
X131845Y404516D03*
X133259Y403101D03*
X134673Y401687D03*
X136017Y400344D03*
X137431Y398929D03*
X138845Y397515D03*
X140189Y396172D03*
X141603Y394757D03*
X149947Y386414D03*
X151361Y384999D03*
X152775Y383585D03*
X171443Y427426D03*
X170099Y428769D03*
X168685Y430184D03*
X167271Y431598D03*
X165928Y432941D03*
X164513Y434355D03*
X163099Y435770D03*
X184029Y414839D03*
X182615Y416254D03*
X181201Y417668D03*
X179858Y419011D03*
X178443Y420425D03*
X177029Y421840D03*
X175686Y423183D03*
X174271Y424597D03*
X172857Y426012D03*
G54D38*
X266652Y332563D03*
X269097Y336832D03*
X271542Y341102D03*
X273987Y345371D03*
G54D29*
X133259Y416254D03*
X131845Y414839D03*
X148603Y431598D03*
X147189Y430184D03*
X145775Y428769D03*
X144432Y427426D03*
X143017Y426012D03*
X141603Y424597D03*
X140189Y423183D03*
X138845Y421840D03*
X137431Y420425D03*
X136017Y419011D03*
X134673Y417668D03*
X163099Y383585D03*
X164513Y384999D03*
X165928Y386414D03*
X167271Y387757D03*
X168685Y389171D03*
X170099Y390586D03*
X171443Y391929D03*
X152775Y435770D03*
X151361Y434355D03*
X149947Y432941D03*
X172857Y393343D03*
X174271Y394757D03*
X175686Y396172D03*
X177029Y397515D03*
X178443Y398929D03*
X179858Y400344D03*
X181201Y401687D03*
X182615Y403101D03*
X184029Y404516D03*
G54D47*
X563870Y229143D03*
X560390Y232622D03*
X556912Y236101D03*
X553433Y239580D03*
X549954Y243059D03*
G54D39*
X278930Y388454D03*
X273934Y388444D03*
X298930Y388454D03*
X293930D03*
X288930D03*
X283930D03*
X308930D03*
X303930D03*
G54D48*
X550229Y258933D03*
X579744Y229418D03*
G54D49*
G01X115106Y494443D02*
X81943D01*
X72100Y484600D01*
X39400D01*
X34367Y489633D01*
Y492299D01*
G01X45109Y523944D02*
X38944D01*
X32000Y517000D01*
Y503500D01*
X33978Y501522D01*
Y500848D01*
G01X108772Y172446D02*
Y169228D01*
X112000Y166000D01*
Y118000D01*
X94000Y100000D01*
Y63303D01*
X90697Y60000D01*
X52000D01*
X45502Y66498D01*
Y66956D01*
G01X51150Y83908D02*
Y87350D01*
G01X106569Y187496D02*
X98996D01*
X97500Y186000D01*
Y174000D01*
X109500Y162000D01*
Y117197D01*
X92800Y100497D01*
Y63800D01*
X90500Y61500D01*
X63500D01*
X58500Y66500D01*
Y82000D01*
X60408Y83908D01*
X68866D01*
G01X51150Y75442D02*
X56000D01*
G01X56244Y98600D02*
X56143Y98500D01*
X50500D01*
X45113Y93113D01*
Y75504D01*
G01X59934Y494201D02*
X57154Y489380D01*
X57264Y488539D01*
X58803Y487000D01*
X70500D01*
X83000Y499500D01*
Y535500D01*
X101500Y554000D01*
X111136D01*
G01X41000Y488000D02*
X43200Y485800D01*
X71603D01*
X87303Y501500D01*
X117000D01*
X120000Y504500D01*
X127500D01*
X134500Y497500D01*
X181500D01*
X183500Y499500D01*
Y504500D01*
X181000Y507000D01*
Y508500D01*
G01X57731Y500786D02*
X53786D01*
X53500Y500500D01*
G01X40015Y500786D02*
X44214D01*
X44500Y500500D01*
G01X40015Y509251D02*
Y512985D01*
G01X57731Y509251D02*
Y512231D01*
G01X67143Y498812D02*
X69000Y500668D01*
Y512000D01*
X60994Y520006D01*
X52707D01*
G01X68866Y87366D02*
Y83908D01*
G01X63805Y65175D02*
X64000Y65370D01*
Y76000D01*
G01X68866Y75442D02*
X68308Y76000D01*
X64000D01*
G01X78278Y73468D02*
Y73778D01*
X80000Y75500D01*
Y84000D01*
X69338Y94662D01*
X63842D01*
G01X156496Y157961D02*
X159000Y160465D01*
Y163500D01*
X154000Y168500D01*
Y199000D01*
X142500Y210500D01*
X72000D01*
X61500Y200000D01*
Y182000D01*
X74000Y169500D01*
X82161D01*
X83205Y170544D01*
G01X75500Y349000D02*
X75507Y349007D01*
X92828D01*
G01X100000Y88500D02*
Y64697D01*
X119497Y45200D01*
X136700D01*
X156212Y64712D01*
X177199D01*
G01X205000Y57500D02*
X191500Y44000D01*
X119000D01*
X97000Y66000D01*
Y91000D01*
G01X106569Y179031D02*
X102031D01*
G01X88853D02*
X93469D01*
G01X88853Y187496D02*
Y190353D01*
G01X93947Y202189D02*
X93758Y202000D01*
X87000D01*
X85000Y200000D01*
Y181277D01*
X82816Y179093D01*
G01X115981Y177057D02*
X117000Y178076D01*
Y191000D01*
X109749Y198251D01*
X101545D01*
G01X144304Y232622D02*
Y233196D01*
X140000Y237500D01*
Y283500D01*
X125500Y298000D01*
X82000D01*
G01X85500Y305500D02*
X90803D01*
X95503Y300800D01*
X130092D01*
X133592Y304300D01*
X134727D01*
X135927Y305500D01*
X136000D01*
G01X140500Y308500D02*
X133500D01*
X127000Y302000D01*
X96000D01*
X89000Y309000D01*
G01X158662Y316659D02*
X144503Y302500D01*
X133490D01*
X130590Y299600D01*
X95006D01*
X92106Y302500D01*
X86000D01*
X85500Y302000D01*
G01X99572Y371165D02*
X103737Y367000D01*
X105219D01*
X105797Y367578D01*
Y370494D01*
X127003Y391700D01*
X130202D01*
X137431Y398929D01*
G01X96852Y378617D02*
X99572Y375897D01*
Y371165D01*
G01X133259Y403101D02*
X118158Y388000D01*
X101500D01*
X99500Y386000D01*
G01X134673Y401687D02*
X127186Y394200D01*
X126109D01*
X118409Y386500D01*
X104243D01*
X101621Y383879D01*
G01X122000Y424500D02*
X109500D01*
X106000Y421000D01*
X83454D01*
X82854Y421600D01*
Y425850D01*
G01D02*
Y430854D01*
G01X123098Y489325D02*
Y477598D01*
X121500Y476000D01*
X83000D01*
G01X549663Y161580D02*
X531443Y179800D01*
X458200D01*
X449500Y188500D01*
X268000D01*
X217500Y138000D01*
X145000D01*
X121904Y114904D01*
Y97723D01*
X120476Y96294D01*
Y94554D01*
X121904Y93126D01*
Y91374D01*
X120600Y90070D01*
Y88330D01*
X121904Y87026D01*
Y83596D01*
X136000Y69500D01*
Y64000D01*
X129500Y57500D01*
X125951D01*
X121478Y61973D01*
G01X111900Y97043D02*
Y78790D01*
X119446Y71243D01*
G01X121241Y133094D02*
X121094D01*
X117018Y129018D01*
Y105035D01*
G01X150500Y176000D02*
X139500D01*
X125000Y161500D01*
X115500D01*
G01X106569Y190431D02*
Y187496D01*
G01X105000Y337500D02*
X125500Y358000D01*
X130500D01*
G01X118160Y357309D02*
X115440Y360029D01*
X110708D01*
G01D02*
Y360824D01*
X106997Y364535D01*
Y369996D01*
X127500Y390500D01*
X131830D01*
X138845Y397515D01*
G01X117500Y366500D02*
Y369000D01*
X122000Y373500D01*
G01X141603Y394757D02*
X124146Y377300D01*
X122300D01*
X115000Y370000D01*
Y369500D01*
G01X144432Y391929D02*
X123000Y370498D01*
Y366000D01*
G01X136017Y400344D02*
X128673Y393000D01*
X126606D01*
X118606Y385000D01*
X106986D01*
X103743Y381757D01*
G01X143017Y393343D02*
X124174Y374500D01*
X123000D01*
X122000Y373500D01*
G01X140189Y396172D02*
X140172D01*
X122500Y378500D01*
X118500D01*
G01X137431Y420425D02*
X127000Y430856D01*
Y431000D01*
X124500Y433500D01*
Y447303D01*
X156997Y479800D01*
X375080D01*
X381480Y473400D01*
X393297D01*
X399697Y467000D01*
X491500D01*
G01X134673Y417668D02*
Y417827D01*
X130500Y422000D01*
Y424000D01*
X123300Y431200D01*
Y447800D01*
X156500Y481000D01*
X375577D01*
X381977Y474600D01*
X431900D01*
X432000Y474500D01*
G01X134500Y562487D02*
X125013D01*
G01X124851Y558649D02*
X125000Y558798D01*
Y562500D01*
X125013Y562487D01*
G01D02*
X116784D01*
G01X121878Y585645D02*
X115645D01*
X108500Y578500D01*
Y565500D01*
X110747Y563253D01*
Y562549D01*
G01X116784Y570952D02*
Y574284D01*
X117000Y574500D01*
G01X125850Y111000D02*
X125700Y110850D01*
Y82497D01*
X138197Y70000D01*
X179500D01*
X181558Y67942D01*
X187039D01*
G01X136400Y119500D02*
X151900Y135000D01*
X180136D01*
X189005Y126131D01*
X190369D01*
G01X179159Y118182D02*
Y111659D01*
X175500Y108000D01*
X130000D01*
G01X130512Y135126D02*
X130626D01*
X136500Y141000D01*
Y145203D01*
X147225Y155929D01*
G01X149836Y214497D02*
X144000Y220333D01*
Y225968D01*
X140825Y229143D01*
G01X144304Y232622D02*
X144378D01*
X149000Y228000D01*
Y220500D01*
X156728Y212772D01*
Y211924D01*
X154569Y209765D01*
G01X163099Y383585D02*
X177000Y369684D01*
Y349000D01*
X143000Y315000D01*
X129376D01*
X128680Y314304D01*
G01X147189Y389171D02*
X130500Y372482D01*
Y358000D01*
G01X148603Y387757D02*
X133000Y372154D01*
Y355000D01*
X135000Y353000D01*
G01X145775Y390586D02*
X127000Y371810D01*
Y365500D01*
G01X138845Y421840D02*
X126100Y434585D01*
Y447206D01*
X157494Y478600D01*
X374583D01*
X380983Y472200D01*
X392800D01*
X401000Y464000D01*
Y461000D01*
G01X140189Y423183D02*
X127300Y436072D01*
Y446709D01*
X157991Y477400D01*
X374086D01*
X380486Y471000D01*
X391000D01*
X398000Y464000D01*
Y463500D01*
G01X148603Y431598D02*
Y431897D01*
X140500Y440000D01*
Y451423D01*
X160477Y471400D01*
X371600D01*
X397000Y446000D01*
X430000D01*
X447000Y429000D01*
X472000D01*
X492500Y449500D01*
X504500D01*
G01X144432Y427426D02*
X131000Y440857D01*
Y447014D01*
X158986Y475000D01*
X373091D01*
X395091Y453000D01*
X442500D01*
X451000Y461500D01*
X483000D01*
G01X147189Y430184D02*
X134500Y442873D01*
Y447120D01*
X159980Y472600D01*
X372097D01*
X397197Y447500D01*
X441000D01*
G01X143017Y426012D02*
X161029Y408000D01*
X189500D01*
X190500Y407000D01*
Y406400D01*
G01X141603Y424597D02*
X128500Y437700D01*
Y446212D01*
X158488Y476200D01*
X373588D01*
X379989Y469800D01*
X382700D01*
X388000Y464500D01*
G01X151361Y434355D02*
X151144D01*
X146487Y439013D01*
Y449394D01*
X155093Y458000D01*
X186500D01*
G01X149947Y432941D02*
Y433053D01*
X143000Y440000D01*
Y452226D01*
X160974Y470200D01*
X249300D01*
X257500Y462000D01*
G01X136703Y555902D02*
Y555203D01*
X134500Y553000D01*
Y551000D01*
X144000Y541500D01*
Y510500D01*
X154000Y500500D01*
X167941D01*
X171113Y503672D01*
X171692D01*
G01X143912Y560513D02*
X145000Y561601D01*
Y571000D01*
X134293Y581707D01*
X129476D01*
G01X134500Y570952D02*
Y575000D01*
G01X552668Y101332D02*
X555168D01*
X556500Y100000D01*
Y80000D01*
X550000Y73500D01*
X519910D01*
X514810Y78600D01*
X478506D01*
X473800Y83306D01*
Y96594D01*
X469594Y100800D01*
X445791D01*
X430191Y116400D01*
X301567D01*
X259967Y74800D01*
X226827D01*
X225627Y76000D01*
X165000D01*
X164500Y75500D01*
G01X152389Y101332D02*
X152395D01*
X157863Y106800D01*
X229700D01*
X234200Y102300D01*
X284073D01*
X300573Y118800D01*
X431185D01*
X444685Y105300D01*
X485152D01*
X489120Y101332D01*
X489124D01*
G01X213809D02*
X166832D01*
X166500Y101000D01*
X164500D01*
G01X157000Y176000D02*
X165500D01*
X176500Y165000D01*
X242803D01*
X267503Y189700D01*
X449997D01*
X458697Y181000D01*
X554000D01*
X572000Y163000D01*
X598500D01*
X601000Y165500D01*
Y172500D01*
X596238Y177262D01*
Y179031D01*
G01X169000Y192000D02*
X165000D01*
X147500Y209500D01*
Y212161D01*
X149836Y214497D01*
G01X498500Y189000D02*
X495000Y192500D01*
X268000D01*
X267600Y192100D01*
X266508D01*
X261408Y187000D01*
X247000D01*
X242097Y191903D01*
X216373D01*
X216370Y191900D01*
X206130D01*
X206030Y192000D01*
X169000D01*
G01X525500Y222500D02*
Y201500D01*
X520100Y196100D01*
X168233D01*
X154569Y209765D01*
G01X155700Y220360D02*
X161140D01*
X172000Y209500D01*
X187000D01*
X191500Y214000D01*
Y218500D01*
G01X167426Y232087D02*
X156455Y243059D01*
X154741D01*
G01X173290Y237950D02*
X167426Y232087D01*
G01X161563Y226224D02*
X157287Y230500D01*
X153500D01*
X147899Y236101D01*
X147783D01*
G01X161563Y226224D02*
X155700Y220360D01*
G01X158662Y324533D02*
X165433D01*
X181400Y340500D01*
G01X165928Y386414D02*
X180989Y371352D01*
Y368698D01*
G01X167271Y387757D02*
X169164Y385864D01*
Y385228D01*
X169267Y385125D01*
Y384929D01*
X169296Y384859D01*
Y384810D01*
X180600Y373506D01*
Y373438D01*
X193538Y360500D01*
X195000D01*
G01X164513Y384999D02*
X178200Y371313D01*
Y366800D01*
X187500Y357500D01*
X192500D01*
G01X168685Y389171D02*
X174000Y383856D01*
Y383500D01*
G01X152775Y435770D02*
X152721Y435824D01*
Y436173D01*
X148887Y440007D01*
Y448400D01*
X156087Y455600D01*
X188100D01*
X189000Y456500D01*
Y460500D01*
G01X199620Y449457D02*
X193996D01*
X191500Y445500D01*
X178486D01*
X165928Y432941D01*
G01X168685Y430184D02*
Y430185D01*
X179750Y441250D01*
G01X199620Y444181D02*
X179878D01*
X167438Y431741D01*
X167414D01*
X167271Y431598D01*
G01X177199Y64712D02*
X183288D01*
X185500Y62500D01*
X251000D01*
X260900Y72400D01*
X260961D01*
X302561Y114000D01*
X429197D01*
X444797Y98400D01*
X468600D01*
X471400Y95600D01*
Y82312D01*
X489000Y64712D01*
X513934D01*
G01X187039Y67942D02*
X206442D01*
X213300Y74800D01*
X225130D01*
X226330Y73600D01*
X260464D01*
X302064Y115200D01*
X429694D01*
X445294Y99600D01*
X469097D01*
X472600Y96097D01*
Y82809D01*
X478009Y77400D01*
X514313D01*
X523771Y67942D01*
X523774D01*
G01X188999Y126132D02*
X190368D01*
X190369Y126131D01*
G01X525734Y126132D02*
Y112506D01*
X525740Y112500D01*
Y110740D01*
X522500Y107500D01*
X444183D01*
X431683Y120000D01*
X300076D01*
X283576Y103500D01*
X234697D01*
X229697Y108500D01*
X218000D01*
X200369Y126131D01*
X190369D01*
G01X185140Y167500D02*
X185640Y167000D01*
X196000D01*
G01X175500Y241000D02*
X173290Y238790D01*
Y237950D01*
G01X524500Y250500D02*
X521900Y253100D01*
X456403D01*
X436103Y232800D01*
X265503D01*
X242803Y255500D01*
X184000D01*
G01X544650Y316970D02*
Y303650D01*
X526500Y285500D01*
Y257500D01*
X524500Y255500D01*
X457106D01*
X435606Y234000D01*
X266000D01*
X236008Y263992D01*
X182000D01*
G01X271542Y341102D02*
X270398D01*
X267000Y344500D01*
X266350D01*
X265250Y343400D01*
X259006D01*
X249606Y334000D01*
X219000D01*
X202750Y350250D01*
X193750D01*
X190983Y347483D01*
Y345517D01*
X193206Y343294D01*
X193504D01*
G01X170099Y390586D02*
X177000Y383685D01*
Y378803D01*
X181800Y374003D01*
X188803Y367000D01*
X190500D01*
G01X171443Y391929D02*
X178200Y385172D01*
Y379300D01*
X183000Y374500D01*
X188000Y369500D01*
X200500D01*
X223000Y392000D01*
X247500D01*
X255500Y384000D01*
Y383500D01*
G01X175686Y396172D02*
X175828D01*
X199000Y373000D01*
X202303D01*
X222503Y393200D01*
X251800D01*
X265500Y379500D01*
G01X172857Y393343D02*
X179500Y386700D01*
Y381500D01*
X181000Y380000D01*
G01X174271Y394757D02*
Y394758D01*
X182000Y387029D01*
Y384500D01*
G01X298930Y388454D02*
Y377930D01*
X297000Y376000D01*
X275500D01*
X238500Y413000D01*
X185500D01*
X183500Y411000D01*
X175049D01*
X174449Y411600D01*
Y413602D01*
X179858Y419011D01*
G01X181201Y401687D02*
X187888Y395000D01*
X195879D01*
X198818Y395000D01*
X198819Y395000D01*
X201500D01*
X204500Y398000D01*
G01X171443Y427426D02*
X182017Y438000D01*
X222303D01*
X229203Y431100D01*
X254100D01*
X255500Y432500D01*
G01X303930Y388454D02*
Y393570D01*
X295700Y401800D01*
Y410997D01*
X279197Y427500D01*
X182690D01*
X177029Y421840D01*
G01X293930Y388454D02*
X294500Y389023D01*
Y410500D01*
X278700Y426300D01*
X184300D01*
X178443Y420443D01*
Y420425D01*
G01X288930Y388454D02*
Y399430D01*
X289900Y400400D01*
Y410509D01*
X276509Y423900D01*
X187433D01*
X181201Y417668D01*
G01X278930Y388454D02*
Y393930D01*
X287500Y402500D01*
Y409515D01*
X275514Y421500D01*
X190690D01*
X184029Y414839D01*
G01X283930Y388454D02*
Y396430D01*
X288700Y401200D01*
Y410012D01*
X276012Y422700D01*
X189062D01*
X182615Y416254D01*
G01X172857Y426012D02*
Y426357D01*
X182000Y435500D01*
X221000D01*
X226600Y429900D01*
X305600D01*
X335400Y400100D01*
X365403D01*
X392803Y427500D01*
X473500D01*
X487500Y441500D01*
G01X175686Y423183D02*
X176183D01*
X181700Y428700D01*
X305103D01*
X334903Y398900D01*
X365900D01*
X393000Y426000D01*
X525300D01*
X525800Y425500D01*
G01X174271Y424597D02*
X174597D01*
X181500Y431500D01*
G01X170099Y428769D02*
X181658Y440328D01*
X184493D01*
G01X177340Y512159D02*
Y509100D01*
X177941Y508500D01*
X181000D01*
G01X177340Y520624D02*
Y524340D01*
G01X182434Y535317D02*
X182252Y535500D01*
X177500D01*
X171304Y529304D01*
Y512221D01*
G01X204468Y510185D02*
Y510969D01*
X207500Y514000D01*
Y518500D01*
X200000Y526000D01*
Y529500D01*
X198121Y531379D01*
X190032D01*
G01X205000Y57500D02*
X218000D01*
X220000Y59500D01*
G01X458000Y185500D02*
X452600Y190900D01*
X267006D01*
X243106Y167000D01*
X196000D01*
G01X207000Y194000D02*
X207800Y194800D01*
X266906D01*
X267006Y194900D01*
X543973D01*
X555536Y206464D01*
Y213572D01*
G01X269097Y336832D02*
X264241Y339613D01*
X263864Y341000D01*
X260000D01*
X250600Y331600D01*
X218006D01*
X201756Y347850D01*
X194744D01*
X194233Y347339D01*
Y346490D01*
X194350Y346373D01*
G01X206313Y449457D02*
X213957D01*
X214000Y449500D01*
G01X219750Y447750D02*
X215500Y443500D01*
X212500D01*
X212000Y444000D01*
G01X206313Y444181D02*
X206494Y444000D01*
X212000D01*
G01X250227Y496157D02*
Y501273D01*
X246500Y505000D01*
X222000D01*
X215000Y498000D01*
X201000D01*
X195767Y503233D01*
Y504082D01*
X197260Y505574D01*
G01X195056Y512159D02*
Y509100D01*
X194456Y508500D01*
X192500D01*
G01X195056Y520624D02*
Y524444D01*
G01X234500Y227000D02*
X235000D01*
G01X223700Y458500D02*
X220000D01*
X214000Y452500D01*
Y449500D01*
G01X386000Y425500D02*
Y423000D01*
X364300Y401300D01*
X336700D01*
X279700Y458300D01*
X256700D01*
X251000Y464000D01*
X236000D01*
X219750Y447750D01*
G01X223700Y458500D02*
X230400Y465200D01*
X251497D01*
X257197Y459500D01*
X278697D01*
X280197Y459500D01*
X337197Y402500D01*
X363500D01*
X382500Y421500D01*
Y427000D01*
X385250Y429750D01*
G01X525000Y191500D02*
X522800Y193700D01*
X267503D01*
X267403Y193600D01*
X259600D01*
X256500Y190500D01*
G01X489124Y89512D02*
Y81624D01*
X488500Y81000D01*
X479500D01*
X475000Y85500D01*
Y97091D01*
X470091Y102000D01*
X446288D01*
X430688Y117600D01*
X301070D01*
X284470Y101000D01*
X281500D01*
X260500Y80000D01*
G01X258493Y66672D02*
X259672D01*
X305000Y112000D01*
X429500D01*
X444500Y97000D01*
X465500D01*
X468000Y94500D01*
G01X281337Y496157D02*
X280994Y496500D01*
X270500D01*
X265039Y491039D01*
X258219D01*
G01X313487Y496157D02*
X313330Y496000D01*
X304500D01*
X299539Y491039D01*
X289329D01*
G01X321479D02*
X333039D01*
X338157Y496157D01*
X347471D01*
G01X381447D02*
X372157D01*
X367039Y491039D01*
X355463D01*
G01X426500Y399500D02*
X401500D01*
G01X436352Y457000D02*
X433852Y454500D01*
X398000D01*
X388000Y464500D01*
G01X389439Y491039D02*
X399539D01*
X404657Y496157D01*
X413593D01*
G01X444676D02*
X436157D01*
X431039Y491039D01*
X421585D01*
G01X446404Y269154D02*
Y274378D01*
G01D02*
Y279602D01*
G01X463369Y285189D02*
X463008Y284827D01*
X453096D01*
G01X461061Y315678D02*
X460566Y316173D01*
X453096D01*
G01X464061Y316178D02*
X453101D01*
X453096Y316173D01*
G01X461061Y310678D02*
X460790Y310949D01*
X453096D01*
G01X464061Y311178D02*
X453326D01*
X453096Y310949D01*
G01X450286Y328250D02*
Y335400D01*
X450886Y336000D01*
X461500D01*
G01X452668Y491039D02*
Y487332D01*
X454500Y485500D01*
X492500D01*
X503000Y496000D01*
Y502000D01*
X502102Y502898D01*
Y503672D01*
G01X473606Y280070D02*
X473500Y279965D01*
Y278100D01*
X472900Y277500D01*
X469500D01*
X468724Y276724D01*
Y274146D01*
G01X463369Y282630D02*
X458630D01*
G01X463500Y263000D02*
Y267454D01*
G01D02*
X468724D01*
G01X463369Y287748D02*
X464026Y288404D01*
Y293491D01*
G01Y300184D02*
X469250D01*
G01X504741Y105234D02*
X505000Y104976D01*
Y102500D01*
X504000Y101500D01*
X489292D01*
X489124Y101332D01*
G01X504741Y105234D02*
X505000D01*
X505234Y105000D01*
G01X515894Y118175D02*
X515897Y118178D01*
G01X515894Y118175D02*
X499175D01*
X497500Y116500D01*
G01X515894Y118182D02*
Y118175D01*
G01X514000Y479500D02*
X564000D01*
G01X507750Y512159D02*
X510668D01*
X512009Y513500D01*
G01X511168Y513168D02*
X511500Y513500D01*
X512009D01*
G01X507750Y520624D02*
X507092Y521282D01*
Y524408D01*
G01X512844Y535317D02*
X506317D01*
X503500Y532500D01*
Y529500D01*
X499000Y525000D01*
Y515500D01*
X501713Y512787D01*
Y512221D01*
G01X525500Y222500D02*
X530394Y227393D01*
Y227749D01*
G01D02*
X532143Y226000D01*
X533500D01*
X542500Y235000D01*
X548853D01*
X553433Y239580D01*
G01X530500Y236500D02*
X534518Y232482D01*
X535126D01*
G01D02*
X540144Y237500D01*
X544395D01*
X549954Y243059D01*
G01X556912Y236101D02*
X552311Y231500D01*
X544000D01*
X540581Y228081D01*
Y228027D01*
G01D02*
X544718Y223890D01*
Y223718D01*
G01X527669Y505574D02*
Y504668D01*
X526000Y503000D01*
Y501000D01*
X528000Y499000D01*
X550500D01*
X564000Y512500D01*
Y552658D01*
X562658Y554000D01*
G01X525466Y512159D02*
X521677D01*
X520668Y513168D01*
G01X525466Y520624D02*
X524808Y521282D01*
Y524308D01*
G01X534878Y510185D02*
X537000Y512308D01*
Y519000D01*
X533500Y522500D01*
Y527000D01*
X529121Y531379D01*
X520442D01*
G01X550544Y101332D02*
X552668D01*
G01D02*
X552673Y101327D01*
G01X551696Y152310D02*
X552190D01*
X559000Y145500D01*
X569000D01*
X570000Y144500D01*
Y144393D01*
X576041Y138352D01*
G01X551514Y218094D02*
X555536Y214072D01*
Y213572D01*
G01X544718Y223718D02*
X548000Y227000D01*
G01X544718Y223390D02*
Y223718D01*
G01X563870Y229143D02*
X552821Y218094D01*
X551514D01*
G01X544650Y324844D02*
X572805Y353000D01*
X598500D01*
X614300Y337200D01*
Y283700D01*
X623800Y274200D01*
Y238800D01*
X614000Y229000D01*
X603000D01*
G01X573400Y585645D02*
X567645D01*
X560000Y578000D01*
Y565000D01*
X562269Y562731D01*
Y562549D01*
G01X585916Y97043D02*
Y86916D01*
X575500Y76500D01*
Y67812D01*
X577934Y65378D01*
G01X578074Y129081D02*
X591034Y116121D01*
Y105035D01*
G01X579845Y494444D02*
X572850D01*
X568000Y489594D01*
Y385500D01*
X615500Y338000D01*
Y284197D01*
X625000Y274697D01*
Y238303D01*
X612697Y226000D01*
X591656D01*
X573000Y203270D01*
Y182000D01*
X584500Y170500D01*
X586000D01*
X586044Y170544D01*
X590590D01*
G01X563865Y229143D02*
X563870D01*
G01X568306Y562487D02*
X572987D01*
G01X586022D02*
X586009Y562500D01*
X581500D01*
G01X568306Y570952D02*
Y574306D01*
G01X595434Y560513D02*
X597000Y562079D01*
Y572500D01*
X587793Y581707D01*
X580998D01*
G01X587204Y67410D02*
X587590D01*
X594000Y61000D01*
X646500D01*
X653860Y68359D01*
Y68857D01*
G01X616156Y172446D02*
X615500Y171789D01*
Y167500D01*
X618500Y164500D01*
Y152500D01*
X604000Y138000D01*
Y106970D01*
X603900Y106870D01*
Y105130D01*
X604000Y105030D01*
Y77000D01*
X615500Y65500D01*
X626837D01*
X628292Y66955D01*
G01X596238Y187496D02*
X596000Y187733D01*
Y191165D01*
X595869Y191296D01*
G01X601000Y180000D02*
X600031Y179031D01*
X596238D01*
G01X601332Y202189D02*
X595689D01*
X588000Y194500D01*
Y182500D01*
X590200Y180300D01*
Y179093D01*
G01X587837Y489326D02*
X660119D01*
X664994Y494200D01*
G01X588225Y555902D02*
X587500Y555177D01*
Y550500D01*
X591000Y547000D01*
X602500D01*
X619500Y530000D01*
Y501500D01*
X628702Y492298D01*
X639427D01*
G01X586022Y570952D02*
Y574478D01*
G01X639035Y98600D02*
X633600D01*
X631500Y96500D01*
Y88500D01*
X627000Y84000D01*
Y76408D01*
X627904Y75504D01*
G01X613954Y187496D02*
Y191696D01*
X614758Y192500D01*
G01X613954Y179031D02*
X610600D01*
X609815Y179815D01*
G01X623366Y177057D02*
Y178366D01*
X626500Y181500D01*
Y186000D01*
X619000Y193500D01*
Y196000D01*
X616749Y198251D01*
X608930D01*
G01X633940Y83907D02*
Y87940D01*
X634000Y88000D01*
G01X651656Y75442D02*
X648506D01*
X647282Y74218D01*
G01X633940Y75442D02*
X633998Y75500D01*
X636936D01*
X638218Y74218D01*
G01X661068Y73468D02*
Y74568D01*
X663000Y76500D01*
Y87000D01*
X655338Y94662D01*
X646632D01*
G01X645075Y500785D02*
X648286D01*
X649000Y501500D01*
G01X650169Y523944D02*
X644444D01*
X640000Y519500D01*
Y510500D01*
X637000Y507500D01*
Y504000D01*
X639038Y501962D01*
Y500848D01*
G01X645075Y509250D02*
Y513925D01*
X645000Y514000D01*
G01X651656Y83907D02*
Y87948D01*
X651708Y88000D01*
G01X662791Y500785D02*
X659214D01*
X657846Y502154D01*
G01X672203Y498811D02*
Y499203D01*
X675000Y502000D01*
Y509500D01*
X664500Y520000D01*
X657772D01*
X657767Y520006D01*
G01X662791Y509250D02*
Y513709D01*
M02*
